<svg xmlns="http://www.w3.org/2000/svg" viewBox="0 0 1600 865" width="1600" height="865">
<rect x="0.0" y="0.0" width="1600.0" height="865.0" rx="0" fill="#f6f7f9" stroke="none" opacity="1" />
<text x="250.0" y="52.0" font-family="Arial, Helvetica, sans-serif" font-size="24" font-weight="700" fill="#1f2933" text-anchor="start">Reading Gaze Pilot</text>
<text x="250.0" y="78.0" font-family="Arial, Helvetica, sans-serif" font-size="14" font-weight="400" fill="#52606d" text-anchor="start">Probe</text>
<line x1="250.0" y1="100" x2="1350.0" y2="100" stroke="#d9dee7" />
<rect x="1160.0" y="42.0" width="80.0" height="34.0" rx="6" fill="#23395d" stroke="#23395d" opacity="1" />
<text x="1200.0" y="63.0" font-family="Arial, Helvetica, sans-serif" font-size="14" font-weight="400" fill="#fff" text-anchor="middle">Start</text>
<rect x="1250.0" y="42.0" width="100.0" height="34.0" rx="6" fill="#7b8794" stroke="#7b8794" opacity="0.45" />
<text x="1300.0" y="63.0" font-family="Arial, Helvetica, sans-serif" font-size="14" font-weight="400" fill="#fff" text-anchor="middle">Export CSV</text>
<text x="250.0" y="847.0" font-family="Arial, Helvetica, sans-serif" font-size="13" font-weight="400" fill="#52606d" text-anchor="start">probe / probe_trial_2</text>
<rect x="250.0" y="124.0" width="1100.0" height="683.0" rx="8" fill="#fff" stroke="#d9dee7" opacity="1" />
<text x="274.0" y="166.0" font-family="Arial, Helvetica, sans-serif" font-size="20" font-weight="700" fill="#1f2933" text-anchor="start">Quick Check</text>
<text x="274.0" y="210.0" font-family="Arial, Helvetica, sans-serif" font-size="14" font-weight="400" fill="#323f4b" text-anchor="start">Just before this screen, were you thinking about something unrelated to the</text>
<text x="274.0" y="232.0" font-family="Arial, Helvetica, sans-serif" font-size="14" font-weight="400" fill="#323f4b" text-anchor="start">reading?</text>
<rect x="274.0" y="258.0" width="360.0" height="34.0" rx="6" fill="#fff" stroke="#cbd2d9" opacity="1" />
<text x="286.0" y="280.0" font-family="Arial, Helvetica, sans-serif" font-size="14" font-weight="400" fill="#52606d" text-anchor="start">No / Yes</text>
<text x="274.0" y="334.0" font-family="Arial, Helvetica, sans-serif" font-size="14" font-weight="400" fill="#323f4b" text-anchor="start">Difficulty</text>
<line x1="274.0" y1="362.0" x2="634.0" y2="362.0" stroke="#9aa5b1" stroke-width="5" stroke-linecap="round" />
<text x="274.0" y="410.0" font-family="Arial, Helvetica, sans-serif" font-size="14" font-weight="400" fill="#323f4b" text-anchor="start">Familiarity</text>
<line x1="274.0" y1="438.0" x2="634.0" y2="438.0" stroke="#9aa5b1" stroke-width="5" stroke-linecap="round" />
<path d="M 1360.7 139.9 L 1332.0 135.3 L 1307.6 131.6 L 1183.0 120.5 L 1078.0 111.4 L 781.6 122.8 L 679.0 127.1 L 495.6 158.7 L 334.5 195.1 L 207.6 225.6 L 112.1 224.4 L 21.1 242.5 L -45.4 247.0 L -115.5 244.3 L -141.9 238.3 L -182.6 218.5 L -206.4 212.1 L -198.3 200.9 L -184.8 191.4 L -194.2 192.6 L -171.9 205.6 L -149.1 217.0 L -159.5 219.8 L 154.5 207.8 L 529.0 172.3 L 661.8 165.8 L 766.4 160.8 L 830.3 168.8 L 844.6 185.0 L 785.8 195.2 L 727.6 203.9 L 655.5 202.6 L 699.9 222.1 L 579.5 254.1 L 468.3 264.1 L 360.0 266.8 L 351.1 270.8 L 439.0 271.8 L 522.9 269.3 L 466.7 236.8 L 430.5 218.7 L 442.5 231.6 L 457.8 220.4 L 606.7 225.1 L 646.5 251.3 L 568.3 274.0 L 499.4 293.0 L 591.6 315.1 L 555.1 330.3 L 520.6 329.3 L 467.4 335.6 L 493.4 327.4 L 335.6 267.6 L 282.7 245.4 L 240.5 227.0 L 208.1 212.1 L 139.2 201.9 L 139.0 184.2 L 143.0 170.1 L 192.9 157.1 L 312.5 157.1 L 355.7 165.4 L 350.1 179.3 L 344.4 191.7 L 363.6 201.3 L 379.3 209.6 L 388.7 207.3 L 424.8 215.3 L 408.4 219.1 L 380.5 221.6 L 355.9 223.3 L 262.4 224.7 L 207.0 202.4 L 145.8 187.4 L 78.5 169.1 L 24.1 153.9 L 26.9 173.9 L 32.5 191.4 L 106.0 187.1 L 171.3 183.4 L 257.0 211.3 L 363.1 250.2 L 465.1 269.0 L 473.5 265.6 L 531.7 257.2 L 577.4 249.1 L 610.7 222.4 L 650.1 195.2 L 679.4 172.2 L 673.3 192.1 L 649.6 209.3 L 591.0 217.9 L 567.3 255.7 L 562.7 283.0 L 575.9 312.9 L 586.9 337.2 L 580.8 350.6 L 578.8 356.1 L 587.3 366.7 L 679.9 351.6 L 692.5 344.2 L 704.7 348.6 L 713.5 351.8 L 753.9 362.6 L 718.6 359.5 L 652.5 341.3 L 595.1 325.4 L 606.3 327.7 L 598.3 329.4 L 595.4 316.9 L 593.7 306.3 L 577.7 297.8 L 540.9 304.8 L 510.3 311.3 L 512.0 315.8 L 487.9 314.0 L 468.7 312.5 L 382.6 294.8 L 387.3 298.2 L 385.9 294.4 L 385.3 291.3 L 386.5 288.9 L 410.5 277.5 L 432.1 268.1 L 447.8 262.6 L 453.7 273.6 L 469.9 277.2 L 426.8 269.9 L 446.8 288.1 L 465.0 289.5 L 482.6 294.0 L 508.3 298.7 L 504.4 305.2 L 495.8 306.6 L 487.8 307.4 L 507.8 316.3 L 547.3 323.6 L 536.7 333.7 L 576.6 330.2 L 609.9 326.6 L 600.0 318.9 L 605.1 301.6 L 564.8 298.3 L 528.2 299.1 L 513.5 304.3 L 493.5 290.6 L 505.2 288.1 L 490.1 271.8 L 433.5 269.5 L 453.2 282.2 L 471.3 293.5 L 464.1 296.7 L 470.2 314.0 L 492.4 329.2 L 501.1 332.6 L 549.6 315.2 L 554.6 337.7 L 556.2 358.1 L 584.2 327.3 L 607.2 300.4 L 600.0 307.2 L 579.6 319.7 L 539.8 322.4 L 533.4 330.2 L 460.2 315.0 L 445.6 314.6 L 434.6 314.3 L 421.2 312.8 L 398.1 307.2 L 379.8 302.6 L 386.5 302.8 L 393.9 303.1 L 393.0 292.9 L 398.0 297.9 L 398.8 299.4 L 413.5 292.3 L 426.4 286.4 L 442.0 283.4 L 455.1 281.2 L 475.9 279.6 L 493.0 278.4 L 492.3 285.4 L 496.3 282.8 L 491.6 291.7 L 505.7 272.8 L 517.4 290.9 L 526.8 306.6 L 537.6 318.8 L 550.7 345.6 L 552.4 359.5 L 544.4 365.0 L 536.9 368.7 L 485.8 353.6 L 471.3 360.0 L 459.5 365.2 L 470.4 362.8 L 480.4 360.4 L 478.7 359.8 L 477.5 359.1 L 449.7 333.7 L 449.9 319.7 L 450.7 308.2 L 466.8 306.5 L 443.8 282.3 L 424.2 262.2 L 415.7 252.5 L 409.2 245.2 L 401.3 239.8 L 395.3 236.3 L 396.2 247.5 L 397.8 258.0 L 405.3 269.4 L 421.6 273.8 L 435.8 277.6 L 421.0 277.9 L 408.2 278.1 L 410.6 286.2 L 432.6 284.4 L 451.4 282.7 L 454.8 280.8 L 442.9 272.3 L 416.8 277.9 L 407.5 281.1 L 411.7 300.6 L 412.5 274.7 L 402.2 299.1 L 393.5 319.0 L 384.6 319.6 L 377.4 319.5 L 382.1 324.4 L 407.9 319.8 L 425.2 310.7 L 419.9 319.2 L 416.1 322.2 L 412.6 324.6 L 424.9 317.2 L 428.2 309.9 L 407.3 299.8 L 419.0 296.5 L 428.3 299.8 L 441.3 300.7 L 446.6 291.5 L 450.8 283.8 L 456.9 269.1 L 442.6 262.1 L 444.6 284.1 L 450.1 301.0 L 461.1 309.0 L 469.6 303.0 L 476.7 308.6 L 482.4 313.3 L 477.2 313.1 L 479.2 319.5 L 478.9 319.7 L 478.4 319.6 L 485.5 325.0 L 491.3 329.4 L 490.2 324.0 L 502.2 311.9 L 506.1 316.4 L 509.1 320.3 L 528.0 322.8 L 543.6 324.9 L 553.1 324.2 L 534.2 340.5 L 517.2 354.2 L 495.8 346.7 L 482.1 337.1 L 479.2 336.4 L 477.2 321.0 L 486.9 288.5 L 495.6 261.1 L 498.9 248.2 L 493.8 255.6 L 481.1 267.0 L 529.2 317.8 L 783.6 437.3 L 841.0 522.8 L 762.8 507.4 L 637.5 486.6 L 561.0 475.2 L 509.4 466.0 L 466.7 456.9 L 477.5 402.6 L 438.0 394.2 L 408.5 399.2 L 370.2 432.7 L 378.2 461.9 L 385.0 454.4 L 436.9 435.3 L 460.0 388.5 L 659.6 403.6 L 819.3 418.2 L 969.0 429.8 L 862.1 444.2 L 712.6 438.5 L 612.2 438.9 L 512.3 448.3 L 395.4 421.3 L 298.4 398.0 L 276.4 384.0 L 298.4 380.5 L 321.7 378.2 L 338.4 404.2 L 355.3 426.9 L 366.4 392.8 L 359.5 384.7 L 367.0 360.0 L 374.3 339.4 L 406.2 320.8 L 433.7 306.0 L 458.2 281.9 L 412.7 297.3 L 397.4 311.8 L 370.6 395.1 L 390.7 441.3 L 386.5 471.9 L 383.1 496.4 L 394.6 514.9 L 397.8 484.2 L 400.5 456.1 L 407.4 454.1 L 412.0 423.7 L 388.9 375.3 L 391.3 341.3 L 405.9 311.0 L 388.5 278.1 L 373.5 251.8 L 395.0 245.7 L 414.7 240.8 L 413.8 269.6 L 420.5 267.3 L 450.1 291.6 L 467.2 306.0 L 472.5 316.1 L 476.2 324.8 L 472.1 304.2 L 459.2 290.6 L 446.9 273.2 L 435.9 277.0 L 434.2 281.0 L 443.1 289.9 L 436.3 283.4 L 446.4 290.3 L 455.1 296.4 L 470.2 291.3 L 461.6 289.0 L 455.7 287.6 L 450.5 286.5 L 449.6 305.8 L 416.3 303.6 L 361.0 335.5 L 363.6 360.8 L 367.1 381.8 L 355.2 405.4 L 346.0 424.4 L 336.6 427.9 L 340.1 444.0 L 351.9 448.5 L 354.8 458.8 L 362.1 447.2 L 341.0 422.4 L 355.4 405.8 L 346.9 382.5 L 328.8 363.1 L 350.8 346.8 L 360.9 342.5 L 369.5 339.8 L 378.6 333.3 L 409.3 340.6 L 478.4 354.0 L 485.9 348.3 L 475.2 353.9 L 462.1 362.5 L 456.9 375.1 L 438.1 394.4 L 424.2 401.6 L 412.2 407.2 L 404.7 411.9 L 404.6 391.2 L 425.3 370.3 L 426.9 341.6 L 407.9 314.3 L 397.5 292.9 L 399.2 289.4 L 401.1 287.7 L 404.5 286.9 L 407.6 288.0 L 386.5 290.3 L 387.7 302.2 L 401.8 315.6 L 415.3 329.3 L 421.8 344.8 L 423.1 358.3 L 436.5 367.9 L 431.4 384.1 L 426.6 397.2 L 435.2 407.4 L 436.7 418.4 L 409.5 409.2 L 388.5 411.7 L 392.6 408.1 L 384.9 400.7 L 382.0 389.4 L 397.2 383.5 L 397.0 374.0 L 381.8 340.9 L 393.3 353.7 L 409.6 359.0 L 405.3 336.9 L 412.1 317.6 L 417.7 301.7 L 435.1 309.1 L 449.6 316.4 L 461.4 323.2 L 475.2 325.1 L 486.1 326.9 L 495.7 319.4 L 508.0 319.8 L 518.2 326.0 L 530.6 347.8 L 498.0 352.9 L 469.2 357.0 L 457.9 358.2 L 467.5 379.1 L 465.1 403.5 L 491.7 434.4 L 497.9 428.2 L 517.5 411.5 L 519.2 406.6 L 543.0 396.8 L 541.0 391.2 L 553.8 385.4 L 571.9 385.1 L 586.4 385.0 L 591.0 366.3 L 561.4 367.0 L 547.2 379.3 L 501.1 376.9 L 488.1 378.9 L 482.1 393.4 L 432.3 399.2 L 374.4 374.4 L 326.8 353.0 L 301.1 359.8 L 263.3 384.9 L 270.9 417.6 L 265.6 421.8 L 252.9 420.8 L 244.0 419.2" fill="none" stroke="#2563eb" stroke-width="2" stroke-opacity="0.35" />
<circle cx="1360.7" cy="139.9" r="9" fill="#2563eb" fill-opacity="0.82" stroke="#fff" stroke-width="2" />
<text x="1360.7" y="143.9" font-family="Arial, Helvetica, sans-serif" font-size="8" font-weight="700" fill="#fff" text-anchor="middle">1</text>
<circle cx="-171.9" cy="205.6" r="9" fill="#2d60e2" fill-opacity="0.82" stroke="#fff" stroke-width="2" />
<text x="-171.9" y="209.6" font-family="Arial, Helvetica, sans-serif" font-size="8" font-weight="700" fill="#fff" text-anchor="middle">2</text>
<circle cx="466.7" cy="236.8" r="9" fill="#355eda" fill-opacity="0.82" stroke="#fff" stroke-width="2" />
<text x="466.7" y="240.8" font-family="Arial, Helvetica, sans-serif" font-size="8" font-weight="700" fill="#fff" text-anchor="middle">3</text>
<circle cx="192.9" cy="157.1" r="9" fill="#3d5bd1" fill-opacity="0.82" stroke="#fff" stroke-width="2" />
<text x="192.9" y="161.1" font-family="Arial, Helvetica, sans-serif" font-size="8" font-weight="700" fill="#fff" text-anchor="middle">4</text>
<circle cx="106.0" cy="187.1" r="9" fill="#4558c9" fill-opacity="0.82" stroke="#fff" stroke-width="2" />
<text x="106.0" y="191.1" font-family="Arial, Helvetica, sans-serif" font-size="8" font-weight="700" fill="#fff" text-anchor="middle">5</text>
<circle cx="587.3" cy="366.7" r="9" fill="#4d56c0" fill-opacity="0.82" stroke="#fff" stroke-width="2" />
<text x="587.3" y="370.7" font-family="Arial, Helvetica, sans-serif" font-size="8" font-weight="700" fill="#fff" text-anchor="middle">6</text>
<circle cx="382.6" cy="294.8" r="9" fill="#5553b8" fill-opacity="0.82" stroke="#fff" stroke-width="2" />
<text x="382.6" y="298.8" font-family="Arial, Helvetica, sans-serif" font-size="8" font-weight="700" fill="#fff" text-anchor="middle">7</text>
<circle cx="547.3" cy="323.6" r="9" fill="#5d50af" fill-opacity="0.82" stroke="#fff" stroke-width="2" />
<text x="547.3" y="327.6" font-family="Arial, Helvetica, sans-serif" font-size="8" font-weight="700" fill="#fff" text-anchor="middle">8</text>
<circle cx="554.6" cy="337.7" r="9" fill="#654ea6" fill-opacity="0.82" stroke="#fff" stroke-width="2" />
<text x="554.6" y="341.7" font-family="Arial, Helvetica, sans-serif" font-size="8" font-weight="700" fill="#fff" text-anchor="middle">9</text>
<circle cx="413.5" cy="292.3" r="9" fill="#6d4b9e" fill-opacity="0.82" stroke="#fff" stroke-width="2" />
<text x="413.5" y="296.3" font-family="Arial, Helvetica, sans-serif" font-size="8" font-weight="700" fill="#fff" text-anchor="middle">10</text>
<circle cx="470.4" cy="362.8" r="9" fill="#754895" fill-opacity="0.82" stroke="#fff" stroke-width="2" />
<text x="470.4" y="366.8" font-family="Arial, Helvetica, sans-serif" font-size="8" font-weight="700" fill="#fff" text-anchor="middle">11</text>
<circle cx="408.2" cy="278.1" r="9" fill="#7d468d" fill-opacity="0.82" stroke="#fff" stroke-width="2" />
<text x="408.2" y="282.1" font-family="Arial, Helvetica, sans-serif" font-size="8" font-weight="700" fill="#fff" text-anchor="middle">12</text>
<circle cx="412.6" cy="324.6" r="9" fill="#844384" fill-opacity="0.82" stroke="#fff" stroke-width="2" />
<text x="412.6" y="328.6" font-family="Arial, Helvetica, sans-serif" font-size="8" font-weight="700" fill="#fff" text-anchor="middle">13</text>
<circle cx="478.4" cy="319.6" r="9" fill="#8c417c" fill-opacity="0.82" stroke="#fff" stroke-width="2" />
<text x="478.4" y="323.6" font-family="Arial, Helvetica, sans-serif" font-size="8" font-weight="700" fill="#fff" text-anchor="middle">14</text>
<circle cx="481.1" cy="267.0" r="9" fill="#943e73" fill-opacity="0.82" stroke="#fff" stroke-width="2" />
<text x="481.1" y="271.0" font-family="Arial, Helvetica, sans-serif" font-size="8" font-weight="700" fill="#fff" text-anchor="middle">15</text>
<circle cx="969.0" cy="429.8" r="9" fill="#9c3b6b" fill-opacity="0.82" stroke="#fff" stroke-width="2" />
<text x="969.0" y="433.8" font-family="Arial, Helvetica, sans-serif" font-size="8" font-weight="700" fill="#fff" text-anchor="middle">16</text>
<circle cx="397.4" cy="311.8" r="9" fill="#a43962" fill-opacity="0.82" stroke="#fff" stroke-width="2" />
<text x="397.4" y="315.8" font-family="Arial, Helvetica, sans-serif" font-size="8" font-weight="700" fill="#fff" text-anchor="middle">17</text>
<circle cx="450.1" cy="291.6" r="9" fill="#ac3659" fill-opacity="0.82" stroke="#fff" stroke-width="2" />
<text x="450.1" y="295.6" font-family="Arial, Helvetica, sans-serif" font-size="8" font-weight="700" fill="#fff" text-anchor="middle">18</text>
<circle cx="361.0" cy="335.5" r="9" fill="#b43351" fill-opacity="0.82" stroke="#fff" stroke-width="2" />
<text x="361.0" y="339.5" font-family="Arial, Helvetica, sans-serif" font-size="8" font-weight="700" fill="#fff" text-anchor="middle">19</text>
<circle cx="485.9" cy="348.3" r="9" fill="#bc3148" fill-opacity="0.82" stroke="#fff" stroke-width="2" />
<text x="485.9" y="352.3" font-family="Arial, Helvetica, sans-serif" font-size="8" font-weight="700" fill="#fff" text-anchor="middle">20</text>
<circle cx="401.8" cy="315.6" r="9" fill="#c42e40" fill-opacity="0.82" stroke="#fff" stroke-width="2" />
<text x="401.8" y="319.6" font-family="Arial, Helvetica, sans-serif" font-size="8" font-weight="700" fill="#fff" text-anchor="middle">21</text>
<circle cx="412.1" cy="317.6" r="9" fill="#cc2b37" fill-opacity="0.82" stroke="#fff" stroke-width="2" />
<text x="412.1" y="321.6" font-family="Arial, Helvetica, sans-serif" font-size="8" font-weight="700" fill="#fff" text-anchor="middle">22</text>
<circle cx="519.2" cy="406.6" r="9" fill="#d4292f" fill-opacity="0.82" stroke="#fff" stroke-width="2" />
<text x="519.2" y="410.6" font-family="Arial, Helvetica, sans-serif" font-size="8" font-weight="700" fill="#fff" text-anchor="middle">23</text>
<circle cx="244.0" cy="419.2" r="9" fill="#dc2626" fill-opacity="0.82" stroke="#fff" stroke-width="2" />
<text x="244.0" y="423.2" font-family="Arial, Helvetica, sans-serif" font-size="8" font-weight="700" fill="#fff" text-anchor="middle">24</text>
<circle cx="1360.7" cy="139.9" r="13" fill="none" stroke="#16a34a" stroke-width="4" />
<text x="1376.7" y="127.9" font-family="Arial, Helvetica, sans-serif" font-size="11" font-weight="700" fill="#166534" text-anchor="start">START</text>
<circle cx="244.0" cy="419.2" r="13" fill="none" stroke="#dc2626" stroke-width="4" />
<text x="260.0" y="407.2" font-family="Arial, Helvetica, sans-serif" font-size="11" font-weight="700" fill="#991b1b" text-anchor="start">END</text>
<rect x="20.0" y="116.0" width="760.0" height="34.0" rx="6" fill="#ffffff" stroke="#cbd2d9" opacity="0.88" />
<text x="34.0" y="139.0" font-family="Arial, Helvetica, sans-serif" font-size="14" font-weight="400" fill="#1f2933" text-anchor="start">samples=498 duration=10.2s offscreen=2.4% x_sd=174.7 y_sd=74.1</text>
</svg>