<svg xmlns="http://www.w3.org/2000/svg" viewBox="0 0 1600 865" width="1600" height="865">
<rect x="0.0" y="0.0" width="1600.0" height="865.0" rx="0" fill="#f6f7f9" stroke="none" opacity="1" />
<text x="250.0" y="52.0" font-family="Arial, Helvetica, sans-serif" font-size="24" font-weight="700" fill="#1f2933" text-anchor="start">Reading Gaze Pilot</text>
<text x="250.0" y="78.0" font-family="Arial, Helvetica, sans-serif" font-size="14" font-weight="400" fill="#52606d" text-anchor="start">Quiz</text>
<line x1="250.0" y1="100" x2="1350.0" y2="100" stroke="#d9dee7" />
<rect x="1160.0" y="42.0" width="80.0" height="34.0" rx="6" fill="#23395d" stroke="#23395d" opacity="1" />
<text x="1200.0" y="63.0" font-family="Arial, Helvetica, sans-serif" font-size="14" font-weight="400" fill="#fff" text-anchor="middle">Start</text>
<rect x="1250.0" y="42.0" width="100.0" height="34.0" rx="6" fill="#7b8794" stroke="#7b8794" opacity="0.45" />
<text x="1300.0" y="63.0" font-family="Arial, Helvetica, sans-serif" font-size="14" font-weight="400" fill="#fff" text-anchor="middle">Export CSV</text>
<text x="250.0" y="847.0" font-family="Arial, Helvetica, sans-serif" font-size="13" font-weight="400" fill="#52606d" text-anchor="start">quiz / quiz</text>
<rect x="250.0" y="124.0" width="1100.0" height="683.0" rx="8" fill="#fff" stroke="#d9dee7" opacity="1" />
<text x="274.0" y="166.0" font-family="Arial, Helvetica, sans-serif" font-size="20" font-weight="700" fill="#1f2933" text-anchor="start">Comprehension</text>
<rect x="274.0" y="190.0" width="680.0" height="68.0" rx="6" fill="#fff" stroke="#d9dee7" opacity="1" />
<text x="292.0" y="214.0" font-family="Arial, Helvetica, sans-serif" font-size="15" font-weight="400" fill="#323f4b" text-anchor="start">What is the safer goal for the pilot?</text>
<rect x="292.0" y="228.0" width="360.0" height="28.0" rx="6" fill="#fff" stroke="#cbd2d9" opacity="1" />
<rect x="274.0" y="276.0" width="680.0" height="68.0" rx="6" fill="#fff" stroke="#d9dee7" opacity="1" />
<text x="292.0" y="300.0" font-family="Arial, Helvetica, sans-serif" font-size="15" font-weight="400" fill="#323f4b" text-anchor="start">Why should the system fail softly?</text>
<rect x="292.0" y="314.0" width="360.0" height="28.0" rx="6" fill="#fff" stroke="#cbd2d9" opacity="1" />
<rect x="274.0" y="362.0" width="680.0" height="68.0" rx="6" fill="#fff" stroke="#d9dee7" opacity="1" />
<text x="292.0" y="386.0" font-family="Arial, Helvetica, sans-serif" font-size="15" font-weight="400" fill="#323f4b" text-anchor="start">What data does this MVP export?</text>
<rect x="292.0" y="400.0" width="360.0" height="28.0" rx="6" fill="#fff" stroke="#cbd2d9" opacity="1" />
<path d="M 275.4 402.3 L 306.5 394.8 L 320.6 389.4 L 377.7 367.4 L 402.6 360.6 L 407.5 317.8 L 425.3 302.8 L 429.4 296.9 L 432.9 309.7 L 404.2 314.2 L 351.1 316.8 L 347.8 330.7 L 365.9 323.6 L 402.3 318.5 L 418.3 316.1 L 414.3 275.7 L 417.4 259.9 L 432.6 238.4 L 431.6 230.5 L 409.2 195.8 L 399.4 165.5 L 387.3 158.0 L 396.5 170.6 L 402.4 178.5 L 413.6 209.2 L 409.1 214.7 L 409.1 210.4 L 422.1 195.9 L 427.0 190.3 L 392.4 191.8 L 397.6 198.9 L 401.4 212.9 L 432.4 253.2 L 420.8 255.2 L 399.4 257.1 L 431.6 303.0 L 480.3 376.7 L 502.6 422.9 L 505.8 436.0 L 501.1 447.6 L 486.8 452.2 L 465.4 466.9 L 464.7 469.8 L 457.1 470.7 L 417.3 389.8 L 396.2 379.0 L 349.4 343.0 L 366.9 306.8 L 400.4 255.8 L 426.5 260.9 L 434.4 227.9 L 439.6 195.0 L 437.5 188.8 L 383.7 180.9 L 347.1 180.0 L 277.5 184.2 L 217.7 192.4 L 211.1 192.5 L 167.5 179.2 L 167.0 189.1 L 174.5 197.4 L 187.8 201.8 L 191.5 209.9 L 170.8 212.0 L 215.0 221.1 L 283.6 238.2 L 308.6 246.0 L 374.9 292.1 L 374.2 318.7 L 369.0 323.4 L 356.3 278.8 L 351.1 240.7 L 363.3 182.7 L 373.6 159.5 L 384.1 151.7 L 398.2 183.2 L 405.6 189.5 L 369.0 224.4 L 360.0 261.0 L 393.1 318.5 L 414.4 342.2 L 426.6 340.4 L 408.6 343.4 L 406.9 340.7 L 398.1 344.2 L 406.0 340.7 L 424.1 317.1 L 441.3 301.1 L 449.9 295.8 L 456.8 323.7 L 463.2 340.1 L 477.4 350.9 L 482.4 352.0 L 462.4 350.0 L 502.7 461.6 L 625.1 547.5 L 789.6 654.4 L 888.5 695.2 L 918.7 733.1 L 777.8 718.5 L 696.5 674.3 L 548.4 566.1 L 482.4 518.1 L 404.3 382.9 L 375.3 330.2 L 342.5 231.7 L 350.1 282.5 L 370.7 262.0 L 353.6 215.8 L 340.8 197.3 L 319.0 165.6 L 332.9 182.3 L 360.3 209.0 L 395.4 232.8 L 418.0 239.2 L 458.9 248.4 L 476.7 251.3 L 483.3 263.1 L 481.1 267.5 L 499.5 281.6 L 503.6 253.0 L 468.8 215.5 L 421.9 216.5 L 373.8 196.5 L 313.8 176.5 L 221.6 129.5 L 192.7 111.6 L 213.8 127.8 L 221.9 147.0 L 250.3 185.6 L 282.8 211.9 L 268.1 188.6 L 273.5 197.6 L 282.5 207.4 L 293.5 248.8 L 302.1 266.8 L 310.7 289.0 L 310.2 304.0 L 308.6 311.1 L 300.4 299.9 L 327.9 300.0 L 327.9 273.4 L 348.0 251.3 L 346.1 252.2 L 366.8 273.4 L 393.9 273.2 L 369.8 272.2 L 359.3 271.8 L 358.1 272.8 L 339.4 263.6 L 332.4 256.8 L 304.7 233.9 L 330.5 226.6 L 322.0 217.5 L 335.1 228.1 L 325.9 225.6 L 358.7 269.3 L 384.8 286.8 L 406.8 317.9 L 405.8 324.0 L 399.9 359.5 L 391.0 362.5 L 413.7 354.1 L 450.9 360.7 L 457.7 364.4 L 460.4 374.4 L 432.9 363.9 L 398.7 374.8 L 448.5 410.4 L 389.0 386.2 L 325.4 359.8 L 298.0 350.8 L 366.6 406.9 L 383.2 368.4 L 410.6 376.9 L 402.9 358.9 L 453.1 372.3 L 510.5 392.8 L 521.4 392.3 L 497.4 377.1 L 449.5 342.6 L 454.3 333.1 L 455.8 318.2 L 437.5 320.6 L 421.2 316.7 L 381.7 280.3 L 366.2 252.0 L 423.2 296.5 L 456.3 319.9 L 472.4 304.4 L 474.7 293.7 L 464.5 292.8 L 460.8 289.7 L 444.1 285.1 L 427.9 290.9 L 425.3 299.2 L 430.5 319.3 L 374.3 325.2 L 370.0 314.1 L 391.3 330.8 L 399.2 335.4 L 424.7 327.2 L 423.8 325.2 L 435.8 346.7 L 417.0 351.4 L 418.9 358.0 L 400.5 336.0 L 408.4 353.8 L 422.2 373.4 L 429.6 381.9 L 426.7 364.6 L 446.3 378.8 L 451.6 382.2 L 471.1 387.2 L 462.2 374.8 L 443.1 362.6 L 467.3 379.0 L 458.3 381.4 L 444.5 370.2 L 417.4 352.1 L 402.3 315.0 L 408.5 299.2 L 388.0 281.2 L 443.3 299.5 L 439.4 288.7 L 403.6 240.6 L 386.4 235.0 L 416.3 255.6 L 421.2 267.0 L 408.1 259.1 L 397.0 249.8 L 385.1 244.1 L 464.7 307.9 L 505.7 334.5 L 549.7 385.7 L 511.9 389.3 L 498.9 377.4 L 499.7 360.3 L 482.7 347.4 L 465.2 318.9 L 459.3 313.4 L 468.4 309.9 L 456.3 318.1 L 429.6 336.9 L 421.4 372.2 L 411.4 400.4 L 592.9 535.9 L 741.1 665.5 L 922.9 711.7 L 1033.0 727.4 L 955.7 693.6 L 818.2 621.1 L 731.6 559.0 L 545.2 430.8 L 399.5 350.3 L 325.6 314.5 L 283.9 283.8 L 288.7 242.5 L 254.9 268.1 L 203.1 264.9 L 194.1 274.1 L 242.1 269.7 L 282.8 292.2 L 366.1 335.9 L 415.4 345.9 L 457.0 382.8 L 492.6 423.4 L 499.8 436.1 L 473.9 416.0 L 451.6 411.5 L 409.8 393.0 L 391.7 358.1 L 389.3 343.9 L 399.2 356.2 L 410.2 346.9 L 432.7 345.5 L 439.6 357.8 L 436.6 378.6 L 437.0 404.5 L 432.5 417.9 L 423.8 431.3 L 405.1 428.9 L 374.1 418.9 L 362.4 408.9 L 355.6 401.0 L 346.3 385.1 L 337.1 374.3 L 336.1 352.9 L 325.5 362.4 L 314.1 342.7 L 328.9 299.9 L 320.6 291.6 L 313.2 308.1 L 297.8 323.1 L 321.7 325.9 L 338.7 325.9 L 365.1 331.9 L 369.1 360.9 L 370.9 366.4 L 349.2 365.4 L 351.4 364.3 L 365.5 374.2 L 401.3 403.3 L 402.1 422.4 L 394.1 444.7 L 389.2 439.2 L 387.9 432.7 L 392.9 435.5 L 407.9 423.0 L 414.4 406.6 L 410.8 384.6 L 396.7 367.4 L 417.5 371.8 L 435.6 371.6 L 422.0 378.7 L 418.6 369.1 L 413.1 354.6 L 403.9 326.8 L 396.6 350.7 L 377.2 335.5 L 374.9 329.2 L 395.8 331.5 L 395.3 330.5 L 396.6 334.0 L 406.7 321.8 L 485.8 386.1 L 532.7 429.2 L 532.3 441.7 L 525.6 442.4 L 551.1 447.6 L 559.0 450.3 L 550.2 455.9 L 503.4 451.9 L 624.7 482.6 L 800.5 565.6 L 986.7 595.0 L 1044.1 609.5 L 1126.3 623.4 L 1099.6 627.9 L 987.3 585.2 L 854.7 551.9 L 748.0 523.4 L 575.8 472.7 L 509.4 451.0 L 403.4 405.2 L 315.4 386.4 L 289.0 364.7 L 241.0 374.8 L 237.4 381.1 L 237.4 390.9 L 237.9 397.2 L 250.7 398.9 L 284.5 415.8 L 322.3 427.9 L 353.5 443.8 L 353.6 448.6 L 369.8 461.7 L 372.6 466.7 L 369.6 466.8 L 351.7 446.3 L 331.3 431.2 L 308.5 424.9 L 307.3 422.0 L 311.0 394.4 L 369.6 379.5 L 391.3 376.4 L 430.9 382.9 L 425.3 363.1 L 438.8 354.3 L 430.3 361.4 L 438.5 398.1 L 407.8 410.3 L 419.0 440.3 L 425.0 474.5 L 421.7 481.0 L 424.5 435.8 L 399.3 375.4 L 381.6 353.4 L 275.2 297.8 L 284.1 290.1 L 254.0 292.5 L 258.5 288.9 L 345.4 285.7 L 331.7 276.0 L 337.5 287.8 L 333.9 290.4 L 326.4 283.6 L 346.7 301.1 L 340.7 316.3 L 349.4 316.0 L 363.7 356.8 L 346.6 348.3 L 349.9 364.7 L 343.4 364.1 L 351.8 383.5 L 373.9 414.3 L 491.8 474.0 L 858.9 605.9 L 1009.0 648.5 L 896.6 628.8 L 766.0 594.9 L 685.4 569.6 L 490.5 558.9 L 403.9 562.7 L 304.2 527.0 L 271.7 513.0 L 267.1 512.4 L 245.2 506.9 L 254.6 508.4 L 293.7 518.4 L 313.8 521.9 L 389.1 514.8 L 415.5 519.1 L 461.1 512.9 L 447.9 483.7 L 438.2 468.6 L 436.4 459.7 L 442.3 463.6 L 443.1 444.2 L 415.5 445.8 L 403.0 450.6 L 353.1 438.4 L 362.7 450.9 L 383.0 453.9 L 389.9 460.5 L 385.3 462.6 L 374.3 467.1 L 396.6 460.8 L 368.6 477.8 L 351.6 484.9 L 348.8 471.5 L 346.3 470.2 L 338.0 473.1 L 328.5 475.8 L 326.5 475.9 L 329.1 479.5 L 327.5 479.8 L 288.2 440.5 L 349.3 438.8 L 325.8 434.7 L 294.7 440.4 L 275.2 445.8 L 250.3 439.8 L 173.3 369.6 L 177.2 365.2 L 192.8 356.3 L 202.1 349.3 L 211.5 324.6 L 230.4 341.1 L 271.3 368.6" fill="none" stroke="#2563eb" stroke-width="2" stroke-opacity="0.35" />
<circle cx="275.4" cy="402.3" r="9" fill="#2563eb" fill-opacity="0.82" stroke="#fff" stroke-width="2" />
<text x="275.4" y="406.3" font-family="Arial, Helvetica, sans-serif" font-size="8" font-weight="700" fill="#fff" text-anchor="middle">1</text>
<circle cx="413.5" cy="175.9" r="9" fill="#2d60e2" fill-opacity="0.82" stroke="#fff" stroke-width="2" />
<text x="413.5" y="179.9" font-family="Arial, Helvetica, sans-serif" font-size="8" font-weight="700" fill="#fff" text-anchor="middle">2</text>
<circle cx="501.1" cy="447.6" r="9" fill="#355eda" fill-opacity="0.82" stroke="#fff" stroke-width="2" />
<text x="501.1" y="451.6" font-family="Arial, Helvetica, sans-serif" font-size="8" font-weight="700" fill="#fff" text-anchor="middle">3</text>
<circle cx="167.0" cy="189.1" r="9" fill="#3d5bd1" fill-opacity="0.82" stroke="#fff" stroke-width="2" />
<text x="167.0" y="193.1" font-family="Arial, Helvetica, sans-serif" font-size="8" font-weight="700" fill="#fff" text-anchor="middle">4</text>
<circle cx="360.0" cy="261.0" r="9" fill="#4558c9" fill-opacity="0.82" stroke="#fff" stroke-width="2" />
<text x="360.0" y="265.0" font-family="Arial, Helvetica, sans-serif" font-size="8" font-weight="700" fill="#fff" text-anchor="middle">5</text>
<circle cx="934.7" cy="706.9" r="9" fill="#4d56c0" fill-opacity="0.82" stroke="#fff" stroke-width="2" />
<text x="934.7" y="710.9" font-family="Arial, Helvetica, sans-serif" font-size="8" font-weight="700" fill="#fff" text-anchor="middle">6</text>
<circle cx="483.3" cy="263.1" r="9" fill="#5553b8" fill-opacity="0.82" stroke="#fff" stroke-width="2" />
<text x="483.3" y="267.1" font-family="Arial, Helvetica, sans-serif" font-size="8" font-weight="700" fill="#fff" text-anchor="middle">7</text>
<circle cx="311.6" cy="294.5" r="9" fill="#5d50af" fill-opacity="0.82" stroke="#fff" stroke-width="2" />
<text x="311.6" y="298.5" font-family="Arial, Helvetica, sans-serif" font-size="8" font-weight="700" fill="#fff" text-anchor="middle">8</text>
<circle cx="358.7" cy="269.3" r="9" fill="#654ea6" fill-opacity="0.82" stroke="#fff" stroke-width="2" />
<text x="358.7" y="273.3" font-family="Arial, Helvetica, sans-serif" font-size="8" font-weight="700" fill="#fff" text-anchor="middle">9</text>
<circle cx="453.1" cy="372.3" r="9" fill="#6d4b9e" fill-opacity="0.82" stroke="#fff" stroke-width="2" />
<text x="453.1" y="376.3" font-family="Arial, Helvetica, sans-serif" font-size="8" font-weight="700" fill="#fff" text-anchor="middle">10</text>
<circle cx="423.4" cy="306.3" r="9" fill="#754895" fill-opacity="0.82" stroke="#fff" stroke-width="2" />
<text x="423.4" y="310.3" font-family="Arial, Helvetica, sans-serif" font-size="8" font-weight="700" fill="#fff" text-anchor="middle">11</text>
<circle cx="443.1" cy="362.6" r="9" fill="#7d468d" fill-opacity="0.82" stroke="#fff" stroke-width="2" />
<text x="443.1" y="366.6" font-family="Arial, Helvetica, sans-serif" font-size="8" font-weight="700" fill="#fff" text-anchor="middle">12</text>
<circle cx="549.7" cy="385.7" r="9" fill="#844384" fill-opacity="0.82" stroke="#fff" stroke-width="2" />
<text x="549.7" y="389.7" font-family="Arial, Helvetica, sans-serif" font-size="8" font-weight="700" fill="#fff" text-anchor="middle">13</text>
<circle cx="463.5" cy="371.8" r="9" fill="#8c417c" fill-opacity="0.82" stroke="#fff" stroke-width="2" />
<text x="463.5" y="375.8" font-family="Arial, Helvetica, sans-serif" font-size="8" font-weight="700" fill="#fff" text-anchor="middle">14</text>
<circle cx="399.2" cy="356.2" r="9" fill="#943e73" fill-opacity="0.82" stroke="#fff" stroke-width="2" />
<text x="399.2" y="360.2" font-family="Arial, Helvetica, sans-serif" font-size="8" font-weight="700" fill="#fff" text-anchor="middle">15</text>
<circle cx="297.8" cy="323.1" r="9" fill="#9c3b6b" fill-opacity="0.82" stroke="#fff" stroke-width="2" />
<text x="297.8" y="327.1" font-family="Arial, Helvetica, sans-serif" font-size="8" font-weight="700" fill="#fff" text-anchor="middle">16</text>
<circle cx="435.2" cy="376.3" r="9" fill="#a43962" fill-opacity="0.82" stroke="#fff" stroke-width="2" />
<text x="435.2" y="380.3" font-family="Arial, Helvetica, sans-serif" font-size="8" font-weight="700" fill="#fff" text-anchor="middle">17</text>
<circle cx="503.4" cy="451.9" r="9" fill="#ac3659" fill-opacity="0.82" stroke="#fff" stroke-width="2" />
<text x="503.4" y="455.9" font-family="Arial, Helvetica, sans-serif" font-size="8" font-weight="700" fill="#fff" text-anchor="middle">18</text>
<circle cx="268.2" cy="408.0" r="9" fill="#b43351" fill-opacity="0.82" stroke="#fff" stroke-width="2" />
<text x="268.2" y="412.0" font-family="Arial, Helvetica, sans-serif" font-size="8" font-weight="700" fill="#fff" text-anchor="middle">19</text>
<circle cx="407.8" cy="410.3" r="9" fill="#bc3148" fill-opacity="0.82" stroke="#fff" stroke-width="2" />
<text x="407.8" y="414.3" font-family="Arial, Helvetica, sans-serif" font-size="8" font-weight="700" fill="#fff" text-anchor="middle">20</text>
<circle cx="363.7" cy="356.8" r="9" fill="#c42e40" fill-opacity="0.82" stroke="#fff" stroke-width="2" />
<text x="363.7" y="360.8" font-family="Arial, Helvetica, sans-serif" font-size="8" font-weight="700" fill="#fff" text-anchor="middle">21</text>
<circle cx="313.8" cy="521.9" r="9" fill="#cc2b37" fill-opacity="0.82" stroke="#fff" stroke-width="2" />
<text x="313.8" y="525.9" font-family="Arial, Helvetica, sans-serif" font-size="8" font-weight="700" fill="#fff" text-anchor="middle">22</text>
<circle cx="344.0" cy="487.6" r="9" fill="#d4292f" fill-opacity="0.82" stroke="#fff" stroke-width="2" />
<text x="344.0" y="491.6" font-family="Arial, Helvetica, sans-serif" font-size="8" font-weight="700" fill="#fff" text-anchor="middle">23</text>
<circle cx="271.3" cy="368.6" r="9" fill="#dc2626" fill-opacity="0.82" stroke="#fff" stroke-width="2" />
<text x="271.3" y="372.6" font-family="Arial, Helvetica, sans-serif" font-size="8" font-weight="700" fill="#fff" text-anchor="middle">24</text>
<circle cx="275.4" cy="402.3" r="13" fill="none" stroke="#16a34a" stroke-width="4" />
<text x="291.4" y="390.3" font-family="Arial, Helvetica, sans-serif" font-size="11" font-weight="700" fill="#166534" text-anchor="start">START</text>
<circle cx="271.3" cy="368.6" r="13" fill="none" stroke="#dc2626" stroke-width="4" />
<text x="287.3" y="356.6" font-family="Arial, Helvetica, sans-serif" font-size="11" font-weight="700" fill="#991b1b" text-anchor="start">END</text>
<rect x="20.0" y="116.0" width="760.0" height="34.0" rx="6" fill="#ffffff" stroke="#cbd2d9" opacity="0.88" />
<text x="34.0" y="139.0" font-family="Arial, Helvetica, sans-serif" font-size="14" font-weight="400" fill="#1f2933" text-anchor="start">samples=711 duration=14.3s offscreen=0.0% x_sd=138.5 y_sd=110.2</text>
</svg>