<svg xmlns="http://www.w3.org/2000/svg" viewBox="0 0 1600 865" width="1600" height="865">
<rect x="0.0" y="0.0" width="1600.0" height="865.0" rx="0" fill="#f6f7f9" stroke="none" opacity="1" />
<text x="250.0" y="52.0" font-family="Arial, Helvetica, sans-serif" font-size="24" font-weight="700" fill="#1f2933" text-anchor="start">Reading Gaze Pilot</text>
<text x="250.0" y="78.0" font-family="Arial, Helvetica, sans-serif" font-size="14" font-weight="400" fill="#52606d" text-anchor="start">Reading</text>
<line x1="250.0" y1="100" x2="1350.0" y2="100" stroke="#d9dee7" />
<rect x="1160.0" y="42.0" width="80.0" height="34.0" rx="6" fill="#23395d" stroke="#23395d" opacity="1" />
<text x="1200.0" y="63.0" font-family="Arial, Helvetica, sans-serif" font-size="14" font-weight="400" fill="#fff" text-anchor="middle">Start</text>
<rect x="1250.0" y="42.0" width="100.0" height="34.0" rx="6" fill="#7b8794" stroke="#7b8794" opacity="0.45" />
<text x="1300.0" y="63.0" font-family="Arial, Helvetica, sans-serif" font-size="14" font-weight="400" fill="#fff" text-anchor="middle">Export CSV</text>
<text x="250.0" y="847.0" font-family="Arial, Helvetica, sans-serif" font-size="13" font-weight="400" fill="#52606d" text-anchor="start">reading / reading_trial_1</text>
<rect x="250.0" y="124.0" width="1100.0" height="683.0" rx="8" fill="#fff" stroke="#d9dee7" opacity="1" />
<text x="274.0" y="160.0" font-family="Arial, Helvetica, sans-serif" font-size="16" font-weight="400" fill="#323f4b" text-anchor="start">Passage 1 / 3</text>
<rect x="1230.0" y="142.0" width="96.0" height="36.0" rx="6" fill="#23395d" stroke="#23395d" opacity="1" />
<text x="1278.0" y="165.0" font-family="Arial, Helvetica, sans-serif" font-size="14" font-weight="400" fill="#fff" text-anchor="middle">Continue</text>
<text x="420.0" y="234.0" font-family="Arial, Helvetica, sans-serif" font-size="20" font-weight="400" fill="#1f2933" text-anchor="start">Adaptive learning systems adjust content, pacing, or support based on learner</text>
<text x="420.0" y="272.0" font-family="Arial, Helvetica, sans-serif" font-size="20" font-weight="400" fill="#1f2933" text-anchor="start">signals. In inclusive education, the goal is not to label students, but to</text>
<text x="420.0" y="310.0" font-family="Arial, Helvetica, sans-serif" font-size="20" font-weight="400" fill="#1f2933" text-anchor="start">notice when a learner may need a clearer explanation, a slower pace, or a</text>
<text x="420.0" y="348.0" font-family="Arial, Helvetica, sans-serif" font-size="20" font-weight="400" fill="#1f2933" text-anchor="start">different presentation format.</text>
<path d="M 1202.8 691.0 L 1145.4 685.7 L 880.7 678.1 L 947.5 619.5 L 1024.8 622.8 L 1095.3 621.0 L 1180.8 589.0 L 1226.2 572.5 L 1191.4 409.6 L 1038.4 395.3 L 852.4 458.0 L 741.3 506.8 L 386.1 219.6 L 78.0 44.9 L 49.8 110.8 L 233.1 225.8 L 434.7 328.3 L 404.4 344.4 L 468.4 516.7 L 574.7 488.0 L 469.9 482.4 L 405.0 480.7 L 461.9 485.6 L 474.1 472.4 L 562.5 407.0 L 757.7 366.6 L 757.1 356.2 L 558.4 359.5 L 677.2 346.2 L 770.5 363.1 L 747.4 391.2 L 623.2 471.3 L 484.7 470.2 L 604.5 476.6 L 806.7 508.3 L 912.5 488.3 L 904.8 489.4 L 673.1 498.2 L 591.2 467.2 L 756.1 489.9 L 856.3 473.9 L 739.6 458.6 L 653.9 438.7 L 623.1 459.9 L 844.4 467.4 L 809.7 471.3 L 860.0 347.6 L 704.6 288.3 L 640.5 258.9 L 506.6 281.2 L 601.5 313.5 L 830.7 292.7 L 864.0 314.0 L 956.9 243.2 L 934.8 244.5 L 891.9 167.3 L 994.0 184.4 L 927.6 227.7 L 855.2 256.6 L 941.8 248.4 L 1004.5 258.7 L 1004.1 230.0 L 1051.0 263.8 L 1011.1 291.0 L 843.3 319.0 L 768.9 418.0 L 770.1 431.6 L 1009.8 413.6 L 1135.0 564.2 L 1135.7 517.7 L 889.4 369.1 L 691.1 305.2 L 536.0 299.6 L 488.8 322.2 L 694.2 265.1 L 651.3 272.9 L 806.2 237.4 L 952.9 232.5 L 939.0 288.7 L 914.5 288.0 L 930.6 293.2 L 823.6 350.7 L 839.4 410.8 L 736.7 247.8 L 774.5 260.4 L 1074.5 291.8 L 1093.4 310.5 L 1088.0 268.2 L 1091.6 224.0 L 692.7 336.4 L 490.9 333.5 L 359.2 343.7 L 555.0 275.6 L 671.4 231.4 L 767.0 238.5 L 723.8 275.1 L 765.3 376.0 L 895.8 489.3 L 1050.2 495.0 L 1114.6 453.7 L 1098.2 369.5 L 1050.5 418.4 L 1107.5 409.1 L 1050.7 434.3 L 1025.1 386.3 L 1000.1 389.0 L 1039.7 356.1 L 1066.3 304.1 L 1057.9 300.9 L 1094.7 331.7 L 1196.0 358.6 L 1136.4 386.4 L 1144.6 387.9 L 903.8 402.2 L 853.5 406.6 L 897.6 359.3 L 914.4 351.7 L 803.5 360.5 L 1021.9 334.5 L 1118.5 330.5 L 1123.7 335.4 L 965.7 398.8 L 894.4 502.8 L 888.3 472.4 L 1028.4 266.3 L 1014.6 278.0 L 884.9 328.6 L 815.9 381.9 L 605.7 441.9 L 471.9 470.5 L 293.5 353.8 L 383.7 448.4 L 427.7 513.4 L 588.8 547.5 L 936.9 437.1 L 912.2 508.3 L 743.8 562.9 L 424.6 571.0 L 479.4 510.5 L 758.4 451.4 L 748.5 404.0 L 790.3 422.9 L 881.3 464.0 L 1023.3 418.2 L 1070.5 422.1 L 1071.4 420.7 L 788.8 373.0 L 651.9 366.8 L 667.7 315.3 L 734.9 282.1 L 727.7 307.2 L 766.4 343.3 L 931.6 361.1 L 1020.3 408.1 L 965.2 407.0 L 907.1 405.0 L 998.7 433.2 L 1050.0 412.6 L 950.8 406.4 L 951.6 372.7 L 912.3 360.8 L 834.5 347.6 L 923.0 381.3 L 1020.3 420.5 L 959.3 480.8 L 996.3 461.2 L 1016.0 466.2 L 952.4 438.4 L 947.2 413.9 L 971.8 405.1 L 905.6 402.9 L 780.0 384.2 L 884.4 468.4 L 1003.2 679.5 L 973.2 703.7 L 1078.5 494.9 L 1008.6 376.2 L 903.0 364.6 L 784.3 374.4 L 696.5 388.6 L 779.8 398.7 L 817.8 457.9 L 973.9 474.0 L 1053.6 455.0 L 1059.7 451.0 L 1007.8 471.8 L 969.7 463.7 L 1007.2 461.9 L 990.1 495.8 L 961.6 526.2 L 932.9 508.5 L 926.5 434.4 L 908.2 407.7 L 871.1 398.9 L 821.5 396.8 L 827.3 447.8 L 876.4 495.4 L 1047.7 495.6 L 1027.4 488.7 L 942.3 460.6 L 936.2 402.1 L 928.6 389.7 L 944.8 414.2 L 998.2 411.9 L 944.7 391.7 L 1026.6 412.2 L 1076.5 429.9 L 975.7 474.5 L 904.6 514.4 L 920.4 520.1 L 926.0 548.3 L 934.9 518.8 L 948.9 510.2 L 900.2 533.7 L 840.9 537.6 L 882.3 471.7 L 976.6 407.8 L 1017.4 355.6 L 966.1 421.6 L 1018.1 401.7 L 1000.6 431.2 L 903.0 482.2 L 883.2 459.8 L 827.3 518.5 L 967.0 500.3 L 1051.6 558.4 L 1053.2 579.0 L 872.8 567.9 L 794.0 465.4 L 804.9 482.2 L 976.8 429.0 L 997.6 355.0 L 959.5 342.7 L 945.7 361.1 L 1080.8 314.5 L 1418.0 348.6 L 1402.0 411.3 L 1227.5 491.1 L 1284.9 411.4 L 1267.1 412.9 L 1107.8 485.1 L 1230.2 381.0 L 1249.7 455.2 L 1179.0 403.8 L 1214.5 258.2 L 1137.1 263.2 L 1069.5 242.5 L 951.7 275.0 L 1049.0 241.9 L 1157.5 258.2 L 1037.2 341.6 L 957.0 383.1 L 1030.7 333.6 L 710.1 425.9 L 500.4 450.0 L 526.6 465.9 L 559.1 495.3 L 442.0 454.9 L 414.1 429.4 L 354.4 415.2 L 256.9 424.4 L 414.1 414.7 L 561.9 443.9 L 624.6 456.6 L 669.3 490.7 L 824.4 501.3 L 719.3 498.1 L 679.5 436.1 L 739.1 445.7 L 760.9 446.2 L 894.0 335.5 L 1114.7 249.9 L 1371.8 240.3 L 1490.7 252.6 L 1172.7 278.0 L 1054.6 336.7 L 923.9 352.9 L 848.1 457.4 L 781.7 491.5 L 738.5 446.3 L 665.9 401.5 L 556.4 428.8 L 584.3 463.6 L 657.2 470.3 L 792.2 417.7 L 958.8 423.6 L 1046.2 430.8 L 965.2 444.5 L 932.9 365.1 L 884.4 339.4 L 856.5 426.4 L 744.4 433.8 L 591.8 455.2 L 678.4 455.6 L 741.1 449.6 L 689.6 452.4 L 672.1 425.0 L 652.5 420.4 L 614.2 387.6 L 497.6 442.5 L 498.6 464.9 L 625.4 443.2 L 718.3 440.0 L 678.6 462.9 L 642.8 444.3 L 706.9 443.1 L 824.1 403.7 L 871.2 366.9 L 689.1 399.6 L 707.7 495.6 L 750.2 508.2 L 673.7 516.8 L 621.1 552.7 L 795.0 491.4 L 799.5 486.0 L 667.1 483.8 L 498.1 516.3 L 727.0 412.0 L 738.9 427.1 L 892.1 465.9 L 945.2 597.5 L 934.8 593.0 L 879.6 540.9 L 967.7 502.9 L 919.0 467.8 L 881.1 443.4 L 861.3 429.0 L 924.2 485.0 L 974.2 494.5 L 896.2 545.5 L 925.3 493.2 L 949.2 575.3 L 946.5 548.3 L 1014.1 485.8 L 905.6 484.7 L 743.3 501.3 L 727.6 513.6 L 835.3 504.0 L 639.3 402.0 L 669.9 438.2 L 661.6 422.1 L 759.5 440.7 L 719.5 474.0 L 640.2 483.2 L 524.5 525.9 L 595.0 524.8 L 792.6 504.8 L 912.1 472.1 L 940.8 447.7 L 912.9 411.8 L 773.1 468.2 L 770.6 469.1 L 958.2 476.4 L 1049.0 381.7 L 1051.0 392.5 L 936.2 399.2 L 961.1 441.7 L 1169.4 496.9 L 1239.0 472.1 L 1038.7 475.2 L 840.1 456.3 L 886.8 452.8 L 972.7 436.7 L 1074.5 453.7 L 971.5 484.0 L 960.3 483.2 L 999.6 450.9 L 770.0 454.5 L 625.8 478.6 L 752.1 445.7 L 907.7 418.6 L 1346.4 333.2 L 1360.1 459.5 L 1087.8 488.8 L 1002.8 551.1 L 1048.8 522.0 L 980.9 535.0 L 996.8 471.9 L 1008.6 462.7 L 952.4 526.5 L 863.9 535.7 L 755.9 532.8 L 930.2 485.3 L 920.4 476.5 L 734.5 455.4 L 586.5 418.2 L 560.0 377.6 L 605.8 377.3 L 771.1 371.1 L 772.3 392.7 L 694.1 423.2 L 725.3 457.2 L 605.8 445.0 L 502.0 419.3 L 577.9 442.9 L 796.4 496.3 L 995.4 457.6 L 1094.0 487.9 L 1043.4 518.2 L 810.8 501.1 L 737.8 456.3 L 752.4 457.5 L 801.5 505.8 L 758.4 495.4 L 1034.9 322.9 L 1219.9 268.5 L 1441.3 232.5 L 1340.7 212.0 L 1181.7 196.9 L 1225.8 205.7 L 1254.1 272.0 L 1334.0 272.4 L 1404.8 183.5 L 1350.5 215.8 L 1413.1 177.8 L 1469.7 169.2 L 1367.3 181.4 L 1111.3 301.2 L 1200.3 345.4 L 1369.6 247.6 L 1534.0 169.5 L 1487.3 149.7 L 1350.8 188.0 L 1254.4 219.5 L 1288.6 189.0 L 1217.3 169.8 L 1248.6 174.0 L 1209.0 221.4 L 1305.8 160.8 L 1386.6 140.3 L 1250.2 248.7 L 1059.5 419.3 L 977.9 450.1 L 936.3 409.2 L 1178.0 376.3 L 1291.7 362.6 L 1073.9 417.6 L 606.5 410.9 L 454.8 428.9 L 308.9 408.6 L 519.7 306.0 L 1095.9 331.0 L 1453.6 335.4 L 1353.1 344.0 L 1338.4 299.3 L 1408.6 216.8 L 1475.2 149.2 L 1472.6 253.0 L 1386.6 326.0 L 1323.4 402.2" fill="none" stroke="#2563eb" stroke-width="2" stroke-opacity="0.35" />
<circle cx="1202.8" cy="691.0" r="9" fill="#2563eb" fill-opacity="0.82" stroke="#fff" stroke-width="2" />
<text x="1202.8" y="695.0" font-family="Arial, Helvetica, sans-serif" font-size="8" font-weight="700" fill="#fff" text-anchor="middle">1</text>
<circle cx="490.2" cy="484.9" r="9" fill="#2d60e2" fill-opacity="0.82" stroke="#fff" stroke-width="2" />
<text x="490.2" y="488.9" font-family="Arial, Helvetica, sans-serif" font-size="8" font-weight="700" fill="#fff" text-anchor="middle">2</text>
<circle cx="756.1" cy="489.9" r="9" fill="#355eda" fill-opacity="0.82" stroke="#fff" stroke-width="2" />
<text x="756.1" y="493.9" font-family="Arial, Helvetica, sans-serif" font-size="8" font-weight="700" fill="#fff" text-anchor="middle">3</text>
<circle cx="894.4" cy="261.5" r="9" fill="#3d5bd1" fill-opacity="0.82" stroke="#fff" stroke-width="2" />
<text x="894.4" y="265.5" font-family="Arial, Helvetica, sans-serif" font-size="8" font-weight="700" fill="#fff" text-anchor="middle">4</text>
<circle cx="954.6" cy="291.2" r="9" fill="#4558c9" fill-opacity="0.82" stroke="#fff" stroke-width="2" />
<text x="954.6" y="295.2" font-family="Arial, Helvetica, sans-serif" font-size="8" font-weight="700" fill="#fff" text-anchor="middle">5</text>
<circle cx="988.8" cy="497.6" r="9" fill="#4d56c0" fill-opacity="0.82" stroke="#fff" stroke-width="2" />
<text x="988.8" y="501.6" font-family="Arial, Helvetica, sans-serif" font-size="8" font-weight="700" fill="#fff" text-anchor="middle">6</text>
<circle cx="766.0" cy="350.7" r="9" fill="#5553b8" fill-opacity="0.82" stroke="#fff" stroke-width="2" />
<text x="766.0" y="354.7" font-family="Arial, Helvetica, sans-serif" font-size="8" font-weight="700" fill="#fff" text-anchor="middle">7</text>
<circle cx="512.8" cy="594.6" r="9" fill="#5d50af" fill-opacity="0.82" stroke="#fff" stroke-width="2" />
<text x="512.8" y="598.6" font-family="Arial, Helvetica, sans-serif" font-size="8" font-weight="700" fill="#fff" text-anchor="middle">8</text>
<circle cx="998.7" cy="433.2" r="9" fill="#654ea6" fill-opacity="0.82" stroke="#fff" stroke-width="2" />
<text x="998.7" y="437.2" font-family="Arial, Helvetica, sans-serif" font-size="8" font-weight="700" fill="#fff" text-anchor="middle">9</text>
<circle cx="1019.4" cy="409.6" r="9" fill="#6d4b9e" fill-opacity="0.82" stroke="#fff" stroke-width="2" />
<text x="1019.4" y="413.6" font-family="Arial, Helvetica, sans-serif" font-size="8" font-weight="700" fill="#fff" text-anchor="middle">10</text>
<circle cx="837.6" cy="469.7" r="9" fill="#754895" fill-opacity="0.82" stroke="#fff" stroke-width="2" />
<text x="837.6" y="473.7" font-family="Arial, Helvetica, sans-serif" font-size="8" font-weight="700" fill="#fff" text-anchor="middle">11</text>
<circle cx="844.9" cy="497.7" r="9" fill="#7d468d" fill-opacity="0.82" stroke="#fff" stroke-width="2" />
<text x="844.9" y="501.7" font-family="Arial, Helvetica, sans-serif" font-size="8" font-weight="700" fill="#fff" text-anchor="middle">12</text>
<circle cx="1137.8" cy="300.0" r="9" fill="#844384" fill-opacity="0.82" stroke="#fff" stroke-width="2" />
<text x="1137.8" y="304.0" font-family="Arial, Helvetica, sans-serif" font-size="8" font-weight="700" fill="#fff" text-anchor="middle">13</text>
<circle cx="559.8" cy="440.2" r="9" fill="#8c417c" fill-opacity="0.82" stroke="#fff" stroke-width="2" />
<text x="559.8" y="444.2" font-family="Arial, Helvetica, sans-serif" font-size="8" font-weight="700" fill="#fff" text-anchor="middle">14</text>
<circle cx="1359.2" cy="263.2" r="9" fill="#943e73" fill-opacity="0.82" stroke="#fff" stroke-width="2" />
<text x="1359.2" y="267.2" font-family="Arial, Helvetica, sans-serif" font-size="8" font-weight="700" fill="#fff" text-anchor="middle">15</text>
<circle cx="678.4" cy="455.6" r="9" fill="#9c3b6b" fill-opacity="0.82" stroke="#fff" stroke-width="2" />
<text x="678.4" y="459.6" font-family="Arial, Helvetica, sans-serif" font-size="8" font-weight="700" fill="#fff" text-anchor="middle">16</text>
<circle cx="693.2" cy="525.2" r="9" fill="#a43962" fill-opacity="0.82" stroke="#fff" stroke-width="2" />
<text x="693.2" y="529.2" font-family="Arial, Helvetica, sans-serif" font-size="8" font-weight="700" fill="#fff" text-anchor="middle">17</text>
<circle cx="966.4" cy="576.1" r="9" fill="#ac3659" fill-opacity="0.82" stroke="#fff" stroke-width="2" />
<text x="966.4" y="580.1" font-family="Arial, Helvetica, sans-serif" font-size="8" font-weight="700" fill="#fff" text-anchor="middle">18</text>
<circle cx="900.6" cy="478.2" r="9" fill="#b43351" fill-opacity="0.82" stroke="#fff" stroke-width="2" />
<text x="900.6" y="482.2" font-family="Arial, Helvetica, sans-serif" font-size="8" font-weight="700" fill="#fff" text-anchor="middle">19</text>
<circle cx="1350.4" cy="294.4" r="9" fill="#bc3148" fill-opacity="0.82" stroke="#fff" stroke-width="2" />
<text x="1350.4" y="298.4" font-family="Arial, Helvetica, sans-serif" font-size="8" font-weight="700" fill="#fff" text-anchor="middle">20</text>
<circle cx="679.7" cy="445.2" r="9" fill="#c42e40" fill-opacity="0.82" stroke="#fff" stroke-width="2" />
<text x="679.7" y="449.2" font-family="Arial, Helvetica, sans-serif" font-size="8" font-weight="700" fill="#fff" text-anchor="middle">21</text>
<circle cx="1254.1" cy="272.0" r="9" fill="#cc2b37" fill-opacity="0.82" stroke="#fff" stroke-width="2" />
<text x="1254.1" y="276.0" font-family="Arial, Helvetica, sans-serif" font-size="8" font-weight="700" fill="#fff" text-anchor="middle">22</text>
<circle cx="1387.6" cy="156.8" r="9" fill="#d4292f" fill-opacity="0.82" stroke="#fff" stroke-width="2" />
<text x="1387.6" y="160.8" font-family="Arial, Helvetica, sans-serif" font-size="8" font-weight="700" fill="#fff" text-anchor="middle">23</text>
<circle cx="1323.4" cy="402.2" r="9" fill="#dc2626" fill-opacity="0.82" stroke="#fff" stroke-width="2" />
<text x="1323.4" y="406.2" font-family="Arial, Helvetica, sans-serif" font-size="8" font-weight="700" fill="#fff" text-anchor="middle">24</text>
<circle cx="1202.8" cy="691.0" r="13" fill="none" stroke="#16a34a" stroke-width="4" />
<text x="1218.8" y="679.0" font-family="Arial, Helvetica, sans-serif" font-size="11" font-weight="700" fill="#166534" text-anchor="start">START</text>
<circle cx="1323.4" cy="402.2" r="13" fill="none" stroke="#dc2626" stroke-width="4" />
<text x="1339.4" y="390.2" font-family="Arial, Helvetica, sans-serif" font-size="11" font-weight="700" fill="#991b1b" text-anchor="start">END</text>
<rect x="20.0" y="116.0" width="760.0" height="34.0" rx="6" fill="#ffffff" stroke="#cbd2d9" opacity="0.88" />
<text x="34.0" y="139.0" font-family="Arial, Helvetica, sans-serif" font-size="14" font-weight="400" fill="#1f2933" text-anchor="start">samples=1649 duration=32.4s offscreen=0.0% x_sd=247.0 y_sd=102.5</text>
</svg>