<svg xmlns="http://www.w3.org/2000/svg" viewBox="0 0 1600 865" width="1600" height="865">
<rect x="0.0" y="0.0" width="1600.0" height="865.0" rx="0" fill="#f6f7f9" stroke="none" opacity="1" />
<text x="250.0" y="52.0" font-family="Arial, Helvetica, sans-serif" font-size="24" font-weight="700" fill="#1f2933" text-anchor="start">Reading Gaze Pilot</text>
<text x="250.0" y="78.0" font-family="Arial, Helvetica, sans-serif" font-size="14" font-weight="400" fill="#52606d" text-anchor="start">Reading</text>
<line x1="250.0" y1="100" x2="1350.0" y2="100" stroke="#d9dee7" />
<rect x="1160.0" y="42.0" width="80.0" height="34.0" rx="6" fill="#23395d" stroke="#23395d" opacity="1" />
<text x="1200.0" y="63.0" font-family="Arial, Helvetica, sans-serif" font-size="14" font-weight="400" fill="#fff" text-anchor="middle">Start</text>
<rect x="1250.0" y="42.0" width="100.0" height="34.0" rx="6" fill="#7b8794" stroke="#7b8794" opacity="0.45" />
<text x="1300.0" y="63.0" font-family="Arial, Helvetica, sans-serif" font-size="14" font-weight="400" fill="#fff" text-anchor="middle">Export CSV</text>
<text x="250.0" y="847.0" font-family="Arial, Helvetica, sans-serif" font-size="13" font-weight="400" fill="#52606d" text-anchor="start">reading / reading_trial_2</text>
<rect x="250.0" y="124.0" width="1100.0" height="683.0" rx="8" fill="#fff" stroke="#d9dee7" opacity="1" />
<text x="274.0" y="160.0" font-family="Arial, Helvetica, sans-serif" font-size="16" font-weight="400" fill="#323f4b" text-anchor="start">Passage 2 / 3</text>
<rect x="1230.0" y="142.0" width="96.0" height="36.0" rx="6" fill="#23395d" stroke="#23395d" opacity="1" />
<text x="1278.0" y="165.0" font-family="Arial, Helvetica, sans-serif" font-size="14" font-weight="400" fill="#fff" text-anchor="middle">Continue</text>
<text x="420.0" y="234.0" font-family="Arial, Helvetica, sans-serif" font-size="20" font-weight="400" fill="#1f2933" text-anchor="start">Webcam-based eye tracking estimates where a learner is looking by using a</text>
<text x="420.0" y="272.0" font-family="Arial, Helvetica, sans-serif" font-size="20" font-weight="400" fill="#1f2933" text-anchor="start">standard camera. The signal is noisier than a research-grade eye tracker, but</text>
<text x="420.0" y="310.0" font-family="Arial, Helvetica, sans-serif" font-size="20" font-weight="400" fill="#1f2933" text-anchor="start">it can be useful for low-risk measures such as reading time, off-screen gaze,</text>
<text x="420.0" y="348.0" font-family="Arial, Helvetica, sans-serif" font-size="20" font-weight="400" fill="#1f2933" text-anchor="start">and attention shifts.</text>
<path d="M 600.7 435.7 L 608.3 415.6 L 615.7 391.6 L 644.6 375.0 L 646.7 387.6 L 613.2 394.6 L 409.9 351.6 L 369.7 349.1 L 350.1 270.5 L 550.3 268.4 L 575.2 257.9 L 590.4 268.1 L 647.5 270.7 L 604.6 258.9 L 485.6 209.4 L 481.6 230.2 L 420.5 205.0 L 460.8 217.4 L 424.4 197.8 L 377.3 219.5 L 402.6 250.7 L 390.9 236.1 L 301.0 181.9 L 280.8 161.9 L 365.2 177.3 L 482.0 216.0 L 523.2 227.6 L 593.6 252.2 L 589.8 236.9 L 666.7 247.9 L 787.7 260.6 L 774.1 310.3 L 770.1 312.1 L 693.1 305.5 L 769.7 338.2 L 773.0 346.0 L 708.7 366.9 L 643.4 372.6 L 644.6 358.3 L 566.3 353.3 L 676.4 335.5 L 786.7 333.5 L 745.3 325.9 L 716.8 328.4 L 700.6 333.3 L 707.0 341.5 L 848.1 327.6 L 825.2 353.3 L 688.6 369.9 L 641.3 389.1 L 622.3 322.9 L 692.8 297.8 L 709.5 309.4 L 758.9 344.1 L 720.5 366.8 L 673.6 369.6 L 642.9 369.5 L 696.1 334.9 L 736.1 316.6 L 721.0 303.8 L 673.6 299.2 L 678.8 302.2 L 717.4 352.8 L 815.8 402.5 L 827.8 414.1 L 855.9 393.2 L 772.4 377.7 L 830.6 374.2 L 914.3 360.3 L 944.6 328.2 L 871.5 291.7 L 853.7 280.3 L 788.2 300.9 L 769.0 282.6 L 1013.3 441.4 L 1158.6 558.0 L 1450.4 638.1 L 1207.8 637.9 L 902.4 542.5 L 851.3 382.5 L 839.1 250.8 L 877.7 203.9 L 930.5 183.3 L 836.0 215.4 L 629.4 231.7 L 545.0 257.9 L 586.0 268.9 L 569.2 269.7 L 550.1 277.4 L 558.7 266.8 L 675.1 286.6 L 663.8 295.6 L 708.4 291.1 L 578.5 292.1 L 574.6 284.0 L 630.3 273.4 L 674.5 267.4 L 705.1 262.1 L 744.7 269.9 L 702.2 289.5 L 595.7 263.0 L 576.8 239.7 L 602.9 247.8 L 697.5 238.0 L 758.5 226.9 L 829.6 202.1 L 843.1 181.2 L 784.4 206.4 L 789.5 219.2 L 812.4 226.7 L 890.1 236.1 L 942.5 246.1 L 1067.4 211.8 L 958.5 205.8 L 966.2 195.2 L 1038.8 204.4 L 1098.9 217.0 L 1164.4 201.7 L 1180.8 201.2 L 1059.7 215.8 L 955.6 249.3 L 924.1 258.7 L 1017.9 287.9 L 1109.2 233.1 L 1184.5 227.9 L 1331.4 206.2 L 1257.6 225.6 L 1307.2 219.5 L 1441.8 224.3 L 1471.5 262.9 L 1346.4 184.4 L 1350.6 135.3 L 1275.9 153.0 L 1325.3 177.8 L 1410.1 169.2 L 1481.4 168.6 L 1491.2 141.0 L 1460.7 122.2 L 1277.0 145.4 L 1170.0 140.7 L 1161.6 143.5 L 1194.2 156.0 L 960.4 217.9 L 981.1 243.7 L 1022.4 243.5 L 1192.9 233.9 L 1185.1 228.3 L 1234.3 240.8 L 1303.6 268.2 L 1263.9 253.4 L 1290.7 283.5 L 1301.0 287.5 L 1272.8 246.4 L 1336.6 236.3 L 1403.2 227.7 L 1436.5 202.1 L 1419.0 178.5 L 1473.2 161.3 L 1291.5 216.4 L 1076.2 258.4 L 1101.5 216.6 L 1220.3 206.6 L 1451.3 176.2 L 1471.1 183.3 L 1493.6 198.8 L 1336.6 261.3 L 1305.3 266.6 L 1257.2 272.3 L 1231.0 322.9 L 1363.2 322.5 L 1285.2 316.1 L 1289.7 287.4 L 1062.4 225.3 L 633.0 235.4 L 526.8 200.2 L 408.5 204.1 L 340.0 198.1 L 335.9 223.0 L 424.6 265.4 L 497.1 313.5 L 519.0 325.7 L 500.8 287.7 L 317.2 265.8 L 240.9 258.5 L 304.5 261.2 L 605.7 328.8 L 759.8 379.0 L 843.6 426.7 L 787.4 403.8 L 650.1 352.2 L 600.0 311.0 L 562.9 242.0 L 611.9 238.1 L 675.7 293.6 L 616.5 314.8 L 605.6 348.1 L 883.7 262.2 L 1038.9 236.5 L 1142.8 196.3 L 900.5 184.7 L 852.0 202.2 L 760.0 269.1 L 779.8 282.9 L 1004.9 269.8 L 1168.0 235.5 L 1145.9 209.6 L 1091.5 199.8 L 1044.4 208.2 L 983.1 226.5 L 871.1 237.5 L 902.2 235.1 L 906.1 231.5 L 932.0 233.2 L 917.7 243.9 L 1045.2 248.8 L 1055.7 161.6 L 907.1 210.9 L 879.6 298.8 L 701.9 365.7 L 608.4 349.6 L 669.2 341.3 L 802.4 352.2 L 986.5 362.6 L 1015.5 358.9 L 979.9 346.3 L 904.7 336.6 L 872.7 309.8 L 817.5 294.0 L 659.0 270.6 L 635.8 282.1 L 719.7 263.0 L 789.9 274.5 L 844.3 255.4 L 827.7 272.9 L 853.2 301.8 L 871.0 373.6 L 893.3 392.9 L 881.7 388.8 L 907.1 364.2 L 1022.5 346.9 L 1108.4 338.1 L 1447.1 462.9 L 1647.1 547.6 L 1569.8 467.1 L 1226.6 420.0 L 1114.5 364.4 L 980.3 311.7 L 884.3 252.5 L 881.9 222.8 L 840.0 213.5 L 811.5 221.0 L 782.0 237.4 L 767.8 224.8 L 802.3 219.2 L 875.4 212.4 L 930.4 211.0 L 927.2 213.9 L 1074.2 255.5 L 1267.8 321.4 L 1344.0 403.0 L 1386.3 424.6 L 1387.7 398.6 L 1408.0 401.9 L 1365.3 367.8 L 1333.4 245.3 L 1363.0 181.1 L 1255.1 186.9 L 1091.4 253.1 L 975.3 330.1 L 1090.2 330.0 L 1115.1 336.2 L 1227.9 380.2 L 1303.3 374.7 L 1338.9 378.5 L 1323.2 325.6 L 1271.9 332.2 L 1163.4 366.1 L 1283.7 370.3 L 1110.0 313.9 L 1149.3 287.1 L 1121.1 278.4 L 1101.9 251.9 L 1258.1 235.5 L 1338.2 231.1 L 1399.7 267.4 L 1357.4 317.8 L 1311.8 341.5 L 1307.9 350.4 L 1129.1 304.5 L 1111.3 262.9 L 1180.1 232.9 L 1297.8 257.9 L 1344.7 278.8 L 1314.5 303.9 L 1301.2 288.1 L 1364.0 262.0 L 1397.3 249.8 L 1430.3 258.3 L 1375.5 272.9 L 1286.2 284.8 L 1302.8 266.5 L 1288.6 234.5 L 1331.9 210.1 L 1413.0 196.9 L 1498.2 220.1 L 1558.0 258.3 L 1550.7 263.7 L 1503.9 311.6 L 1288.8 360.1 L 1011.4 396.6 L 718.8 400.5 L 533.8 340.1 L 547.5 336.4 L 571.2 271.0 L 497.0 294.7 L 521.0 297.3 L 555.4 302.1 L 545.8 319.7 L 580.1 346.8 L 572.9 349.6 L 571.6 342.0 L 583.2 342.7 L 591.5 340.7 L 890.2 552.2 L 1222.0 724.0 L 1179.7 670.2 L 1082.0 572.0 L 690.4 350.0 L 408.0 262.6 L 333.4 240.1 L 372.9 211.6 L 449.2 207.6 L 541.4 238.3 L 660.9 243.3 L 773.3 239.8 L 693.6 256.4 L 715.2 285.7 L 787.4 237.1 L 993.9 216.6 L 1089.7 191.4 L 814.9 257.7 L 700.8 320.1 L 624.6 339.1 L 673.8 379.6 L 520.4 385.9 L 584.0 366.5 L 670.1 337.1 L 663.8 329.7 L 837.8 368.6 L 950.4 406.0 L 964.9 454.2 L 831.9 408.0 L 744.3 343.1 L 669.4 290.8 L 639.0 295.2 L 683.8 270.4 L 752.8 240.1 L 760.8 228.1 L 704.1 221.8 L 651.3 231.2 L 671.1 217.0 L 657.2 231.9 L 600.8 239.3 L 470.7 275.1 L 606.5 306.2 L 721.6 295.7 L 762.2 323.3 L 698.4 376.7 L 689.0 378.8 L 849.4 375.9 L 1280.5 434.7 L 1348.8 515.5 L 1225.4 542.1 L 996.1 446.1 L 1085.7 302.6 L 1276.8 212.2 L 1283.9 106.1 L 1037.0 88.4 L 973.4 116.7 L 949.1 170.8 L 829.9 222.0 L 651.4 234.3 L 546.6 229.1 L 697.8 202.0 L 839.2 182.4 L 802.6 193.7 L 692.2 258.5 L 543.9 284.9 L 696.1 231.8 L 862.9 177.3 L 894.4 202.6 L 927.7 235.3 L 1007.1 282.0 L 987.5 278.0 L 1043.5 286.5 L 1017.9 232.5 L 984.0 165.6 L 984.5 186.2 L 963.1 211.8 L 1033.3 173.3 L 1074.0 178.3 L 941.9 243.5 L 882.2 299.2 L 810.0 352.9 L 890.8 335.6 L 976.9 292.9 L 1095.2 288.1 L 1117.5 275.0 L 1189.6 256.9 L 1179.1 269.5 L 1386.5 228.9 L 1440.6 222.7 L 1387.3 255.0 L 1323.2 301.9 L 1372.2 308.6 L 1322.4 299.9 L 1232.3 283.7 L 1278.5 273.2 L 1328.7 253.2 L 1316.5 267.5 L 1213.7 252.7 L 1309.2 253.3 L 1529.1 271.0 L 1573.1 258.1 L 1624.2 257.1 L 1627.8 228.0 L 1425.4 277.1 L 1469.6 361.0 L 1442.1 432.2 L 1377.5 486.3 L 1474.3 494.4 L 1757.6 422.3 L 1974.5 224.3 L 1657.3 119.7 L 1475.6 27.4 L 1424.8 58.4 L 1370.5 147.0 L 1206.4 211.0 L 1184.0 218.4 L 1178.4 264.9 L 1113.7 295.6 L 1063.4 308.1 L 1097.0 301.5 L 1191.3 217.0 L 1282.9 190.3 L 1260.2 188.2 L 1305.1 164.8 L 1424.0 174.6 L 1422.1 146.1 L 1390.0 124.0" fill="none" stroke="#2563eb" stroke-width="2" stroke-opacity="0.35" />
<circle cx="600.7" cy="435.7" r="9" fill="#2563eb" fill-opacity="0.82" stroke="#fff" stroke-width="2" />
<text x="600.7" y="439.7" font-family="Arial, Helvetica, sans-serif" font-size="8" font-weight="700" fill="#fff" text-anchor="middle">1</text>
<circle cx="444.5" cy="238.1" r="9" fill="#2d60e2" fill-opacity="0.82" stroke="#fff" stroke-width="2" />
<text x="444.5" y="242.1" font-family="Arial, Helvetica, sans-serif" font-size="8" font-weight="700" fill="#fff" text-anchor="middle">2</text>
<circle cx="566.3" cy="353.3" r="9" fill="#355eda" fill-opacity="0.82" stroke="#fff" stroke-width="2" />
<text x="566.3" y="357.3" font-family="Arial, Helvetica, sans-serif" font-size="8" font-weight="700" fill="#fff" text-anchor="middle">3</text>
<circle cx="754.4" cy="304.1" r="9" fill="#3d5bd1" fill-opacity="0.82" stroke="#fff" stroke-width="2" />
<text x="754.4" y="308.1" font-family="Arial, Helvetica, sans-serif" font-size="8" font-weight="700" fill="#fff" text-anchor="middle">4</text>
<circle cx="845.8" cy="475.0" r="9" fill="#4558c9" fill-opacity="0.82" stroke="#fff" stroke-width="2" />
<text x="845.8" y="479.0" font-family="Arial, Helvetica, sans-serif" font-size="8" font-weight="700" fill="#fff" text-anchor="middle">5</text>
<circle cx="732.7" cy="264.9" r="9" fill="#4d56c0" fill-opacity="0.82" stroke="#fff" stroke-width="2" />
<text x="732.7" y="268.9" font-family="Arial, Helvetica, sans-serif" font-size="8" font-weight="700" fill="#fff" text-anchor="middle">6</text>
<circle cx="1164.4" cy="201.7" r="9" fill="#5553b8" fill-opacity="0.82" stroke="#fff" stroke-width="2" />
<text x="1164.4" y="205.7" font-family="Arial, Helvetica, sans-serif" font-size="8" font-weight="700" fill="#fff" text-anchor="middle">7</text>
<circle cx="1455.2" cy="133.0" r="9" fill="#5d50af" fill-opacity="0.82" stroke="#fff" stroke-width="2" />
<text x="1455.2" y="137.0" font-family="Arial, Helvetica, sans-serif" font-size="8" font-weight="700" fill="#fff" text-anchor="middle">8</text>
<circle cx="1419.0" cy="178.5" r="9" fill="#654ea6" fill-opacity="0.82" stroke="#fff" stroke-width="2" />
<text x="1419.0" y="182.5" font-family="Arial, Helvetica, sans-serif" font-size="8" font-weight="700" fill="#fff" text-anchor="middle">9</text>
<circle cx="348.1" cy="186.6" r="9" fill="#6d4b9e" fill-opacity="0.82" stroke="#fff" stroke-width="2" />
<text x="348.1" y="190.6" font-family="Arial, Helvetica, sans-serif" font-size="8" font-weight="700" fill="#fff" text-anchor="middle">10</text>
<circle cx="723.7" cy="312.0" r="9" fill="#754895" fill-opacity="0.82" stroke="#fff" stroke-width="2" />
<text x="723.7" y="316.0" font-family="Arial, Helvetica, sans-serif" font-size="8" font-weight="700" fill="#fff" text-anchor="middle">11</text>
<circle cx="1098.2" cy="189.8" r="9" fill="#7d468d" fill-opacity="0.82" stroke="#fff" stroke-width="2" />
<text x="1098.2" y="193.8" font-family="Arial, Helvetica, sans-serif" font-size="8" font-weight="700" fill="#fff" text-anchor="middle">12</text>
<circle cx="852.8" cy="320.1" r="9" fill="#844384" fill-opacity="0.82" stroke="#fff" stroke-width="2" />
<text x="852.8" y="324.1" font-family="Arial, Helvetica, sans-serif" font-size="8" font-weight="700" fill="#fff" text-anchor="middle">13</text>
<circle cx="852.4" cy="219.9" r="9" fill="#8c417c" fill-opacity="0.82" stroke="#fff" stroke-width="2" />
<text x="852.4" y="223.9" font-family="Arial, Helvetica, sans-serif" font-size="8" font-weight="700" fill="#fff" text-anchor="middle">14</text>
<circle cx="1358.2" cy="358.6" r="9" fill="#943e73" fill-opacity="0.82" stroke="#fff" stroke-width="2" />
<text x="1358.2" y="362.6" font-family="Arial, Helvetica, sans-serif" font-size="8" font-weight="700" fill="#fff" text-anchor="middle">15</text>
<circle cx="1314.5" cy="303.9" r="9" fill="#9c3b6b" fill-opacity="0.82" stroke="#fff" stroke-width="2" />
<text x="1314.5" y="307.9" font-family="Arial, Helvetica, sans-serif" font-size="8" font-weight="700" fill="#fff" text-anchor="middle">16</text>
<circle cx="547.1" cy="308.7" r="9" fill="#a43962" fill-opacity="0.82" stroke="#fff" stroke-width="2" />
<text x="547.1" y="312.7" font-family="Arial, Helvetica, sans-serif" font-size="8" font-weight="700" fill="#fff" text-anchor="middle">17</text>
<circle cx="541.4" cy="238.3" r="9" fill="#ac3659" fill-opacity="0.82" stroke="#fff" stroke-width="2" />
<text x="541.4" y="242.3" font-family="Arial, Helvetica, sans-serif" font-size="8" font-weight="700" fill="#fff" text-anchor="middle">18</text>
<circle cx="767.2" cy="381.5" r="9" fill="#b43351" fill-opacity="0.82" stroke="#fff" stroke-width="2" />
<text x="767.2" y="385.5" font-family="Arial, Helvetica, sans-serif" font-size="8" font-weight="700" fill="#fff" text-anchor="middle">19</text>
<circle cx="1356.0" cy="496.9" r="9" fill="#bc3148" fill-opacity="0.82" stroke="#fff" stroke-width="2" />
<text x="1356.0" y="500.9" font-family="Arial, Helvetica, sans-serif" font-size="8" font-weight="700" fill="#fff" text-anchor="middle">20</text>
<circle cx="845.0" cy="197.9" r="9" fill="#c42e40" fill-opacity="0.82" stroke="#fff" stroke-width="2" />
<text x="845.0" y="201.9" font-family="Arial, Helvetica, sans-serif" font-size="8" font-weight="700" fill="#fff" text-anchor="middle">21</text>
<circle cx="1386.5" cy="228.9" r="9" fill="#cc2b37" fill-opacity="0.82" stroke="#fff" stroke-width="2" />
<text x="1386.5" y="232.9" font-family="Arial, Helvetica, sans-serif" font-size="8" font-weight="700" fill="#fff" text-anchor="middle">22</text>
<circle cx="1369.3" cy="505.6" r="9" fill="#d4292f" fill-opacity="0.82" stroke="#fff" stroke-width="2" />
<text x="1369.3" y="509.6" font-family="Arial, Helvetica, sans-serif" font-size="8" font-weight="700" fill="#fff" text-anchor="middle">23</text>
<circle cx="1390.0" cy="124.0" r="9" fill="#dc2626" fill-opacity="0.82" stroke="#fff" stroke-width="2" />
<text x="1390.0" y="128.0" font-family="Arial, Helvetica, sans-serif" font-size="8" font-weight="700" fill="#fff" text-anchor="middle">24</text>
<circle cx="600.7" cy="435.7" r="13" fill="none" stroke="#16a34a" stroke-width="4" />
<text x="616.7" y="423.7" font-family="Arial, Helvetica, sans-serif" font-size="11" font-weight="700" fill="#166534" text-anchor="start">START</text>
<circle cx="1390.0" cy="124.0" r="13" fill="none" stroke="#dc2626" stroke-width="4" />
<text x="1406.0" y="112.0" font-family="Arial, Helvetica, sans-serif" font-size="11" font-weight="700" fill="#991b1b" text-anchor="start">END</text>
<rect x="20.0" y="116.0" width="760.0" height="34.0" rx="6" fill="#ffffff" stroke="#cbd2d9" opacity="0.88" />
<text x="34.0" y="139.0" font-family="Arial, Helvetica, sans-serif" font-size="14" font-weight="400" fill="#1f2933" text-anchor="start">samples=1212 duration=24.0s offscreen=1.2% x_sd=325.5 y_sd=87.4</text>
</svg>