<svg xmlns="http://www.w3.org/2000/svg" viewBox="0 0 1600 865" width="1600" height="865">
<rect x="0.0" y="0.0" width="1600.0" height="865.0" rx="0" fill="#f6f7f9" stroke="none" opacity="1" />
<text x="250.0" y="52.0" font-family="Arial, Helvetica, sans-serif" font-size="24" font-weight="700" fill="#1f2933" text-anchor="start">Reading Gaze Pilot</text>
<text x="250.0" y="78.0" font-family="Arial, Helvetica, sans-serif" font-size="14" font-weight="400" fill="#52606d" text-anchor="start">Probe</text>
<line x1="250.0" y1="100" x2="1350.0" y2="100" stroke="#d9dee7" />
<rect x="1160.0" y="42.0" width="80.0" height="34.0" rx="6" fill="#23395d" stroke="#23395d" opacity="1" />
<text x="1200.0" y="63.0" font-family="Arial, Helvetica, sans-serif" font-size="14" font-weight="400" fill="#fff" text-anchor="middle">Start</text>
<rect x="1250.0" y="42.0" width="100.0" height="34.0" rx="6" fill="#7b8794" stroke="#7b8794" opacity="0.45" />
<text x="1300.0" y="63.0" font-family="Arial, Helvetica, sans-serif" font-size="14" font-weight="400" fill="#fff" text-anchor="middle">Export CSV</text>
<text x="250.0" y="847.0" font-family="Arial, Helvetica, sans-serif" font-size="13" font-weight="400" fill="#52606d" text-anchor="start">probe / probe_trial_1</text>
<rect x="250.0" y="124.0" width="1100.0" height="683.0" rx="8" fill="#fff" stroke="#d9dee7" opacity="1" />
<text x="274.0" y="166.0" font-family="Arial, Helvetica, sans-serif" font-size="20" font-weight="700" fill="#1f2933" text-anchor="start">Quick Check</text>
<text x="274.0" y="210.0" font-family="Arial, Helvetica, sans-serif" font-size="14" font-weight="400" fill="#323f4b" text-anchor="start">Just before this screen, were you thinking about something unrelated to the</text>
<text x="274.0" y="232.0" font-family="Arial, Helvetica, sans-serif" font-size="14" font-weight="400" fill="#323f4b" text-anchor="start">reading?</text>
<rect x="274.0" y="258.0" width="360.0" height="34.0" rx="6" fill="#fff" stroke="#cbd2d9" opacity="1" />
<text x="286.0" y="280.0" font-family="Arial, Helvetica, sans-serif" font-size="14" font-weight="400" fill="#52606d" text-anchor="start">No / Yes</text>
<text x="274.0" y="334.0" font-family="Arial, Helvetica, sans-serif" font-size="14" font-weight="400" fill="#323f4b" text-anchor="start">Difficulty</text>
<line x1="274.0" y1="362.0" x2="634.0" y2="362.0" stroke="#9aa5b1" stroke-width="5" stroke-linecap="round" />
<text x="274.0" y="410.0" font-family="Arial, Helvetica, sans-serif" font-size="14" font-weight="400" fill="#323f4b" text-anchor="start">Familiarity</text>
<line x1="274.0" y1="438.0" x2="634.0" y2="438.0" stroke="#9aa5b1" stroke-width="5" stroke-linecap="round" />
<path d="M 1280.2 380.3 L 1244.8 359.9 L 1230.5 337.8 L 1220.5 318.4 L 1200.6 294.1 L 1193.0 277.4 L 1188.4 263.8 L 1154.6 259.8 L 1127.4 257.2 L 1097.3 268.0 L 1109.4 263.2 L 1186.4 242.3 L 1235.7 226.0 L 1277.8 212.9 L 1270.0 229.2 L 1318.3 234.8 L 1329.9 245.7 L 1338.1 255.3 L 1284.8 297.3 L 1201.9 323.6 L 1131.1 345.3 L 1047.4 376.2 L 948.8 400.4 L 831.3 425.1 L 650.0 403.8 L 575.1 413.3 L 516.5 425.1 L 474.7 433.9 L 653.7 391.4 L 712.4 346.5 L 731.5 310.9 L 828.1 276.9 L 860.4 238.9 L 856.5 238.3 L 946.0 221.7 L 1001.3 199.7 L 997.4 180.6 L 978.1 191.2 L 1023.5 191.8 L 1053.0 200.3 L 1029.3 205.4 L 1020.5 224.6 L 1001.9 238.8 L 880.8 251.1 L 836.2 259.7 L 799.8 266.7 L 831.0 268.9 L 746.2 289.4 L 713.8 298.3 L 681.8 301.3 L 529.4 307.2 L 405.4 309.5 L 341.4 311.1 L 358.3 305.0 L 380.2 312.9 L 404.1 319.2 L 407.0 329.4 L 412.5 337.6 L 380.2 331.1 L 365.0 338.9 L 358.3 326.4 L 366.6 314.4 L 375.6 303.9 L 320.4 325.1 L 435.4 291.5 L 425.9 276.4 L 426.1 261.3 L 426.2 249.1 L 470.2 230.8 L 516.6 223.5 L 594.5 219.4 L 539.7 219.5 L 458.3 238.0 L 459.8 240.4 L 411.4 261.6 L 370.5 280.0 L 330.8 290.7 L 313.5 320.0 L 300.8 344.4 L 322.5 361.1 L 333.3 354.9 L 431.9 359.3 L 510.8 374.3 L 568.3 379.6 L 609.3 388.6 L 637.2 391.5 L 693.5 367.1 L 738.3 345.5 L 763.9 335.4 L 741.6 332.4 L 754.0 319.7 L 715.4 302.3 L 660.9 287.9 L 580.6 287.1 L 543.5 283.0 L 502.5 275.2 L 522.1 273.8 L 451.5 270.3 L 392.9 268.0 L 339.9 273.9 L 364.6 262.5 L 347.4 271.9 L 335.3 280.5 L 335.3 288.5 L 371.8 284.7 L 360.3 270.6 L 364.3 252.7 L 379.7 246.8 L 372.5 235.0 L 379.3 220.5 L 373.6 235.8 L 368.5 244.1 L 379.4 252.3 L 385.2 257.2 L 390.2 261.4 L 394.5 264.9 L 423.8 255.2 L 418.9 240.5 L 414.2 228.1 L 374.4 242.4 L 340.3 255.0 L 350.5 253.8 L 360.1 252.7 L 373.3 254.8 L 384.9 256.6 L 400.9 251.0 L 414.4 246.2 L 485.9 237.1 L 505.6 222.1 L 520.7 209.7 L 525.2 204.8 L 527.3 201.2 L 574.4 207.9 L 613.1 214.2 L 587.2 234.5 L 562.9 252.0 L 592.3 237.4 L 582.1 241.5 L 595.5 210.1 L 606.0 183.2 L 595.1 183.0 L 584.8 183.6 L 581.2 190.3 L 548.6 230.5 L 481.2 243.1 L 496.7 289.5 L 498.9 308.8 L 501.8 324.0 L 479.4 331.3 L 460.9 336.1 L 467.2 332.1 L 473.7 337.4 L 463.2 348.7 L 454.9 357.5 L 459.8 356.1 L 454.1 354.6 L 449.8 352.4 L 451.9 351.8 L 449.0 340.2 L 446.9 330.0 L 451.3 320.1 L 474.2 314.3 L 501.6 299.9 L 524.6 288.0 L 543.6 278.3 L 550.4 288.9 L 555.1 298.7 L 606.0 307.1 L 590.9 308.1 L 569.4 306.1 L 631.3 314.3 L 683.3 321.4 L 722.5 321.4 L 751.8 332.3 L 783.3 338.9 L 834.1 346.3 L 720.9 335.5 L 639.4 322.9 L 558.1 315.4 L 489.2 314.0 L 474.9 310.1 L 402.0 305.9 L 347.9 306.5 L 361.7 306.6 L 377.3 315.6 L 399.6 317.7 L 420.8 319.4 L 423.2 319.5 L 429.9 326.0 L 435.9 339.7 L 429.8 345.1 L 437.8 342.0 L 439.7 353.3 L 441.6 362.7 L 412.3 372.0 L 387.4 379.4 L 403.5 356.1 L 417.3 366.5 L 438.2 371.8 L 455.9 370.2 L 463.1 351.7 L 530.3 338.2 L 529.6 315.7 L 517.8 321.5 L 520.3 296.0 L 507.1 319.7 L 540.0 338.8 L 526.5 348.9 L 506.7 357.8 L 489.2 365.2 L 468.3 376.1 L 429.6 385.9 L 377.9 402.7 L 335.0 416.3 L 262.1 424.7 L 208.7 435.6 L 214.3 434.0 L 227.6 426.7 L 260.7 438.0 L 267.0 434.3 L 253.0 430.1 L 242.2 426.2 L 216.3 421.1 L 195.4 416.6 L 241.1 419.7 L 308.5 413.9 L 366.3 409.0 L 388.3 409.0 L 405.4 409.1 L 414.9 412.2 L 413.6 416.7 L 380.3 427.7 L 365.6 434.8 L 365.5 416.3 L 343.7 391.9 L 325.0 371.2 L 339.9 356.9 L 321.7 347.8 L 306.3 341.0 L 327.9 335.5 L 343.9 346.4 L 357.5 356.5 L 335.0 339.4 L 333.1 341.9 L 305.4 346.6 L 353.9 348.7 L 367.7 363.3 L 356.3 354.1 L 378.8 343.9 L 399.3 342.4 L 449.9 354.9 L 453.2 342.7 L 478.9 352.5 L 459.5 349.3 L 440.6 351.0 L 423.6 352.4 L 408.4 353.7 L 419.5 379.1 L 429.0 400.7 L 400.6 404.4 L 383.2 404.8 L 368.7 404.4 L 339.1 392.1 L 314.7 381.3 L 303.9 382.5 L 308.0 387.5 L 312.9 391.7 L 330.9 394.7 L 370.3 399.1 L 404.7 386.5 L 454.6 370.3 L 464.4 359.9 L 471.6 351.4 L 476.3 356.4 L 461.4 347.8 L 447.6 341.8 L 452.4 337.2 L 448.4 351.3 L 444.2 365.0 L 426.2 371.1 L 398.7 371.2 L 374.9 372.2 L 319.3 367.6 L 273.0 363.6 L 271.7 363.8 L 284.8 381.8 L 297.9 397.1 L 312.8 410.3 L 322.4 431.0 L 328.6 433.1 L 334.2 433.9 L 317.9 435.4 L 373.4 452.9 L 363.6 442.9 L 392.3 434.1 L 417.9 444.1 L 466.0 458.9 L 505.8 471.1 L 512.4 472.1 L 480.8 464.0 L 470.8 453.8 L 460.4 437.9 L 494.7 437.1 L 523.4 436.5 L 553.8 435.1 L 584.6 428.8 L 609.2 423.5" fill="none" stroke="#2563eb" stroke-width="2" stroke-opacity="0.35" />
<circle cx="1280.2" cy="380.3" r="9" fill="#2563eb" fill-opacity="0.82" stroke="#fff" stroke-width="2" />
<text x="1280.2" y="384.3" font-family="Arial, Helvetica, sans-serif" font-size="8" font-weight="700" fill="#fff" text-anchor="middle">1</text>
<circle cx="1277.8" cy="212.9" r="9" fill="#2d60e2" fill-opacity="0.82" stroke="#fff" stroke-width="2" />
<text x="1277.8" y="216.9" font-family="Arial, Helvetica, sans-serif" font-size="8" font-weight="700" fill="#fff" text-anchor="middle">2</text>
<circle cx="474.7" cy="433.9" r="9" fill="#355eda" fill-opacity="0.82" stroke="#fff" stroke-width="2" />
<text x="474.7" y="437.9" font-family="Arial, Helvetica, sans-serif" font-size="8" font-weight="700" fill="#fff" text-anchor="middle">3</text>
<circle cx="1029.3" cy="205.4" r="9" fill="#3d5bd1" fill-opacity="0.82" stroke="#fff" stroke-width="2" />
<text x="1029.3" y="209.4" font-family="Arial, Helvetica, sans-serif" font-size="8" font-weight="700" fill="#fff" text-anchor="middle">4</text>
<circle cx="358.3" cy="305.0" r="9" fill="#4558c9" fill-opacity="0.82" stroke="#fff" stroke-width="2" />
<text x="358.3" y="309.0" font-family="Arial, Helvetica, sans-serif" font-size="8" font-weight="700" fill="#fff" text-anchor="middle">5</text>
<circle cx="426.2" cy="249.1" r="9" fill="#4d56c0" fill-opacity="0.82" stroke="#fff" stroke-width="2" />
<text x="426.2" y="253.1" font-family="Arial, Helvetica, sans-serif" font-size="8" font-weight="700" fill="#fff" text-anchor="middle">6</text>
<circle cx="333.3" cy="354.9" r="9" fill="#5553b8" fill-opacity="0.82" stroke="#fff" stroke-width="2" />
<text x="333.3" y="358.9" font-family="Arial, Helvetica, sans-serif" font-size="8" font-weight="700" fill="#fff" text-anchor="middle">7</text>
<circle cx="580.6" cy="287.1" r="9" fill="#5d50af" fill-opacity="0.82" stroke="#fff" stroke-width="2" />
<text x="580.6" y="291.1" font-family="Arial, Helvetica, sans-serif" font-size="8" font-weight="700" fill="#fff" text-anchor="middle">8</text>
<circle cx="364.3" cy="252.7" r="9" fill="#654ea6" fill-opacity="0.82" stroke="#fff" stroke-width="2" />
<text x="364.3" y="256.7" font-family="Arial, Helvetica, sans-serif" font-size="8" font-weight="700" fill="#fff" text-anchor="middle">9</text>
<circle cx="340.3" cy="255.0" r="9" fill="#6d4b9e" fill-opacity="0.82" stroke="#fff" stroke-width="2" />
<text x="340.3" y="259.0" font-family="Arial, Helvetica, sans-serif" font-size="8" font-weight="700" fill="#fff" text-anchor="middle">10</text>
<circle cx="613.1" cy="214.2" r="9" fill="#754895" fill-opacity="0.82" stroke="#fff" stroke-width="2" />
<text x="613.1" y="218.2" font-family="Arial, Helvetica, sans-serif" font-size="8" font-weight="700" fill="#fff" text-anchor="middle">11</text>
<circle cx="498.9" cy="308.8" r="9" fill="#7d468d" fill-opacity="0.82" stroke="#fff" stroke-width="2" />
<text x="498.9" y="312.8" font-family="Arial, Helvetica, sans-serif" font-size="8" font-weight="700" fill="#fff" text-anchor="middle">12</text>
<circle cx="451.3" cy="320.1" r="9" fill="#844384" fill-opacity="0.82" stroke="#fff" stroke-width="2" />
<text x="451.3" y="324.1" font-family="Arial, Helvetica, sans-serif" font-size="8" font-weight="700" fill="#fff" text-anchor="middle">13</text>
<circle cx="751.8" cy="332.3" r="9" fill="#8c417c" fill-opacity="0.82" stroke="#fff" stroke-width="2" />
<text x="751.8" y="336.3" font-family="Arial, Helvetica, sans-serif" font-size="8" font-weight="700" fill="#fff" text-anchor="middle">14</text>
<circle cx="420.8" cy="319.4" r="9" fill="#943e73" fill-opacity="0.82" stroke="#fff" stroke-width="2" />
<text x="420.8" y="323.4" font-family="Arial, Helvetica, sans-serif" font-size="8" font-weight="700" fill="#fff" text-anchor="middle">15</text>
<circle cx="463.1" cy="351.7" r="9" fill="#9c3b6b" fill-opacity="0.82" stroke="#fff" stroke-width="2" />
<text x="463.1" y="355.7" font-family="Arial, Helvetica, sans-serif" font-size="8" font-weight="700" fill="#fff" text-anchor="middle">16</text>
<circle cx="335.0" cy="416.3" r="9" fill="#a43962" fill-opacity="0.82" stroke="#fff" stroke-width="2" />
<text x="335.0" y="420.3" font-family="Arial, Helvetica, sans-serif" font-size="8" font-weight="700" fill="#fff" text-anchor="middle">17</text>
<circle cx="366.3" cy="409.0" r="9" fill="#ac3659" fill-opacity="0.82" stroke="#fff" stroke-width="2" />
<text x="366.3" y="413.0" font-family="Arial, Helvetica, sans-serif" font-size="8" font-weight="700" fill="#fff" text-anchor="middle">18</text>
<circle cx="327.9" cy="335.5" r="9" fill="#b43351" fill-opacity="0.82" stroke="#fff" stroke-width="2" />
<text x="327.9" y="339.5" font-family="Arial, Helvetica, sans-serif" font-size="8" font-weight="700" fill="#fff" text-anchor="middle">19</text>
<circle cx="459.5" cy="349.3" r="9" fill="#bc3148" fill-opacity="0.82" stroke="#fff" stroke-width="2" />
<text x="459.5" y="353.3" font-family="Arial, Helvetica, sans-serif" font-size="8" font-weight="700" fill="#fff" text-anchor="middle">20</text>
<circle cx="312.9" cy="391.7" r="9" fill="#c42e40" fill-opacity="0.82" stroke="#fff" stroke-width="2" />
<text x="312.9" y="395.7" font-family="Arial, Helvetica, sans-serif" font-size="8" font-weight="700" fill="#fff" text-anchor="middle">21</text>
<circle cx="426.2" cy="371.1" r="9" fill="#cc2b37" fill-opacity="0.82" stroke="#fff" stroke-width="2" />
<text x="426.2" y="375.1" font-family="Arial, Helvetica, sans-serif" font-size="8" font-weight="700" fill="#fff" text-anchor="middle">22</text>
<circle cx="363.6" cy="442.9" r="9" fill="#d4292f" fill-opacity="0.82" stroke="#fff" stroke-width="2" />
<text x="363.6" y="446.9" font-family="Arial, Helvetica, sans-serif" font-size="8" font-weight="700" fill="#fff" text-anchor="middle">23</text>
<circle cx="609.2" cy="423.5" r="9" fill="#dc2626" fill-opacity="0.82" stroke="#fff" stroke-width="2" />
<text x="609.2" y="427.5" font-family="Arial, Helvetica, sans-serif" font-size="8" font-weight="700" fill="#fff" text-anchor="middle">24</text>
<circle cx="1280.2" cy="380.3" r="13" fill="none" stroke="#16a34a" stroke-width="4" />
<text x="1296.2" y="368.3" font-family="Arial, Helvetica, sans-serif" font-size="11" font-weight="700" fill="#166534" text-anchor="start">START</text>
<circle cx="609.2" cy="423.5" r="13" fill="none" stroke="#dc2626" stroke-width="4" />
<text x="625.2" y="411.5" font-family="Arial, Helvetica, sans-serif" font-size="11" font-weight="700" fill="#991b1b" text-anchor="start">END</text>
<rect x="20.0" y="116.0" width="760.0" height="34.0" rx="6" fill="#ffffff" stroke="#cbd2d9" opacity="0.88" />
<text x="34.0" y="139.0" font-family="Arial, Helvetica, sans-serif" font-size="14" font-weight="400" fill="#1f2933" text-anchor="start">samples=307 duration=6.3s offscreen=0.0% x_sd=248.5 y_sd=68.3</text>
</svg>