<svg xmlns="http://www.w3.org/2000/svg" viewBox="0 0 1600 865" width="1600" height="865">
<rect x="0.0" y="0.0" width="1600.0" height="865.0" rx="0" fill="#f6f7f9" stroke="none" opacity="1" />
<text x="250.0" y="52.0" font-family="Arial, Helvetica, sans-serif" font-size="24" font-weight="700" fill="#1f2933" text-anchor="start">Reading Gaze Pilot</text>
<text x="250.0" y="78.0" font-family="Arial, Helvetica, sans-serif" font-size="14" font-weight="400" fill="#52606d" text-anchor="start">Calibration</text>
<line x1="250.0" y1="100" x2="1350.0" y2="100" stroke="#d9dee7" />
<rect x="1160.0" y="42.0" width="80.0" height="34.0" rx="6" fill="#23395d" stroke="#23395d" opacity="1" />
<text x="1200.0" y="63.0" font-family="Arial, Helvetica, sans-serif" font-size="14" font-weight="400" fill="#fff" text-anchor="middle">Start</text>
<rect x="1250.0" y="42.0" width="100.0" height="34.0" rx="6" fill="#7b8794" stroke="#7b8794" opacity="0.45" />
<text x="1300.0" y="63.0" font-family="Arial, Helvetica, sans-serif" font-size="14" font-weight="400" fill="#fff" text-anchor="middle">Export CSV</text>
<text x="250.0" y="847.0" font-family="Arial, Helvetica, sans-serif" font-size="13" font-weight="400" fill="#52606d" text-anchor="start">calibration / calibration</text>
<rect x="250.0" y="124.0" width="1100.0" height="683.0" rx="8" fill="#fff" stroke="#d9dee7" opacity="1" />
<text x="274.0" y="164.0" font-family="Arial, Helvetica, sans-serif" font-size="20" font-weight="700" fill="#1f2933" text-anchor="start">Calibration</text>
<rect x="274.0" y="190.0" width="1052.0" height="593.0" rx="8" fill="#fbfcfd" stroke="#9aa5b1" opacity="0.9" />
<circle cx="379.2" cy="249.3" r="17" fill="#fff" stroke="#d64545" stroke-width="3" />
<text x="379.2" y="254.3" font-family="Arial, Helvetica, sans-serif" font-size="12" font-weight="700" fill="#d64545" text-anchor="middle">1</text>
<circle cx="800.0" cy="249.3" r="17" fill="#fff" stroke="#d64545" stroke-width="3" />
<text x="800.0" y="254.3" font-family="Arial, Helvetica, sans-serif" font-size="12" font-weight="700" fill="#d64545" text-anchor="middle">2</text>
<circle cx="1220.8" cy="249.3" r="17" fill="#fff" stroke="#d64545" stroke-width="3" />
<text x="1220.8" y="254.3" font-family="Arial, Helvetica, sans-serif" font-size="12" font-weight="700" fill="#d64545" text-anchor="middle">3</text>
<circle cx="379.2" cy="486.5" r="17" fill="#fff" stroke="#d64545" stroke-width="3" />
<text x="379.2" y="491.5" font-family="Arial, Helvetica, sans-serif" font-size="12" font-weight="700" fill="#d64545" text-anchor="middle">4</text>
<circle cx="800.0" cy="486.5" r="17" fill="#fff" stroke="#d64545" stroke-width="3" />
<text x="800.0" y="491.5" font-family="Arial, Helvetica, sans-serif" font-size="12" font-weight="700" fill="#d64545" text-anchor="middle">5</text>
<circle cx="1220.8" cy="486.5" r="17" fill="#fff" stroke="#d64545" stroke-width="3" />
<text x="1220.8" y="491.5" font-family="Arial, Helvetica, sans-serif" font-size="12" font-weight="700" fill="#d64545" text-anchor="middle">6</text>
<circle cx="379.2" cy="723.7" r="17" fill="#fff" stroke="#d64545" stroke-width="3" />
<text x="379.2" y="728.7" font-family="Arial, Helvetica, sans-serif" font-size="12" font-weight="700" fill="#d64545" text-anchor="middle">7</text>
<circle cx="800.0" cy="723.7" r="17" fill="#fff" stroke="#d64545" stroke-width="3" />
<text x="800.0" y="728.7" font-family="Arial, Helvetica, sans-serif" font-size="12" font-weight="700" fill="#d64545" text-anchor="middle">8</text>
<circle cx="1220.8" cy="723.7" r="17" fill="#fff" stroke="#d64545" stroke-width="3" />
<text x="1220.8" y="728.7" font-family="Arial, Helvetica, sans-serif" font-size="12" font-weight="700" fill="#d64545" text-anchor="middle">9</text>
<path d="M 501.5 497.5 L 506.7 489.9 L 568.4 433.4 L 543.8 378.8 L 516.5 302.9 L 459.8 163.0 L 413.8 96.1 L 296.3 73.6 L 162.1 48.8 L 68.0 44.5 L 9.6 49.4 L 105.9 82.0 L 144.2 110.4 L 99.5 113.8 L 104.5 125.8 L 129.4 120.0 L 117.4 103.5 L 78.2 96.8 L 72.2 76.2 L 95.5 79.0 L 137.5 82.2 L 123.2 74.0 L 349.8 75.2 L 525.9 81.4 L 566.5 103.2 L 505.1 89.8 L 545.9 73.8 L 572.3 68.2 L 521.3 53.6 L 540.1 60.8 L 554.4 67.5 L 813.7 136.9 L 1021.7 354.1 L 1387.6 552.9 L 1498.9 606.0 L 1573.5 611.5 L 1406.7 607.9 L 1364.4 556.0 L 1280.3 478.4 L 1045.0 382.1 L 946.2 342.2 L 857.1 293.0 L 640.5 228.3 L 522.7 210.0 L 339.4 176.2 L 168.0 142.4 L 158.8 138.7 L 127.5 140.0 L 393.7 160.3 L 386.5 156.3 L 503.3 170.5 L 419.4 164.0 L 339.2 136.2 L 237.2 98.3 L 182.7 75.0 L 160.8 60.2 L 136.0 41.2 L 138.8 76.2 L 195.9 111.0 L 262.0 175.7 L 398.2 184.9 L 379.9 213.6 L 654.6 255.3 L 747.3 269.1 L 820.5 279.2 L 731.6 262.4 L 591.8 242.9 L 679.6 244.0 L 1090.0 359.6 L 1243.0 399.6 L 1363.9 513.5 L 1511.5 615.5 L 1505.3 613.3 L 1406.6 600.5 L 1304.8 551.6 L 1073.2 528.8 L 931.9 411.6 L 849.4 326.2 L 783.2 255.0 L 563.0 106.5 L 544.0 70.3 L 535.0 44.3 L 527.5 27.5 L 532.1 26.8 L 511.0 29.2 L 415.5 50.6 L 420.9 62.1 L 413.8 68.3 L 442.1 88.7 L 483.4 99.0 L 520.0 107.8 L 559.9 96.5 L 581.5 107.7 L 716.8 116.4 L 815.7 115.4 L 905.4 135.5 L 998.4 178.1 L 994.6 190.6 L 986.4 200.2 L 832.3 216.7 L 864.6 213.6 L 913.0 232.4 L 952.4 225.1 L 902.1 211.0 L 751.5 198.4 L 552.0 166.3 L 699.0 163.7 L 828.6 162.0 L 1008.7 128.5 L 1098.7 102.3 L 1171.8 80.9 L 1282.7 111.7 L 1328.8 121.4 L 1136.2 184.6 L 1079.2 202.2 L 982.1 246.8 L 930.4 290.4 L 871.4 310.2 L 823.4 325.3 L 797.6 286.1 L 752.5 286.6 L 703.7 251.7 L 672.1 285.4 L 680.7 280.3 L 655.3 266.7 L 652.2 227.0 L 579.1 257.5 L 518.7 284.0 L 428.5 308.2 L 468.5 281.9 L 512.2 290.5 L 447.7 305.3 L 458.6 288.2 L 462.6 269.1 L 434.9 295.7 L 412.5 318.5 L 384.9 329.0 L 376.2 324.8 L 370.3 320.6 L 386.9 324.7 L 378.1 321.5 L 371.4 318.5 L 377.6 319.3 L 370.7 322.9 L 363.2 318.6 L 362.1 315.9 L 353.4 330.0 L 330.1 305.9 L 333.4 275.4 L 279.9 258.6 L 299.1 253.1 L 277.3 283.2 L 273.7 304.4 L 342.7 307.6 L 400.3 307.0 L 415.0 301.6 L 293.9 292.1 L 325.4 280.3 L 328.5 276.6 L 417.9 255.2 L 468.5 240.3 L 510.2 228.3 L 584.6 241.6 L 631.9 237.3 L 678.8 243.4 L 749.5 276.4 L 802.6 266.1 L 844.4 258.4 L 891.3 299.4 L 898.5 311.8 L 883.6 329.0 L 806.1 334.5 L 785.0 322.0 L 826.5 313.8 L 797.0 294.2 L 796.1 283.6 L 779.8 266.8 L 750.0 252.3 L 759.5 254.4 L 831.7 262.1 L 843.5 264.2 L 799.4 254.0 L 794.1 251.9 L 812.0 250.2 L 827.2 249.1 L 816.2 247.0 L 811.0 248.1 L 875.4 261.5 L 1120.9 313.4 L 1153.0 322.8 L 1279.7 326.7 L 1419.0 323.0 L 1374.6 309.9 L 1271.0 326.4 L 1206.5 322.7 L 1172.3 328.1 L 1134.7 338.7 L 1094.5 347.7 L 1107.3 333.5 L 1274.2 330.9 L 1264.4 317.7 L 1251.3 306.3 L 1262.4 285.7 L 1254.2 271.6 L 1246.2 260.1 L 1221.4 264.9 L 1179.5 265.4 L 1217.7 238.6 L 1291.0 181.7 L 1352.0 204.0 L 1402.7 224.4 L 1340.7 280.5 L 1200.8 289.3 L 1167.5 315.0 L 1194.0 318.5 L 1196.9 287.6 L 1223.5 306.0 L 1223.5 312.8 L 1222.5 296.2 L 1191.1 320.6 L 1189.2 295.2 L 1188.3 273.3 L 1271.8 228.5 L 1334.4 225.2 L 1361.3 220.7 L 1311.0 296.5 L 1295.3 286.1 L 1296.3 262.8 L 1296.6 290.3 L 1326.7 285.5 L 1352.1 281.1 L 1316.1 298.8 L 1251.9 254.5 L 1146.3 271.8 L 714.2 277.2 L 582.6 317.1 L 382.3 354.4 L 361.3 343.4 L 346.7 333.5 L 345.0 384.2 L 361.2 393.4 L 401.6 408.5 L 330.5 451.9 L 267.7 471.6 L 241.3 519.8 L 208.4 615.1 L 227.0 657.3 L 168.8 688.2 L 41.9 716.2 L -2.5 722.4 L -30.2 719.9 L -0.8 695.1 L 46.2 650.1 L 214.0 633.0 L 457.9 604.0 L 469.4 572.7 L 398.6 510.4 L 432.8 486.6 L 459.7 468.1 L 509.6 453.0 L 511.0 460.6 L 510.8 457.1 L 548.6 457.7 L 578.0 444.2 L 603.2 447.1 L 650.8 417.6 L 643.9 433.4 L 666.8 449.4 L 716.6 467.3 L 740.2 468.3 L 758.0 469.1 L 772.7 479.3 L 726.6 482.2 L 668.9 479.1 L 642.7 503.4 L 564.2 526.9 L 564.5 526.3 L 542.5 531.0 L 571.8 530.2 L 591.4 533.1 L 585.8 536.2 L 713.5 506.6 L 903.3 482.4 L 923.6 484.5 L 936.5 486.7 L 865.8 532.3 L 852.2 506.6 L 853.6 510.6 L 819.9 508.8 L 805.5 512.2 L 804.5 514.6 L 808.4 481.6 L 837.8 455.0 L 814.1 446.9 L 813.4 473.6 L 918.7 461.6 L 1029.2 476.9 L 1120.3 490.6 L 1141.6 480.5 L 1284.4 433.8 L 1258.2 443.2 L 1262.3 463.9 L 1226.8 475.0 L 1255.4 470.6 L 1316.2 468.0 L 1376.5 473.6 L 1405.7 454.4 L 1396.4 417.0 L 1242.8 381.2 L 1265.0 355.0 L 1316.8 333.8 L 1270.8 349.9 L 1261.5 380.9 L 1111.7 422.2 L 955.5 523.6 L 882.3 528.4 L 821.3 530.9 L 883.8 545.3 L 950.0 537.0 L 1041.8 524.6 L 1073.1 516.6 L 1119.7 517.0 L 1122.2 512.9 L 1132.3 499.0 L 1131.1 510.4 L 1190.9 534.7 L 1213.5 541.6 L 1203.6 547.5 L 1188.9 563.5 L 1225.4 543.9 L 1255.8 526.7 L 1266.0 513.2 L 1277.0 513.7 L 1279.9 506.7 L 1297.2 491.3 L 1232.1 481.9 L 1175.6 474.3 L 1091.7 459.5 L 1058.9 455.8 L 1055.5 445.2 L 1097.1 477.7 L 1085.2 482.7 L 960.1 514.6 L 909.3 527.6 L 981.0 509.1 L 974.6 524.6 L 1082.5 503.7 L 1128.3 502.7 L 1186.5 515.0 L 1201.8 526.1 L 1173.6 517.0 L 1105.5 504.4 L 1015.5 506.6 L 951.8 497.4 L 962.6 489.3 L 1032.6 459.9 L 1072.8 449.8 L 1127.0 449.5 L 1107.9 440.8 L 1106.8 453.5 L 1105.4 463.4 L 1108.1 469.1 L 1007.1 494.6 L 941.8 510.0 L 879.0 513.2 L 820.0 503.6 L 756.7 516.6 L 687.5 544.2 L 764.8 508.8 L 854.0 483.9 L 757.0 531.2 L 583.6 588.3 L 517.1 625.5 L 423.1 641.0 L 314.0 682.6 L 317.4 685.0 L 266.6 697.0 L 186.7 700.5 L 201.9 685.1 L 245.0 702.0 L 257.1 707.5 L 324.7 717.4 L 377.0 732.5 L 428.1 731.0 L 429.8 739.6 L 414.2 738.4 L 389.7 742.5 L 368.3 745.5 L 329.8 737.3 L 328.3 726.5 L 290.6 727.8 L 303.3 694.6 L 283.1 703.4 L 207.3 713.9 L 102.8 728.9 L 41.9 753.6 L 100.2 755.2 L 219.3 757.6 L 242.4 752.8 L 323.9 744.1 L 402.4 722.1 L 442.0 714.2 L 502.4 706.6 L 524.5 706.1 L 577.3 698.2 L 691.4 686.6 L 772.3 676.6 L 819.4 664.7 L 786.0 675.2 L 826.2 679.9 L 857.3 684.2 L 871.7 677.4 L 865.6 666.4 L 808.3 668.9 L 801.0 663.4 L 803.9 671.1 L 803.6 679.0 L 725.7 674.2 L 703.4 671.2 L 697.6 685.1 L 672.5 697.4 L 658.5 701.0 L 678.8 704.2 L 676.5 714.5 L 687.8 723.3 L 796.4 720.4 L 881.8 703.6 L 901.7 705.5 L 1096.5 689.7 L 1198.6 674.2 L 1242.5 654.0 L 1313.1 645.6 L 1263.0 649.2 L 1215.2 652.9 L 1216.0 646.7 L 1235.6 639.4 L 1311.6 654.1 L 1363.5 655.6 L 1381.9 664.4 L 1363.8 670.9 L 1341.8 674.6 L 1346.5 664.3 L 1331.4 652.6 L 1315.1 650.5 L 1253.0 651.0 L 1160.5 609.6 L 1083.5 631.1 L 1035.9 632.2 L 1079.2 641.7 L 1221.3 678.1" fill="none" stroke="#2563eb" stroke-width="2" stroke-opacity="0.35" />
<circle cx="501.5" cy="497.5" r="9" fill="#2563eb" fill-opacity="0.82" stroke="#fff" stroke-width="2" />
<text x="501.5" y="501.5" font-family="Arial, Helvetica, sans-serif" font-size="8" font-weight="700" fill="#fff" text-anchor="middle">1</text>
<circle cx="95.5" cy="79.0" r="9" fill="#2d60e2" fill-opacity="0.82" stroke="#fff" stroke-width="2" />
<text x="95.5" y="83.0" font-family="Arial, Helvetica, sans-serif" font-size="8" font-weight="700" fill="#fff" text-anchor="middle">2</text>
<circle cx="1045.0" cy="382.1" r="9" fill="#355eda" fill-opacity="0.82" stroke="#fff" stroke-width="2" />
<text x="1045.0" y="386.1" font-family="Arial, Helvetica, sans-serif" font-size="8" font-weight="700" fill="#fff" text-anchor="middle">3</text>
<circle cx="246.8" cy="141.1" r="9" fill="#3d5bd1" fill-opacity="0.82" stroke="#fff" stroke-width="2" />
<text x="246.8" y="145.1" font-family="Arial, Helvetica, sans-serif" font-size="8" font-weight="700" fill="#fff" text-anchor="middle">4</text>
<circle cx="783.2" cy="255.0" r="9" fill="#4558c9" fill-opacity="0.82" stroke="#fff" stroke-width="2" />
<text x="783.2" y="259.0" font-family="Arial, Helvetica, sans-serif" font-size="8" font-weight="700" fill="#fff" text-anchor="middle">5</text>
<circle cx="986.4" cy="200.2" r="9" fill="#4d56c0" fill-opacity="0.82" stroke="#fff" stroke-width="2" />
<text x="986.4" y="204.2" font-family="Arial, Helvetica, sans-serif" font-size="8" font-weight="700" fill="#fff" text-anchor="middle">6</text>
<circle cx="871.4" cy="310.2" r="9" fill="#5553b8" fill-opacity="0.82" stroke="#fff" stroke-width="2" />
<text x="871.4" y="314.2" font-family="Arial, Helvetica, sans-serif" font-size="8" font-weight="700" fill="#fff" text-anchor="middle">7</text>
<circle cx="384.9" cy="329.0" r="9" fill="#5d50af" fill-opacity="0.82" stroke="#fff" stroke-width="2" />
<text x="384.9" y="333.0" font-family="Arial, Helvetica, sans-serif" font-size="8" font-weight="700" fill="#fff" text-anchor="middle">8</text>
<circle cx="293.9" cy="292.1" r="9" fill="#654ea6" fill-opacity="0.82" stroke="#fff" stroke-width="2" />
<text x="293.9" y="296.1" font-family="Arial, Helvetica, sans-serif" font-size="8" font-weight="700" fill="#fff" text-anchor="middle">9</text>
<circle cx="795.3" cy="274.8" r="9" fill="#6d4b9e" fill-opacity="0.82" stroke="#fff" stroke-width="2" />
<text x="795.3" y="278.8" font-family="Arial, Helvetica, sans-serif" font-size="8" font-weight="700" fill="#fff" text-anchor="middle">10</text>
<circle cx="1172.3" cy="328.1" r="9" fill="#754895" fill-opacity="0.82" stroke="#fff" stroke-width="2" />
<text x="1172.3" y="332.1" font-family="Arial, Helvetica, sans-serif" font-size="8" font-weight="700" fill="#fff" text-anchor="middle">11</text>
<circle cx="1196.9" cy="287.6" r="9" fill="#7d468d" fill-opacity="0.82" stroke="#fff" stroke-width="2" />
<text x="1196.9" y="291.6" font-family="Arial, Helvetica, sans-serif" font-size="8" font-weight="700" fill="#fff" text-anchor="middle">12</text>
<circle cx="714.2" cy="277.2" r="9" fill="#844384" fill-opacity="0.82" stroke="#fff" stroke-width="2" />
<text x="714.2" y="281.2" font-family="Arial, Helvetica, sans-serif" font-size="8" font-weight="700" fill="#fff" text-anchor="middle">13</text>
<circle cx="457.9" cy="604.0" r="9" fill="#8c417c" fill-opacity="0.82" stroke="#fff" stroke-width="2" />
<text x="457.9" y="608.0" font-family="Arial, Helvetica, sans-serif" font-size="8" font-weight="700" fill="#fff" text-anchor="middle">14</text>
<circle cx="675.8" cy="478.9" r="9" fill="#943e73" fill-opacity="0.82" stroke="#fff" stroke-width="2" />
<text x="675.8" y="482.9" font-family="Arial, Helvetica, sans-serif" font-size="8" font-weight="700" fill="#fff" text-anchor="middle">15</text>
<circle cx="814.1" cy="446.9" r="9" fill="#9c3b6b" fill-opacity="0.82" stroke="#fff" stroke-width="2" />
<text x="814.1" y="450.9" font-family="Arial, Helvetica, sans-serif" font-size="8" font-weight="700" fill="#fff" text-anchor="middle">16</text>
<circle cx="1111.7" cy="422.2" r="9" fill="#a43962" fill-opacity="0.82" stroke="#fff" stroke-width="2" />
<text x="1111.7" y="426.2" font-family="Arial, Helvetica, sans-serif" font-size="8" font-weight="700" fill="#fff" text-anchor="middle">17</text>
<circle cx="1277.0" cy="513.7" r="9" fill="#ac3659" fill-opacity="0.82" stroke="#fff" stroke-width="2" />
<text x="1277.0" y="517.7" font-family="Arial, Helvetica, sans-serif" font-size="8" font-weight="700" fill="#fff" text-anchor="middle">18</text>
<circle cx="1105.5" cy="504.4" r="9" fill="#b43351" fill-opacity="0.82" stroke="#fff" stroke-width="2" />
<text x="1105.5" y="508.4" font-family="Arial, Helvetica, sans-serif" font-size="8" font-weight="700" fill="#fff" text-anchor="middle">19</text>
<circle cx="583.6" cy="588.3" r="9" fill="#bc3148" fill-opacity="0.82" stroke="#fff" stroke-width="2" />
<text x="583.6" y="592.3" font-family="Arial, Helvetica, sans-serif" font-size="8" font-weight="700" fill="#fff" text-anchor="middle">20</text>
<circle cx="259.3" cy="729.0" r="9" fill="#c42e40" fill-opacity="0.82" stroke="#fff" stroke-width="2" />
<text x="259.3" y="733.0" font-family="Arial, Helvetica, sans-serif" font-size="8" font-weight="700" fill="#fff" text-anchor="middle">21</text>
<circle cx="857.3" cy="684.2" r="9" fill="#cc2b37" fill-opacity="0.82" stroke="#fff" stroke-width="2" />
<text x="857.3" y="688.2" font-family="Arial, Helvetica, sans-serif" font-size="8" font-weight="700" fill="#fff" text-anchor="middle">22</text>
<circle cx="1242.5" cy="654.0" r="9" fill="#d4292f" fill-opacity="0.82" stroke="#fff" stroke-width="2" />
<text x="1242.5" y="658.0" font-family="Arial, Helvetica, sans-serif" font-size="8" font-weight="700" fill="#fff" text-anchor="middle">23</text>
<circle cx="1221.3" cy="678.1" r="9" fill="#dc2626" fill-opacity="0.82" stroke="#fff" stroke-width="2" />
<text x="1221.3" y="682.1" font-family="Arial, Helvetica, sans-serif" font-size="8" font-weight="700" fill="#fff" text-anchor="middle">24</text>
<circle cx="501.5" cy="497.5" r="13" fill="none" stroke="#16a34a" stroke-width="4" />
<text x="517.5" y="485.5" font-family="Arial, Helvetica, sans-serif" font-size="11" font-weight="700" fill="#166534" text-anchor="start">START</text>
<circle cx="1221.3" cy="678.1" r="13" fill="none" stroke="#dc2626" stroke-width="4" />
<text x="1237.3" y="666.1" font-family="Arial, Helvetica, sans-serif" font-size="11" font-weight="700" fill="#991b1b" text-anchor="start">END</text>
<rect x="20.0" y="116.0" width="760.0" height="34.0" rx="6" fill="#ffffff" stroke="#cbd2d9" opacity="0.88" />
<text x="34.0" y="139.0" font-family="Arial, Helvetica, sans-serif" font-size="14" font-weight="400" fill="#1f2933" text-anchor="start">samples=607 duration=12.9s offscreen=0.7% x_sd=385.0 y_sd=198.0</text>
</svg>