<svg xmlns="http://www.w3.org/2000/svg" viewBox="0 0 1600 865" width="1600" height="865">
<rect x="0.0" y="0.0" width="1600.0" height="865.0" rx="0" fill="#f6f7f9" stroke="none" opacity="1" />
<text x="250.0" y="52.0" font-family="Arial, Helvetica, sans-serif" font-size="24" font-weight="700" fill="#1f2933" text-anchor="start">Reading Gaze Pilot</text>
<text x="250.0" y="78.0" font-family="Arial, Helvetica, sans-serif" font-size="14" font-weight="400" fill="#52606d" text-anchor="start">Reading</text>
<line x1="250.0" y1="100" x2="1350.0" y2="100" stroke="#d9dee7" />
<rect x="1160.0" y="42.0" width="80.0" height="34.0" rx="6" fill="#23395d" stroke="#23395d" opacity="1" />
<text x="1200.0" y="63.0" font-family="Arial, Helvetica, sans-serif" font-size="14" font-weight="400" fill="#fff" text-anchor="middle">Start</text>
<rect x="1250.0" y="42.0" width="100.0" height="34.0" rx="6" fill="#7b8794" stroke="#7b8794" opacity="0.45" />
<text x="1300.0" y="63.0" font-family="Arial, Helvetica, sans-serif" font-size="14" font-weight="400" fill="#fff" text-anchor="middle">Export CSV</text>
<text x="250.0" y="847.0" font-family="Arial, Helvetica, sans-serif" font-size="13" font-weight="400" fill="#52606d" text-anchor="start">reading / reading_trial_3</text>
<rect x="250.0" y="124.0" width="1100.0" height="683.0" rx="8" fill="#fff" stroke="#d9dee7" opacity="1" />
<text x="274.0" y="160.0" font-family="Arial, Helvetica, sans-serif" font-size="16" font-weight="400" fill="#323f4b" text-anchor="start">Passage 3 / 3</text>
<rect x="1230.0" y="142.0" width="96.0" height="36.0" rx="6" fill="#23395d" stroke="#23395d" opacity="1" />
<text x="1278.0" y="165.0" font-family="Arial, Helvetica, sans-serif" font-size="14" font-weight="400" fill="#fff" text-anchor="middle">Continue</text>
<text x="420.0" y="234.0" font-family="Arial, Helvetica, sans-serif" font-size="20" font-weight="400" fill="#1f2933" text-anchor="start">A careful educational system should fail softly. If a model is uncertain, it</text>
<text x="420.0" y="272.0" font-family="Arial, Helvetica, sans-serif" font-size="20" font-weight="400" fill="#1f2933" text-anchor="start">should offer optional support rather than make high-stakes decisions. This</text>
<text x="420.0" y="310.0" font-family="Arial, Helvetica, sans-serif" font-size="20" font-weight="400" fill="#1f2933" text-anchor="start">principle is especially important when working with students who may have</text>
<text x="420.0" y="348.0" font-family="Arial, Helvetica, sans-serif" font-size="20" font-weight="400" fill="#1f2933" text-anchor="start">special educational needs.</text>
<path d="M 317.8 415.1 L 313.3 393.4 L 309.8 372.2 L 336.0 287.9 L 404.8 220.5 L 446.6 201.8 L 482.9 200.0 L 502.0 251.6 L 446.0 256.7 L 448.1 242.6 L 448.2 232.6 L 429.4 265.4 L 430.3 328.7 L 471.8 387.7 L 431.9 473.6 L 428.1 507.8 L 394.3 446.7 L 334.3 367.8 L 319.0 313.2 L 364.6 250.9 L 419.1 230.2 L 498.8 222.5 L 493.9 229.0 L 461.4 274.3 L 452.5 332.9 L 433.9 360.5 L 456.8 307.4 L 462.5 285.0 L 438.0 277.1 L 502.1 287.5 L 578.3 320.2 L 588.1 313.8 L 549.8 296.9 L 521.9 272.1 L 523.8 233.8 L 529.9 209.5 L 515.2 191.3 L 588.6 234.0 L 557.3 206.0 L 544.0 218.9 L 587.1 248.4 L 585.8 233.2 L 654.4 216.9 L 682.0 232.4 L 691.2 223.8 L 676.5 253.2 L 638.2 220.4 L 584.0 230.0 L 547.7 231.9 L 565.2 262.9 L 604.1 311.4 L 636.3 337.4 L 657.8 319.1 L 670.6 296.6 L 662.4 305.4 L 627.1 266.6 L 597.9 235.5 L 607.6 221.0 L 629.1 246.8 L 621.7 308.6 L 651.6 327.8 L 706.1 331.7 L 715.0 309.2 L 708.5 228.0 L 655.6 172.7 L 594.4 138.8 L 543.6 169.8 L 565.2 186.7 L 684.8 285.0 L 697.1 283.2 L 674.2 265.7 L 645.0 258.6 L 645.5 232.2 L 667.4 244.5 L 706.6 234.4 L 709.8 226.1 L 681.8 259.1 L 666.3 278.1 L 692.0 255.1 L 672.3 229.5 L 686.5 196.9 L 745.3 222.2 L 696.9 243.9 L 658.9 267.1 L 678.2 250.5 L 677.8 228.0 L 687.1 206.6 L 722.5 207.3 L 758.6 216.7 L 730.6 242.9 L 718.5 238.6 L 726.8 270.5 L 763.7 284.7 L 793.2 275.5 L 812.3 266.2 L 795.6 297.1 L 777.8 324.3 L 764.2 315.4 L 793.8 268.7 L 812.6 226.6 L 824.1 240.7 L 791.7 221.1 L 825.6 265.7 L 851.8 289.5 L 846.5 276.1 L 778.2 221.6 L 735.3 224.1 L 728.5 221.9 L 809.5 262.3 L 820.3 290.4 L 863.3 267.1 L 860.3 230.5 L 815.1 237.9 L 822.6 246.2 L 847.8 285.6 L 827.0 250.2 L 836.9 248.4 L 876.1 220.8 L 910.7 207.4 L 899.5 232.3 L 880.8 253.9 L 801.3 295.0 L 774.4 261.6 L 789.2 276.0 L 878.3 271.8 L 930.7 266.5 L 905.0 247.7 L 861.9 232.0 L 901.1 218.7 L 923.6 206.5 L 907.9 188.0 L 881.0 188.7 L 882.7 192.8 L 907.4 176.8 L 915.4 170.9 L 924.2 199.3 L 900.9 212.9 L 921.7 211.3 L 912.9 194.4 L 930.5 261.1 L 976.9 246.5 L 977.7 280.4 L 969.3 268.1 L 944.5 224.6 L 969.2 222.9 L 974.8 229.4 L 979.6 246.8 L 974.5 237.9 L 969.1 240.4 L 990.7 242.4 L 970.8 238.7 L 927.8 269.1 L 969.0 257.5 L 920.4 259.7 L 921.8 265.3 L 924.0 255.4 L 936.0 238.4 L 954.3 239.3 L 989.8 238.4 L 1000.3 232.8 L 1044.1 198.8 L 997.7 221.8 L 1048.9 212.1 L 1104.9 199.9 L 1131.5 185.1 L 1139.7 180.8 L 1107.9 177.6 L 1100.4 160.1 L 1098.4 182.0 L 1076.9 232.8 L 1078.8 255.9 L 1060.7 252.9 L 1087.6 227.3 L 1102.9 225.1 L 1018.0 214.3 L 934.2 251.1 L 570.2 329.1 L 677.1 321.2 L 750.3 324.5 L 731.0 353.3 L 630.4 363.2 L 559.6 364.1 L 465.5 345.8 L 561.5 291.1 L 584.1 292.3 L 541.1 283.4 L 522.2 261.0 L 475.6 258.1 L 471.4 259.4 L 434.5 267.4 L 467.9 327.0 L 495.3 318.3 L 507.9 322.2 L 643.5 335.4 L 642.8 323.9 L 526.3 327.6 L 516.5 322.4 L 512.8 306.4 L 504.6 261.6 L 486.7 248.0 L 475.2 259.4 L 492.2 275.9 L 490.4 273.7 L 488.8 278.7 L 512.2 278.8 L 550.9 274.6 L 564.8 271.2 L 599.6 265.7 L 578.8 290.4 L 568.0 303.0 L 551.4 306.9 L 574.8 289.2 L 553.3 265.4 L 579.0 254.1 L 642.0 278.3 L 698.5 282.1 L 645.5 272.6 L 578.4 289.3 L 596.9 274.2 L 589.9 286.8 L 598.2 291.4 L 599.0 301.9 L 583.1 270.9 L 564.2 260.4 L 588.3 257.2 L 629.4 263.7 L 672.0 268.2 L 682.8 269.3 L 676.0 271.4 L 686.5 301.6 L 693.3 313.9 L 671.9 301.6 L 667.0 248.0 L 659.8 266.5 L 665.8 279.1 L 687.9 276.3 L 712.5 266.4 L 744.9 266.9 L 684.5 273.1 L 643.1 280.3 L 635.4 276.0 L 682.9 274.5 L 753.1 334.6 L 741.4 333.7 L 733.8 283.9 L 765.7 296.8 L 769.5 280.8 L 783.8 273.2 L 777.8 258.8 L 773.2 258.4 L 733.2 277.4 L 721.4 283.9 L 750.4 268.8 L 781.1 266.2 L 763.9 251.2 L 757.9 250.3 L 792.0 258.7 L 846.2 258.0 L 788.0 267.1 L 825.1 261.0 L 826.5 254.9 L 857.9 250.3 L 842.8 255.7 L 824.7 237.5 L 844.4 256.5 L 844.3 275.3 L 869.6 268.5 L 921.6 247.1 L 847.6 267.5 L 809.4 261.1 L 802.9 290.2 L 773.6 290.4 L 717.3 274.7 L 782.3 283.3 L 818.2 291.1 L 821.5 290.3 L 876.0 257.8 L 875.0 280.1 L 922.0 323.9 L 997.5 353.4 L 1030.5 343.7 L 983.1 310.9 L 972.6 291.0 L 926.5 255.1 L 878.2 238.5 L 870.9 231.9 L 908.9 220.1 L 916.2 192.2 L 906.1 170.9 L 916.0 139.0 L 928.2 142.6 L 942.9 127.7 L 955.2 202.1 L 992.4 254.4 L 1004.6 269.8 L 985.8 248.7 L 972.1 248.5 L 999.1 245.7 L 985.1 236.2 L 1005.2 216.5 L 1059.1 259.0 L 1087.3 271.4 L 1087.6 270.6 L 1078.4 269.0 L 1059.1 278.6 L 1031.5 281.5 L 1007.2 288.1 L 1044.4 284.0 L 1091.1 290.3 L 1130.3 290.9 L 1127.1 265.3 L 1084.2 263.2 L 1112.1 274.9 L 1090.2 264.4 L 1095.6 271.4 L 1106.2 269.2 L 1091.4 279.6 L 1063.2 272.0 L 1059.7 289.0 L 756.8 366.1 L 630.7 399.6 L 755.2 385.7 L 878.6 364.4 L 968.8 282.4 L 903.0 247.3 L 825.3 222.9 L 811.5 207.7 L 860.2 234.8 L 1024.8 271.7 L 925.0 326.4 L 829.1 322.0 L 791.7 302.6 L 593.2 357.6 L 677.4 292.9 L 741.3 259.6 L 695.6 266.6 L 657.7 276.1 L 602.0 308.8 L 537.6 349.9 L 493.6 337.0 L 511.5 320.9 L 513.3 322.3 L 573.1 334.8 L 495.9 354.0 L 476.5 344.6 L 497.8 313.8 L 502.3 278.6 L 515.9 259.8 L 496.4 260.1 L 523.8 292.1 L 599.6 300.8 L 609.7 288.0 L 617.4 303.9 L 560.9 326.8 L 535.6 335.3 L 496.3 330.5 L 503.5 340.9 L 555.6 334.0 L 593.5 281.4 L 568.4 295.6 L 602.4 306.0 L 638.2 297.7 L 613.2 333.8 L 636.7 323.0 L 634.9 305.0 L 611.9 313.7 L 615.6 316.2 L 627.6 329.6 L 620.3 339.7 L 628.2 356.1 L 661.3 358.1 L 681.8 358.7 L 709.6 323.8 L 747.1 307.3 L 703.4 294.6 L 692.4 305.6 L 696.6 315.8 L 703.5 307.8 L 753.3 365.7 L 702.9 280.3 L 708.9 282.1 L 741.9 262.4 L 776.9 276.6 L 801.3 297.0 L 834.8 324.1 L 812.2 302.2 L 864.5 319.1 L 862.8 290.1 L 891.1 279.6 L 894.7 270.7 L 881.1 271.2 L 876.2 307.2 L 909.4 305.4 L 881.8 309.8 L 901.2 318.5 L 833.4 317.3 L 821.3 313.1 L 856.4 344.0 L 864.7 340.3 L 908.1 338.0 L 999.0 314.9 L 1022.0 316.7 L 1018.4 319.3 L 949.9 329.5 L 862.4 363.6 L 941.6 309.0 L 970.5 298.8 L 933.2 257.0 L 978.1 280.4 L 972.6 294.3 L 927.9 300.2 L 953.2 291.7 L 1012.7 292.5 L 1065.4 237.3 L 1104.7 183.8 L 1103.5 200.7 L 1101.6 215.6 L 995.6 266.3 L 964.0 317.0 L 1042.8 284.2 L 1048.5 297.6 L 956.6 284.3 L 917.1 275.5 L 900.1 292.0 L 1005.3 310.4 L 1044.0 298.1 L 1091.9 310.6 L 1108.8 300.0 L 1109.6 293.7 L 1118.0 313.2 L 1057.1 313.2 L 953.6 278.9 L 1025.2 251.2 L 1111.2 244.6 L 1196.7 228.9 L 1266.3 223.8 L 1329.8 200.7 L 1360.2 198.7 L 1387.2 208.5 L 1358.6 189.1 L 1325.6 180.7 L 1294.6 190.7 L 1261.1 213.2 L 1255.9 217.0 L 1312.8 223.2 L 1318.4 219.3 L 1332.4 221.0 L 1362.8 214.1 L 1363.5 200.0 L 1356.4 181.1" fill="none" stroke="#2563eb" stroke-width="2" stroke-opacity="0.35" />
<circle cx="317.8" cy="415.1" r="9" fill="#2563eb" fill-opacity="0.82" stroke="#fff" stroke-width="2" />
<text x="317.8" y="419.1" font-family="Arial, Helvetica, sans-serif" font-size="8" font-weight="700" fill="#fff" text-anchor="middle">1</text>
<circle cx="394.6" cy="238.1" r="9" fill="#2d60e2" fill-opacity="0.82" stroke="#fff" stroke-width="2" />
<text x="394.6" y="242.1" font-family="Arial, Helvetica, sans-serif" font-size="8" font-weight="700" fill="#fff" text-anchor="middle">2</text>
<circle cx="544.0" cy="218.9" r="9" fill="#355eda" fill-opacity="0.82" stroke="#fff" stroke-width="2" />
<text x="544.0" y="222.9" font-family="Arial, Helvetica, sans-serif" font-size="8" font-weight="700" fill="#fff" text-anchor="middle">3</text>
<circle cx="619.8" cy="289.3" r="9" fill="#3d5bd1" fill-opacity="0.82" stroke="#fff" stroke-width="2" />
<text x="619.8" y="293.3" font-family="Arial, Helvetica, sans-serif" font-size="8" font-weight="700" fill="#fff" text-anchor="middle">4</text>
<circle cx="692.0" cy="255.1" r="9" fill="#4558c9" fill-opacity="0.82" stroke="#fff" stroke-width="2" />
<text x="692.0" y="259.1" font-family="Arial, Helvetica, sans-serif" font-size="8" font-weight="700" fill="#fff" text-anchor="middle">5</text>
<circle cx="793.9" cy="282.5" r="9" fill="#4d56c0" fill-opacity="0.82" stroke="#fff" stroke-width="2" />
<text x="793.9" y="286.5" font-family="Arial, Helvetica, sans-serif" font-size="8" font-weight="700" fill="#fff" text-anchor="middle">6</text>
<circle cx="876.1" cy="220.8" r="9" fill="#5553b8" fill-opacity="0.82" stroke="#fff" stroke-width="2" />
<text x="876.1" y="224.8" font-family="Arial, Helvetica, sans-serif" font-size="8" font-weight="700" fill="#fff" text-anchor="middle">7</text>
<circle cx="905.0" cy="193.4" r="9" fill="#5d50af" fill-opacity="0.82" stroke="#fff" stroke-width="2" />
<text x="905.0" y="197.4" font-family="Arial, Helvetica, sans-serif" font-size="8" font-weight="700" fill="#fff" text-anchor="middle">8</text>
<circle cx="941.8" cy="255.3" r="9" fill="#654ea6" fill-opacity="0.82" stroke="#fff" stroke-width="2" />
<text x="941.8" y="259.3" font-family="Arial, Helvetica, sans-serif" font-size="8" font-weight="700" fill="#fff" text-anchor="middle">9</text>
<circle cx="669.1" cy="304.9" r="9" fill="#6d4b9e" fill-opacity="0.82" stroke="#fff" stroke-width="2" />
<text x="669.1" y="308.9" font-family="Arial, Helvetica, sans-serif" font-size="8" font-weight="700" fill="#fff" text-anchor="middle">10</text>
<circle cx="499.3" cy="316.8" r="9" fill="#754895" fill-opacity="0.82" stroke="#fff" stroke-width="2" />
<text x="499.3" y="320.8" font-family="Arial, Helvetica, sans-serif" font-size="8" font-weight="700" fill="#fff" text-anchor="middle">11</text>
<circle cx="661.7" cy="281.9" r="9" fill="#7d468d" fill-opacity="0.82" stroke="#fff" stroke-width="2" />
<text x="661.7" y="285.9" font-family="Arial, Helvetica, sans-serif" font-size="8" font-weight="700" fill="#fff" text-anchor="middle">12</text>
<circle cx="658.6" cy="285.2" r="9" fill="#844384" fill-opacity="0.82" stroke="#fff" stroke-width="2" />
<text x="658.6" y="289.2" font-family="Arial, Helvetica, sans-serif" font-size="8" font-weight="700" fill="#fff" text-anchor="middle">13</text>
<circle cx="759.1" cy="248.1" r="9" fill="#8c417c" fill-opacity="0.82" stroke="#fff" stroke-width="2" />
<text x="759.1" y="252.1" font-family="Arial, Helvetica, sans-serif" font-size="8" font-weight="700" fill="#fff" text-anchor="middle">14</text>
<circle cx="804.7" cy="281.8" r="9" fill="#943e73" fill-opacity="0.82" stroke="#fff" stroke-width="2" />
<text x="804.7" y="285.8" font-family="Arial, Helvetica, sans-serif" font-size="8" font-weight="700" fill="#fff" text-anchor="middle">15</text>
<circle cx="959.8" cy="245.6" r="9" fill="#9c3b6b" fill-opacity="0.82" stroke="#fff" stroke-width="2" />
<text x="959.8" y="249.6" font-family="Arial, Helvetica, sans-serif" font-size="8" font-weight="700" fill="#fff" text-anchor="middle">16</text>
<circle cx="1090.2" cy="270.9" r="9" fill="#a43962" fill-opacity="0.82" stroke="#fff" stroke-width="2" />
<text x="1090.2" y="274.9" font-family="Arial, Helvetica, sans-serif" font-size="8" font-weight="700" fill="#fff" text-anchor="middle">17</text>
<circle cx="593.2" cy="357.6" r="9" fill="#ac3659" fill-opacity="0.82" stroke="#fff" stroke-width="2" />
<text x="593.2" y="361.6" font-family="Arial, Helvetica, sans-serif" font-size="8" font-weight="700" fill="#fff" text-anchor="middle">18</text>
<circle cx="630.2" cy="286.3" r="9" fill="#b43351" fill-opacity="0.82" stroke="#fff" stroke-width="2" />
<text x="630.2" y="290.3" font-family="Arial, Helvetica, sans-serif" font-size="8" font-weight="700" fill="#fff" text-anchor="middle">19</text>
<circle cx="681.8" cy="358.7" r="9" fill="#bc3148" fill-opacity="0.82" stroke="#fff" stroke-width="2" />
<text x="681.8" y="362.7" font-family="Arial, Helvetica, sans-serif" font-size="8" font-weight="700" fill="#fff" text-anchor="middle">20</text>
<circle cx="883.0" cy="279.4" r="9" fill="#c42e40" fill-opacity="0.82" stroke="#fff" stroke-width="2" />
<text x="883.0" y="283.4" font-family="Arial, Helvetica, sans-serif" font-size="8" font-weight="700" fill="#fff" text-anchor="middle">21</text>
<circle cx="927.9" cy="300.2" r="9" fill="#cc2b37" fill-opacity="0.82" stroke="#fff" stroke-width="2" />
<text x="927.9" y="304.2" font-family="Arial, Helvetica, sans-serif" font-size="8" font-weight="700" fill="#fff" text-anchor="middle">22</text>
<circle cx="1137.0" cy="316.0" r="9" fill="#d4292f" fill-opacity="0.82" stroke="#fff" stroke-width="2" />
<text x="1137.0" y="320.0" font-family="Arial, Helvetica, sans-serif" font-size="8" font-weight="700" fill="#fff" text-anchor="middle">23</text>
<circle cx="1356.4" cy="181.1" r="9" fill="#dc2626" fill-opacity="0.82" stroke="#fff" stroke-width="2" />
<text x="1356.4" y="185.1" font-family="Arial, Helvetica, sans-serif" font-size="8" font-weight="700" fill="#fff" text-anchor="middle">24</text>
<circle cx="317.8" cy="415.1" r="13" fill="none" stroke="#16a34a" stroke-width="4" />
<text x="333.8" y="403.1" font-family="Arial, Helvetica, sans-serif" font-size="11" font-weight="700" fill="#166534" text-anchor="start">START</text>
<circle cx="1356.4" cy="181.1" r="13" fill="none" stroke="#dc2626" stroke-width="4" />
<text x="1372.4" y="169.1" font-family="Arial, Helvetica, sans-serif" font-size="11" font-weight="700" fill="#991b1b" text-anchor="start">END</text>
<rect x="20.0" y="116.0" width="760.0" height="34.0" rx="6" fill="#ffffff" stroke="#cbd2d9" opacity="0.88" />
<text x="34.0" y="139.0" font-family="Arial, Helvetica, sans-serif" font-size="14" font-weight="400" fill="#1f2933" text-anchor="start">samples=1210 duration=25.5s offscreen=0.0% x_sd=218.7 y_sd=49.1</text>
</svg>