<svg xmlns="http://www.w3.org/2000/svg" viewBox="0 0 1600 865" width="1600" height="865">
<rect x="0.0" y="0.0" width="1600.0" height="865.0" rx="0" fill="#f6f7f9" stroke="none" opacity="1" />
<text x="250.0" y="52.0" font-family="Arial, Helvetica, sans-serif" font-size="24" font-weight="700" fill="#1f2933" text-anchor="start">Reading Gaze Pilot</text>
<text x="250.0" y="78.0" font-family="Arial, Helvetica, sans-serif" font-size="14" font-weight="400" fill="#52606d" text-anchor="start">Probe</text>
<line x1="250.0" y1="100" x2="1350.0" y2="100" stroke="#d9dee7" />
<rect x="1160.0" y="42.0" width="80.0" height="34.0" rx="6" fill="#23395d" stroke="#23395d" opacity="1" />
<text x="1200.0" y="63.0" font-family="Arial, Helvetica, sans-serif" font-size="14" font-weight="400" fill="#fff" text-anchor="middle">Start</text>
<rect x="1250.0" y="42.0" width="100.0" height="34.0" rx="6" fill="#7b8794" stroke="#7b8794" opacity="0.45" />
<text x="1300.0" y="63.0" font-family="Arial, Helvetica, sans-serif" font-size="14" font-weight="400" fill="#fff" text-anchor="middle">Export CSV</text>
<text x="250.0" y="847.0" font-family="Arial, Helvetica, sans-serif" font-size="13" font-weight="400" fill="#52606d" text-anchor="start">probe / probe_trial_1</text>
<rect x="250.0" y="124.0" width="1100.0" height="683.0" rx="8" fill="#fff" stroke="#d9dee7" opacity="1" />
<text x="274.0" y="166.0" font-family="Arial, Helvetica, sans-serif" font-size="20" font-weight="700" fill="#1f2933" text-anchor="start">Quick Check</text>
<text x="274.0" y="210.0" font-family="Arial, Helvetica, sans-serif" font-size="14" font-weight="400" fill="#323f4b" text-anchor="start">Just before this screen, were you thinking about something unrelated to the</text>
<text x="274.0" y="232.0" font-family="Arial, Helvetica, sans-serif" font-size="14" font-weight="400" fill="#323f4b" text-anchor="start">reading?</text>
<rect x="274.0" y="258.0" width="360.0" height="34.0" rx="6" fill="#fff" stroke="#cbd2d9" opacity="1" />
<text x="286.0" y="280.0" font-family="Arial, Helvetica, sans-serif" font-size="14" font-weight="400" fill="#52606d" text-anchor="start">No / Yes</text>
<text x="274.0" y="334.0" font-family="Arial, Helvetica, sans-serif" font-size="14" font-weight="400" fill="#323f4b" text-anchor="start">Difficulty</text>
<line x1="274.0" y1="362.0" x2="634.0" y2="362.0" stroke="#9aa5b1" stroke-width="5" stroke-linecap="round" />
<text x="274.0" y="410.0" font-family="Arial, Helvetica, sans-serif" font-size="14" font-weight="400" fill="#323f4b" text-anchor="start">Familiarity</text>
<line x1="274.0" y1="438.0" x2="634.0" y2="438.0" stroke="#9aa5b1" stroke-width="5" stroke-linecap="round" />
<path d="M 1193.5 210.8 L 1229.2 214.5 L 1258.2 217.3 L 1287.3 225.3 L 1269.1 224.4 L 1290.2 224.1 L 1302.3 221.0 L 1275.6 217.0 L 1276.8 216.6 L 1281.3 208.1 L 1265.9 200.1 L 1258.0 198.6 L 1245.8 203.3 L 1254.3 191.2 L 1255.3 207.8 L 1092.5 341.6 L 928.9 442.1 L 805.3 600.5 L 699.3 737.7 L 649.1 855.6 L 552.6 912.2 L 479.8 948.9 L 394.4 898.9 L 329.4 849.1 L 268.5 776.8 L 239.2 696.8 L 221.9 626.8 L 226.6 555.9 L 236.8 498.4 L 400.9 404.1 L 544.6 326.6 L 654.3 261.3 L 736.4 223.2 L 728.7 197.8 L 783.8 170.5 L 808.0 165.4 L 749.6 175.7 L 662.2 195.8 L 574.3 364.0 L 555.5 481.8 L 434.8 470.5 L 375.6 476.7 L 328.5 479.8 L 292.1 480.4 L 335.3 487.9 L 364.7 459.3 L 392.4 433.6 L 433.0 404.3 L 485.1 381.3 L 497.6 374.5 L 570.5 344.2 L 631.7 319.2 L 674.4 308.3 L 571.1 284.9 L 432.7 289.6 L 449.8 297.3 L 346.4 312.4 L 399.1 297.1 L 394.8 284.1 L 392.6 273.7 L 362.8 260.2 L 338.7 249.6 L 326.1 237.1 L 325.8 247.6 L 287.0 234.9 L 271.6 231.5 L 299.1 225.9 L 299.4 222.8 L 277.4 205.1 L 278.7 194.3 L 265.5 192.8 L 257.4 194.8 L 250.1 195.3 L 237.9 199.9 L 226.1 212.9 L 220.8 209.6 L 217.4 206.9 L 216.0 205.2 L 242.1 235.7 L 265.2 261.8 L 271.6 287.0 L 261.0 307.4 L 251.6 323.6 L 272.2 329.2 L 240.0 329.9 L 241.0 323.3 L 210.2 316.6 L 234.5 304.4 L 260.9 297.9 L 283.6 292.1 L 285.6 304.6 L 314.9 307.4 L 339.6 301.2 L 337.9 288.6 L 327.9 269.5 L 329.9 286.6 L 320.9 287.9 L 307.2 301.5 L 311.9 309.4 L 313.5 288.7 L 314.6 270.9 L 314.4 249.5 L 302.9 249.8 L 288.2 246.5 L 289.1 246.9 L 318.8 256.5 L 331.2 266.6 L 329.9 264.2 L 344.6 265.1 L 399.9 264.8 L 402.4 272.0 L 421.5 276.2 L 437.5 276.4 L 470.1 309.1 L 496.4 336.7 L 521.7 347.0 L 521.7 337.2 L 519.5 327.8 L 516.0 319.1 L 498.9 318.0 L 466.2 302.7 L 441.6 303.4 L 451.0 307.0 L 447.6 293.6 L 453.0 289.6 L 457.8 286.4 L 465.8 283.7 L 464.8 296.6 L 463.8 307.8 L 456.0 326.5 L 443.2 339.4 L 432.5 349.9 L 430.9 338.8 L 430.1 328.7 L 429.7 319.7 L 443.8 314.2 L 454.8 323.7 L 464.2 331.9 L 479.3 338.2 L 491.8 343.4 L 502.7 345.5 L 529.1 347.9 L 550.8 349.7 L 537.4 347.2 L 540.8 336.5 L 539.0 325.8 L 547.4 311.0 L 553.9 298.6 L 549.3 292.1 L 539.0 289.6 L 530.7 288.5 L 523.4 288.1 L 517.5 289.3 L 515.3 291.0 L 506.5 303.7 L 487.0 325.0 L 470.6 343.1 L 456.8 369.4 L 445.8 391.1 L 438.3 378.8 L 415.7 366.1 L 397.3 354.4 L 437.4 339.7 L 460.4 318.3 L 480.4 300.1 L 481.9 300.1 L 482.8 300.7 L 494.3 298.5 L 493.5 314.5 L 485.6 327.8 L 483.7 328.5 L 485.6 340.0 L 480.1 315.0 L 489.3 323.6 L 497.2 331.1 L 480.9 338.7 L 452.2 339.1 L 427.8 339.1 L 413.8 356.5 L 392.9 377.4 L 376.0 394.7 L 358.1 410.2 L 344.2 422.5 L 335.9 430.9 L 330.2 436.9 L 335.1 435.2 L 326.6 433.8 L 353.1 421.1 L 384.7 398.5 L 404.8 384.3 L 402.3 388.5 L 402.3 390.0 L 406.4 393.0 L 416.5 391.8 L 424.8 390.8 L 439.4 379.6 L 441.1 376.5 L 435.1 372.2 L 445.0 362.8 L 435.2 363.8 L 426.1 357.2 L 434.5 344.3 L 447.1 334.8 L 457.5 327.3 L 447.2 327.5 L 424.8 329.5 L 422.8 329.8 L 422.0 332.9 L 421.5 335.9 L 433.3 339.6 L 443.2 336.8 L 437.9 334.0 L 446.8 332.2 L 434.3 338.2 L 436.6 339.5 L 438.5 340.7 L 442.9 345.3 L 447.2 347.4 L 447.1 348.9 L 467.4 349.2 L 482.7 344.6 L 473.5 347.2 L 470.1 356.1 L 465.1 368.4 L 465.9 375.2 L 436.8 385.6 L 420.5 391.2 L 407.1 395.3 L 390.2 402.5 L 373.2 407.0 L 356.8 413.4 L 345.4 409.9 L 329.6 432.7 L 317.4 451.7 L 307.2 467.9 L 297.8 470.9 L 291.0 472.5 L 299.3 462.3 L 306.7 452.0 L 313.3 450.3 L 319.6 448.6 L 326.1 444.5 L 327.3 450.1 L 327.7 448.2 L 328.6 457.7 L 342.2 463.0 L 363.0 445.1 L 360.5 442.9" fill="none" stroke="#2563eb" stroke-width="2" stroke-opacity="0.35" />
<circle cx="1193.5" cy="210.8" r="9" fill="#2563eb" fill-opacity="0.82" stroke="#fff" stroke-width="2" />
<text x="1193.5" y="214.8" font-family="Arial, Helvetica, sans-serif" font-size="8" font-weight="700" fill="#fff" text-anchor="middle">1</text>
<circle cx="1258.0" cy="198.6" r="9" fill="#2d60e2" fill-opacity="0.82" stroke="#fff" stroke-width="2" />
<text x="1258.0" y="202.6" font-family="Arial, Helvetica, sans-serif" font-size="8" font-weight="700" fill="#fff" text-anchor="middle">2</text>
<circle cx="479.8" cy="948.9" r="9" fill="#355eda" fill-opacity="0.82" stroke="#fff" stroke-width="2" />
<text x="479.8" y="952.9" font-family="Arial, Helvetica, sans-serif" font-size="8" font-weight="700" fill="#fff" text-anchor="middle">3</text>
<circle cx="736.4" cy="223.2" r="9" fill="#3d5bd1" fill-opacity="0.82" stroke="#fff" stroke-width="2" />
<text x="736.4" y="227.2" font-family="Arial, Helvetica, sans-serif" font-size="8" font-weight="700" fill="#fff" text-anchor="middle">4</text>
<circle cx="292.1" cy="480.4" r="9" fill="#4558c9" fill-opacity="0.82" stroke="#fff" stroke-width="2" />
<text x="292.1" y="484.4" font-family="Arial, Helvetica, sans-serif" font-size="8" font-weight="700" fill="#fff" text-anchor="middle">5</text>
<circle cx="432.7" cy="289.6" r="9" fill="#4d56c0" fill-opacity="0.82" stroke="#fff" stroke-width="2" />
<text x="432.7" y="293.6" font-family="Arial, Helvetica, sans-serif" font-size="8" font-weight="700" fill="#fff" text-anchor="middle">6</text>
<circle cx="287.0" cy="234.9" r="9" fill="#5553b8" fill-opacity="0.82" stroke="#fff" stroke-width="2" />
<text x="287.0" y="238.9" font-family="Arial, Helvetica, sans-serif" font-size="8" font-weight="700" fill="#fff" text-anchor="middle">7</text>
<circle cx="220.8" cy="209.6" r="9" fill="#5d50af" fill-opacity="0.82" stroke="#fff" stroke-width="2" />
<text x="220.8" y="213.6" font-family="Arial, Helvetica, sans-serif" font-size="8" font-weight="700" fill="#fff" text-anchor="middle">8</text>
<circle cx="210.2" cy="316.6" r="9" fill="#654ea6" fill-opacity="0.82" stroke="#fff" stroke-width="2" />
<text x="210.2" y="320.6" font-family="Arial, Helvetica, sans-serif" font-size="8" font-weight="700" fill="#fff" text-anchor="middle">9</text>
<circle cx="307.2" cy="301.5" r="9" fill="#6d4b9e" fill-opacity="0.82" stroke="#fff" stroke-width="2" />
<text x="307.2" y="305.5" font-family="Arial, Helvetica, sans-serif" font-size="8" font-weight="700" fill="#fff" text-anchor="middle">10</text>
<circle cx="329.9" cy="264.2" r="9" fill="#754895" fill-opacity="0.82" stroke="#fff" stroke-width="2" />
<text x="329.9" y="268.2" font-family="Arial, Helvetica, sans-serif" font-size="8" font-weight="700" fill="#fff" text-anchor="middle">11</text>
<circle cx="516.0" cy="319.1" r="9" fill="#7d468d" fill-opacity="0.82" stroke="#fff" stroke-width="2" />
<text x="516.0" y="323.1" font-family="Arial, Helvetica, sans-serif" font-size="8" font-weight="700" fill="#fff" text-anchor="middle">12</text>
<circle cx="456.0" cy="326.5" r="9" fill="#844384" fill-opacity="0.82" stroke="#fff" stroke-width="2" />
<text x="456.0" y="330.5" font-family="Arial, Helvetica, sans-serif" font-size="8" font-weight="700" fill="#fff" text-anchor="middle">13</text>
<circle cx="502.7" cy="345.5" r="9" fill="#8c417c" fill-opacity="0.82" stroke="#fff" stroke-width="2" />
<text x="502.7" y="349.5" font-family="Arial, Helvetica, sans-serif" font-size="8" font-weight="700" fill="#fff" text-anchor="middle">14</text>
<circle cx="530.7" cy="288.5" r="9" fill="#943e73" fill-opacity="0.82" stroke="#fff" stroke-width="2" />
<text x="530.7" y="292.5" font-family="Arial, Helvetica, sans-serif" font-size="8" font-weight="700" fill="#fff" text-anchor="middle">15</text>
<circle cx="397.3" cy="354.4" r="9" fill="#9c3b6b" fill-opacity="0.82" stroke="#fff" stroke-width="2" />
<text x="397.3" y="358.4" font-family="Arial, Helvetica, sans-serif" font-size="8" font-weight="700" fill="#fff" text-anchor="middle">16</text>
<circle cx="480.1" cy="315.0" r="9" fill="#a43962" fill-opacity="0.82" stroke="#fff" stroke-width="2" />
<text x="480.1" y="319.0" font-family="Arial, Helvetica, sans-serif" font-size="8" font-weight="700" fill="#fff" text-anchor="middle">17</text>
<circle cx="335.9" cy="430.9" r="9" fill="#ac3659" fill-opacity="0.82" stroke="#fff" stroke-width="2" />
<text x="335.9" y="434.9" font-family="Arial, Helvetica, sans-serif" font-size="8" font-weight="700" fill="#fff" text-anchor="middle">18</text>
<circle cx="416.5" cy="391.8" r="9" fill="#b43351" fill-opacity="0.82" stroke="#fff" stroke-width="2" />
<text x="416.5" y="395.8" font-family="Arial, Helvetica, sans-serif" font-size="8" font-weight="700" fill="#fff" text-anchor="middle">19</text>
<circle cx="447.2" cy="327.5" r="9" fill="#bc3148" fill-opacity="0.82" stroke="#fff" stroke-width="2" />
<text x="447.2" y="331.5" font-family="Arial, Helvetica, sans-serif" font-size="8" font-weight="700" fill="#fff" text-anchor="middle">20</text>
<circle cx="438.5" cy="340.7" r="9" fill="#c42e40" fill-opacity="0.82" stroke="#fff" stroke-width="2" />
<text x="438.5" y="344.7" font-family="Arial, Helvetica, sans-serif" font-size="8" font-weight="700" fill="#fff" text-anchor="middle">21</text>
<circle cx="420.5" cy="391.2" r="9" fill="#cc2b37" fill-opacity="0.82" stroke="#fff" stroke-width="2" />
<text x="420.5" y="395.2" font-family="Arial, Helvetica, sans-serif" font-size="8" font-weight="700" fill="#fff" text-anchor="middle">22</text>
<circle cx="291.0" cy="472.5" r="9" fill="#d4292f" fill-opacity="0.82" stroke="#fff" stroke-width="2" />
<text x="291.0" y="476.5" font-family="Arial, Helvetica, sans-serif" font-size="8" font-weight="700" fill="#fff" text-anchor="middle">23</text>
<circle cx="360.5" cy="442.9" r="9" fill="#dc2626" fill-opacity="0.82" stroke="#fff" stroke-width="2" />
<text x="360.5" y="446.9" font-family="Arial, Helvetica, sans-serif" font-size="8" font-weight="700" fill="#fff" text-anchor="middle">24</text>
<circle cx="1193.5" cy="210.8" r="13" fill="none" stroke="#16a34a" stroke-width="4" />
<text x="1209.5" y="198.8" font-family="Arial, Helvetica, sans-serif" font-size="11" font-weight="700" fill="#166534" text-anchor="start">START</text>
<circle cx="360.5" cy="442.9" r="13" fill="none" stroke="#dc2626" stroke-width="4" />
<text x="376.5" y="430.9" font-family="Arial, Helvetica, sans-serif" font-size="11" font-weight="700" fill="#991b1b" text-anchor="start">END</text>
<rect x="20.0" y="116.0" width="760.0" height="34.0" rx="6" fill="#ffffff" stroke="#cbd2d9" opacity="0.88" />
<text x="34.0" y="139.0" font-family="Arial, Helvetica, sans-serif" font-size="14" font-weight="400" fill="#1f2933" text-anchor="start">samples=248 duration=5.1s offscreen=1.2% x_sd=235.3 y_sd=120.2</text>
</svg>