<svg xmlns="http://www.w3.org/2000/svg" viewBox="0 0 1600 865" width="1600" height="865">
<rect x="0.0" y="0.0" width="1600.0" height="865.0" rx="0" fill="#f6f7f9" stroke="none" opacity="1" />
<text x="250.0" y="52.0" font-family="Arial, Helvetica, sans-serif" font-size="24" font-weight="700" fill="#1f2933" text-anchor="start">Reading Gaze Pilot</text>
<text x="250.0" y="78.0" font-family="Arial, Helvetica, sans-serif" font-size="14" font-weight="400" fill="#52606d" text-anchor="start">Reading</text>
<line x1="250.0" y1="100" x2="1350.0" y2="100" stroke="#d9dee7" />
<rect x="1160.0" y="42.0" width="80.0" height="34.0" rx="6" fill="#23395d" stroke="#23395d" opacity="1" />
<text x="1200.0" y="63.0" font-family="Arial, Helvetica, sans-serif" font-size="14" font-weight="400" fill="#fff" text-anchor="middle">Start</text>
<rect x="1250.0" y="42.0" width="100.0" height="34.0" rx="6" fill="#7b8794" stroke="#7b8794" opacity="0.45" />
<text x="1300.0" y="63.0" font-family="Arial, Helvetica, sans-serif" font-size="14" font-weight="400" fill="#fff" text-anchor="middle">Export CSV</text>
<text x="250.0" y="847.0" font-family="Arial, Helvetica, sans-serif" font-size="13" font-weight="400" fill="#52606d" text-anchor="start">reading / reading_trial_1</text>
<rect x="250.0" y="124.0" width="1100.0" height="683.0" rx="8" fill="#fff" stroke="#d9dee7" opacity="1" />
<text x="274.0" y="160.0" font-family="Arial, Helvetica, sans-serif" font-size="16" font-weight="400" fill="#323f4b" text-anchor="start">Passage 1 / 3</text>
<rect x="1230.0" y="142.0" width="96.0" height="36.0" rx="6" fill="#23395d" stroke="#23395d" opacity="1" />
<text x="1278.0" y="165.0" font-family="Arial, Helvetica, sans-serif" font-size="14" font-weight="400" fill="#fff" text-anchor="middle">Continue</text>
<text x="420.0" y="234.0" font-family="Arial, Helvetica, sans-serif" font-size="20" font-weight="400" fill="#1f2933" text-anchor="start">Adaptive learning systems adjust content, pacing, or support based on learner</text>
<text x="420.0" y="272.0" font-family="Arial, Helvetica, sans-serif" font-size="20" font-weight="400" fill="#1f2933" text-anchor="start">signals. In inclusive education, the goal is not to label students, but to</text>
<text x="420.0" y="310.0" font-family="Arial, Helvetica, sans-serif" font-size="20" font-weight="400" fill="#1f2933" text-anchor="start">notice when a learner may need a clearer explanation, a slower pace, or a</text>
<text x="420.0" y="348.0" font-family="Arial, Helvetica, sans-serif" font-size="20" font-weight="400" fill="#1f2933" text-anchor="start">different presentation format.</text>
<path d="M 1236.6 753.9 L 1220.8 721.3 L 1218.2 710.5 L 1220.3 701.6 L 1254.0 679.1 L 1230.3 808.7 L 956.8 841.2 L 800.7 857.6 L 596.1 928.0 L 498.1 784.5 L 387.1 576.7 L 510.9 440.0 L 725.9 445.4 L 945.0 466.2 L 1069.2 514.1 L 1139.2 577.1 L 1162.3 615.0 L 1219.9 622.5 L 1038.7 484.5 L 856.2 404.3 L 513.7 278.4 L 392.2 210.8 L 531.4 273.5 L 546.5 271.3 L 559.1 270.2 L 460.5 238.9 L 451.1 235.5 L 544.1 277.4 L 578.2 316.2 L 531.9 332.3 L 528.2 316.6 L 520.2 272.5 L 462.4 225.1 L 494.5 256.0 L 493.9 268.8 L 470.9 271.9 L 472.2 280.1 L 493.8 291.6 L 550.2 405.0 L 544.6 562.8 L 550.1 582.0 L 591.7 482.4 L 510.9 359.1 L 460.3 202.6 L 460.9 156.8 L 456.0 110.2 L 479.0 149.5 L 506.1 184.9 L 519.2 206.0 L 531.0 203.5 L 575.2 239.6 L 587.7 253.6 L 574.9 245.2 L 544.2 244.8 L 517.1 226.1 L 582.0 476.7 L 662.4 750.9 L 770.1 818.5 L 768.3 760.3 L 729.8 456.3 L 644.2 266.7 L 637.8 214.4 L 609.7 164.5 L 566.1 132.9 L 556.3 212.4 L 549.0 258.2 L 514.3 200.8 L 570.1 216.8 L 555.0 208.6 L 651.8 222.7 L 636.0 280.8 L 641.5 280.8 L 649.1 253.3 L 641.5 241.0 L 675.0 212.3 L 699.2 213.1 L 736.9 229.6 L 707.1 272.1 L 717.6 250.8 L 767.0 358.0 L 630.0 613.2 L 650.9 861.0 L 757.6 837.5 L 817.2 647.5 L 863.0 445.2 L 901.6 318.0 L 918.4 275.6 L 790.3 476.3 L 803.4 709.9 L 825.2 747.8 L 790.3 563.5 L 813.3 435.7 L 778.0 278.8 L 778.3 205.1 L 871.7 186.9 L 870.8 215.3 L 890.3 234.4 L 892.1 260.1 L 869.5 252.6 L 905.8 253.5 L 955.0 264.4 L 939.4 318.5 L 934.3 310.8 L 943.1 297.0 L 868.4 308.5 L 776.2 352.1 L 900.8 333.3 L 936.8 313.1 L 914.9 292.9 L 906.0 292.9 L 975.5 300.6 L 990.8 248.5 L 932.7 299.4 L 897.5 283.1 L 836.7 228.5 L 833.2 200.9 L 885.2 195.6 L 897.7 239.7 L 898.6 245.7 L 916.4 227.9 L 956.9 239.5 L 985.8 260.9 L 1021.8 259.5 L 983.4 203.8 L 983.8 214.9 L 948.7 222.5 L 926.7 247.2 L 965.6 225.7 L 1003.5 214.4 L 1042.3 222.5 L 1082.8 216.6 L 1087.8 231.4 L 1056.9 260.9 L 1085.6 261.1 L 1099.6 253.4 L 1093.5 256.0 L 1003.6 243.3 L 1000.8 263.9 L 1005.8 742.0 L 1060.0 890.7 L 1167.8 704.5 L 1169.0 446.1 L 963.1 377.4 L 625.7 361.7 L 463.8 379.3 L 429.3 403.2 L 592.5 384.3 L 734.9 349.5 L 850.2 318.4 L 826.8 285.4 L 802.9 270.2 L 753.6 262.8 L 733.8 229.2 L 755.9 249.7 L 658.2 206.5 L 563.0 213.8 L 502.7 237.7 L 496.9 241.8 L 473.2 255.8 L 460.1 244.4 L 476.5 241.1 L 512.9 267.8 L 525.6 296.7 L 517.8 274.2 L 481.8 286.6 L 456.1 323.1 L 471.8 284.8 L 494.3 285.1 L 534.7 385.1 L 586.3 732.2 L 649.6 976.6 L 645.7 766.5 L 578.0 594.4 L 487.0 385.6 L 426.1 355.7 L 423.5 296.0 L 519.4 287.5 L 479.1 285.6 L 466.9 282.6 L 508.0 290.4 L 534.9 257.1 L 546.0 335.9 L 540.1 458.5 L 359.1 402.4 L 342.4 408.3 L 391.5 484.6 L 426.5 483.8 L 472.9 421.6 L 518.2 387.0 L 538.6 385.4 L 541.8 376.1 L 581.6 397.1 L 577.4 415.1 L 551.8 433.4 L 525.3 428.5 L 558.1 432.9 L 516.4 388.6 L 548.3 379.8 L 587.2 345.4 L 588.6 331.6 L 579.4 305.6 L 555.8 276.7 L 552.1 275.9 L 531.5 272.5 L 552.5 293.5 L 552.5 298.0 L 525.6 265.8 L 561.9 270.8 L 537.0 228.2 L 568.9 251.6 L 619.7 283.8 L 642.1 295.8 L 666.9 271.8 L 682.5 256.9 L 667.9 264.8 L 675.6 257.4 L 665.2 268.2 L 653.4 210.1 L 633.1 205.9 L 666.9 227.7 L 697.3 272.3 L 720.6 273.8 L 740.0 266.4 L 804.6 267.6 L 805.5 250.6 L 774.1 260.1 L 810.3 286.9 L 788.6 291.2 L 805.5 233.8 L 762.3 179.5 L 683.5 159.0 L 659.0 172.6 L 702.9 173.8 L 682.6 215.3 L 675.0 193.2 L 668.0 154.1 L 643.6 246.1 L 764.0 333.3 L 742.4 318.4 L 756.7 299.7 L 794.6 286.2 L 802.1 263.1 L 796.9 253.9 L 785.7 253.2 L 804.4 281.5 L 863.1 299.0 L 871.4 299.2 L 870.9 286.3 L 853.2 264.3 L 771.5 257.1 L 716.4 248.3 L 747.6 245.1 L 751.2 289.4 L 746.9 311.8 L 778.1 291.5 L 782.2 271.6 L 765.4 262.1 L 810.1 256.5 L 806.2 271.4 L 809.4 263.2 L 771.3 251.7 L 792.8 244.0 L 821.1 240.4 L 836.8 269.3 L 803.6 262.3 L 763.4 262.8 L 796.8 276.5 L 812.8 305.4 L 845.3 308.3 L 918.4 288.7 L 897.3 411.4 L 877.5 770.5 L 937.6 661.1 L 899.7 515.0 L 917.9 339.2 L 872.7 262.6 L 858.0 245.9 L 928.3 222.8 L 967.9 214.8 L 971.8 205.4 L 953.0 244.6 L 932.6 264.6 L 886.9 286.8 L 901.2 290.2 L 930.8 291.7 L 930.3 287.3 L 918.1 280.9 L 946.0 270.6 L 967.9 255.1 L 967.0 258.1 L 996.3 245.8 L 969.2 235.4 L 1045.4 262.4 L 1067.9 292.5 L 1125.3 278.3 L 1088.1 287.1 L 1001.4 304.7 L 979.2 301.7 L 999.7 289.2 L 1000.3 290.9 L 1038.8 300.7 L 1070.8 292.1 L 1087.5 279.1 L 1111.7 267.6 L 1119.5 278.6 L 1094.5 292.4 L 1124.9 284.4 L 1165.3 257.3 L 1050.1 292.6 L 798.5 312.2 L 631.5 336.1 L 625.1 343.9 L 678.6 375.5 L 672.0 410.4 L 662.1 380.3 L 652.0 385.7 L 620.2 350.3 L 552.2 340.2 L 598.5 346.6 L 790.8 328.4 L 867.6 324.9 L 930.5 337.3 L 954.4 334.6 L 768.9 359.1 L 646.4 350.9 L 592.4 343.8 L 523.4 318.5 L 466.9 315.9 L 388.0 326.3 L 432.0 321.9 L 481.3 335.4 L 512.7 331.0 L 530.8 333.0 L 514.5 330.0 L 496.0 332.6 L 521.8 339.0 L 583.3 326.7 L 595.3 319.4 L 596.5 314.5 L 508.2 355.1 L 544.5 317.4 L 574.4 307.7 L 585.2 307.1 L 590.3 326.6 L 587.2 303.3 L 552.6 283.5 L 588.8 308.6 L 604.7 314.2 L 576.7 307.6 L 574.8 305.4 L 621.2 297.6 L 605.8 326.0 L 616.2 322.7 L 648.9 344.8 L 659.3 330.8 L 656.6 315.7 L 656.8 336.3 L 664.4 338.9 L 626.4 343.9 L 682.6 336.0 L 758.1 342.2 L 672.5 315.0 L 651.6 328.1 L 712.7 357.8 L 762.2 349.6 L 793.5 289.7 L 813.7 275.0 L 777.3 273.3 L 712.8 255.4 L 747.9 248.5 L 752.9 258.6 L 802.2 281.5 L 819.2 291.0 L 785.5 330.8 L 806.3 304.0 L 845.6 302.0 L 795.5 312.3 L 818.8 313.7 L 813.5 300.7 L 795.3 292.7 L 769.7 299.4 L 729.9 286.0 L 749.9 283.9 L 760.5 304.1 L 760.7 313.4 L 809.6 315.4 L 862.6 317.6 L 872.5 313.7 L 887.1 264.6 L 844.8 252.8 L 848.6 235.9 L 817.7 282.3 L 901.0 307.0 L 989.5 287.3 L 977.4 273.5 L 941.8 292.0 L 952.4 311.6 L 925.9 292.0 L 921.3 286.1 L 919.3 281.0 L 942.1 283.2 L 958.3 275.5 L 975.1 284.4 L 978.8 317.2 L 981.9 331.7 L 991.8 331.5 L 972.5 325.4 L 933.2 296.9 L 932.3 351.7 L 960.7 382.8 L 1025.4 327.1 L 1029.2 312.4 L 1108.8 321.8 L 1089.2 298.4 L 1102.4 306.4 L 1100.6 347.6 L 1082.9 377.3 L 775.3 405.7 L 543.1 434.9 L 431.7 448.9 L 415.0 474.5 L 524.3 447.5 L 760.8 390.8 L 877.8 333.1 L 891.9 324.3 L 879.7 311.0 L 840.9 318.9 L 708.1 294.1 L 950.5 280.4 L 950.1 322.9 L 1219.7 276.5 L 1205.8 267.8 L 1163.4 274.6 L 1304.6 239.2 L 1325.3 216.3 L 1370.5 215.0 L 1373.8 201.9 L 1321.3 176.8 L 1318.5 166.9 L 1291.6 161.5 L 1207.5 187.5 L 1194.5 192.2 L 1189.3 176.6 L 1207.3 153.2 L 1208.6 165.3 L 1171.8 183.0 L 1117.4 191.9 L 1060.3 197.6 L 1070.6 201.6 L 1156.6 213.6" fill="none" stroke="#2563eb" stroke-width="2" stroke-opacity="0.35" />
<circle cx="1236.6" cy="753.9" r="9" fill="#2563eb" fill-opacity="0.82" stroke="#fff" stroke-width="2" />
<text x="1236.6" y="757.9" font-family="Arial, Helvetica, sans-serif" font-size="8" font-weight="700" fill="#fff" text-anchor="middle">1</text>
<circle cx="553.0" cy="292.1" r="9" fill="#2d60e2" fill-opacity="0.82" stroke="#fff" stroke-width="2" />
<text x="553.0" y="296.1" font-family="Arial, Helvetica, sans-serif" font-size="8" font-weight="700" fill="#fff" text-anchor="middle">2</text>
<circle cx="544.6" cy="562.8" r="9" fill="#355eda" fill-opacity="0.82" stroke="#fff" stroke-width="2" />
<text x="544.6" y="566.8" font-family="Arial, Helvetica, sans-serif" font-size="8" font-weight="700" fill="#fff" text-anchor="middle">3</text>
<circle cx="733.6" cy="546.8" r="9" fill="#3d5bd1" fill-opacity="0.82" stroke="#fff" stroke-width="2" />
<text x="733.6" y="550.8" font-family="Arial, Helvetica, sans-serif" font-size="8" font-weight="700" fill="#fff" text-anchor="middle">4</text>
<circle cx="750.0" cy="242.5" r="9" fill="#4558c9" fill-opacity="0.82" stroke="#fff" stroke-width="2" />
<text x="750.0" y="246.5" font-family="Arial, Helvetica, sans-serif" font-size="8" font-weight="700" fill="#fff" text-anchor="middle">5</text>
<circle cx="880.1" cy="256.0" r="9" fill="#4d56c0" fill-opacity="0.82" stroke="#fff" stroke-width="2" />
<text x="880.1" y="260.0" font-family="Arial, Helvetica, sans-serif" font-size="8" font-weight="700" fill="#fff" text-anchor="middle">6</text>
<circle cx="897.7" cy="239.7" r="9" fill="#5553b8" fill-opacity="0.82" stroke="#fff" stroke-width="2" />
<text x="897.7" y="243.7" font-family="Arial, Helvetica, sans-serif" font-size="8" font-weight="700" fill="#fff" text-anchor="middle">7</text>
<circle cx="1000.8" cy="263.9" r="9" fill="#5d50af" fill-opacity="0.82" stroke="#fff" stroke-width="2" />
<text x="1000.8" y="267.9" font-family="Arial, Helvetica, sans-serif" font-size="8" font-weight="700" fill="#fff" text-anchor="middle">8</text>
<circle cx="502.7" cy="237.7" r="9" fill="#654ea6" fill-opacity="0.82" stroke="#fff" stroke-width="2" />
<text x="502.7" y="241.7" font-family="Arial, Helvetica, sans-serif" font-size="8" font-weight="700" fill="#fff" text-anchor="middle">9</text>
<circle cx="510.1" cy="299.9" r="9" fill="#6d4b9e" fill-opacity="0.82" stroke="#fff" stroke-width="2" />
<text x="510.1" y="303.9" font-family="Arial, Helvetica, sans-serif" font-size="8" font-weight="700" fill="#fff" text-anchor="middle">10</text>
<circle cx="544.9" cy="419.6" r="9" fill="#754895" fill-opacity="0.82" stroke="#fff" stroke-width="2" />
<text x="544.9" y="423.6" font-family="Arial, Helvetica, sans-serif" font-size="8" font-weight="700" fill="#fff" text-anchor="middle">11</text>
<circle cx="667.4" cy="266.3" r="9" fill="#7d468d" fill-opacity="0.82" stroke="#fff" stroke-width="2" />
<text x="667.4" y="270.3" font-family="Arial, Helvetica, sans-serif" font-size="8" font-weight="700" fill="#fff" text-anchor="middle">12</text>
<circle cx="685.9" cy="181.5" r="9" fill="#844384" fill-opacity="0.82" stroke="#fff" stroke-width="2" />
<text x="685.9" y="185.5" font-family="Arial, Helvetica, sans-serif" font-size="8" font-weight="700" fill="#fff" text-anchor="middle">13</text>
<circle cx="773.3" cy="301.9" r="9" fill="#8c417c" fill-opacity="0.82" stroke="#fff" stroke-width="2" />
<text x="773.3" y="305.9" font-family="Arial, Helvetica, sans-serif" font-size="8" font-weight="700" fill="#fff" text-anchor="middle">14</text>
<circle cx="881.1" cy="455.2" r="9" fill="#943e73" fill-opacity="0.82" stroke="#fff" stroke-width="2" />
<text x="881.1" y="459.2" font-family="Arial, Helvetica, sans-serif" font-size="8" font-weight="700" fill="#fff" text-anchor="middle">15</text>
<circle cx="1067.9" cy="292.5" r="9" fill="#9c3b6b" fill-opacity="0.82" stroke="#fff" stroke-width="2" />
<text x="1067.9" y="296.5" font-family="Arial, Helvetica, sans-serif" font-size="8" font-weight="700" fill="#fff" text-anchor="middle">16</text>
<circle cx="678.6" cy="375.5" r="9" fill="#a43962" fill-opacity="0.82" stroke="#fff" stroke-width="2" />
<text x="678.6" y="379.5" font-family="Arial, Helvetica, sans-serif" font-size="8" font-weight="700" fill="#fff" text-anchor="middle">17</text>
<circle cx="530.8" cy="333.0" r="9" fill="#ac3659" fill-opacity="0.82" stroke="#fff" stroke-width="2" />
<text x="530.8" y="337.0" font-family="Arial, Helvetica, sans-serif" font-size="8" font-weight="700" fill="#fff" text-anchor="middle">18</text>
<circle cx="607.6" cy="316.2" r="9" fill="#b43351" fill-opacity="0.82" stroke="#fff" stroke-width="2" />
<text x="607.6" y="320.2" font-family="Arial, Helvetica, sans-serif" font-size="8" font-weight="700" fill="#fff" text-anchor="middle">19</text>
<circle cx="798.7" cy="272.4" r="9" fill="#bc3148" fill-opacity="0.82" stroke="#fff" stroke-width="2" />
<text x="798.7" y="276.4" font-family="Arial, Helvetica, sans-serif" font-size="8" font-weight="700" fill="#fff" text-anchor="middle">20</text>
<circle cx="834.9" cy="256.9" r="9" fill="#c42e40" fill-opacity="0.82" stroke="#fff" stroke-width="2" />
<text x="834.9" y="260.9" font-family="Arial, Helvetica, sans-serif" font-size="8" font-weight="700" fill="#fff" text-anchor="middle">21</text>
<circle cx="1025.4" cy="327.1" r="9" fill="#cc2b37" fill-opacity="0.82" stroke="#fff" stroke-width="2" />
<text x="1025.4" y="331.1" font-family="Arial, Helvetica, sans-serif" font-size="8" font-weight="700" fill="#fff" text-anchor="middle">22</text>
<circle cx="1095.5" cy="290.9" r="9" fill="#d4292f" fill-opacity="0.82" stroke="#fff" stroke-width="2" />
<text x="1095.5" y="294.9" font-family="Arial, Helvetica, sans-serif" font-size="8" font-weight="700" fill="#fff" text-anchor="middle">23</text>
<circle cx="1156.6" cy="213.6" r="9" fill="#dc2626" fill-opacity="0.82" stroke="#fff" stroke-width="2" />
<text x="1156.6" y="217.6" font-family="Arial, Helvetica, sans-serif" font-size="8" font-weight="700" fill="#fff" text-anchor="middle">24</text>
<circle cx="1236.6" cy="753.9" r="13" fill="none" stroke="#16a34a" stroke-width="4" />
<text x="1252.6" y="741.9" font-family="Arial, Helvetica, sans-serif" font-size="11" font-weight="700" fill="#166534" text-anchor="start">START</text>
<circle cx="1156.6" cy="213.6" r="13" fill="none" stroke="#dc2626" stroke-width="4" />
<text x="1172.6" y="201.6" font-family="Arial, Helvetica, sans-serif" font-size="11" font-weight="700" fill="#991b1b" text-anchor="start">END</text>
<rect x="20.0" y="116.0" width="760.0" height="34.0" rx="6" fill="#ffffff" stroke="#cbd2d9" opacity="0.88" />
<text x="34.0" y="139.0" font-family="Arial, Helvetica, sans-serif" font-size="14" font-weight="400" fill="#1f2933" text-anchor="start">samples=1166 duration=25.1s offscreen=0.9% x_sd=220.1 y_sd=137.2</text>
</svg>