<svg xmlns="http://www.w3.org/2000/svg" viewBox="0 0 1600 865" width="1600" height="865">
<rect x="0.0" y="0.0" width="1600.0" height="865.0" rx="0" fill="#f6f7f9" stroke="none" opacity="1" />
<text x="250.0" y="52.0" font-family="Arial, Helvetica, sans-serif" font-size="24" font-weight="700" fill="#1f2933" text-anchor="start">Reading Gaze Pilot</text>
<text x="250.0" y="78.0" font-family="Arial, Helvetica, sans-serif" font-size="14" font-weight="400" fill="#52606d" text-anchor="start">Reading</text>
<line x1="250.0" y1="100" x2="1350.0" y2="100" stroke="#d9dee7" />
<rect x="1160.0" y="42.0" width="80.0" height="34.0" rx="6" fill="#23395d" stroke="#23395d" opacity="1" />
<text x="1200.0" y="63.0" font-family="Arial, Helvetica, sans-serif" font-size="14" font-weight="400" fill="#fff" text-anchor="middle">Start</text>
<rect x="1250.0" y="42.0" width="100.0" height="34.0" rx="6" fill="#7b8794" stroke="#7b8794" opacity="0.45" />
<text x="1300.0" y="63.0" font-family="Arial, Helvetica, sans-serif" font-size="14" font-weight="400" fill="#fff" text-anchor="middle">Export CSV</text>
<text x="250.0" y="847.0" font-family="Arial, Helvetica, sans-serif" font-size="13" font-weight="400" fill="#52606d" text-anchor="start">reading / reading_trial_2</text>
<rect x="250.0" y="124.0" width="1100.0" height="683.0" rx="8" fill="#fff" stroke="#d9dee7" opacity="1" />
<text x="274.0" y="160.0" font-family="Arial, Helvetica, sans-serif" font-size="16" font-weight="400" fill="#323f4b" text-anchor="start">Passage 2 / 3</text>
<rect x="1230.0" y="142.0" width="96.0" height="36.0" rx="6" fill="#23395d" stroke="#23395d" opacity="1" />
<text x="1278.0" y="165.0" font-family="Arial, Helvetica, sans-serif" font-size="14" font-weight="400" fill="#fff" text-anchor="middle">Continue</text>
<text x="420.0" y="234.0" font-family="Arial, Helvetica, sans-serif" font-size="20" font-weight="400" fill="#1f2933" text-anchor="start">Webcam-based eye tracking estimates where a learner is looking by using a</text>
<text x="420.0" y="272.0" font-family="Arial, Helvetica, sans-serif" font-size="20" font-weight="400" fill="#1f2933" text-anchor="start">standard camera. The signal is noisier than a research-grade eye tracker, but</text>
<text x="420.0" y="310.0" font-family="Arial, Helvetica, sans-serif" font-size="20" font-weight="400" fill="#1f2933" text-anchor="start">it can be useful for low-risk measures such as reading time, off-screen gaze,</text>
<text x="420.0" y="348.0" font-family="Arial, Helvetica, sans-serif" font-size="20" font-weight="400" fill="#1f2933" text-anchor="start">and attention shifts.</text>
<path d="M 367.8 419.9 L 393.1 392.8 L 372.0 380.2 L 282.6 368.6 L 234.7 341.7 L 231.6 351.0 L 208.0 345.1 L 215.8 328.0 L 275.2 329.7 L 319.8 350.4 L 383.1 384.8 L 417.4 390.6 L 426.1 395.7 L 411.8 403.9 L 396.9 396.5 L 419.7 371.6 L 412.6 347.0 L 384.8 330.5 L 379.1 299.2 L 378.5 306.9 L 451.1 381.9 L 326.1 376.3 L 288.1 371.8 L 330.2 323.3 L 374.9 283.1 L 371.6 250.3 L 401.4 260.3 L 349.9 192.7 L 389.8 218.1 L 419.0 216.7 L 401.0 217.5 L 405.0 221.6 L 435.9 247.5 L 399.1 274.2 L 437.2 320.4 L 486.9 319.1 L 512.8 310.2 L 536.3 360.5 L 539.6 365.0 L 533.2 362.7 L 550.5 355.1 L 536.3 362.0 L 548.9 346.4 L 505.4 297.5 L 448.8 286.4 L 524.9 277.5 L 547.8 247.4 L 527.5 266.7 L 518.9 319.9 L 502.3 345.5 L 532.7 323.4 L 583.1 314.5 L 551.1 292.9 L 578.1 281.3 L 563.3 273.9 L 571.8 258.7 L 603.2 252.6 L 629.0 241.7 L 653.7 236.2 L 636.7 230.2 L 601.4 238.7 L 574.5 239.0 L 582.3 237.6 L 536.4 240.8 L 508.4 277.6 L 562.5 279.6 L 620.2 260.4 L 667.3 264.0 L 622.4 277.9 L 596.7 274.2 L 599.9 266.3 L 604.9 249.4 L 642.5 236.7 L 604.6 273.0 L 642.2 262.2 L 722.8 279.5 L 749.3 262.7 L 744.6 253.5 L 723.9 252.3 L 750.8 225.8 L 789.3 247.1 L 761.7 280.4 L 743.0 259.1 L 719.6 273.0 L 731.5 238.0 L 729.1 234.1 L 698.2 235.1 L 686.9 219.0 L 662.5 218.5 L 626.9 244.4 L 647.0 238.4 L 729.4 239.1 L 775.8 238.2 L 824.0 263.1 L 856.1 295.3 L 866.7 285.0 L 861.3 274.3 L 830.5 246.5 L 921.9 221.7 L 945.9 157.6 L 914.4 163.4 L 857.6 185.9 L 807.1 255.1 L 808.0 299.9 L 809.5 321.5 L 825.3 276.0 L 822.8 268.9 L 857.9 269.4 L 810.0 316.1 L 799.1 307.4 L 825.3 263.2 L 878.5 241.2 L 839.5 204.7 L 801.3 191.0 L 841.2 191.5 L 853.8 208.4 L 858.0 231.7 L 922.6 237.5 L 1013.0 281.0 L 1008.0 271.2 L 1029.2 245.7 L 980.1 256.4 L 938.7 240.7 L 976.3 239.1 L 931.9 239.8 L 1038.5 256.6 L 1022.8 251.3 L 1036.4 244.1 L 997.6 236.1 L 1078.0 235.5 L 1079.7 247.6 L 1137.9 247.6 L 1148.7 253.3 L 1112.0 256.5 L 1133.3 255.4 L 1179.8 247.5 L 1181.3 240.0 L 1235.4 250.8 L 1273.4 232.1 L 1251.6 246.8 L 1225.8 242.2 L 1185.5 229.3 L 1186.7 219.2 L 1138.2 218.8 L 1071.5 227.5 L 1020.7 256.0 L 1021.2 234.8 L 1077.4 218.1 L 1041.8 246.6 L 856.8 319.0 L 504.4 386.0 L 493.9 409.4 L 624.1 367.9 L 656.0 308.4 L 645.9 277.4 L 592.8 304.9 L 502.4 312.1 L 488.4 295.0 L 521.0 290.7 L 602.2 322.9 L 581.5 320.2 L 611.1 278.9 L 617.2 272.9 L 579.1 295.5 L 561.2 282.4 L 575.0 282.8 L 611.2 269.5 L 577.0 258.5 L 563.4 255.4 L 534.0 268.0 L 532.4 304.8 L 531.9 301.7 L 518.1 313.0 L 568.6 268.0 L 586.4 294.2 L 523.7 342.8 L 489.2 396.8 L 477.9 366.8 L 402.2 454.1 L 356.4 484.7 L 418.0 520.6 L 466.5 508.2 L 545.0 467.4 L 579.4 424.9 L 540.0 402.0 L 521.0 365.7 L 510.3 338.8 L 512.3 311.0 L 525.9 310.2 L 618.2 301.4 L 548.0 280.1 L 542.6 262.8 L 540.6 316.0 L 572.9 321.7 L 539.4 310.4 L 533.7 306.4 L 533.2 295.8 L 559.6 268.0 L 568.5 239.8 L 595.6 228.4 L 626.5 211.5 L 672.4 216.0 L 556.0 246.3 L 579.0 277.7 L 561.7 279.5 L 561.4 300.4 L 569.3 311.4 L 604.1 310.2 L 606.4 298.6 L 643.2 279.5 L 658.8 282.5 L 677.6 267.6 L 694.7 281.6 L 709.9 299.9 L 678.9 312.9 L 684.3 321.9 L 723.1 321.4 L 725.5 300.9 L 713.5 279.3 L 708.9 250.4 L 684.9 223.3 L 593.8 260.5 L 596.9 254.2 L 621.8 260.0 L 664.8 256.2 L 709.8 265.2 L 729.3 258.8 L 744.7 268.5 L 751.9 256.1 L 746.0 239.1 L 748.3 236.0 L 814.5 225.1 L 862.1 231.9 L 872.8 250.3 L 848.7 266.1 L 816.8 301.8 L 791.4 302.7 L 784.0 285.0 L 796.5 294.9 L 786.0 279.5 L 782.3 278.2 L 811.0 266.8 L 821.6 278.1 L 835.0 274.8 L 840.6 268.8 L 827.2 310.4 L 808.8 303.0 L 847.0 302.4 L 839.1 276.8 L 820.9 287.4 L 814.1 292.8 L 821.2 324.1 L 833.0 319.5 L 851.7 295.4 L 887.5 292.8 L 917.9 303.8 L 958.0 305.3 L 962.6 329.2 L 930.0 340.3 L 921.0 331.0 L 927.4 295.9 L 912.7 283.8 L 888.1 274.0 L 830.8 285.4 L 834.7 284.8 L 909.3 273.5 L 934.1 289.8 L 985.6 306.8 L 1011.5 270.9 L 1013.9 259.7 L 966.4 269.2 L 986.9 267.6 L 987.0 269.9 L 1007.2 297.3 L 1029.1 308.1 L 1000.8 305.2 L 983.5 285.2 L 969.6 258.5 L 988.3 265.4 L 970.6 271.5 L 1019.1 260.4 L 1064.8 249.2 L 1063.3 268.6 L 1045.4 272.4 L 1029.5 282.9 L 1057.4 276.4 L 1168.1 274.1 L 1120.6 260.3 L 1135.0 238.9 L 1089.0 246.7 L 1110.6 259.6 L 1108.3 260.1 L 1092.5 270.1 L 1034.4 275.6 L 1040.6 269.0 L 1090.0 284.0 L 1067.4 289.2 L 1069.3 296.2 L 963.6 312.9 L 818.9 292.9 L 720.7 298.4 L 744.5 288.4 L 689.7 301.7 L 610.4 293.8 L 579.5 266.7 L 504.3 267.7 L 425.6 274.9 L 458.9 285.8 L 486.6 276.4 L 403.0 286.0 L 432.6 288.4 L 490.1 296.4 L 551.6 318.0 L 678.4 338.0 L 719.6 340.6 L 788.1 404.3 L 801.3 426.6 L 600.3 439.0 L 480.4 465.0 L 436.5 254.8 L 434.0 287.4 L 452.1 314.1 L 488.6 300.7 L 503.9 287.7 L 465.2 319.5 L 438.9 332.5 L 441.4 347.0 L 440.8 345.4 L 452.0 311.3 L 496.9 303.6 L 509.2 292.6 L 518.2 307.7 L 492.5 334.0 L 508.2 336.5 L 524.2 318.9 L 553.4 301.5 L 577.7 312.6 L 575.0 304.1 L 598.4 327.4 L 664.1 322.9 L 686.2 333.4 L 680.1 342.2 L 703.6 342.9 L 654.0 332.8 L 663.5 338.7 L 648.4 346.1 L 633.7 333.4 L 623.3 316.7 L 589.1 309.0 L 528.0 320.1 L 546.1 323.9 L 595.4 314.8 L 605.2 289.1 L 631.1 313.3 L 673.9 312.7 L 681.0 334.8 L 693.2 339.6 L 676.7 334.8 L 691.6 321.5 L 649.1 321.3 L 656.6 302.7 L 681.0 316.3 L 699.5 330.2 L 700.6 319.6 L 686.7 323.4 L 721.4 335.9 L 742.7 345.1 L 757.6 354.3 L 712.1 349.7 L 694.4 318.0 L 729.8 316.4 L 731.5 329.6 L 678.9 348.9 L 701.9 329.2 L 737.2 307.7 L 741.0 305.8 L 741.6 320.4 L 769.0 332.9 L 818.3 322.1 L 809.6 307.4 L 798.0 313.6 L 804.3 314.8 L 846.1 329.8 L 805.1 320.5 L 839.9 309.6 L 838.8 317.8 L 835.9 323.8 L 835.2 330.3 L 848.1 327.1 L 878.3 300.4 L 913.0 309.8 L 949.8 298.9 L 924.1 306.9 L 906.6 301.6 L 924.4 287.5 L 937.8 302.4 L 938.0 291.9 L 887.6 322.3 L 895.8 337.6 L 930.4 313.7 L 947.1 285.4 L 941.2 268.1 L 938.5 255.1 L 931.2 243.2 L 925.1 278.5 L 944.3 304.5 L 960.5 317.8 L 1001.8 344.5 L 991.6 373.2 L 996.8 369.8 L 1010.5 335.0 L 1050.8 322.4 L 1039.2 330.0 L 1055.5 336.1 L 1074.4 314.4 L 1076.1 299.3 L 1072.7 310.7 L 1088.9 322.9 L 1079.5 330.0 L 1042.9 314.1 L 1035.8 294.5 L 1097.1 291.4 L 1114.2 306.0 L 1074.7 312.7 L 1079.4 313.8 L 1094.2 310.6 L 1123.2 294.3 L 1113.4 277.7 L 1094.7 300.5 L 1046.0 349.1 L 1008.2 383.6 L 1002.6 389.3 L 1030.2 377.9 L 1066.0 342.7 L 1153.3 271.5 L 1106.0 271.9 L 1158.9 258.4 L 1204.6 231.8 L 1232.8 215.7 L 1266.8 220.4 L 1277.1 214.2 L 1274.6 219.6 L 1276.7 223.8 L 1271.8 227.2 L 1276.0 217.7 L 1274.7 212.7 L 1282.3 219.2 L 1283.1 230.3 L 1289.4 227.1 L 1292.2 239.8" fill="none" stroke="#2563eb" stroke-width="2" stroke-opacity="0.35" />
<circle cx="367.8" cy="419.9" r="9" fill="#2563eb" fill-opacity="0.82" stroke="#fff" stroke-width="2" />
<text x="367.8" y="423.9" font-family="Arial, Helvetica, sans-serif" font-size="8" font-weight="700" fill="#fff" text-anchor="middle">1</text>
<circle cx="456.0" cy="409.5" r="9" fill="#2d60e2" fill-opacity="0.82" stroke="#fff" stroke-width="2" />
<text x="456.0" y="413.5" font-family="Arial, Helvetica, sans-serif" font-size="8" font-weight="700" fill="#fff" text-anchor="middle">2</text>
<circle cx="533.2" cy="362.7" r="9" fill="#355eda" fill-opacity="0.82" stroke="#fff" stroke-width="2" />
<text x="533.2" y="366.7" font-family="Arial, Helvetica, sans-serif" font-size="8" font-weight="700" fill="#fff" text-anchor="middle">3</text>
<circle cx="643.2" cy="235.2" r="9" fill="#3d5bd1" fill-opacity="0.82" stroke="#fff" stroke-width="2" />
<text x="643.2" y="239.2" font-family="Arial, Helvetica, sans-serif" font-size="8" font-weight="700" fill="#fff" text-anchor="middle">4</text>
<circle cx="723.9" cy="252.3" r="9" fill="#4558c9" fill-opacity="0.82" stroke="#fff" stroke-width="2" />
<text x="723.9" y="256.3" font-family="Arial, Helvetica, sans-serif" font-size="8" font-weight="700" fill="#fff" text-anchor="middle">5</text>
<circle cx="896.4" cy="228.8" r="9" fill="#4d56c0" fill-opacity="0.82" stroke="#fff" stroke-width="2" />
<text x="896.4" y="232.8" font-family="Arial, Helvetica, sans-serif" font-size="8" font-weight="700" fill="#fff" text-anchor="middle">6</text>
<circle cx="922.6" cy="237.5" r="9" fill="#5553b8" fill-opacity="0.82" stroke="#fff" stroke-width="2" />
<text x="922.6" y="241.5" font-family="Arial, Helvetica, sans-serif" font-size="8" font-weight="700" fill="#fff" text-anchor="middle">7</text>
<circle cx="1220.0" cy="243.9" r="9" fill="#5d50af" fill-opacity="0.82" stroke="#fff" stroke-width="2" />
<text x="1220.0" y="247.9" font-family="Arial, Helvetica, sans-serif" font-size="8" font-weight="700" fill="#fff" text-anchor="middle">8</text>
<circle cx="483.0" cy="305.8" r="9" fill="#654ea6" fill-opacity="0.82" stroke="#fff" stroke-width="2" />
<text x="483.0" y="309.8" font-family="Arial, Helvetica, sans-serif" font-size="8" font-weight="700" fill="#fff" text-anchor="middle">9</text>
<circle cx="496.5" cy="387.6" r="9" fill="#6d4b9e" fill-opacity="0.82" stroke="#fff" stroke-width="2" />
<text x="496.5" y="391.6" font-family="Arial, Helvetica, sans-serif" font-size="8" font-weight="700" fill="#fff" text-anchor="middle">10</text>
<circle cx="553.0" cy="315.2" r="9" fill="#754895" fill-opacity="0.82" stroke="#fff" stroke-width="2" />
<text x="553.0" y="319.2" font-family="Arial, Helvetica, sans-serif" font-size="8" font-weight="700" fill="#fff" text-anchor="middle">11</text>
<circle cx="691.4" cy="320.4" r="9" fill="#7d468d" fill-opacity="0.82" stroke="#fff" stroke-width="2" />
<text x="691.4" y="324.4" font-family="Arial, Helvetica, sans-serif" font-size="8" font-weight="700" fill="#fff" text-anchor="middle">12</text>
<circle cx="841.0" cy="285.3" r="9" fill="#844384" fill-opacity="0.82" stroke="#fff" stroke-width="2" />
<text x="841.0" y="289.3" font-family="Arial, Helvetica, sans-serif" font-size="8" font-weight="700" fill="#fff" text-anchor="middle">13</text>
<circle cx="887.5" cy="280.4" r="9" fill="#8c417c" fill-opacity="0.82" stroke="#fff" stroke-width="2" />
<text x="887.5" y="284.4" font-family="Arial, Helvetica, sans-serif" font-size="8" font-weight="700" fill="#fff" text-anchor="middle">14</text>
<circle cx="1031.6" cy="306.9" r="9" fill="#943e73" fill-opacity="0.82" stroke="#fff" stroke-width="2" />
<text x="1031.6" y="310.9" font-family="Arial, Helvetica, sans-serif" font-size="8" font-weight="700" fill="#fff" text-anchor="middle">15</text>
<circle cx="1030.7" cy="281.8" r="9" fill="#9c3b6b" fill-opacity="0.82" stroke="#fff" stroke-width="2" />
<text x="1030.7" y="285.8" font-family="Arial, Helvetica, sans-serif" font-size="8" font-weight="700" fill="#fff" text-anchor="middle">16</text>
<circle cx="601.9" cy="324.0" r="9" fill="#a43962" fill-opacity="0.82" stroke="#fff" stroke-width="2" />
<text x="601.9" y="328.0" font-family="Arial, Helvetica, sans-serif" font-size="8" font-weight="700" fill="#fff" text-anchor="middle">17</text>
<circle cx="492.5" cy="334.0" r="9" fill="#ac3659" fill-opacity="0.82" stroke="#fff" stroke-width="2" />
<text x="492.5" y="338.0" font-family="Arial, Helvetica, sans-serif" font-size="8" font-weight="700" fill="#fff" text-anchor="middle">18</text>
<circle cx="598.6" cy="305.0" r="9" fill="#b43351" fill-opacity="0.82" stroke="#fff" stroke-width="2" />
<text x="598.6" y="309.0" font-family="Arial, Helvetica, sans-serif" font-size="8" font-weight="700" fill="#fff" text-anchor="middle">19</text>
<circle cx="731.5" cy="329.6" r="9" fill="#bc3148" fill-opacity="0.82" stroke="#fff" stroke-width="2" />
<text x="731.5" y="333.6" font-family="Arial, Helvetica, sans-serif" font-size="8" font-weight="700" fill="#fff" text-anchor="middle">20</text>
<circle cx="917.7" cy="309.0" r="9" fill="#c42e40" fill-opacity="0.82" stroke="#fff" stroke-width="2" />
<text x="917.7" y="313.0" font-family="Arial, Helvetica, sans-serif" font-size="8" font-weight="700" fill="#fff" text-anchor="middle">21</text>
<circle cx="1010.5" cy="335.0" r="9" fill="#cc2b37" fill-opacity="0.82" stroke="#fff" stroke-width="2" />
<text x="1010.5" y="339.0" font-family="Arial, Helvetica, sans-serif" font-size="8" font-weight="700" fill="#fff" text-anchor="middle">22</text>
<circle cx="1032.8" cy="362.9" r="9" fill="#d4292f" fill-opacity="0.82" stroke="#fff" stroke-width="2" />
<text x="1032.8" y="366.9" font-family="Arial, Helvetica, sans-serif" font-size="8" font-weight="700" fill="#fff" text-anchor="middle">23</text>
<circle cx="1292.2" cy="239.8" r="9" fill="#dc2626" fill-opacity="0.82" stroke="#fff" stroke-width="2" />
<text x="1292.2" y="243.8" font-family="Arial, Helvetica, sans-serif" font-size="8" font-weight="700" fill="#fff" text-anchor="middle">24</text>
<circle cx="367.8" cy="419.9" r="13" fill="none" stroke="#16a34a" stroke-width="4" />
<text x="383.8" y="407.9" font-family="Arial, Helvetica, sans-serif" font-size="11" font-weight="700" fill="#166534" text-anchor="start">START</text>
<circle cx="1292.2" cy="239.8" r="13" fill="none" stroke="#dc2626" stroke-width="4" />
<text x="1308.2" y="227.8" font-family="Arial, Helvetica, sans-serif" font-size="11" font-weight="700" fill="#991b1b" text-anchor="start">END</text>
<rect x="20.0" y="116.0" width="760.0" height="34.0" rx="6" fill="#ffffff" stroke="#cbd2d9" opacity="0.88" />
<text x="34.0" y="139.0" font-family="Arial, Helvetica, sans-serif" font-size="14" font-weight="400" fill="#1f2933" text-anchor="start">samples=1210 duration=25.9s offscreen=0.0% x_sd=242.1 y_sd=50.5</text>
</svg>