<svg xmlns="http://www.w3.org/2000/svg" viewBox="0 0 1600 865" width="1600" height="865">
<rect x="0.0" y="0.0" width="1600.0" height="865.0" rx="0" fill="#f6f7f9" stroke="none" opacity="1" />
<text x="250.0" y="52.0" font-family="Arial, Helvetica, sans-serif" font-size="24" font-weight="700" fill="#1f2933" text-anchor="start">Reading Gaze Pilot</text>
<text x="250.0" y="78.0" font-family="Arial, Helvetica, sans-serif" font-size="14" font-weight="400" fill="#52606d" text-anchor="start">Probe</text>
<line x1="250.0" y1="100" x2="1350.0" y2="100" stroke="#d9dee7" />
<rect x="1160.0" y="42.0" width="80.0" height="34.0" rx="6" fill="#23395d" stroke="#23395d" opacity="1" />
<text x="1200.0" y="63.0" font-family="Arial, Helvetica, sans-serif" font-size="14" font-weight="400" fill="#fff" text-anchor="middle">Start</text>
<rect x="1250.0" y="42.0" width="100.0" height="34.0" rx="6" fill="#7b8794" stroke="#7b8794" opacity="0.45" />
<text x="1300.0" y="63.0" font-family="Arial, Helvetica, sans-serif" font-size="14" font-weight="400" fill="#fff" text-anchor="middle">Export CSV</text>
<text x="250.0" y="847.0" font-family="Arial, Helvetica, sans-serif" font-size="13" font-weight="400" fill="#52606d" text-anchor="start">probe / probe_trial_3</text>
<rect x="250.0" y="124.0" width="1100.0" height="683.0" rx="8" fill="#fff" stroke="#d9dee7" opacity="1" />
<text x="274.0" y="166.0" font-family="Arial, Helvetica, sans-serif" font-size="20" font-weight="700" fill="#1f2933" text-anchor="start">Quick Check</text>
<text x="274.0" y="210.0" font-family="Arial, Helvetica, sans-serif" font-size="14" font-weight="400" fill="#323f4b" text-anchor="start">Just before this screen, were you thinking about something unrelated to the</text>
<text x="274.0" y="232.0" font-family="Arial, Helvetica, sans-serif" font-size="14" font-weight="400" fill="#323f4b" text-anchor="start">reading?</text>
<rect x="274.0" y="258.0" width="360.0" height="34.0" rx="6" fill="#fff" stroke="#cbd2d9" opacity="1" />
<text x="286.0" y="280.0" font-family="Arial, Helvetica, sans-serif" font-size="14" font-weight="400" fill="#52606d" text-anchor="start">No / Yes</text>
<text x="274.0" y="334.0" font-family="Arial, Helvetica, sans-serif" font-size="14" font-weight="400" fill="#323f4b" text-anchor="start">Difficulty</text>
<line x1="274.0" y1="362.0" x2="634.0" y2="362.0" stroke="#9aa5b1" stroke-width="5" stroke-linecap="round" />
<text x="274.0" y="410.0" font-family="Arial, Helvetica, sans-serif" font-size="14" font-weight="400" fill="#323f4b" text-anchor="start">Familiarity</text>
<line x1="274.0" y1="438.0" x2="634.0" y2="438.0" stroke="#9aa5b1" stroke-width="5" stroke-linecap="round" />
<path d="M 1337.5 191.6 L 1321.2 200.9 L 1305.1 212.7 L 1295.2 223.7 L 1273.5 228.2 L 1269.5 230.1 L 1273.4 225.9 L 1271.8 222.9 L 1277.7 216.8 L 1283.2 211.5 L 1293.6 209.6 L 1293.5 206.4 L 1114.4 249.9 L 953.5 287.0 L 755.2 310.1 L 592.0 328.5 L 439.6 341.0 L 327.1 352.5 L 242.6 373.9 L 198.9 364.7 L 153.6 383.6 L 356.2 337.8 L 558.8 269.8 L 647.6 252.9 L 756.8 240.5 L 848.2 231.0 L 938.4 217.7 L 869.4 210.3 L 805.8 205.1 L 808.3 213.9 L 735.7 227.3 L 672.6 239.4 L 578.7 288.6 L 538.5 283.6 L 444.4 295.1 L 422.5 261.7 L 416.5 272.7 L 407.3 284.7 L 402.9 294.7 L 351.5 289.0 L 371.4 291.8 L 329.6 294.1 L 285.4 311.7 L 332.6 307.6 L 375.7 303.5 L 389.5 297.8 L 402.0 292.7 L 412.9 288.2 L 398.3 302.2 L 402.8 306.8 L 393.2 311.8 L 365.0 305.4 L 381.2 300.7 L 343.4 306.8 L 341.8 297.0 L 337.5 300.6 L 334.6 303.6 L 326.6 295.8 L 321.8 289.1 L 312.1 281.1 L 295.4 275.2 L 346.6 255.1 L 336.0 269.2 L 312.9 276.1 L 325.4 263.9 L 336.6 253.7 L 338.7 254.5 L 335.8 252.2 L 333.2 250.7 L 311.9 251.8 L 289.7 256.9 L 271.2 261.6 L 259.3 258.9 L 250.1 256.6 L 242.8 251.4 L 242.5 250.1 L 243.2 249.2 L 244.7 248.7 L 241.1 249.9 L 244.6 245.6 L 248.1 242.0 L 259.6 239.4 L 269.7 237.4 L 275.4 240.4 L 275.4 227.6 L 275.2 216.9 L 292.9 219.4 L 315.4 218.1 L 334.1 217.3 L 345.5 226.6 L 360.4 237.7 L 372.0 247.2 L 380.7 255.1 L 417.1 266.1 L 428.2 277.7 L 451.4 303.2 L 447.7 302.4 L 448.3 307.8 L 476.3 311.1 L 465.5 318.0 L 454.8 323.3 L 413.7 304.5 L 397.5 324.0 L 377.3 329.5 L 360.4 333.7 L 370.5 342.4 L 380.0 349.2 L 389.6 355.0 L 387.3 369.1 L 383.3 383.2 L 379.6 394.9 L 376.5 404.4 L 374.1 411.5 L 354.0 415.3 L 351.3 411.8 L 349.5 408.0 L 351.6 409.6 L 319.5 400.7 L 302.9 392.1 L 281.9 387.0 L 258.3 361.6 L 239.5 340.1 L 214.1 348.4 L 225.0 360.2 L 210.0 351.4 L 206.4 351.6 L 204.7 352.2 L 190.1 345.4 L 175.8 341.9" fill="none" stroke="#2563eb" stroke-width="2" stroke-opacity="0.35" />
<circle cx="1337.5" cy="191.6" r="9" fill="#2563eb" fill-opacity="0.82" stroke="#fff" stroke-width="2" />
<text x="1337.5" y="195.6" font-family="Arial, Helvetica, sans-serif" font-size="8" font-weight="700" fill="#fff" text-anchor="middle">1</text>
<circle cx="1273.4" cy="225.9" r="9" fill="#2d60e2" fill-opacity="0.82" stroke="#fff" stroke-width="2" />
<text x="1273.4" y="229.9" font-family="Arial, Helvetica, sans-serif" font-size="8" font-weight="700" fill="#fff" text-anchor="middle">2</text>
<circle cx="1293.5" cy="206.4" r="9" fill="#355eda" fill-opacity="0.82" stroke="#fff" stroke-width="2" />
<text x="1293.5" y="210.4" font-family="Arial, Helvetica, sans-serif" font-size="8" font-weight="700" fill="#fff" text-anchor="middle">3</text>
<circle cx="327.1" cy="352.5" r="9" fill="#3d5bd1" fill-opacity="0.82" stroke="#fff" stroke-width="2" />
<text x="327.1" y="356.5" font-family="Arial, Helvetica, sans-serif" font-size="8" font-weight="700" fill="#fff" text-anchor="middle">4</text>
<circle cx="558.8" cy="269.8" r="9" fill="#4558c9" fill-opacity="0.82" stroke="#fff" stroke-width="2" />
<text x="558.8" y="273.8" font-family="Arial, Helvetica, sans-serif" font-size="8" font-weight="700" fill="#fff" text-anchor="middle">5</text>
<circle cx="805.8" cy="205.1" r="9" fill="#4d56c0" fill-opacity="0.82" stroke="#fff" stroke-width="2" />
<text x="805.8" y="209.1" font-family="Arial, Helvetica, sans-serif" font-size="8" font-weight="700" fill="#fff" text-anchor="middle">6</text>
<circle cx="538.5" cy="283.6" r="9" fill="#5553b8" fill-opacity="0.82" stroke="#fff" stroke-width="2" />
<text x="538.5" y="287.6" font-family="Arial, Helvetica, sans-serif" font-size="8" font-weight="700" fill="#fff" text-anchor="middle">7</text>
<circle cx="351.5" cy="289.0" r="9" fill="#5d50af" fill-opacity="0.82" stroke="#fff" stroke-width="2" />
<text x="351.5" y="293.0" font-family="Arial, Helvetica, sans-serif" font-size="8" font-weight="700" fill="#fff" text-anchor="middle">8</text>
<circle cx="389.5" cy="297.8" r="9" fill="#654ea6" fill-opacity="0.82" stroke="#fff" stroke-width="2" />
<text x="389.5" y="301.8" font-family="Arial, Helvetica, sans-serif" font-size="8" font-weight="700" fill="#fff" text-anchor="middle">9</text>
<circle cx="393.2" cy="311.8" r="9" fill="#6d4b9e" fill-opacity="0.82" stroke="#fff" stroke-width="2" />
<text x="393.2" y="315.8" font-family="Arial, Helvetica, sans-serif" font-size="8" font-weight="700" fill="#fff" text-anchor="middle">10</text>
<circle cx="334.6" cy="303.6" r="9" fill="#754895" fill-opacity="0.82" stroke="#fff" stroke-width="2" />
<text x="334.6" y="307.6" font-family="Arial, Helvetica, sans-serif" font-size="8" font-weight="700" fill="#fff" text-anchor="middle">11</text>
<circle cx="346.6" cy="255.1" r="9" fill="#7d468d" fill-opacity="0.82" stroke="#fff" stroke-width="2" />
<text x="346.6" y="259.1" font-family="Arial, Helvetica, sans-serif" font-size="8" font-weight="700" fill="#fff" text-anchor="middle">12</text>
<circle cx="335.8" cy="252.2" r="9" fill="#844384" fill-opacity="0.82" stroke="#fff" stroke-width="2" />
<text x="335.8" y="256.2" font-family="Arial, Helvetica, sans-serif" font-size="8" font-weight="700" fill="#fff" text-anchor="middle">13</text>
<circle cx="259.3" cy="258.9" r="9" fill="#8c417c" fill-opacity="0.82" stroke="#fff" stroke-width="2" />
<text x="259.3" y="262.9" font-family="Arial, Helvetica, sans-serif" font-size="8" font-weight="700" fill="#fff" text-anchor="middle">14</text>
<circle cx="241.1" cy="249.9" r="9" fill="#943e73" fill-opacity="0.82" stroke="#fff" stroke-width="2" />
<text x="241.1" y="253.9" font-family="Arial, Helvetica, sans-serif" font-size="8" font-weight="700" fill="#fff" text-anchor="middle">15</text>
<circle cx="275.4" cy="240.4" r="9" fill="#9c3b6b" fill-opacity="0.82" stroke="#fff" stroke-width="2" />
<text x="275.4" y="244.4" font-family="Arial, Helvetica, sans-serif" font-size="8" font-weight="700" fill="#fff" text-anchor="middle">16</text>
<circle cx="345.5" cy="226.6" r="9" fill="#a43962" fill-opacity="0.82" stroke="#fff" stroke-width="2" />
<text x="345.5" y="230.6" font-family="Arial, Helvetica, sans-serif" font-size="8" font-weight="700" fill="#fff" text-anchor="middle">17</text>
<circle cx="451.4" cy="303.2" r="9" fill="#ac3659" fill-opacity="0.82" stroke="#fff" stroke-width="2" />
<text x="451.4" y="307.2" font-family="Arial, Helvetica, sans-serif" font-size="8" font-weight="700" fill="#fff" text-anchor="middle">18</text>
<circle cx="454.8" cy="323.3" r="9" fill="#b43351" fill-opacity="0.82" stroke="#fff" stroke-width="2" />
<text x="454.8" y="327.3" font-family="Arial, Helvetica, sans-serif" font-size="8" font-weight="700" fill="#fff" text-anchor="middle">19</text>
<circle cx="380.0" cy="349.2" r="9" fill="#bc3148" fill-opacity="0.82" stroke="#fff" stroke-width="2" />
<text x="380.0" y="353.2" font-family="Arial, Helvetica, sans-serif" font-size="8" font-weight="700" fill="#fff" text-anchor="middle">20</text>
<circle cx="376.5" cy="404.4" r="9" fill="#c42e40" fill-opacity="0.82" stroke="#fff" stroke-width="2" />
<text x="376.5" y="408.4" font-family="Arial, Helvetica, sans-serif" font-size="8" font-weight="700" fill="#fff" text-anchor="middle">21</text>
<circle cx="319.5" cy="400.7" r="9" fill="#cc2b37" fill-opacity="0.82" stroke="#fff" stroke-width="2" />
<text x="319.5" y="404.7" font-family="Arial, Helvetica, sans-serif" font-size="8" font-weight="700" fill="#fff" text-anchor="middle">22</text>
<circle cx="214.1" cy="348.4" r="9" fill="#d4292f" fill-opacity="0.82" stroke="#fff" stroke-width="2" />
<text x="214.1" y="352.4" font-family="Arial, Helvetica, sans-serif" font-size="8" font-weight="700" fill="#fff" text-anchor="middle">23</text>
<circle cx="175.8" cy="341.9" r="9" fill="#dc2626" fill-opacity="0.82" stroke="#fff" stroke-width="2" />
<text x="175.8" y="345.9" font-family="Arial, Helvetica, sans-serif" font-size="8" font-weight="700" fill="#fff" text-anchor="middle">24</text>
<circle cx="1337.5" cy="191.6" r="13" fill="none" stroke="#16a34a" stroke-width="4" />
<text x="1353.5" y="179.6" font-family="Arial, Helvetica, sans-serif" font-size="11" font-weight="700" fill="#166534" text-anchor="start">START</text>
<circle cx="175.8" cy="341.9" r="13" fill="none" stroke="#dc2626" stroke-width="4" />
<text x="191.8" y="329.9" font-family="Arial, Helvetica, sans-serif" font-size="11" font-weight="700" fill="#991b1b" text-anchor="start">END</text>
<rect x="20.0" y="116.0" width="760.0" height="34.0" rx="6" fill="#ffffff" stroke="#cbd2d9" opacity="0.88" />
<text x="34.0" y="139.0" font-family="Arial, Helvetica, sans-serif" font-size="14" font-weight="400" fill="#1f2933" text-anchor="start">samples=129 duration=2.7s offscreen=0.0% x_sd=308.6 y_sd=56.4</text>
</svg>