<svg xmlns="http://www.w3.org/2000/svg" viewBox="0 0 1600 865" width="1600" height="865">
<rect x="0.0" y="0.0" width="1600.0" height="865.0" rx="0" fill="#f6f7f9" stroke="none" opacity="1" />
<text x="250.0" y="52.0" font-family="Arial, Helvetica, sans-serif" font-size="24" font-weight="700" fill="#1f2933" text-anchor="start">Reading Gaze Pilot</text>
<text x="250.0" y="78.0" font-family="Arial, Helvetica, sans-serif" font-size="14" font-weight="400" fill="#52606d" text-anchor="start">Probe</text>
<line x1="250.0" y1="100" x2="1350.0" y2="100" stroke="#d9dee7" />
<rect x="1160.0" y="42.0" width="80.0" height="34.0" rx="6" fill="#23395d" stroke="#23395d" opacity="1" />
<text x="1200.0" y="63.0" font-family="Arial, Helvetica, sans-serif" font-size="14" font-weight="400" fill="#fff" text-anchor="middle">Start</text>
<rect x="1250.0" y="42.0" width="100.0" height="34.0" rx="6" fill="#7b8794" stroke="#7b8794" opacity="0.45" />
<text x="1300.0" y="63.0" font-family="Arial, Helvetica, sans-serif" font-size="14" font-weight="400" fill="#fff" text-anchor="middle">Export CSV</text>
<text x="250.0" y="847.0" font-family="Arial, Helvetica, sans-serif" font-size="13" font-weight="400" fill="#52606d" text-anchor="start">probe / probe_trial_2</text>
<rect x="250.0" y="124.0" width="1100.0" height="683.0" rx="8" fill="#fff" stroke="#d9dee7" opacity="1" />
<text x="274.0" y="166.0" font-family="Arial, Helvetica, sans-serif" font-size="20" font-weight="700" fill="#1f2933" text-anchor="start">Quick Check</text>
<text x="274.0" y="210.0" font-family="Arial, Helvetica, sans-serif" font-size="14" font-weight="400" fill="#323f4b" text-anchor="start">Just before this screen, were you thinking about something unrelated to the</text>
<text x="274.0" y="232.0" font-family="Arial, Helvetica, sans-serif" font-size="14" font-weight="400" fill="#323f4b" text-anchor="start">reading?</text>
<rect x="274.0" y="258.0" width="360.0" height="34.0" rx="6" fill="#fff" stroke="#cbd2d9" opacity="1" />
<text x="286.0" y="280.0" font-family="Arial, Helvetica, sans-serif" font-size="14" font-weight="400" fill="#52606d" text-anchor="start">No / Yes</text>
<text x="274.0" y="334.0" font-family="Arial, Helvetica, sans-serif" font-size="14" font-weight="400" fill="#323f4b" text-anchor="start">Difficulty</text>
<line x1="274.0" y1="362.0" x2="634.0" y2="362.0" stroke="#9aa5b1" stroke-width="5" stroke-linecap="round" />
<text x="274.0" y="410.0" font-family="Arial, Helvetica, sans-serif" font-size="14" font-weight="400" fill="#323f4b" text-anchor="start">Familiarity</text>
<line x1="274.0" y1="438.0" x2="634.0" y2="438.0" stroke="#9aa5b1" stroke-width="5" stroke-linecap="round" />
<path d="M 1300.7 222.9 L 1315.1 204.7 L 1316.8 210.7 L 1317.8 216.3 L 1313.6 224.9 L 1309.6 232.3 L 1308.5 235.8 L 1305.1 236.9 L 1302.2 237.7 L 1299.6 238.1 L 1290.4 221.1 L 1299.6 210.1 L 1257.4 247.7 L 1205.4 269.9 L 990.2 379.9 L 788.3 447.4 L 663.5 538.9 L 518.1 625.1 L 647.3 537.2 L 766.6 458.8 L 787.4 407.0 L 773.2 387.6 L 764.7 334.5 L 709.1 325.7 L 640.1 312.8 L 571.8 309.3 L 517.1 307.5 L 381.2 320.4 L 279.2 334.1 L 187.5 346.5 L 137.6 325.7 L 102.5 308.0 L 83.7 279.2 L 95.0 281.4 L 135.6 281.0 L 181.5 291.6 L 196.2 332.2 L 224.4 366.3 L 251.5 392.4 L 275.3 413.6 L 284.6 420.4 L 277.2 391.5 L 270.5 365.6 L 266.0 334.7 L 256.1 318.9 L 261.7 307.9 L 251.4 294.3 L 255.9 280.4 L 302.9 280.1 L 323.6 293.7 L 323.0 278.4 L 332.6 270.0 L 337.3 276.3 L 371.7 284.8 L 364.5 294.3 L 361.1 290.6 L 374.5 277.1 L 398.8 261.0 L 447.7 262.3 L 466.6 276.5 L 484.4 298.0 L 506.2 321.3 L 515.4 310.8 L 524.6 310.7 L 530.6 310.3 L 511.6 320.4 L 516.8 326.9 L 497.6 335.7 L 487.9 345.2 L 470.8 333.9 L 467.6 327.8 L 471.2 315.3 L 474.4 304.5 L 463.9 296.2 L 454.9 289.4 L 453.8 293.9 L 429.5 293.7 L 409.2 293.8 L 409.3 304.6 L 402.9 325.7 L 398.3 343.7 L 366.3 376.4 L 340.8 403.8 L 320.4 426.1 L 296.0 426.3 L 272.1 423.9 L 253.5 420.6 L 262.3 430.3 L 271.7 437.7 L 267.3 435.7 L 279.5 433.7 L 284.4 432.1 L 298.5 424.6 L 299.5 425.4 L 313.9 425.0" fill="none" stroke="#2563eb" stroke-width="2" stroke-opacity="0.35" />
<circle cx="1300.7" cy="222.9" r="9" fill="#2563eb" fill-opacity="0.82" stroke="#fff" stroke-width="2" />
<text x="1300.7" y="226.9" font-family="Arial, Helvetica, sans-serif" font-size="8" font-weight="700" fill="#fff" text-anchor="middle">1</text>
<circle cx="1313.6" cy="224.9" r="9" fill="#2d60e2" fill-opacity="0.82" stroke="#fff" stroke-width="2" />
<text x="1313.6" y="228.9" font-family="Arial, Helvetica, sans-serif" font-size="8" font-weight="700" fill="#fff" text-anchor="middle">2</text>
<circle cx="1302.2" cy="237.7" r="9" fill="#355eda" fill-opacity="0.82" stroke="#fff" stroke-width="2" />
<text x="1302.2" y="241.7" font-family="Arial, Helvetica, sans-serif" font-size="8" font-weight="700" fill="#fff" text-anchor="middle">3</text>
<circle cx="1257.4" cy="247.7" r="9" fill="#3d5bd1" fill-opacity="0.82" stroke="#fff" stroke-width="2" />
<text x="1257.4" y="251.7" font-family="Arial, Helvetica, sans-serif" font-size="8" font-weight="700" fill="#fff" text-anchor="middle">4</text>
<circle cx="663.5" cy="538.9" r="9" fill="#4558c9" fill-opacity="0.82" stroke="#fff" stroke-width="2" />
<text x="663.5" y="542.9" font-family="Arial, Helvetica, sans-serif" font-size="8" font-weight="700" fill="#fff" text-anchor="middle">5</text>
<circle cx="787.4" cy="407.0" r="9" fill="#4d56c0" fill-opacity="0.82" stroke="#fff" stroke-width="2" />
<text x="787.4" y="411.0" font-family="Arial, Helvetica, sans-serif" font-size="8" font-weight="700" fill="#fff" text-anchor="middle">6</text>
<circle cx="571.8" cy="309.3" r="9" fill="#5553b8" fill-opacity="0.82" stroke="#fff" stroke-width="2" />
<text x="571.8" y="313.3" font-family="Arial, Helvetica, sans-serif" font-size="8" font-weight="700" fill="#fff" text-anchor="middle">7</text>
<circle cx="187.5" cy="346.5" r="9" fill="#5d50af" fill-opacity="0.82" stroke="#fff" stroke-width="2" />
<text x="187.5" y="350.5" font-family="Arial, Helvetica, sans-serif" font-size="8" font-weight="700" fill="#fff" text-anchor="middle">8</text>
<circle cx="95.0" cy="281.4" r="9" fill="#654ea6" fill-opacity="0.82" stroke="#fff" stroke-width="2" />
<text x="95.0" y="285.4" font-family="Arial, Helvetica, sans-serif" font-size="8" font-weight="700" fill="#fff" text-anchor="middle">9</text>
<circle cx="224.4" cy="366.3" r="9" fill="#6d4b9e" fill-opacity="0.82" stroke="#fff" stroke-width="2" />
<text x="224.4" y="370.3" font-family="Arial, Helvetica, sans-serif" font-size="8" font-weight="700" fill="#fff" text-anchor="middle">10</text>
<circle cx="277.2" cy="391.5" r="9" fill="#754895" fill-opacity="0.82" stroke="#fff" stroke-width="2" />
<text x="277.2" y="395.5" font-family="Arial, Helvetica, sans-serif" font-size="8" font-weight="700" fill="#fff" text-anchor="middle">11</text>
<circle cx="261.7" cy="307.9" r="9" fill="#7d468d" fill-opacity="0.82" stroke="#fff" stroke-width="2" />
<text x="261.7" y="311.9" font-family="Arial, Helvetica, sans-serif" font-size="8" font-weight="700" fill="#fff" text-anchor="middle">12</text>
<circle cx="323.6" cy="293.7" r="9" fill="#844384" fill-opacity="0.82" stroke="#fff" stroke-width="2" />
<text x="323.6" y="297.7" font-family="Arial, Helvetica, sans-serif" font-size="8" font-weight="700" fill="#fff" text-anchor="middle">13</text>
<circle cx="371.7" cy="284.8" r="9" fill="#8c417c" fill-opacity="0.82" stroke="#fff" stroke-width="2" />
<text x="371.7" y="288.8" font-family="Arial, Helvetica, sans-serif" font-size="8" font-weight="700" fill="#fff" text-anchor="middle">14</text>
<circle cx="398.8" cy="261.0" r="9" fill="#943e73" fill-opacity="0.82" stroke="#fff" stroke-width="2" />
<text x="398.8" y="265.0" font-family="Arial, Helvetica, sans-serif" font-size="8" font-weight="700" fill="#fff" text-anchor="middle">15</text>
<circle cx="506.2" cy="321.3" r="9" fill="#9c3b6b" fill-opacity="0.82" stroke="#fff" stroke-width="2" />
<text x="506.2" y="325.3" font-family="Arial, Helvetica, sans-serif" font-size="8" font-weight="700" fill="#fff" text-anchor="middle">16</text>
<circle cx="511.6" cy="320.4" r="9" fill="#a43962" fill-opacity="0.82" stroke="#fff" stroke-width="2" />
<text x="511.6" y="324.4" font-family="Arial, Helvetica, sans-serif" font-size="8" font-weight="700" fill="#fff" text-anchor="middle">17</text>
<circle cx="470.8" cy="333.9" r="9" fill="#ac3659" fill-opacity="0.82" stroke="#fff" stroke-width="2" />
<text x="470.8" y="337.9" font-family="Arial, Helvetica, sans-serif" font-size="8" font-weight="700" fill="#fff" text-anchor="middle">18</text>
<circle cx="454.9" cy="289.4" r="9" fill="#b43351" fill-opacity="0.82" stroke="#fff" stroke-width="2" />
<text x="454.9" y="293.4" font-family="Arial, Helvetica, sans-serif" font-size="8" font-weight="700" fill="#fff" text-anchor="middle">19</text>
<circle cx="409.3" cy="304.6" r="9" fill="#bc3148" fill-opacity="0.82" stroke="#fff" stroke-width="2" />
<text x="409.3" y="308.6" font-family="Arial, Helvetica, sans-serif" font-size="8" font-weight="700" fill="#fff" text-anchor="middle">20</text>
<circle cx="340.8" cy="403.8" r="9" fill="#c42e40" fill-opacity="0.82" stroke="#fff" stroke-width="2" />
<text x="340.8" y="407.8" font-family="Arial, Helvetica, sans-serif" font-size="8" font-weight="700" fill="#fff" text-anchor="middle">21</text>
<circle cx="253.5" cy="420.6" r="9" fill="#cc2b37" fill-opacity="0.82" stroke="#fff" stroke-width="2" />
<text x="253.5" y="424.6" font-family="Arial, Helvetica, sans-serif" font-size="8" font-weight="700" fill="#fff" text-anchor="middle">22</text>
<circle cx="279.5" cy="433.7" r="9" fill="#d4292f" fill-opacity="0.82" stroke="#fff" stroke-width="2" />
<text x="279.5" y="437.7" font-family="Arial, Helvetica, sans-serif" font-size="8" font-weight="700" fill="#fff" text-anchor="middle">23</text>
<circle cx="313.9" cy="425.0" r="9" fill="#dc2626" fill-opacity="0.82" stroke="#fff" stroke-width="2" />
<text x="313.9" y="429.0" font-family="Arial, Helvetica, sans-serif" font-size="8" font-weight="700" fill="#fff" text-anchor="middle">24</text>
<circle cx="1300.7" cy="222.9" r="13" fill="none" stroke="#16a34a" stroke-width="4" />
<text x="1316.7" y="210.9" font-family="Arial, Helvetica, sans-serif" font-size="11" font-weight="700" fill="#166534" text-anchor="start">START</text>
<circle cx="313.9" cy="425.0" r="13" fill="none" stroke="#dc2626" stroke-width="4" />
<text x="329.9" y="413.0" font-family="Arial, Helvetica, sans-serif" font-size="11" font-weight="700" fill="#991b1b" text-anchor="start">END</text>
<rect x="20.0" y="116.0" width="760.0" height="34.0" rx="6" fill="#ffffff" stroke="#cbd2d9" opacity="0.88" />
<text x="34.0" y="139.0" font-family="Arial, Helvetica, sans-serif" font-size="14" font-weight="400" fill="#1f2933" text-anchor="start">samples=95 duration=2.0s offscreen=0.0% x_sd=357.9 y_sd=77.5</text>
</svg>