<svg xmlns="http://www.w3.org/2000/svg" viewBox="0 0 1600 865" width="1600" height="865">
<rect x="0.0" y="0.0" width="1600.0" height="865.0" rx="0" fill="#f6f7f9" stroke="none" opacity="1" />
<text x="250.0" y="52.0" font-family="Arial, Helvetica, sans-serif" font-size="24" font-weight="700" fill="#1f2933" text-anchor="start">Reading Gaze Pilot</text>
<text x="250.0" y="78.0" font-family="Arial, Helvetica, sans-serif" font-size="14" font-weight="400" fill="#52606d" text-anchor="start">Calibration</text>
<line x1="250.0" y1="100" x2="1350.0" y2="100" stroke="#d9dee7" />
<rect x="1160.0" y="42.0" width="80.0" height="34.0" rx="6" fill="#23395d" stroke="#23395d" opacity="1" />
<text x="1200.0" y="63.0" font-family="Arial, Helvetica, sans-serif" font-size="14" font-weight="400" fill="#fff" text-anchor="middle">Start</text>
<rect x="1250.0" y="42.0" width="100.0" height="34.0" rx="6" fill="#7b8794" stroke="#7b8794" opacity="0.45" />
<text x="1300.0" y="63.0" font-family="Arial, Helvetica, sans-serif" font-size="14" font-weight="400" fill="#fff" text-anchor="middle">Export CSV</text>
<text x="250.0" y="847.0" font-family="Arial, Helvetica, sans-serif" font-size="13" font-weight="400" fill="#52606d" text-anchor="start">calibration / calibration</text>
<rect x="250.0" y="124.0" width="1100.0" height="683.0" rx="8" fill="#fff" stroke="#d9dee7" opacity="1" />
<text x="274.0" y="164.0" font-family="Arial, Helvetica, sans-serif" font-size="20" font-weight="700" fill="#1f2933" text-anchor="start">Calibration</text>
<rect x="274.0" y="190.0" width="1052.0" height="593.0" rx="8" fill="#fbfcfd" stroke="#9aa5b1" opacity="0.9" />
<circle cx="379.2" cy="249.3" r="17" fill="#fff" stroke="#d64545" stroke-width="3" />
<text x="379.2" y="254.3" font-family="Arial, Helvetica, sans-serif" font-size="12" font-weight="700" fill="#d64545" text-anchor="middle">1</text>
<circle cx="800.0" cy="249.3" r="17" fill="#fff" stroke="#d64545" stroke-width="3" />
<text x="800.0" y="254.3" font-family="Arial, Helvetica, sans-serif" font-size="12" font-weight="700" fill="#d64545" text-anchor="middle">2</text>
<circle cx="1220.8" cy="249.3" r="17" fill="#fff" stroke="#d64545" stroke-width="3" />
<text x="1220.8" y="254.3" font-family="Arial, Helvetica, sans-serif" font-size="12" font-weight="700" fill="#d64545" text-anchor="middle">3</text>
<circle cx="379.2" cy="486.5" r="17" fill="#fff" stroke="#d64545" stroke-width="3" />
<text x="379.2" y="491.5" font-family="Arial, Helvetica, sans-serif" font-size="12" font-weight="700" fill="#d64545" text-anchor="middle">4</text>
<circle cx="800.0" cy="486.5" r="17" fill="#fff" stroke="#d64545" stroke-width="3" />
<text x="800.0" y="491.5" font-family="Arial, Helvetica, sans-serif" font-size="12" font-weight="700" fill="#d64545" text-anchor="middle">5</text>
<circle cx="1220.8" cy="486.5" r="17" fill="#fff" stroke="#d64545" stroke-width="3" />
<text x="1220.8" y="491.5" font-family="Arial, Helvetica, sans-serif" font-size="12" font-weight="700" fill="#d64545" text-anchor="middle">6</text>
<circle cx="379.2" cy="723.7" r="17" fill="#fff" stroke="#d64545" stroke-width="3" />
<text x="379.2" y="728.7" font-family="Arial, Helvetica, sans-serif" font-size="12" font-weight="700" fill="#d64545" text-anchor="middle">7</text>
<circle cx="800.0" cy="723.7" r="17" fill="#fff" stroke="#d64545" stroke-width="3" />
<text x="800.0" y="728.7" font-family="Arial, Helvetica, sans-serif" font-size="12" font-weight="700" fill="#d64545" text-anchor="middle">8</text>
<circle cx="1220.8" cy="723.7" r="17" fill="#fff" stroke="#d64545" stroke-width="3" />
<text x="1220.8" y="728.7" font-family="Arial, Helvetica, sans-serif" font-size="12" font-weight="700" fill="#d64545" text-anchor="middle">9</text>
<path d="M 499.2 502.7 L 491.0 526.1 L 462.3 585.2 L 438.0 674.3 L 435.4 722.7 L 458.7 787.4 L 520.3 825.7 L 584.8 787.0 L 674.4 742.6 L 712.0 661.1 L 730.0 633.7 L 612.1 682.2 L 591.1 718.1 L 527.5 755.9 L 469.9 782.5 L 424.1 868.8 L 376.5 932.4 L 371.5 937.2 L 398.1 873.4 L 444.5 822.1 L 476.6 795.6 L 520.8 759.3 L 536.8 741.4 L 554.5 724.2 L 571.4 724.3 L 564.4 724.9 L 560.6 714.9 L 566.1 702.3 L 569.9 699.5 L 588.9 699.3 L 601.6 699.1 L 574.3 691.1 L 392.4 819.6 L 282.9 898.4 L 245.8 911.0 L 275.7 883.7 L 331.6 795.2 L 386.0 726.1 L 450.6 659.2 L 512.1 639.5 L 550.6 632.5 L 454.4 712.6 L 383.6 825.4 L 343.0 880.5 L 316.4 954.2 L 354.9 896.9 L 401.6 842.5 L 447.8 786.1 L 441.1 718.5 L 443.5 691.1 L 438.7 683.6 L 430.9 678.4 L 435.3 674.0 L 379.8 514.8 L 346.9 402.5 L 332.3 354.0 L 267.5 281.0 L 264.3 392.4 L 299.2 473.4 L 326.8 466.2 L 457.0 426.1 L 583.8 339.2 L 597.9 248.3 L 620.2 202.7 L 648.5 173.3 L 676.3 184.7 L 683.2 209.0 L 558.6 226.4 L 432.8 260.4 L 387.7 319.4 L 346.7 316.0 L 334.5 286.8 L 342.8 343.4 L 333.9 386.8 L 336.5 408.2 L 341.5 436.3 L 393.2 440.9 L 333.7 442.3 L 427.4 436.0 L 486.1 427.9 L 469.7 443.7 L 425.6 413.4 L 412.2 421.7 L 374.9 425.9 L 391.6 415.2 L 413.5 433.5 L 429.2 427.1 L 406.8 655.6 L 383.1 810.1 L 293.2 901.0 L 252.4 925.1 L 229.2 851.9 L 244.6 678.6 L 301.6 498.3 L 327.2 300.5 L 435.1 222.9 L 555.8 197.6 L 592.7 229.5 L 637.5 291.3 L 662.2 232.7 L 647.6 226.3 L 602.0 236.8 L 610.0 236.4 L 660.8 306.8 L 728.1 436.9 L 750.0 489.8 L 729.0 547.1 L 676.6 655.3 L 643.5 728.4 L 645.0 753.7 L 657.7 758.3 L 594.8 736.3 L 562.5 718.9 L 578.0 712.0 L 597.1 664.7 L 596.4 646.5 L 588.0 610.0 L 616.0 581.6 L 584.9 613.5 L 599.0 646.0 L 592.8 665.0 L 579.0 702.0 L 576.3 703.1 L 560.9 688.7 L 589.5 672.5 L 616.5 687.9 L 621.1 670.2 L 643.4 651.1 L 654.8 652.6 L 667.2 622.2 L 570.8 545.0 L 420.2 431.0 L 353.1 339.5 L 296.6 292.4 L 251.7 253.9 L 252.0 241.2 L 257.2 250.8 L 266.5 263.1 L 264.9 280.1 L 320.8 314.6 L 388.2 312.1 L 374.9 301.6 L 375.6 304.7 L 379.3 300.0 L 371.9 328.8 L 382.3 326.8 L 399.7 306.8 L 396.0 314.3 L 420.6 339.6 L 417.8 329.1 L 414.3 304.5 L 413.3 295.0 L 398.6 278.7 L 377.4 287.8 L 324.1 447.7 L 341.8 701.3 L 352.5 769.0 L 342.3 732.6 L 282.7 575.5 L 273.6 496.6 L 238.5 390.0 L 205.8 333.2 L 211.6 308.2 L 227.7 300.4 L 253.9 295.9 L 297.6 295.9 L 346.8 310.0 L 361.7 317.1 L 478.4 502.1 L 552.5 617.4 L 611.0 696.1 L 660.7 756.1 L 657.0 766.4 L 662.8 782.3 L 665.4 767.5 L 683.6 751.8 L 674.8 734.5 L 644.4 710.3 L 575.8 603.3 L 498.4 456.5 L 449.2 364.5 L 405.0 311.3 L 382.1 295.8 L 390.0 300.2 L 413.8 292.2 L 449.0 310.4 L 472.5 317.6 L 469.0 335.4 L 480.5 342.0 L 447.8 333.3 L 413.1 323.8 L 387.8 384.7 L 429.7 480.3 L 383.7 358.4 L 392.0 313.6 L 403.7 284.6 L 438.5 246.8 L 470.5 233.0 L 494.9 233.9 L 577.9 217.9 L 670.5 177.2 L 707.6 201.1 L 719.2 233.8 L 739.0 246.4 L 759.6 259.7 L 779.2 280.9 L 779.4 269.5 L 800.1 259.5 L 797.7 269.3 L 786.6 257.9 L 795.3 248.2 L 794.6 241.9 L 803.5 249.4 L 813.2 254.6 L 829.6 263.7 L 826.9 266.9 L 818.8 274.8 L 771.2 275.0 L 748.5 300.6 L 747.5 301.8 L 714.1 302.1 L 715.1 312.4 L 720.5 270.5 L 746.5 244.7 L 740.8 241.8 L 726.6 244.6 L 757.6 262.7 L 777.2 273.3 L 779.4 284.7 L 797.5 285.2 L 799.7 299.6 L 818.7 302.6 L 846.3 303.3 L 836.8 295.3 L 806.3 283.9 L 766.7 251.3 L 786.3 256.9 L 785.2 245.4 L 802.0 254.8 L 815.0 237.3 L 771.1 221.1 L 636.9 171.3 L 793.0 200.6 L 911.0 223.1 L 959.3 230.8 L 1026.8 244.9 L 1088.6 259.1 L 1150.1 264.4 L 1163.5 261.7 L 1171.5 249.7 L 1164.7 239.6 L 1183.9 245.4 L 1183.5 243.0 L 1189.9 246.0 L 1190.7 242.2 L 1193.6 241.1 L 1199.2 260.7 L 1186.4 266.2 L 1161.5 252.9 L 1158.5 248.3 L 1150.2 240.3 L 1165.1 248.4 L 1173.9 253.9 L 1190.3 276.1 L 1206.1 280.8 L 1160.3 269.6 L 1147.8 244.9 L 1091.6 232.0 L 1064.6 233.7 L 1020.0 234.8 L 980.5 236.1 L 799.3 270.7 L 541.7 331.2 L 603.1 338.9 L 771.9 318.8 L 874.3 314.2 L 972.5 279.8 L 1037.5 296.4 L 938.0 351.6 L 929.8 377.9 L 736.0 439.0 L 720.2 428.4 L 849.8 359.1 L 922.1 321.2 L 911.7 323.7 L 787.2 383.2 L 808.6 397.6 L 644.5 452.2 L 517.4 494.2 L 379.7 538.9 L 358.7 552.4 L 365.7 549.6 L 312.1 546.9 L 279.8 554.0 L 477.9 449.5 L 703.9 353.0 L 716.8 367.6 L 725.1 368.7 L 726.0 381.2 L 758.2 370.2 L 715.2 376.2 L 580.5 435.4 L 520.9 457.2 L 497.8 469.4 L 446.6 474.4 L 460.0 478.3 L 442.7 477.9 L 450.6 484.5 L 448.1 484.6 L 417.7 493.4 L 399.4 504.8 L 438.4 485.5 L 545.6 431.1 L 528.3 431.5 L 519.6 430.6 L 544.2 448.0 L 612.9 462.1 L 675.1 459.7 L 746.0 473.6 L 786.0 479.6 L 801.9 481.3 L 808.7 505.1 L 817.7 524.0 L 823.2 498.2 L 814.4 494.4 L 778.9 506.8 L 728.8 501.8 L 783.7 501.8 L 747.5 502.5 L 767.3 497.1 L 792.4 495.7 L 818.7 495.1 L 839.5 494.1 L 845.5 497.3 L 847.9 504.7 L 824.5 511.8 L 830.1 526.1 L 791.3 534.8 L 794.7 521.0 L 784.8 516.8 L 781.8 519.9 L 767.4 503.1 L 832.4 468.6 L 871.2 467.8 L 920.1 478.5 L 977.2 458.4 L 1037.8 394.7 L 1070.6 356.6 L 1145.6 359.7 L 1189.3 395.6 L 1210.8 410.3 L 1224.0 451.7 L 1229.6 487.0 L 1212.4 505.4 L 1195.3 520.7 L 1203.6 515.5 L 1185.8 514.4 L 1177.6 507.3 L 1197.8 508.5 L 1185.4 501.9 L 1155.2 497.8 L 1082.9 484.9 L 1027.9 476.7 L 1007.9 479.5 L 1062.7 481.4 L 1100.6 477.4 L 1127.4 487.4 L 1164.9 502.6 L 1177.2 507.8 L 1082.0 572.1 L 848.7 545.1 L 712.8 565.8 L 682.1 610.5 L 468.9 620.9 L 300.7 649.3 L 298.2 686.5 L 319.2 697.3 L 289.1 706.1 L 378.1 673.4 L 296.3 701.9 L 450.9 689.6 L 383.4 750.7 L 381.7 724.6 L 394.7 703.9 L 428.2 692.1 L 431.1 668.2 L 302.7 662.7 L 623.5 702.4 L 863.1 723.0 L 898.2 788.1 L 1006.1 856.7 L 928.9 881.1 L 828.6 927.7 L 767.3 928.8 L 713.4 907.8 L 431.3 814.8 L 310.3 702.9 L 340.6 781.3 L 368.7 864.8 L 351.2 893.4 L 305.7 859.0 L 287.8 830.9 L 297.8 788.6 L 327.2 738.8 L 379.1 685.8 L 432.6 632.3 L 478.2 632.3 L 491.6 621.2 L 476.2 601.8 L 445.2 623.8 L 425.2 648.1 L 402.8 653.4 L 379.9 658.3 L 369.3 654.0 L 358.3 631.4 L 435.8 593.0 L 588.8 541.3 L 725.0 521.1 L 771.1 548.1 L 747.8 587.6 L 758.2 627.1 L 764.7 674.2 L 761.4 693.7 L 783.5 703.0 L 786.5 738.0 L 792.1 739.2 L 798.2 750.5 L 807.2 761.4 L 822.3 734.2 L 841.1 721.1 L 845.9 717.4 L 823.8 717.8 L 727.9 710.0 L 657.3 699.4 L 734.8 700.3 L 776.0 678.0 L 783.0 657.4 L 948.5 614.4 L 1040.6 625.6 L 1168.5 671.4 L 1301.6 619.0 L 1344.2 628.2 L 1332.1 665.3 L 1288.3 706.0 L 1231.9 729.6 L 1221.3 741.9 L 1212.4 745.5 L 1217.4 758.1 L 1229.2 767.5 L 1240.5 767.4" fill="none" stroke="#2563eb" stroke-width="2" stroke-opacity="0.35" />
<circle cx="499.2" cy="502.7" r="9" fill="#2563eb" fill-opacity="0.82" stroke="#fff" stroke-width="2" />
<text x="499.2" y="506.7" font-family="Arial, Helvetica, sans-serif" font-size="8" font-weight="700" fill="#fff" text-anchor="middle">1</text>
<circle cx="476.6" cy="795.6" r="9" fill="#2d60e2" fill-opacity="0.82" stroke="#fff" stroke-width="2" />
<text x="476.6" y="799.6" font-family="Arial, Helvetica, sans-serif" font-size="8" font-weight="700" fill="#fff" text-anchor="middle">2</text>
<circle cx="512.1" cy="639.5" r="9" fill="#355eda" fill-opacity="0.82" stroke="#fff" stroke-width="2" />
<text x="512.1" y="643.5" font-family="Arial, Helvetica, sans-serif" font-size="8" font-weight="700" fill="#fff" text-anchor="middle">3</text>
<circle cx="326.8" cy="466.2" r="9" fill="#3d5bd1" fill-opacity="0.82" stroke="#fff" stroke-width="2" />
<text x="326.8" y="470.2" font-family="Arial, Helvetica, sans-serif" font-size="8" font-weight="700" fill="#fff" text-anchor="middle">4</text>
<circle cx="427.4" cy="436.0" r="9" fill="#4558c9" fill-opacity="0.82" stroke="#fff" stroke-width="2" />
<text x="427.4" y="440.0" font-family="Arial, Helvetica, sans-serif" font-size="8" font-weight="700" fill="#fff" text-anchor="middle">5</text>
<circle cx="637.5" cy="291.3" r="9" fill="#4d56c0" fill-opacity="0.82" stroke="#fff" stroke-width="2" />
<text x="637.5" y="295.3" font-family="Arial, Helvetica, sans-serif" font-size="8" font-weight="700" fill="#fff" text-anchor="middle">6</text>
<circle cx="616.0" cy="581.6" r="9" fill="#5553b8" fill-opacity="0.82" stroke="#fff" stroke-width="2" />
<text x="616.0" y="585.6" font-family="Arial, Helvetica, sans-serif" font-size="8" font-weight="700" fill="#fff" text-anchor="middle">7</text>
<circle cx="266.5" cy="263.1" r="9" fill="#5d50af" fill-opacity="0.82" stroke="#fff" stroke-width="2" />
<text x="266.5" y="267.1" font-family="Arial, Helvetica, sans-serif" font-size="8" font-weight="700" fill="#fff" text-anchor="middle">8</text>
<circle cx="352.5" cy="769.0" r="9" fill="#654ea6" fill-opacity="0.82" stroke="#fff" stroke-width="2" />
<text x="352.5" y="773.0" font-family="Arial, Helvetica, sans-serif" font-size="8" font-weight="700" fill="#fff" text-anchor="middle">9</text>
<circle cx="674.8" cy="734.5" r="9" fill="#6d4b9e" fill-opacity="0.82" stroke="#fff" stroke-width="2" />
<text x="674.8" y="738.5" font-family="Arial, Helvetica, sans-serif" font-size="8" font-weight="700" fill="#fff" text-anchor="middle">10</text>
<circle cx="403.7" cy="284.6" r="9" fill="#754895" fill-opacity="0.82" stroke="#fff" stroke-width="2" />
<text x="403.7" y="288.6" font-family="Arial, Helvetica, sans-serif" font-size="8" font-weight="700" fill="#fff" text-anchor="middle">11</text>
<circle cx="826.9" cy="266.9" r="9" fill="#7d468d" fill-opacity="0.82" stroke="#fff" stroke-width="2" />
<text x="826.9" y="270.9" font-family="Arial, Helvetica, sans-serif" font-size="8" font-weight="700" fill="#fff" text-anchor="middle">12</text>
<circle cx="806.3" cy="283.9" r="9" fill="#844384" fill-opacity="0.82" stroke="#fff" stroke-width="2" />
<text x="806.3" y="287.9" font-family="Arial, Helvetica, sans-serif" font-size="8" font-weight="700" fill="#fff" text-anchor="middle">13</text>
<circle cx="1190.7" cy="242.2" r="9" fill="#8c417c" fill-opacity="0.82" stroke="#fff" stroke-width="2" />
<text x="1190.7" y="246.2" font-family="Arial, Helvetica, sans-serif" font-size="8" font-weight="700" fill="#fff" text-anchor="middle">14</text>
<circle cx="603.1" cy="338.9" r="9" fill="#943e73" fill-opacity="0.82" stroke="#fff" stroke-width="2" />
<text x="603.1" y="342.9" font-family="Arial, Helvetica, sans-serif" font-size="8" font-weight="700" fill="#fff" text-anchor="middle">15</text>
<circle cx="279.8" cy="554.0" r="9" fill="#9c3b6b" fill-opacity="0.82" stroke="#fff" stroke-width="2" />
<text x="279.8" y="558.0" font-family="Arial, Helvetica, sans-serif" font-size="8" font-weight="700" fill="#fff" text-anchor="middle">16</text>
<circle cx="545.6" cy="431.1" r="9" fill="#a43962" fill-opacity="0.82" stroke="#fff" stroke-width="2" />
<text x="545.6" y="435.1" font-family="Arial, Helvetica, sans-serif" font-size="8" font-weight="700" fill="#fff" text-anchor="middle">17</text>
<circle cx="839.5" cy="494.1" r="9" fill="#ac3659" fill-opacity="0.82" stroke="#fff" stroke-width="2" />
<text x="839.5" y="498.1" font-family="Arial, Helvetica, sans-serif" font-size="8" font-weight="700" fill="#fff" text-anchor="middle">18</text>
<circle cx="1224.0" cy="451.7" r="9" fill="#b43351" fill-opacity="0.82" stroke="#fff" stroke-width="2" />
<text x="1224.0" y="455.7" font-family="Arial, Helvetica, sans-serif" font-size="8" font-weight="700" fill="#fff" text-anchor="middle">19</text>
<circle cx="712.8" cy="565.8" r="9" fill="#bc3148" fill-opacity="0.82" stroke="#fff" stroke-width="2" />
<text x="712.8" y="569.8" font-family="Arial, Helvetica, sans-serif" font-size="8" font-weight="700" fill="#fff" text-anchor="middle">20</text>
<circle cx="1006.1" cy="856.7" r="9" fill="#c42e40" fill-opacity="0.82" stroke="#fff" stroke-width="2" />
<text x="1006.1" y="860.7" font-family="Arial, Helvetica, sans-serif" font-size="8" font-weight="700" fill="#fff" text-anchor="middle">21</text>
<circle cx="425.2" cy="648.1" r="9" fill="#cc2b37" fill-opacity="0.82" stroke="#fff" stroke-width="2" />
<text x="425.2" y="652.1" font-family="Arial, Helvetica, sans-serif" font-size="8" font-weight="700" fill="#fff" text-anchor="middle">22</text>
<circle cx="841.1" cy="721.1" r="9" fill="#d4292f" fill-opacity="0.82" stroke="#fff" stroke-width="2" />
<text x="841.1" y="725.1" font-family="Arial, Helvetica, sans-serif" font-size="8" font-weight="700" fill="#fff" text-anchor="middle">23</text>
<circle cx="1240.5" cy="767.4" r="9" fill="#dc2626" fill-opacity="0.82" stroke="#fff" stroke-width="2" />
<text x="1240.5" y="771.4" font-family="Arial, Helvetica, sans-serif" font-size="8" font-weight="700" fill="#fff" text-anchor="middle">24</text>
<circle cx="499.2" cy="502.7" r="13" fill="none" stroke="#16a34a" stroke-width="4" />
<text x="515.2" y="490.7" font-family="Arial, Helvetica, sans-serif" font-size="11" font-weight="700" fill="#166534" text-anchor="start">START</text>
<circle cx="1240.5" cy="767.4" r="13" fill="none" stroke="#dc2626" stroke-width="4" />
<text x="1256.5" y="755.4" font-family="Arial, Helvetica, sans-serif" font-size="11" font-weight="700" fill="#991b1b" text-anchor="start">END</text>
<rect x="20.0" y="116.0" width="760.0" height="34.0" rx="6" fill="#ffffff" stroke="#cbd2d9" opacity="0.88" />
<text x="34.0" y="139.0" font-family="Arial, Helvetica, sans-serif" font-size="14" font-weight="400" fill="#1f2933" text-anchor="start">samples=841 duration=17.3s offscreen=3.8% x_sd=274.4 y_sd=201.4</text>
</svg>