<svg xmlns="http://www.w3.org/2000/svg" viewBox="0 0 1600 865" width="1600" height="865">
<rect x="0.0" y="0.0" width="1600.0" height="865.0" rx="0" fill="#f6f7f9" stroke="none" opacity="1" />
<text x="250.0" y="52.0" font-family="Arial, Helvetica, sans-serif" font-size="24" font-weight="700" fill="#1f2933" text-anchor="start">Reading Gaze Pilot</text>
<text x="250.0" y="78.0" font-family="Arial, Helvetica, sans-serif" font-size="14" font-weight="400" fill="#52606d" text-anchor="start">Quiz</text>
<line x1="250.0" y1="100" x2="1350.0" y2="100" stroke="#d9dee7" />
<rect x="1160.0" y="42.0" width="80.0" height="34.0" rx="6" fill="#23395d" stroke="#23395d" opacity="1" />
<text x="1200.0" y="63.0" font-family="Arial, Helvetica, sans-serif" font-size="14" font-weight="400" fill="#fff" text-anchor="middle">Start</text>
<rect x="1250.0" y="42.0" width="100.0" height="34.0" rx="6" fill="#7b8794" stroke="#7b8794" opacity="0.45" />
<text x="1300.0" y="63.0" font-family="Arial, Helvetica, sans-serif" font-size="14" font-weight="400" fill="#fff" text-anchor="middle">Export CSV</text>
<text x="250.0" y="847.0" font-family="Arial, Helvetica, sans-serif" font-size="13" font-weight="400" fill="#52606d" text-anchor="start">quiz / quiz</text>
<rect x="250.0" y="124.0" width="1100.0" height="683.0" rx="8" fill="#fff" stroke="#d9dee7" opacity="1" />
<text x="274.0" y="166.0" font-family="Arial, Helvetica, sans-serif" font-size="20" font-weight="700" fill="#1f2933" text-anchor="start">Comprehension</text>
<rect x="274.0" y="190.0" width="680.0" height="68.0" rx="6" fill="#fff" stroke="#d9dee7" opacity="1" />
<text x="292.0" y="214.0" font-family="Arial, Helvetica, sans-serif" font-size="15" font-weight="400" fill="#323f4b" text-anchor="start">What is the safer goal for the pilot?</text>
<rect x="292.0" y="228.0" width="360.0" height="28.0" rx="6" fill="#fff" stroke="#cbd2d9" opacity="1" />
<rect x="274.0" y="276.0" width="680.0" height="68.0" rx="6" fill="#fff" stroke="#d9dee7" opacity="1" />
<text x="292.0" y="300.0" font-family="Arial, Helvetica, sans-serif" font-size="15" font-weight="400" fill="#323f4b" text-anchor="start">Why should the system fail softly?</text>
<rect x="292.0" y="314.0" width="360.0" height="28.0" rx="6" fill="#fff" stroke="#cbd2d9" opacity="1" />
<rect x="274.0" y="362.0" width="680.0" height="68.0" rx="6" fill="#fff" stroke="#d9dee7" opacity="1" />
<text x="292.0" y="386.0" font-family="Arial, Helvetica, sans-serif" font-size="15" font-weight="400" fill="#323f4b" text-anchor="start">What data does this MVP export?</text>
<rect x="292.0" y="400.0" width="360.0" height="28.0" rx="6" fill="#fff" stroke="#cbd2d9" opacity="1" />
<path d="M 212.4 350.3 L 261.8 366.0 L 299.5 374.3 L 345.3 373.8 L 344.5 382.3 L 351.0 366.5 L 379.9 350.0 L 384.6 341.5 L 388.6 341.9 L 388.6 348.6 L 383.1 345.6 L 388.9 338.5 L 388.4 300.7 L 368.7 288.9 L 379.0 287.0 L 380.8 295.7 L 374.0 277.3 L 375.5 255.4 L 381.4 220.7 L 395.5 204.1 L 431.4 183.6 L 447.8 189.8 L 471.8 203.6 L 431.8 221.5 L 418.8 231.9 L 351.7 273.6 L 326.2 295.8 L 309.5 315.1 L 298.4 342.6 L 288.6 350.9 L 306.2 346.6 L 326.4 347.2 L 356.3 337.2 L 374.8 336.2 L 412.7 282.4 L 413.8 246.7 L 419.4 233.1 L 413.9 218.1 L 418.0 209.6 L 431.6 230.7 L 428.4 278.5 L 431.7 332.6 L 378.3 434.6 L 364.5 379.9 L 378.7 386.6 L 317.6 374.5 L 316.9 379.8 L 315.2 399.5 L 330.2 380.6 L 357.2 342.0 L 357.1 314.0 L 362.3 324.0 L 355.2 332.7 L 364.1 337.9 L 368.5 343.5 L 370.5 359.9 L 427.9 400.1 L 488.2 434.6 L 518.3 431.1 L 554.1 422.6 L 565.7 423.5 L 569.5 424.5 L 546.3 406.9 L 494.4 389.1 L 423.8 372.1 L 409.2 371.4 L 389.1 350.6 L 369.9 352.0 L 364.2 356.6 L 364.6 372.2 L 369.0 381.9 L 390.9 385.7 L 404.7 384.8 L 395.9 380.8 L 376.1 382.9 L 377.6 397.4 L 374.5 386.6 L 373.6 382.1 L 372.9 369.6 L 368.7 368.3 L 371.9 364.7 L 375.4 379.0 L 375.7 388.7 L 348.2 420.4 L 358.6 400.8 L 360.5 391.2 L 352.4 378.9 L 346.2 374.0 L 352.6 353.5 L 337.2 314.7 L 360.3 338.1 L 375.3 368.9 L 376.2 366.6 L 382.9 383.5 L 380.6 405.1 L 407.8 362.8 L 415.3 338.2 L 417.4 329.0 L 419.7 337.9 L 411.6 333.2 L 376.7 297.8 L 360.4 302.2 L 334.3 260.9 L 285.9 232.3 L 274.9 201.3 L 279.0 218.3 L 309.1 239.6 L 321.7 248.9 L 323.0 254.9 L 318.1 279.4 L 291.4 329.0 L 280.4 348.4 L 279.2 348.1 L 289.8 355.4 L 302.3 365.7 L 343.1 380.6 L 368.3 385.7 L 395.0 388.0 L 386.7 392.2 L 379.9 396.6 L 375.1 382.4 L 376.9 371.0 L 370.5 348.0 L 371.5 344.8 L 384.8 347.4 L 419.2 339.5 L 418.5 341.9 L 422.7 340.5 L 417.0 334.4 L 424.3 324.5 L 433.9 303.1 L 436.7 292.3 L 426.1 307.7 L 430.2 315.7 L 429.3 321.4 L 399.1 359.5 L 404.7 373.5 L 412.1 395.6 L 403.6 403.2 L 355.7 394.7 L 351.8 394.2 L 343.0 374.2 L 351.2 385.7 L 361.3 355.4 L 369.6 330.2 L 362.1 336.8 L 365.4 349.8 L 368.8 360.9 L 369.7 382.9 L 365.8 412.7 L 384.4 443.5 L 384.6 446.1 L 396.3 456.6 L 400.4 453.8 L 427.2 465.9 L 440.1 469.2 L 405.1 442.7 L 372.0 429.0 L 362.4 416.6 L 361.1 401.9 L 354.7 396.2 L 345.9 395.4 L 328.2 394.5 L 316.1 391.1 L 308.9 371.4 L 310.5 376.1 L 331.6 411.6 L 327.1 384.9 L 351.1 383.8 L 376.5 372.6 L 390.8 372.4 L 400.2 370.2 L 400.6 347.3 L 420.6 347.6 L 445.3 347.7 L 439.9 349.1 L 414.4 340.4 L 403.8 337.5 L 400.0 343.9 L 356.0 423.6 L 340.7 459.6 L 325.4 503.9 L 317.4 497.8 L 312.3 518.6 L 325.1 445.5 L 333.8 414.2 L 314.6 364.7 L 313.5 356.1 L 327.8 332.2 L 341.1 330.8 L 347.4 337.2 L 378.8 341.8 L 377.3 348.4 L 401.2 389.1 L 413.6 403.1 L 413.3 417.9 L 414.5 434.0 L 412.8 445.8 L 403.9 448.5 L 403.0 447.7 L 401.1 444.6 L 392.8 446.1 L 394.8 444.4 L 402.5 462.9 L 406.6 469.4 L 407.7 473.7 L 424.7 465.3 L 440.9 458.9 L 363.1 421.1 L 331.1 400.4 L 316.9 399.8 L 290.5 363.8 L 283.2 350.6 L 271.5 348.8 L 276.7 349.4 L 279.8 355.1 L 291.9 361.6 L 303.4 357.2 L 369.0 369.9 L 369.4 378.5 L 432.5 395.6 L 438.2 407.4 L 425.6 401.5 L 385.3 374.4 L 353.5 350.9 L 339.9 336.2 L 335.1 330.1 L 336.2 358.1 L 351.9 392.6 L 354.7 407.4 L 355.3 414.9 L 353.9 409.1 L 365.8 411.2 L 376.2 411.7 L 378.8 411.1 L 357.7 424.0 L 356.6 424.7 L 358.9 426.8 L 351.5 414.3 L 349.8 411.9 L 350.8 422.4 L 350.7 431.6 L 367.7 437.4 L 349.6 422.1 L 380.0 440.6 L 365.6 438.0 L 379.4 409.8 L 393.3 422.7 L 397.7 395.7 L 408.0 375.0 L 423.1 387.2 L 424.1 372.7 L 421.6 373.6 L 425.0 374.3 L 425.0 372.6 L 433.9 343.0 L 433.6 337.6 L 429.3 328.9 L 424.5 339.5 L 410.1 375.1 L 415.2 387.1 L 405.9 373.3 L 401.6 376.7 L 390.6 385.3 L 366.3 409.3 L 387.9 408.1 L 410.6 426.4 L 414.4 439.8 L 414.9 436.4 L 399.1 417.1 L 409.4 390.6 L 424.8 344.5 L 396.4 320.9 L 383.6 313.9 L 366.6 300.6 L 357.1 304.3 L 317.3 330.2 L 325.0 344.4 L 333.9 348.0 L 359.2 335.2 L 382.6 324.1 L 417.2 331.6 L 424.4 350.2 L 439.1 363.2 L 446.4 372.7 L 449.6 376.1 L 425.5 382.3 L 428.7 374.6 L 413.3 362.7 L 393.9 360.5 L 386.0 356.9 L 363.8 356.2 L 350.8 358.2 L 328.9 355.4 L 300.0 361.1 L 284.1 369.6 L 298.9 366.7 L 289.7 366.1 L 286.0 376.4 L 284.4 380.8 L 297.8 358.1 L 318.8 325.1 L 319.3 322.5 L 319.5 320.4 L 312.8 331.9 L 303.9 336.1 L 307.9 338.3 L 320.1 333.1 L 339.6 328.2 L 350.5 322.3 L 373.9 324.1 L 360.0 340.9 L 360.8 348.8 L 377.1 343.0 L 380.3 337.6 L 339.5 297.0 L 311.8 275.7 L 306.5 267.3 L 301.9 305.2 L 289.2 314.4 L 277.4 365.2 L 291.7 361.7 L 299.3 350.3 L 342.3 351.1 L 374.6 349.8 L 362.7 360.4 L 368.3 362.8 L 383.5 311.4 L 400.3 274.6 L 400.4 256.1 L 419.6 230.3 L 413.2 222.7 L 407.9 194.3 L 431.6 195.3 L 438.7 205.0 L 435.3 215.6 L 430.6 211.8 L 429.8 222.9 L 414.9 234.1 L 429.7 231.4 L 419.1 234.2 L 408.2 243.2 L 408.2 244.5 L 418.3 237.2 L 427.2 246.9 L 422.2 250.8 L 418.2 257.6 L 416.2 267.9 L 440.3 265.2 L 469.6 266.9 L 474.4 255.1 L 473.1 244.3 L 457.9 237.6 L 430.7 253.8 L 421.5 245.1 L 417.1 236.9 L 410.6 263.4 L 384.2 297.9 L 380.5 308.3 L 383.8 314.4 L 382.8 323.2 L 364.7 350.4 L 382.3 369.1 L 372.1 364.3 L 365.9 352.5 L 370.0 337.4 L 365.4 321.1 L 364.5 297.4 L 378.8 295.9 L 367.0 274.4 L 366.2 264.9 L 340.9 265.9 L 335.8 281.5 L 357.0 277.4 L 418.5 276.8 L 459.7 291.0 L 506.3 316.5 L 512.4 316.1 L 505.6 317.3 L 495.5 331.9 L 490.2 337.1 L 482.4 334.1 L 469.4 333.4 L 454.9 335.4 L 441.3 336.2 L 436.2 336.9 L 404.1 328.4 L 397.4 326.6 L 391.9 338.2 L 392.8 352.2 L 385.4 357.5 L 380.4 374.9 L 387.3 380.3 L 396.6 384.6 L 407.6 390.4 L 410.5 388.7 L 412.3 389.0 L 411.6 390.6 L 421.6 389.2 L 425.9 392.1 L 438.8 401.9 L 429.3 393.1 L 422.1 400.2 L 400.0 380.8 L 407.7 349.2 L 381.8 341.2 L 361.7 314.9 L 363.0 315.5 L 379.8 301.0 L 397.7 292.5 L 414.7 289.3 L 424.8 311.0 L 411.5 320.8 L 399.2 304.1 L 394.9 294.2 L 401.1 268.0 L 346.1 253.8 L 333.7 240.5 L 354.1 238.6 L 331.0 227.8 L 313.6 212.9 L 301.9 203.1 L 325.6 197.5 L 346.0 211.6 L 370.0 214.0 L 402.0 215.0 L 401.5 233.9 L 451.2 253.3 L 491.7 255.2 L 501.2 262.0 L 498.4 263.1 L 495.5 309.6 L 429.7 387.6 L 361.4 453.8 L 347.2 488.0 L 347.8 522.7 L 342.0 519.6 L 335.4 527.5 L 309.3 532.6 L 301.9 543.5 L 289.1 565.3 L 312.6 535.6 L 352.9 483.2 L 370.4 463.3 L 310.6 465.5 L 308.2 482.9 L 329.6 461.9 L 294.8 466.8 L 284.0 443.2 L 273.3 429.6" fill="none" stroke="#2563eb" stroke-width="2" stroke-opacity="0.35" />
<circle cx="212.4" cy="350.3" r="9" fill="#2563eb" fill-opacity="0.82" stroke="#fff" stroke-width="2" />
<text x="212.4" y="354.3" font-family="Arial, Helvetica, sans-serif" font-size="8" font-weight="700" fill="#fff" text-anchor="middle">1</text>
<circle cx="407.3" cy="191.1" r="9" fill="#2d60e2" fill-opacity="0.82" stroke="#fff" stroke-width="2" />
<text x="407.3" y="195.1" font-family="Arial, Helvetica, sans-serif" font-size="8" font-weight="700" fill="#fff" text-anchor="middle">2</text>
<circle cx="431.6" cy="230.7" r="9" fill="#355eda" fill-opacity="0.82" stroke="#fff" stroke-width="2" />
<text x="431.6" y="234.7" font-family="Arial, Helvetica, sans-serif" font-size="8" font-weight="700" fill="#fff" text-anchor="middle">3</text>
<circle cx="538.0" cy="420.9" r="9" fill="#3d5bd1" fill-opacity="0.82" stroke="#fff" stroke-width="2" />
<text x="538.0" y="424.9" font-family="Arial, Helvetica, sans-serif" font-size="8" font-weight="700" fill="#fff" text-anchor="middle">4</text>
<circle cx="372.9" cy="369.6" r="9" fill="#4558c9" fill-opacity="0.82" stroke="#fff" stroke-width="2" />
<text x="372.9" y="373.6" font-family="Arial, Helvetica, sans-serif" font-size="8" font-weight="700" fill="#fff" text-anchor="middle">5</text>
<circle cx="418.9" cy="333.5" r="9" fill="#4d56c0" fill-opacity="0.82" stroke="#fff" stroke-width="2" />
<text x="418.9" y="337.5" font-family="Arial, Helvetica, sans-serif" font-size="8" font-weight="700" fill="#fff" text-anchor="middle">6</text>
<circle cx="395.0" cy="388.0" r="9" fill="#5553b8" fill-opacity="0.82" stroke="#fff" stroke-width="2" />
<text x="395.0" y="392.0" font-family="Arial, Helvetica, sans-serif" font-size="8" font-weight="700" fill="#fff" text-anchor="middle">7</text>
<circle cx="409.8" cy="384.7" r="9" fill="#5d50af" fill-opacity="0.82" stroke="#fff" stroke-width="2" />
<text x="409.8" y="388.7" font-family="Arial, Helvetica, sans-serif" font-size="8" font-weight="700" fill="#fff" text-anchor="middle">8</text>
<circle cx="405.1" cy="442.7" r="9" fill="#654ea6" fill-opacity="0.82" stroke="#fff" stroke-width="2" />
<text x="405.1" y="446.7" font-family="Arial, Helvetica, sans-serif" font-size="8" font-weight="700" fill="#fff" text-anchor="middle">9</text>
<circle cx="426.5" cy="344.3" r="9" fill="#6d4b9e" fill-opacity="0.82" stroke="#fff" stroke-width="2" />
<text x="426.5" y="348.3" font-family="Arial, Helvetica, sans-serif" font-size="8" font-weight="700" fill="#fff" text-anchor="middle">10</text>
<circle cx="413.3" cy="417.9" r="9" fill="#754895" fill-opacity="0.82" stroke="#fff" stroke-width="2" />
<text x="413.3" y="421.9" font-family="Arial, Helvetica, sans-serif" font-size="8" font-weight="700" fill="#fff" text-anchor="middle">11</text>
<circle cx="270.0" cy="352.8" r="9" fill="#7d468d" fill-opacity="0.82" stroke="#fff" stroke-width="2" />
<text x="270.0" y="356.8" font-family="Arial, Helvetica, sans-serif" font-size="8" font-weight="700" fill="#fff" text-anchor="middle">12</text>
<circle cx="374.5" cy="417.6" r="9" fill="#844384" fill-opacity="0.82" stroke="#fff" stroke-width="2" />
<text x="374.5" y="421.6" font-family="Arial, Helvetica, sans-serif" font-size="8" font-weight="700" fill="#fff" text-anchor="middle">13</text>
<circle cx="425.0" cy="372.6" r="9" fill="#8c417c" fill-opacity="0.82" stroke="#fff" stroke-width="2" />
<text x="425.0" y="376.6" font-family="Arial, Helvetica, sans-serif" font-size="8" font-weight="700" fill="#fff" text-anchor="middle">14</text>
<circle cx="384.6" cy="304.9" r="9" fill="#943e73" fill-opacity="0.82" stroke="#fff" stroke-width="2" />
<text x="384.6" y="308.9" font-family="Arial, Helvetica, sans-serif" font-size="8" font-weight="700" fill="#fff" text-anchor="middle">15</text>
<circle cx="328.9" cy="355.4" r="9" fill="#9c3b6b" fill-opacity="0.82" stroke="#fff" stroke-width="2" />
<text x="328.9" y="359.4" font-family="Arial, Helvetica, sans-serif" font-size="8" font-weight="700" fill="#fff" text-anchor="middle">16</text>
<circle cx="372.9" cy="349.1" r="9" fill="#a43962" fill-opacity="0.82" stroke="#fff" stroke-width="2" />
<text x="372.9" y="353.1" font-family="Arial, Helvetica, sans-serif" font-size="8" font-weight="700" fill="#fff" text-anchor="middle">17</text>
<circle cx="407.9" cy="194.3" r="9" fill="#ac3659" fill-opacity="0.82" stroke="#fff" stroke-width="2" />
<text x="407.9" y="198.3" font-family="Arial, Helvetica, sans-serif" font-size="8" font-weight="700" fill="#fff" text-anchor="middle">18</text>
<circle cx="471.4" cy="235.2" r="9" fill="#b43351" fill-opacity="0.82" stroke="#fff" stroke-width="2" />
<text x="471.4" y="239.2" font-family="Arial, Helvetica, sans-serif" font-size="8" font-weight="700" fill="#fff" text-anchor="middle">19</text>
<circle cx="340.9" cy="265.9" r="9" fill="#bc3148" fill-opacity="0.82" stroke="#fff" stroke-width="2" />
<text x="340.9" y="269.9" font-family="Arial, Helvetica, sans-serif" font-size="8" font-weight="700" fill="#fff" text-anchor="middle">20</text>
<circle cx="382.4" cy="367.1" r="9" fill="#c42e40" fill-opacity="0.82" stroke="#fff" stroke-width="2" />
<text x="382.4" y="371.1" font-family="Arial, Helvetica, sans-serif" font-size="8" font-weight="700" fill="#fff" text-anchor="middle">21</text>
<circle cx="414.7" cy="289.3" r="9" fill="#cc2b37" fill-opacity="0.82" stroke="#fff" stroke-width="2" />
<text x="414.7" y="293.3" font-family="Arial, Helvetica, sans-serif" font-size="8" font-weight="700" fill="#fff" text-anchor="middle">22</text>
<circle cx="519.3" cy="254.1" r="9" fill="#d4292f" fill-opacity="0.82" stroke="#fff" stroke-width="2" />
<text x="519.3" y="258.1" font-family="Arial, Helvetica, sans-serif" font-size="8" font-weight="700" fill="#fff" text-anchor="middle">23</text>
<circle cx="273.3" cy="429.6" r="9" fill="#dc2626" fill-opacity="0.82" stroke="#fff" stroke-width="2" />
<text x="273.3" y="433.6" font-family="Arial, Helvetica, sans-serif" font-size="8" font-weight="700" fill="#fff" text-anchor="middle">24</text>
<circle cx="212.4" cy="350.3" r="13" fill="none" stroke="#16a34a" stroke-width="4" />
<text x="228.4" y="338.3" font-family="Arial, Helvetica, sans-serif" font-size="11" font-weight="700" fill="#166534" text-anchor="start">START</text>
<circle cx="273.3" cy="429.6" r="13" fill="none" stroke="#dc2626" stroke-width="4" />
<text x="289.3" y="417.6" font-family="Arial, Helvetica, sans-serif" font-size="11" font-weight="700" fill="#991b1b" text-anchor="start">END</text>
<rect x="20.0" y="116.0" width="760.0" height="34.0" rx="6" fill="#ffffff" stroke="#cbd2d9" opacity="0.88" />
<text x="34.0" y="139.0" font-family="Arial, Helvetica, sans-serif" font-size="14" font-weight="400" fill="#1f2933" text-anchor="start">samples=715 duration=14.2s offscreen=0.0% x_sd=52.0 y_sd=68.6</text>
</svg>