<svg xmlns="http://www.w3.org/2000/svg" viewBox="0 0 1600 865" width="1600" height="865">
<rect x="0.0" y="0.0" width="1600.0" height="865.0" rx="0" fill="#f6f7f9" stroke="none" opacity="1" />
<text x="250.0" y="52.0" font-family="Arial, Helvetica, sans-serif" font-size="24" font-weight="700" fill="#1f2933" text-anchor="start">Reading Gaze Pilot</text>
<text x="250.0" y="78.0" font-family="Arial, Helvetica, sans-serif" font-size="14" font-weight="400" fill="#52606d" text-anchor="start">Quiz</text>
<line x1="250.0" y1="100" x2="1350.0" y2="100" stroke="#d9dee7" />
<rect x="1160.0" y="42.0" width="80.0" height="34.0" rx="6" fill="#23395d" stroke="#23395d" opacity="1" />
<text x="1200.0" y="63.0" font-family="Arial, Helvetica, sans-serif" font-size="14" font-weight="400" fill="#fff" text-anchor="middle">Start</text>
<rect x="1250.0" y="42.0" width="100.0" height="34.0" rx="6" fill="#7b8794" stroke="#7b8794" opacity="0.45" />
<text x="1300.0" y="63.0" font-family="Arial, Helvetica, sans-serif" font-size="14" font-weight="400" fill="#fff" text-anchor="middle">Export CSV</text>
<text x="250.0" y="847.0" font-family="Arial, Helvetica, sans-serif" font-size="13" font-weight="400" fill="#52606d" text-anchor="start">quiz / quiz</text>
<rect x="250.0" y="124.0" width="1100.0" height="683.0" rx="8" fill="#fff" stroke="#d9dee7" opacity="1" />
<text x="274.0" y="166.0" font-family="Arial, Helvetica, sans-serif" font-size="20" font-weight="700" fill="#1f2933" text-anchor="start">Comprehension</text>
<rect x="274.0" y="190.0" width="680.0" height="68.0" rx="6" fill="#fff" stroke="#d9dee7" opacity="1" />
<text x="292.0" y="214.0" font-family="Arial, Helvetica, sans-serif" font-size="15" font-weight="400" fill="#323f4b" text-anchor="start">What is the safer goal for the pilot?</text>
<rect x="292.0" y="228.0" width="360.0" height="28.0" rx="6" fill="#fff" stroke="#cbd2d9" opacity="1" />
<rect x="274.0" y="276.0" width="680.0" height="68.0" rx="6" fill="#fff" stroke="#d9dee7" opacity="1" />
<text x="292.0" y="300.0" font-family="Arial, Helvetica, sans-serif" font-size="15" font-weight="400" fill="#323f4b" text-anchor="start">Why should the system fail softly?</text>
<rect x="292.0" y="314.0" width="360.0" height="28.0" rx="6" fill="#fff" stroke="#cbd2d9" opacity="1" />
<rect x="274.0" y="362.0" width="680.0" height="68.0" rx="6" fill="#fff" stroke="#d9dee7" opacity="1" />
<text x="292.0" y="386.0" font-family="Arial, Helvetica, sans-serif" font-size="15" font-weight="400" fill="#323f4b" text-anchor="start">What data does this MVP export?</text>
<rect x="292.0" y="400.0" width="360.0" height="28.0" rx="6" fill="#fff" stroke="#cbd2d9" opacity="1" />
<path d="M 401.7 361.6 L 344.4 361.8 L 334.8 371.0 L 348.2 368.9 L 359.2 375.0 L 349.6 362.1 L 356.5 351.4 L 382.4 352.9 L 371.4 344.9 L 347.6 348.5 L 342.7 343.4 L 316.6 351.0 L 328.2 305.9 L 347.8 291.9 L 406.7 251.9 L 425.5 214.7 L 479.9 167.7 L 503.2 159.0 L 499.1 152.8 L 506.0 182.7 L 482.7 199.8 L 452.5 205.1 L 407.4 238.5 L 402.3 251.6 L 364.9 283.2 L 349.5 329.7 L 319.1 346.8 L 351.1 360.1 L 364.2 355.5 L 376.5 364.4 L 371.5 385.8 L 352.5 409.5 L 374.3 382.6 L 411.7 372.8 L 455.9 339.0 L 425.0 341.1 L 383.1 344.6 L 373.2 343.1 L 391.8 372.0 L 321.9 372.7 L 360.3 407.6 L 318.1 409.2 L 357.2 388.1 L 418.2 390.5 L 395.9 378.5 L 365.8 366.3 L 319.2 349.0 L 328.4 352.3 L 274.8 351.4 L 316.5 369.1 L 321.1 371.6 L 271.0 405.5 L 253.1 417.9 L 244.4 429.9 L 160.7 461.0 L 159.0 463.8 L 169.1 463.0 L 200.0 448.2 L 224.1 467.9 L 245.1 484.2 L 216.2 495.4 L 216.1 498.3 L 241.0 494.7 L 209.9 489.6 L 221.0 491.4 L 207.0 479.3 L 214.6 462.9 L 242.3 459.2 L 262.6 460.8 L 237.7 465.6 L 281.7 444.5 L 279.3 414.1 L 304.8 399.5 L 301.9 374.0 L 275.0 343.1 L 298.7 341.9 L 294.9 343.8 L 329.7 350.4 L 331.2 355.8 L 333.8 359.4 L 306.5 363.9 L 277.7 370.1 L 267.6 373.4 L 285.3 365.6 L 273.5 366.7 L 237.8 353.6 L 220.9 370.8 L 247.2 357.4 L 14.6 435.9 L 62.2 463.1 L 118.9 500.9 L 189.1 456.2 L 196.1 443.8 L 219.4 418.5 L 212.3 362.0 L 219.3 339.5 L 229.0 325.9 L 267.5 280.5 L 296.4 261.7 L 320.1 251.3 L 333.0 236.9 L 330.2 248.8 L 299.3 262.4 L 295.9 258.9 L 283.8 263.3 L 274.1 268.1 L 250.6 272.2 L 252.2 269.7 L 272.7 264.1 L 261.6 266.9 L 277.3 269.1 L 287.8 254.9 L 312.9 265.6 L 343.7 272.2 L 361.5 298.2 L 360.8 294.7 L 377.8 303.8 L 389.8 298.5 L 396.8 299.9 L 378.9 298.1 L 340.0 344.5 L 341.9 347.4 L 366.2 362.6 L 375.9 390.9 L 377.3 399.7 L 399.4 405.8 L 365.9 383.0 L 387.0 368.1 L 382.0 352.5 L 370.9 328.5 L 374.6 322.8 L 375.4 301.2 L 398.6 283.2 L 386.1 282.3 L 432.2 315.0 L 435.1 289.0 L 353.2 300.2 L 15.2 463.9 L 127.5 473.0 L 192.8 522.3 L 275.5 536.6 L 298.8 505.9 L 319.8 477.7 L 417.5 395.3 L 453.0 349.4 L 478.6 313.1 L 420.9 272.9 L 385.1 256.1 L 362.3 250.8 L 335.8 254.8 L 331.8 261.4 L 328.4 257.7 L 365.0 264.1 L 376.1 260.1 L 445.4 254.0 L 475.1 254.8 L 499.8 256.4 L 438.3 280.1 L 479.1 286.9 L 489.4 298.0 L 523.9 310.2 L 555.0 318.0 L 567.4 332.3 L 610.0 322.0 L 627.4 316.4 L 640.4 311.4 L 638.2 317.4 L 628.7 315.4 L 615.8 323.4 L 564.7 340.3 L 551.9 329.8 L 531.0 343.8 L 514.8 347.4 L 491.8 375.6 L 487.5 354.2 L 525.0 314.0 L 526.9 306.8 L 541.8 317.8 L 549.8 341.8 L 522.3 357.3 L 398.8 364.8 L 341.6 373.8 L 267.1 375.6 L 224.1 374.4 L 210.1 390.4 L 176.7 383.9 L 174.9 361.2 L 192.2 356.9 L 206.8 355.6 L 238.1 340.2 L 274.2 342.4 L 293.2 352.1 L 348.2 352.6 L 351.2 347.6 L 352.6 343.3 L 371.7 345.3 L 394.7 329.4 L 406.7 323.6 L 439.8 334.7 L 459.9 323.4 L 476.1 334.2 L 503.8 323.9 L 497.8 320.5 L 486.2 340.3 L 480.2 342.9 L 470.7 346.6 L 443.4 352.9 L 461.1 353.9 L 419.0 367.1 L 389.7 354.5 L 383.1 349.4 L 425.7 360.6 L 450.7 345.7 L 464.3 348.1 L 466.8 349.9 L 473.8 345.5 L 466.9 343.4 L 426.8 353.7 L 403.4 357.6 L 420.4 352.6 L 421.9 381.4 L 449.4 379.9 L 477.3 360.6 L 477.4 347.5 L 468.6 350.6 L 444.0 345.9 L 438.1 339.3 L 427.0 335.2 L 391.0 338.0 L 320.0 319.5 L 289.1 315.9 L 302.8 319.8 L 328.4 323.6 L 344.8 325.3 L 335.8 331.4 L 369.3 333.5 L 360.2 331.6 L 386.6 333.9 L 406.5 332.4 L 413.9 328.6 L 389.7 311.0 L 372.7 319.9 L 375.1 329.0 L 392.2 333.2 L 412.3 316.7 L 439.9 316.5 L 449.0 308.1 L 436.4 317.7 L 425.8 330.0 L 445.7 347.9 L 439.7 348.0 L 426.1 351.5 L 472.7 359.9 L 451.0 355.1 L 475.2 354.6 L 426.6 345.3 L 420.4 335.3 L 415.4 326.8 L 393.1 298.5 L 398.0 285.2 L 387.2 282.7 L 369.2 292.9 L 397.0 311.4 L 413.5 332.0 L 408.4 360.6 L 402.6 374.1 L 403.6 386.8 L 413.5 387.3 L 425.6 392.6 L 393.6 396.2 L 384.0 402.1 L 406.2 408.7 L 421.5 405.0 L 399.8 385.9 L 416.9 382.3 L 450.1 364.1 L 440.5 350.2 L 435.0 368.2 L 159.8 390.6 L 202.8 395.6 L 209.9 433.2 L 282.6 490.0 L 321.5 483.1 L 322.4 461.8 L 348.5 417.6 L 372.4 398.1 L 405.8 374.4 L 461.6 343.6 L 468.3 328.2 L 448.6 323.7 L 474.2 328.9 L 472.6 341.4 L 470.1 352.8 L 492.1 356.7 L 496.0 361.5 L 459.1 359.2 L 478.3 359.5 L 498.1 361.9 L 501.6 375.0 L 499.6 374.5 L 477.7 371.5 L 403.8 378.4 L 407.9 380.5 L 356.9 353.6 L 320.1 328.2 L 277.3 314.3 L 265.5 310.5 L 325.5 292.5 L 377.3 284.4 L 415.0 280.3 L 403.2 197.1 L 375.1 174.2 L 364.6 165.4 L 348.1 144.7 L 381.0 170.5 L 387.6 207.0 L 415.6 257.2 L 422.2 278.5 L 444.6 294.9 L 458.7 342.6 L 468.3 366.7 L 479.8 392.8 L 492.3 401.0 L 508.9 409.8 L 503.3 399.9 L 490.8 379.3 L 474.6 353.6 L 425.8 337.0 L 389.6 322.6 L 354.2 298.7 L 324.7 269.9 L 325.1 273.8 L 324.9 268.2 L 305.6 249.3 L 296.8 233.8 L 302.8 235.9 L 263.6 256.4 L 278.3 268.3 L 283.5 275.5 L 318.0 297.1 L 328.5 304.0 L 337.0 321.7 L 299.6 439.1 L 163.4 436.9 L 4.2 473.9 L 83.2 515.5 L 218.0 585.1 L 286.6 566.2 L 296.0 513.4 L 343.7 476.8 L 385.4 376.7 L 369.3 326.3 L 370.4 290.0 L 339.1 247.1 L 304.6 230.2 L 281.4 216.7 L 266.4 198.2 L 247.9 194.1 L 238.7 192.6 L 241.7 277.4 L 209.2 343.7 L 188.2 363.3 L 87.3 411.7 L 95.8 433.2 L 84.3 452.7 L 178.0 519.4 L 235.2 496.3 L 298.9 434.1 L 345.0 414.6 L 382.2 397.7 L 465.1 358.5 L 500.0 342.9 L 510.2 330.6 L 545.7 322.3 L 486.4 288.5 L 420.4 271.1 L 379.8 253.3 L 376.2 253.0 L 317.3 258.3 L 295.9 297.4 L 277.1 306.5 L 265.9 325.7 L 274.3 349.4 L 273.3 345.9 L 284.4 350.5 L 283.5 354.8 L 264.5 359.1 L 237.9 359.1 L 291.4 373.4 L 311.6 381.0 L 386.9 376.4 L 427.9 373.4 L 401.3 368.2 L 341.9 358.2 L 321.5 353.9 L 303.8 362.9 L 321.8 383.0 L 321.4 386.1 L 326.3 393.0 L 333.3 404.4 L 315.3 384.7 L 339.4 370.4 L 355.9 351.6 L 347.9 341.6 L 338.0 339.3 L 334.4 340.6 L 335.1 345.8 L 329.8 347.0 L 319.8 335.0 L 315.0 333.4 L 293.9 330.8 L 235.3 347.7 L 227.7 349.1 L 207.6 356.4 L 202.1 366.7 L 213.7 371.6 L 190.5 358.2 L 184.8 353.1 L 170.6 350.6 L 147.5 339.4 L 172.6 341.6 L 197.8 349.8 L 262.6 364.3 L 275.9 368.9 L 307.3 350.9 L 374.5 298.5 L 447.6 292.1 L 484.7 290.3 L 511.9 268.6 L 493.3 297.6 L 465.9 297.0 L 472.3 334.0 L 470.5 354.1 L 492.6 365.8 L 524.7 391.3 L 536.5 392.9 L 550.9 391.7 L 465.2 430.8 L 431.3 436.3 L 343.6 438.1 L 339.7 440.8 L 325.2 429.8 L 409.4 367.8 L 529.1 323.2 L 648.5 248.4 L 795.8 164.7 L 851.9 133.9 L 867.3 120.5 L 930.9 60.6 L 966.2 38.4" fill="none" stroke="#2563eb" stroke-width="2" stroke-opacity="0.35" />
<circle cx="401.7" cy="361.6" r="9" fill="#2563eb" fill-opacity="0.82" stroke="#fff" stroke-width="2" />
<text x="401.7" y="365.6" font-family="Arial, Helvetica, sans-serif" font-size="8" font-weight="700" fill="#fff" text-anchor="middle">1</text>
<circle cx="506.0" cy="182.7" r="9" fill="#2d60e2" fill-opacity="0.82" stroke="#fff" stroke-width="2" />
<text x="506.0" y="186.7" font-family="Arial, Helvetica, sans-serif" font-size="8" font-weight="700" fill="#fff" text-anchor="middle">2</text>
<circle cx="321.9" cy="372.7" r="9" fill="#355eda" fill-opacity="0.82" stroke="#fff" stroke-width="2" />
<text x="321.9" y="376.7" font-family="Arial, Helvetica, sans-serif" font-size="8" font-weight="700" fill="#fff" text-anchor="middle">3</text>
<circle cx="245.1" cy="484.2" r="9" fill="#3d5bd1" fill-opacity="0.82" stroke="#fff" stroke-width="2" />
<text x="245.1" y="488.2" font-family="Arial, Helvetica, sans-serif" font-size="8" font-weight="700" fill="#fff" text-anchor="middle">4</text>
<circle cx="331.2" cy="355.8" r="9" fill="#4558c9" fill-opacity="0.82" stroke="#fff" stroke-width="2" />
<text x="331.2" y="359.8" font-family="Arial, Helvetica, sans-serif" font-size="8" font-weight="700" fill="#fff" text-anchor="middle">5</text>
<circle cx="296.4" cy="261.7" r="9" fill="#4d56c0" fill-opacity="0.82" stroke="#fff" stroke-width="2" />
<text x="296.4" y="265.7" font-family="Arial, Helvetica, sans-serif" font-size="8" font-weight="700" fill="#fff" text-anchor="middle">6</text>
<circle cx="389.8" cy="298.5" r="9" fill="#5553b8" fill-opacity="0.82" stroke="#fff" stroke-width="2" />
<text x="389.8" y="302.5" font-family="Arial, Helvetica, sans-serif" font-size="8" font-weight="700" fill="#fff" text-anchor="middle">7</text>
<circle cx="128.4" cy="389.7" r="9" fill="#5d50af" fill-opacity="0.82" stroke="#fff" stroke-width="2" />
<text x="128.4" y="393.7" font-family="Arial, Helvetica, sans-serif" font-size="8" font-weight="700" fill="#fff" text-anchor="middle">8</text>
<circle cx="499.8" cy="256.4" r="9" fill="#654ea6" fill-opacity="0.82" stroke="#fff" stroke-width="2" />
<text x="499.8" y="260.4" font-family="Arial, Helvetica, sans-serif" font-size="8" font-weight="700" fill="#fff" text-anchor="middle">9</text>
<circle cx="526.9" cy="306.8" r="9" fill="#6d4b9e" fill-opacity="0.82" stroke="#fff" stroke-width="2" />
<text x="526.9" y="310.8" font-family="Arial, Helvetica, sans-serif" font-size="8" font-weight="700" fill="#fff" text-anchor="middle">10</text>
<circle cx="371.7" cy="345.3" r="9" fill="#754895" fill-opacity="0.82" stroke="#fff" stroke-width="2" />
<text x="371.7" y="349.3" font-family="Arial, Helvetica, sans-serif" font-size="8" font-weight="700" fill="#fff" text-anchor="middle">11</text>
<circle cx="481.2" cy="348.1" r="9" fill="#7d468d" fill-opacity="0.82" stroke="#fff" stroke-width="2" />
<text x="481.2" y="352.1" font-family="Arial, Helvetica, sans-serif" font-size="8" font-weight="700" fill="#fff" text-anchor="middle">12</text>
<circle cx="344.9" cy="333.9" r="9" fill="#844384" fill-opacity="0.82" stroke="#fff" stroke-width="2" />
<text x="344.9" y="337.9" font-family="Arial, Helvetica, sans-serif" font-size="8" font-weight="700" fill="#fff" text-anchor="middle">13</text>
<circle cx="475.2" cy="354.6" r="9" fill="#8c417c" fill-opacity="0.82" stroke="#fff" stroke-width="2" />
<text x="475.2" y="358.6" font-family="Arial, Helvetica, sans-serif" font-size="8" font-weight="700" fill="#fff" text-anchor="middle">14</text>
<circle cx="399.8" cy="385.9" r="9" fill="#943e73" fill-opacity="0.82" stroke="#fff" stroke-width="2" />
<text x="399.8" y="389.9" font-family="Arial, Helvetica, sans-serif" font-size="8" font-weight="700" fill="#fff" text-anchor="middle">15</text>
<circle cx="492.1" cy="356.7" r="9" fill="#9c3b6b" fill-opacity="0.82" stroke="#fff" stroke-width="2" />
<text x="492.1" y="360.7" font-family="Arial, Helvetica, sans-serif" font-size="8" font-weight="700" fill="#fff" text-anchor="middle">16</text>
<circle cx="343.8" cy="155.3" r="9" fill="#a43962" fill-opacity="0.82" stroke="#fff" stroke-width="2" />
<text x="343.8" y="159.3" font-family="Arial, Helvetica, sans-serif" font-size="8" font-weight="700" fill="#fff" text-anchor="middle">17</text>
<circle cx="324.9" cy="268.2" r="9" fill="#ac3659" fill-opacity="0.82" stroke="#fff" stroke-width="2" />
<text x="324.9" y="272.2" font-family="Arial, Helvetica, sans-serif" font-size="8" font-weight="700" fill="#fff" text-anchor="middle">18</text>
<circle cx="369.3" cy="326.3" r="9" fill="#b43351" fill-opacity="0.82" stroke="#fff" stroke-width="2" />
<text x="369.3" y="330.3" font-family="Arial, Helvetica, sans-serif" font-size="8" font-weight="700" fill="#fff" text-anchor="middle">19</text>
<circle cx="500.0" cy="342.9" r="9" fill="#bc3148" fill-opacity="0.82" stroke="#fff" stroke-width="2" />
<text x="500.0" y="346.9" font-family="Arial, Helvetica, sans-serif" font-size="8" font-weight="700" fill="#fff" text-anchor="middle">20</text>
<circle cx="386.9" cy="376.4" r="9" fill="#c42e40" fill-opacity="0.82" stroke="#fff" stroke-width="2" />
<text x="386.9" y="380.4" font-family="Arial, Helvetica, sans-serif" font-size="8" font-weight="700" fill="#fff" text-anchor="middle">21</text>
<circle cx="293.9" cy="330.8" r="9" fill="#cc2b37" fill-opacity="0.82" stroke="#fff" stroke-width="2" />
<text x="293.9" y="334.8" font-family="Arial, Helvetica, sans-serif" font-size="8" font-weight="700" fill="#fff" text-anchor="middle">22</text>
<circle cx="465.9" cy="297.0" r="9" fill="#d4292f" fill-opacity="0.82" stroke="#fff" stroke-width="2" />
<text x="465.9" y="301.0" font-family="Arial, Helvetica, sans-serif" font-size="8" font-weight="700" fill="#fff" text-anchor="middle">23</text>
<circle cx="966.2" cy="38.4" r="9" fill="#dc2626" fill-opacity="0.82" stroke="#fff" stroke-width="2" />
<text x="966.2" y="42.4" font-family="Arial, Helvetica, sans-serif" font-size="8" font-weight="700" fill="#fff" text-anchor="middle">24</text>
<circle cx="401.7" cy="361.6" r="13" fill="none" stroke="#16a34a" stroke-width="4" />
<text x="417.7" y="349.6" font-family="Arial, Helvetica, sans-serif" font-size="11" font-weight="700" fill="#166534" text-anchor="start">START</text>
<circle cx="966.2" cy="38.4" r="13" fill="none" stroke="#dc2626" stroke-width="4" />
<text x="982.2" y="26.4" font-family="Arial, Helvetica, sans-serif" font-size="11" font-weight="700" fill="#991b1b" text-anchor="start">END</text>
<rect x="20.0" y="116.0" width="760.0" height="34.0" rx="6" fill="#ffffff" stroke="#cbd2d9" opacity="0.88" />
<text x="34.0" y="139.0" font-family="Arial, Helvetica, sans-serif" font-size="14" font-weight="400" fill="#1f2933" text-anchor="start">samples=606 duration=19.4s offscreen=0.0% x_sd=119.5 y_sd=71.9</text>
</svg>