<svg xmlns="http://www.w3.org/2000/svg" viewBox="0 0 1600 865" width="1600" height="865">
<rect x="0.0" y="0.0" width="1600.0" height="865.0" rx="0" fill="#f6f7f9" stroke="none" opacity="1" />
<text x="250.0" y="52.0" font-family="Arial, Helvetica, sans-serif" font-size="24" font-weight="700" fill="#1f2933" text-anchor="start">Reading Gaze Pilot</text>
<text x="250.0" y="78.0" font-family="Arial, Helvetica, sans-serif" font-size="14" font-weight="400" fill="#52606d" text-anchor="start">Reading</text>
<line x1="250.0" y1="100" x2="1350.0" y2="100" stroke="#d9dee7" />
<rect x="1160.0" y="42.0" width="80.0" height="34.0" rx="6" fill="#23395d" stroke="#23395d" opacity="1" />
<text x="1200.0" y="63.0" font-family="Arial, Helvetica, sans-serif" font-size="14" font-weight="400" fill="#fff" text-anchor="middle">Start</text>
<rect x="1250.0" y="42.0" width="100.0" height="34.0" rx="6" fill="#7b8794" stroke="#7b8794" opacity="0.45" />
<text x="1300.0" y="63.0" font-family="Arial, Helvetica, sans-serif" font-size="14" font-weight="400" fill="#fff" text-anchor="middle">Export CSV</text>
<text x="250.0" y="847.0" font-family="Arial, Helvetica, sans-serif" font-size="13" font-weight="400" fill="#52606d" text-anchor="start">reading / reading_trial_1</text>
<rect x="250.0" y="124.0" width="1100.0" height="683.0" rx="8" fill="#fff" stroke="#d9dee7" opacity="1" />
<text x="274.0" y="160.0" font-family="Arial, Helvetica, sans-serif" font-size="16" font-weight="400" fill="#323f4b" text-anchor="start">Passage 1 / 3</text>
<rect x="1230.0" y="142.0" width="96.0" height="36.0" rx="6" fill="#23395d" stroke="#23395d" opacity="1" />
<text x="1278.0" y="165.0" font-family="Arial, Helvetica, sans-serif" font-size="14" font-weight="400" fill="#fff" text-anchor="middle">Continue</text>
<text x="420.0" y="234.0" font-family="Arial, Helvetica, sans-serif" font-size="20" font-weight="400" fill="#1f2933" text-anchor="start">Adaptive learning systems adjust content, pacing, or support based on learner</text>
<text x="420.0" y="272.0" font-family="Arial, Helvetica, sans-serif" font-size="20" font-weight="400" fill="#1f2933" text-anchor="start">signals. In inclusive education, the goal is not to label students, but to</text>
<text x="420.0" y="310.0" font-family="Arial, Helvetica, sans-serif" font-size="20" font-weight="400" fill="#1f2933" text-anchor="start">notice when a learner may need a clearer explanation, a slower pace, or a</text>
<text x="420.0" y="348.0" font-family="Arial, Helvetica, sans-serif" font-size="20" font-weight="400" fill="#1f2933" text-anchor="start">different presentation format.</text>
<path d="M 1279.5 785.5 L 1208.8 776.3 L 1155.3 768.5 L 1089.6 771.7 L 1110.8 776.2 L 1147.9 782.5 L 1033.7 726.6 L 1027.1 689.2 L 1021.8 659.3 L 996.8 484.4 L 1052.4 400.5 L 1225.8 306.4 L 1210.0 302.7 L 1131.9 338.2 L 1080.1 321.5 L 959.9 349.9 L 852.5 296.8 L 850.8 306.8 L 700.7 287.8 L 561.5 246.8 L 425.9 184.4 L 278.3 200.0 L 213.9 254.1 L -72.4 166.7 L 250.6 148.1 L 486.7 262.4 L 630.0 328.4 L 546.6 328.3 L 581.1 322.2 L 527.6 318.8 L 545.0 306.4 L 559.4 295.2 L 567.8 281.7 L 541.7 292.4 L 419.8 302.3 L 439.3 304.1 L 395.1 327.6 L 305.3 327.7 L 253.9 339.9 L 214.2 313.1 L 248.0 296.3 L 330.3 250.6 L 371.4 226.3 L 377.7 241.2 L 386.3 250.7 L 382.7 241.0 L 392.5 218.7 L 373.6 212.4 L 402.6 216.4 L 416.4 229.4 L 408.5 221.6 L 424.5 236.3 L 429.6 203.2 L 449.1 207.2 L 429.5 227.2 L 457.3 243.8 L 482.8 247.9 L 525.3 228.5 L 505.7 231.7 L 473.8 213.8 L 543.5 213.8 L 601.6 243.5 L 572.4 228.3 L 563.9 233.1 L 588.1 199.8 L 610.0 226.1 L 510.2 220.7 L 513.7 207.2 L 534.1 188.7 L 457.8 231.0 L 476.7 218.1 L 505.6 224.7 L 521.9 230.1 L 551.0 235.5 L 571.8 246.3 L 646.8 219.4 L 629.9 208.2 L 575.6 220.5 L 573.5 223.2 L 562.9 211.9 L 514.1 237.4 L 535.4 233.7 L 531.5 299.4 L 596.8 292.0 L 609.6 263.8 L 638.2 240.4 L 645.6 240.0 L 633.2 260.4 L 636.2 245.9 L 665.8 246.4 L 674.9 240.5 L 629.1 255.1 L 641.1 263.5 L 651.5 265.9 L 718.4 248.5 L 699.6 237.9 L 710.5 232.1 L 648.4 246.3 L 638.3 253.9 L 704.8 249.6 L 703.3 264.5 L 722.1 264.4 L 747.9 276.4 L 469.6 172.6 L 540.1 164.3 L 721.1 153.0 L 620.4 295.3 L 588.0 356.4 L 634.8 391.3 L 691.4 360.5 L 834.4 339.6 L 831.2 361.6 L 861.4 367.4 L 865.8 417.2 L 885.7 359.1 L 942.9 301.3 L 966.9 325.6 L 980.0 298.5 L 939.2 356.1 L 890.5 386.6 L 862.8 406.8 L 935.2 419.1 L 907.6 426.5 L 927.3 438.9 L 940.5 486.3 L 961.3 450.2 L 957.5 484.4 L 758.8 284.2 L 589.2 201.5 L 505.9 187.9 L 635.4 232.1 L 894.6 322.7 L 927.8 347.9 L 1017.2 319.9 L 1001.1 240.9 L 1090.7 208.5 L 1156.2 191.2 L 1140.8 188.7 L 1109.4 181.8 L 1111.5 173.0 L 1067.7 173.4 L 1059.3 212.3 L 1043.3 217.7 L 986.5 206.7 L 912.0 222.0 L 961.6 198.6 L 974.9 179.4 L 954.2 186.3 L 968.1 196.7 L 967.4 216.8 L 291.2 503.1 L 371.3 529.5 L 491.7 517.9 L 592.8 469.9 L 1035.4 369.2 L 1164.8 347.7 L 1280.4 274.3 L 1241.6 229.8 L 1276.4 179.4 L 1174.5 167.3 L 894.4 212.4 L 536.8 234.3 L 487.6 208.3 L 379.0 252.1 L 231.5 301.0 L 208.7 293.2 L 330.8 233.7 L 118.3 197.1 L -80.6 168.6 L -87.6 221.2 L -65.9 255.5 L 102.3 360.0 L 155.4 394.2 L 220.6 438.0 L 199.8 478.2 L 305.5 486.9 L 305.8 484.5 L 323.0 472.0 L 433.9 418.6 L 495.0 424.9 L 534.8 359.5 L 504.9 299.2 L 470.2 227.4 L 469.1 205.5 L 507.6 207.8 L 526.1 225.6 L 472.4 233.2 L 431.4 249.9 L 421.4 252.3 L 374.7 250.3 L 439.3 245.3 L 453.1 283.8 L 406.4 280.2 L 398.4 317.7 L 498.5 330.3 L 515.9 323.6 L 533.1 296.1 L 493.7 170.0 L 373.1 233.4 L 523.9 273.7 L 591.1 294.9 L 594.7 267.7 L 611.0 260.3 L 627.2 248.1 L 565.2 303.8 L 564.3 259.2 L 634.5 271.9 L 673.2 264.9 L 688.4 289.5 L 711.9 278.5 L 758.0 264.5 L 798.9 263.7 L 798.5 296.4 L 804.2 305.6 L 818.1 290.8 L 849.8 286.5 L 840.6 281.4 L 860.6 272.4 L 835.1 285.6 L 662.2 123.2 L 723.0 151.8 L 616.2 248.8 L 667.0 300.9 L 695.7 372.8 L 721.4 331.5 L 742.1 336.3 L 847.6 324.4 L 818.5 321.2 L 834.6 323.4 L 841.5 323.4 L 832.9 329.4 L 778.4 330.8 L 752.9 332.0 L 739.7 309.1 L 790.9 299.4 L 830.6 318.3 L 817.7 336.1 L 851.7 299.2 L 864.3 319.4 L 859.1 268.2 L 557.9 91.7 L 550.6 150.0 L 777.1 193.6 L 876.9 220.2 L 1044.3 178.3 L 1118.4 200.5 L 1117.9 210.7 L 1120.3 210.7 L 1027.7 268.6 L 930.7 358.6 L 863.7 376.5 L 830.8 380.6 L 773.6 394.0 L 721.1 344.8 L 759.5 301.1 L 972.5 307.5 L 987.3 258.2 L 1000.0 248.2 L 927.2 241.3 L 884.0 260.5 L 811.7 315.2 L 913.6 322.3 L 901.2 337.0 L 849.4 335.2 L 814.4 333.9 L 837.2 353.8 L 844.2 397.6 L 890.8 326.5 L 1025.5 333.7 L 1017.9 343.5 L 1100.3 332.1 L 1149.2 312.1 L 902.7 77.2 L 957.0 112.2 L 958.3 234.5 L 1145.3 219.5 L 1113.4 242.4 L 1061.7 281.9 L 888.2 356.2 L 841.2 351.5 L 849.3 380.0 L 770.3 319.5 L 403.5 388.0 L 431.5 396.6 L 594.4 333.2 L 544.9 379.5 L 435.7 278.3 L 450.6 279.1 L 447.6 272.5 L 265.5 279.1 L 245.8 294.0 L 207.2 343.1 L 177.5 334.1 L 220.8 358.0 L 268.0 352.1 L 336.6 337.6 L 358.8 277.8 L 350.3 276.1 L 427.9 220.2 L 494.5 209.3 L 464.2 208.2 L 439.3 233.1 L 480.2 231.6 L 475.0 250.9 L 493.5 275.1 L 221.4 61.4 L 302.8 106.7 L 505.8 167.2 L 617.0 180.7 L 634.4 204.3 L 568.1 178.9 L 574.7 206.9 L 610.7 230.3 L 711.9 220.2 L 743.7 270.4 L 700.3 295.0 L 690.2 413.4 L 658.4 402.2 L 649.3 399.7 L 557.4 399.8 L 591.2 376.9 L 526.7 349.5 L 464.1 350.6 L 535.6 364.6 L 364.4 309.0 L 58.6 186.3 L 404.1 161.0 L 422.0 208.5 L 500.9 306.5 L 519.9 366.1 L 624.5 392.4 L 635.8 406.1 L 687.6 396.2 L 775.7 361.7 L 736.1 368.7 L 775.6 401.0 L 845.8 373.5 L 859.7 377.2 L 906.9 341.6 L 868.7 318.2 L 760.7 351.9 L 720.2 352.1 L 705.4 331.2 L 683.5 339.9 L 723.5 293.1 L 728.9 321.9 L 741.6 352.6 L 783.2 331.6 L 857.9 237.8 L 1250.0 145.1 L 1240.4 139.8 L 1158.8 148.7 L 1116.7 202.1 L 939.3 234.8 L 958.5 253.3 L 955.8 240.2 L 884.4 288.4 L 708.4 344.5 L 484.3 371.1 L 461.9 394.3 L 519.1 397.3 L 634.0 409.5 L 630.3 401.2 L 725.9 350.2 L 786.5 303.9 L 1003.1 303.5 L 1061.5 316.0 L 959.1 290.8 L 1056.2 265.6 L 1006.4 309.9 L 992.5 326.4 L 963.1 331.1 L 930.3 346.7 L 876.3 340.8 L 823.0 323.7 L 798.0 312.3 L 805.5 332.9 L 839.1 243.2 L 859.0 201.8 L 935.7 211.0 L 953.0 252.1 L 955.9 260.0 L 1004.7 234.5 L 937.7 285.3 L 1018.3 307.0 L 1011.4 308.0 L 1038.7 264.4 L 999.9 310.2 L 902.9 342.5 L 977.8 353.0 L 1051.5 358.6 L 996.4 340.6 L 975.5 346.5 L 998.6 314.8 L 882.0 81.8 L 848.9 192.3 L 979.9 184.7 L 1006.1 281.9 L 1030.1 320.4 L 961.8 401.5 L 729.9 589.0 L 797.0 556.6 L 885.1 473.8 L 969.4 427.6 L 914.7 404.7 L 860.9 368.8 L 729.6 349.4 L 543.2 346.8 L 486.6 342.2 L 314.1 328.6 L 213.9 310.1 L 201.2 324.0 L 143.0 335.0 L 160.7 317.1 L 361.1 215.5 L 540.8 163.0 L 800.1 133.9 L 669.8 60.3 L 579.6 150.2 L 603.0 161.9 L 794.8 184.0 L 1242.9 194.0 L 1405.0 275.5 L 1602.2 221.6 L 1673.0 209.6 L 1535.3 226.2 L 1454.2 202.1 L 1385.1 193.4 L 1239.4 209.4 L 1207.7 187.6 L 1165.1 210.6 L 1128.2 224.2 L 1169.9 202.3 L 1159.5 204.6 L 1043.9 204.1 L 967.5 214.9 L 1008.5 267.0 L 1036.3 275.2 L 1082.6 246.3 L 1117.2 267.8 L 1162.5 234.1 L 1259.7 191.4 L 1222.5 187.7 L 1289.1 155.2 L 1310.8 147.9 L 1292.6 163.0 L 1244.1 185.9 L 1238.9 191.2 L 1202.8 197.8 L 1176.2 201.4" fill="none" stroke="#2563eb" stroke-width="2" stroke-opacity="0.35" />
<circle cx="1279.5" cy="785.5" r="9" fill="#2563eb" fill-opacity="0.82" stroke="#fff" stroke-width="2" />
<text x="1279.5" y="789.5" font-family="Arial, Helvetica, sans-serif" font-size="8" font-weight="700" fill="#fff" text-anchor="middle">1</text>
<circle cx="474.2" cy="206.4" r="9" fill="#2d60e2" fill-opacity="0.82" stroke="#fff" stroke-width="2" />
<text x="474.2" y="210.4" font-family="Arial, Helvetica, sans-serif" font-size="8" font-weight="700" fill="#fff" text-anchor="middle">2</text>
<circle cx="214.2" cy="313.1" r="9" fill="#355eda" fill-opacity="0.82" stroke="#fff" stroke-width="2" />
<text x="214.2" y="317.1" font-family="Arial, Helvetica, sans-serif" font-size="8" font-weight="700" fill="#fff" text-anchor="middle">3</text>
<circle cx="473.8" cy="213.8" r="9" fill="#3d5bd1" fill-opacity="0.82" stroke="#fff" stroke-width="2" />
<text x="473.8" y="217.8" font-family="Arial, Helvetica, sans-serif" font-size="8" font-weight="700" fill="#fff" text-anchor="middle">4</text>
<circle cx="573.5" cy="223.2" r="9" fill="#4558c9" fill-opacity="0.82" stroke="#fff" stroke-width="2" />
<text x="573.5" y="227.2" font-family="Arial, Helvetica, sans-serif" font-size="8" font-weight="700" fill="#fff" text-anchor="middle">5</text>
<circle cx="638.3" cy="253.9" r="9" fill="#4d56c0" fill-opacity="0.82" stroke="#fff" stroke-width="2" />
<text x="638.3" y="257.9" font-family="Arial, Helvetica, sans-serif" font-size="8" font-weight="700" fill="#fff" text-anchor="middle">6</text>
<circle cx="980.0" cy="298.5" r="9" fill="#5553b8" fill-opacity="0.82" stroke="#fff" stroke-width="2" />
<text x="980.0" y="302.5" font-family="Arial, Helvetica, sans-serif" font-size="8" font-weight="700" fill="#fff" text-anchor="middle">7</text>
<circle cx="1140.8" cy="188.7" r="9" fill="#5d50af" fill-opacity="0.82" stroke="#fff" stroke-width="2" />
<text x="1140.8" y="192.7" font-family="Arial, Helvetica, sans-serif" font-size="8" font-weight="700" fill="#fff" text-anchor="middle">8</text>
<circle cx="1226.6" cy="266.2" r="9" fill="#654ea6" fill-opacity="0.82" stroke="#fff" stroke-width="2" />
<text x="1226.6" y="270.2" font-family="Arial, Helvetica, sans-serif" font-size="8" font-weight="700" fill="#fff" text-anchor="middle">9</text>
<circle cx="305.8" cy="484.5" r="9" fill="#6d4b9e" fill-opacity="0.82" stroke="#fff" stroke-width="2" />
<text x="305.8" y="488.5" font-family="Arial, Helvetica, sans-serif" font-size="8" font-weight="700" fill="#fff" text-anchor="middle">10</text>
<circle cx="533.0" cy="302.4" r="9" fill="#754895" fill-opacity="0.82" stroke="#fff" stroke-width="2" />
<text x="533.0" y="306.4" font-family="Arial, Helvetica, sans-serif" font-size="8" font-weight="700" fill="#fff" text-anchor="middle">11</text>
<circle cx="849.8" cy="286.5" r="9" fill="#7d468d" fill-opacity="0.82" stroke="#fff" stroke-width="2" />
<text x="849.8" y="290.5" font-family="Arial, Helvetica, sans-serif" font-size="8" font-weight="700" fill="#fff" text-anchor="middle">12</text>
<circle cx="790.9" cy="299.4" r="9" fill="#844384" fill-opacity="0.82" stroke="#fff" stroke-width="2" />
<text x="790.9" y="303.4" font-family="Arial, Helvetica, sans-serif" font-size="8" font-weight="700" fill="#fff" text-anchor="middle">13</text>
<circle cx="753.0" cy="293.1" r="9" fill="#8c417c" fill-opacity="0.82" stroke="#fff" stroke-width="2" />
<text x="753.0" y="297.1" font-family="Arial, Helvetica, sans-serif" font-size="8" font-weight="700" fill="#fff" text-anchor="middle">14</text>
<circle cx="957.0" cy="112.2" r="9" fill="#943e73" fill-opacity="0.82" stroke="#fff" stroke-width="2" />
<text x="957.0" y="116.2" font-family="Arial, Helvetica, sans-serif" font-size="8" font-weight="700" fill="#fff" text-anchor="middle">15</text>
<circle cx="171.1" cy="357.4" r="9" fill="#9c3b6b" fill-opacity="0.82" stroke="#fff" stroke-width="2" />
<text x="171.1" y="361.4" font-family="Arial, Helvetica, sans-serif" font-size="8" font-weight="700" fill="#fff" text-anchor="middle">16</text>
<circle cx="610.7" cy="230.3" r="9" fill="#a43962" fill-opacity="0.82" stroke="#fff" stroke-width="2" />
<text x="610.7" y="234.3" font-family="Arial, Helvetica, sans-serif" font-size="8" font-weight="700" fill="#fff" text-anchor="middle">17</text>
<circle cx="687.6" cy="396.2" r="9" fill="#ac3659" fill-opacity="0.82" stroke="#fff" stroke-width="2" />
<text x="687.6" y="400.2" font-family="Arial, Helvetica, sans-serif" font-size="8" font-weight="700" fill="#fff" text-anchor="middle">18</text>
<circle cx="1158.8" cy="148.7" r="9" fill="#b43351" fill-opacity="0.82" stroke="#fff" stroke-width="2" />
<text x="1158.8" y="152.7" font-family="Arial, Helvetica, sans-serif" font-size="8" font-weight="700" fill="#fff" text-anchor="middle">19</text>
<circle cx="963.1" cy="331.1" r="9" fill="#bc3148" fill-opacity="0.82" stroke="#fff" stroke-width="2" />
<text x="963.1" y="335.1" font-family="Arial, Helvetica, sans-serif" font-size="8" font-weight="700" fill="#fff" text-anchor="middle">20</text>
<circle cx="1051.5" cy="358.6" r="9" fill="#c42e40" fill-opacity="0.82" stroke="#fff" stroke-width="2" />
<text x="1051.5" y="362.6" font-family="Arial, Helvetica, sans-serif" font-size="8" font-weight="700" fill="#fff" text-anchor="middle">21</text>
<circle cx="213.9" cy="310.1" r="9" fill="#cc2b37" fill-opacity="0.82" stroke="#fff" stroke-width="2" />
<text x="213.9" y="314.1" font-family="Arial, Helvetica, sans-serif" font-size="8" font-weight="700" fill="#fff" text-anchor="middle">22</text>
<circle cx="1148.6" cy="179.5" r="9" fill="#d4292f" fill-opacity="0.82" stroke="#fff" stroke-width="2" />
<text x="1148.6" y="183.5" font-family="Arial, Helvetica, sans-serif" font-size="8" font-weight="700" fill="#fff" text-anchor="middle">23</text>
<circle cx="1176.2" cy="201.4" r="9" fill="#dc2626" fill-opacity="0.82" stroke="#fff" stroke-width="2" />
<text x="1176.2" y="205.4" font-family="Arial, Helvetica, sans-serif" font-size="8" font-weight="700" fill="#fff" text-anchor="middle">24</text>
<circle cx="1279.5" cy="785.5" r="13" fill="none" stroke="#16a34a" stroke-width="4" />
<text x="1295.5" y="773.5" font-family="Arial, Helvetica, sans-serif" font-size="11" font-weight="700" fill="#166534" text-anchor="start">START</text>
<circle cx="1176.2" cy="201.4" r="13" fill="none" stroke="#dc2626" stroke-width="4" />
<text x="1192.2" y="189.4" font-family="Arial, Helvetica, sans-serif" font-size="11" font-weight="700" fill="#991b1b" text-anchor="start">END</text>
<rect x="20.0" y="116.0" width="760.0" height="34.0" rx="6" fill="#ffffff" stroke="#cbd2d9" opacity="0.88" />
<text x="34.0" y="139.0" font-family="Arial, Helvetica, sans-serif" font-size="14" font-weight="400" fill="#1f2933" text-anchor="start">samples=644 duration=24.7s offscreen=1.2% x_sd=296.6 y_sd=104.5</text>
</svg>