<svg xmlns="http://www.w3.org/2000/svg" viewBox="0 0 1600 865" width="1600" height="865">
<rect x="0.0" y="0.0" width="1600.0" height="865.0" rx="0" fill="#f6f7f9" stroke="none" opacity="1" />
<text x="250.0" y="52.0" font-family="Arial, Helvetica, sans-serif" font-size="24" font-weight="700" fill="#1f2933" text-anchor="start">Reading Gaze Pilot</text>
<text x="250.0" y="78.0" font-family="Arial, Helvetica, sans-serif" font-size="14" font-weight="400" fill="#52606d" text-anchor="start">Reading</text>
<line x1="250.0" y1="100" x2="1350.0" y2="100" stroke="#d9dee7" />
<rect x="1160.0" y="42.0" width="80.0" height="34.0" rx="6" fill="#23395d" stroke="#23395d" opacity="1" />
<text x="1200.0" y="63.0" font-family="Arial, Helvetica, sans-serif" font-size="14" font-weight="400" fill="#fff" text-anchor="middle">Start</text>
<rect x="1250.0" y="42.0" width="100.0" height="34.0" rx="6" fill="#7b8794" stroke="#7b8794" opacity="0.45" />
<text x="1300.0" y="63.0" font-family="Arial, Helvetica, sans-serif" font-size="14" font-weight="400" fill="#fff" text-anchor="middle">Export CSV</text>
<text x="250.0" y="847.0" font-family="Arial, Helvetica, sans-serif" font-size="13" font-weight="400" fill="#52606d" text-anchor="start">reading / reading_trial_3</text>
<rect x="250.0" y="124.0" width="1100.0" height="683.0" rx="8" fill="#fff" stroke="#d9dee7" opacity="1" />
<text x="274.0" y="160.0" font-family="Arial, Helvetica, sans-serif" font-size="16" font-weight="400" fill="#323f4b" text-anchor="start">Passage 3 / 3</text>
<rect x="1230.0" y="142.0" width="96.0" height="36.0" rx="6" fill="#23395d" stroke="#23395d" opacity="1" />
<text x="1278.0" y="165.0" font-family="Arial, Helvetica, sans-serif" font-size="14" font-weight="400" fill="#fff" text-anchor="middle">Continue</text>
<text x="420.0" y="234.0" font-family="Arial, Helvetica, sans-serif" font-size="20" font-weight="400" fill="#1f2933" text-anchor="start">A careful educational system should fail softly. If a model is uncertain, it</text>
<text x="420.0" y="272.0" font-family="Arial, Helvetica, sans-serif" font-size="20" font-weight="400" fill="#1f2933" text-anchor="start">should offer optional support rather than make high-stakes decisions. This</text>
<text x="420.0" y="310.0" font-family="Arial, Helvetica, sans-serif" font-size="20" font-weight="400" fill="#1f2933" text-anchor="start">principle is especially important when working with students who may have</text>
<text x="420.0" y="348.0" font-family="Arial, Helvetica, sans-serif" font-size="20" font-weight="400" fill="#1f2933" text-anchor="start">special educational needs.</text>
<path d="M 348.2 424.3 L 344.6 434.6 L 375.1 466.5 L 353.6 452.2 L 357.4 445.9 L 378.9 431.3 L 383.4 423.7 L 338.4 428.8 L 340.8 416.6 L 344.2 349.3 L 360.9 331.8 L 356.0 312.8 L 300.7 328.4 L 284.1 345.7 L 332.5 345.5 L 363.1 347.6 L 404.6 349.0 L 407.4 338.4 L 377.1 345.4 L 388.0 357.4 L 399.5 359.5 L 402.9 338.6 L 472.3 281.4 L 509.8 261.4 L 453.6 274.4 L 469.8 321.7 L 245.4 400.7 L 175.7 429.5 L 208.3 498.2 L 298.6 452.1 L 370.7 426.5 L 358.4 418.3 L 309.8 366.4 L 330.0 354.2 L 310.9 345.7 L 298.1 337.7 L 323.9 321.8 L 346.1 308.9 L 391.2 279.2 L 422.9 256.2 L 411.9 250.2 L 433.9 200.8 L 476.5 176.3 L 535.0 146.5 L 596.1 158.4 L 595.5 181.0 L 591.8 183.1 L 566.0 173.6 L 536.4 172.1 L 580.1 186.9 L 549.6 185.6 L 548.5 187.3 L 569.8 194.1 L 549.4 217.6 L 526.5 223.1 L 542.1 207.1 L 561.6 204.6 L 541.4 216.6 L 528.7 216.9 L 485.6 217.6 L 418.9 254.6 L 459.4 248.1 L 467.7 280.7 L 506.4 279.8 L 530.8 279.7 L 621.6 248.6 L 621.2 235.7 L 650.3 229.7 L 577.7 291.0 L 504.2 287.9 L 402.8 302.4 L 440.3 307.8 L 521.1 341.7 L 521.9 363.0 L 568.5 364.1 L 568.2 324.5 L 665.4 273.6 L 687.7 248.8 L 756.1 262.7 L 797.5 267.6 L 840.5 278.8 L 893.3 254.5 L 844.5 218.4 L 843.2 231.9 L 860.4 221.1 L 742.1 186.0 L 662.8 163.3 L 570.3 173.4 L 579.9 192.1 L 701.6 184.5 L 683.9 209.9 L 799.6 222.0 L 798.4 232.1 L 814.7 253.1 L 757.1 258.3 L 774.1 254.3 L 813.5 242.4 L 735.3 244.5 L 704.3 240.0 L 740.6 233.2 L 758.6 228.5 L 793.2 218.2 L 771.2 224.9 L 741.3 221.4 L 782.8 187.9 L 737.4 228.2 L 727.8 268.5 L 756.7 263.9 L 786.1 250.2 L 779.0 221.6 L 814.2 209.3 L 632.8 274.6 L 653.6 306.1 L 503.0 332.5 L 428.4 361.0 L 519.5 332.4 L 601.8 319.9 L 676.9 293.9 L 838.6 265.1 L 942.6 256.9 L 938.7 261.1 L 1110.5 242.3 L 1083.8 234.9 L 1060.9 218.0 L 1043.1 202.8 L 1032.5 216.0 L 991.0 245.8 L 938.5 245.8 L 937.5 262.4 L 864.2 251.5 L 892.3 277.5 L 905.6 300.8 L 853.5 303.2 L 951.5 283.5 L 976.0 232.7 L 996.9 187.1 L 964.2 205.8 L 963.4 203.2 L 852.4 264.3 L 838.2 276.4 L 832.2 271.1 L 855.4 246.5 L 869.8 259.1 L 878.4 256.0 L 869.5 261.6 L 877.1 269.7 L 890.8 263.7 L 893.0 274.9 L 878.6 266.3 L 929.4 257.2 L 985.5 242.6 L 1019.4 246.9 L 966.9 256.8 L 917.2 264.4 L 941.8 213.2 L 1011.9 201.0 L 1004.5 200.7 L 1029.7 196.4 L 1032.8 200.9 L 1046.7 208.7 L 940.3 256.1 L 730.6 322.4 L 567.8 357.6 L 558.1 358.0 L 631.3 377.8 L 678.8 390.5 L 779.8 365.3 L 963.9 292.8 L 972.5 306.7 L 984.9 297.2 L 1000.3 291.6 L 1002.4 258.1 L 1037.1 210.1 L 1090.7 236.2 L 1161.7 266.0 L 1168.2 263.8 L 1191.2 213.3 L 1213.0 149.1 L 1209.0 156.9 L 1177.3 142.0 L 1157.8 168.0 L 1141.2 156.2 L 1178.3 118.6 L 1161.4 119.2 L 1168.8 91.5 L 1139.4 135.2 L 1105.7 149.7 L 1095.0 136.9 L 1033.3 137.2 L 1013.3 141.6 L 889.3 216.7 L 766.9 262.3 L 722.7 268.2 L 505.7 342.4 L 446.5 281.3 L 571.6 267.8 L 570.8 257.0 L 500.4 222.9 L 479.9 269.8 L 583.6 270.8 L 575.4 270.3 L 511.3 294.0 L 530.1 294.2 L 518.7 297.2 L 469.4 287.9 L 548.3 279.1 L 597.0 263.4 L 510.2 285.2 L 505.1 301.3 L 417.9 285.6 L 369.9 238.0 L 392.3 211.4 L 444.6 194.0 L 483.6 230.8 L 505.5 254.4 L 532.8 234.8 L 470.2 202.7 L 432.9 193.6 L 405.4 194.0 L 434.5 193.7 L 269.3 333.1 L 118.8 396.7 L 103.7 444.8 L -23.3 580.2 L 88.2 588.5 L 136.6 591.7 L 271.9 505.6 L 392.8 413.2 L 421.1 390.2 L 527.4 352.2 L 557.8 306.9 L 568.0 245.0 L 596.2 238.6 L 537.9 260.7 L 561.3 243.0 L 563.2 275.6 L 570.1 301.1 L 639.0 308.6 L 679.5 289.1 L 717.9 280.2 L 684.1 264.6 L 711.0 269.6 L 775.6 258.7 L 803.8 218.1 L 773.2 224.1 L 743.8 217.4 L 737.5 233.4 L 723.1 249.8 L 704.2 261.1 L 682.8 262.6 L 529.6 330.4 L 490.5 353.5 L 553.5 356.1 L 635.1 351.6 L 716.6 339.1 L 746.6 320.0 L 879.0 354.6 L 902.6 353.0 L 915.4 337.6 L 932.0 307.6 L 748.5 321.2 L 742.6 288.5 L 750.4 275.0 L 656.4 312.5 L 678.5 333.8 L 700.8 325.1 L 721.8 302.0 L 790.5 293.1 L 820.4 280.6 L 948.4 245.9 L 1019.2 238.2 L 1021.5 229.1 L 962.3 228.8 L 899.1 255.5 L 878.9 275.7 L 891.1 301.8 L 930.7 294.4 L 951.0 288.4 L 947.7 279.3 L 954.8 260.7 L 933.7 290.1 L 868.1 306.7 L 932.5 273.7 L 854.7 271.2 L 887.4 243.4 L 901.2 221.7 L 915.3 222.7 L 916.6 228.3 L 902.7 236.3 L 906.4 244.4 L 921.6 251.0 L 938.0 299.7 L 809.5 307.0 L 690.2 286.4 L 539.3 318.5 L 486.7 345.9 L 442.0 382.1 L 399.7 401.5 L 524.0 393.8 L 721.3 397.8 L 801.4 396.9 L 866.5 397.7 L 915.3 355.4 L 969.4 316.5 L 1033.1 324.2 L 1074.2 280.7 L 849.5 329.2 L 747.9 348.9 L 673.8 338.8 L 761.1 305.3 L 798.9 294.8 L 869.9 274.1 L 1048.9 208.4 L 1049.3 231.8 L 1099.5 220.7 L 1128.0 211.2 L 1120.2 229.1 L 1133.5 228.1 L 1114.2 239.1 L 1164.7 216.1 L 1187.5 216.2 L 1175.9 221.2 L 1128.1 288.9 L 1115.7 303.4 L 1102.1 345.7 L 1164.5 302.8 L 1066.0 353.8 L 999.0 397.3 L 954.1 423.2 L 921.8 418.9 L 917.0 413.0 L 922.2 399.9 L 994.4 306.9 L 1001.8 234.2 L 928.1 223.3 L 866.9 221.4 L 800.7 232.3 L 714.6 262.0 L 682.6 233.8 L 656.4 244.8 L 446.1 311.8 L 292.9 322.3 L 323.4 351.7 L 405.1 346.6 L 376.8 339.8 L 397.2 333.4 L 393.9 306.4 L 370.9 315.9 L 348.4 327.8 L 387.7 285.1 L 370.9 267.5 L 408.3 296.0 L 383.8 293.1 L 396.5 266.5 L 436.2 249.3 L 432.2 273.5 L 426.7 286.7 L 555.5 262.2 L 643.3 262.0 L 536.2 224.2 L 551.1 227.1 L 594.7 222.5 L 681.1 246.2 L 663.9 264.7 L 653.5 285.0 L 561.4 297.5 L 485.5 310.9 L 467.4 319.0 L 423.3 307.9 L 441.7 328.8 L 441.8 334.5 L 471.1 333.0 L 538.0 330.6 L 542.2 330.0 L 531.7 325.6 L 607.7 254.9 L 618.2 270.2 L 620.2 281.6 L 645.8 284.1 L 703.6 283.3 L 749.3 270.3 L 736.0 262.6 L 761.2 240.0 L 783.7 235.0 L 738.3 262.6 L 714.9 333.0 L 707.3 353.7 L 729.0 338.3 L 696.4 342.1 L 726.2 342.9 L 717.7 343.9 L 762.8 337.4 L 800.4 308.4 L 818.7 312.7 L 829.8 320.7 L 752.9 403.2 L 767.4 370.0 L 827.7 337.1 L 774.5 337.9 L 799.4 287.4 L 849.6 287.6 L 880.6 269.4 L 847.0 241.3 L 807.7 246.4 L 823.2 267.6 L 823.8 304.9 L 843.8 294.7 L 837.0 293.8 L 859.5 259.2 L 871.1 278.1 L 900.3 268.3 L 942.4 262.7 L 967.8 309.9 L 946.8 305.8 L 947.9 327.8 L 967.2 295.4 L 958.0 285.6 L 934.3 279.0 L 944.2 265.1 L 935.7 294.2 L 934.3 317.4 L 811.3 353.7 L 840.8 330.7 L 838.7 324.3 L 923.7 304.0 L 1017.8 238.2 L 978.3 246.1 L 1049.6 259.9 L 1085.6 290.8 L 1119.4 294.1 L 1106.2 284.3 L 1131.8 266.0 L 1174.7 219.5 L 1190.7 194.7 L 1244.3 173.4 L 1256.7 198.7 L 1297.8 187.4 L 1282.5 193.3 L 1306.6 183.6 L 1329.6 210.0 L 1340.0 186.1 L 1059.1 270.7 L 858.0 300.7 L 798.3 286.6 L 819.4 305.5 L 1004.7 329.0 L 1191.3 309.1 L 1339.9 293.3 L 1429.4 221.1 L 1458.4 202.1" fill="none" stroke="#2563eb" stroke-width="2" stroke-opacity="0.35" />
<circle cx="348.2" cy="424.3" r="9" fill="#2563eb" fill-opacity="0.82" stroke="#fff" stroke-width="2" />
<text x="348.2" y="428.3" font-family="Arial, Helvetica, sans-serif" font-size="8" font-weight="700" fill="#fff" text-anchor="middle">1</text>
<circle cx="388.0" cy="357.4" r="9" fill="#2d60e2" fill-opacity="0.82" stroke="#fff" stroke-width="2" />
<text x="388.0" y="361.4" font-family="Arial, Helvetica, sans-serif" font-size="8" font-weight="700" fill="#fff" text-anchor="middle">2</text>
<circle cx="422.9" cy="256.2" r="9" fill="#355eda" fill-opacity="0.82" stroke="#fff" stroke-width="2" />
<text x="422.9" y="260.2" font-family="Arial, Helvetica, sans-serif" font-size="8" font-weight="700" fill="#fff" text-anchor="middle">3</text>
<circle cx="528.7" cy="216.9" r="9" fill="#3d5bd1" fill-opacity="0.82" stroke="#fff" stroke-width="2" />
<text x="528.7" y="220.9" font-family="Arial, Helvetica, sans-serif" font-size="8" font-weight="700" fill="#fff" text-anchor="middle">4</text>
<circle cx="756.1" cy="262.7" r="9" fill="#4558c9" fill-opacity="0.82" stroke="#fff" stroke-width="2" />
<text x="756.1" y="266.7" font-family="Arial, Helvetica, sans-serif" font-size="8" font-weight="700" fill="#fff" text-anchor="middle">5</text>
<circle cx="688.5" cy="254.0" r="9" fill="#4d56c0" fill-opacity="0.82" stroke="#fff" stroke-width="2" />
<text x="688.5" y="258.0" font-family="Arial, Helvetica, sans-serif" font-size="8" font-weight="700" fill="#fff" text-anchor="middle">6</text>
<circle cx="790.5" cy="280.4" r="9" fill="#5553b8" fill-opacity="0.82" stroke="#fff" stroke-width="2" />
<text x="790.5" y="284.4" font-family="Arial, Helvetica, sans-serif" font-size="8" font-weight="700" fill="#fff" text-anchor="middle">7</text>
<circle cx="963.4" cy="203.2" r="9" fill="#5d50af" fill-opacity="0.82" stroke="#fff" stroke-width="2" />
<text x="963.4" y="207.2" font-family="Arial, Helvetica, sans-serif" font-size="8" font-weight="700" fill="#fff" text-anchor="middle">8</text>
<circle cx="1004.5" cy="200.7" r="9" fill="#654ea6" fill-opacity="0.82" stroke="#fff" stroke-width="2" />
<text x="1004.5" y="204.7" font-family="Arial, Helvetica, sans-serif" font-size="8" font-weight="700" fill="#fff" text-anchor="middle">9</text>
<circle cx="1191.2" cy="213.3" r="9" fill="#6d4b9e" fill-opacity="0.82" stroke="#fff" stroke-width="2" />
<text x="1191.2" y="217.3" font-family="Arial, Helvetica, sans-serif" font-size="8" font-weight="700" fill="#fff" text-anchor="middle">10</text>
<circle cx="571.6" cy="267.8" r="9" fill="#754895" fill-opacity="0.82" stroke="#fff" stroke-width="2" />
<text x="571.6" y="271.8" font-family="Arial, Helvetica, sans-serif" font-size="8" font-weight="700" fill="#fff" text-anchor="middle">11</text>
<circle cx="532.8" cy="234.8" r="9" fill="#7d468d" fill-opacity="0.82" stroke="#fff" stroke-width="2" />
<text x="532.8" y="238.8" font-family="Arial, Helvetica, sans-serif" font-size="8" font-weight="700" fill="#fff" text-anchor="middle">12</text>
<circle cx="561.3" cy="243.0" r="9" fill="#844384" fill-opacity="0.82" stroke="#fff" stroke-width="2" />
<text x="561.3" y="247.0" font-family="Arial, Helvetica, sans-serif" font-size="8" font-weight="700" fill="#fff" text-anchor="middle">13</text>
<circle cx="716.6" cy="339.1" r="9" fill="#8c417c" fill-opacity="0.82" stroke="#fff" stroke-width="2" />
<text x="716.6" y="343.1" font-family="Arial, Helvetica, sans-serif" font-size="8" font-weight="700" fill="#fff" text-anchor="middle">14</text>
<circle cx="899.1" cy="255.5" r="9" fill="#943e73" fill-opacity="0.82" stroke="#fff" stroke-width="2" />
<text x="899.1" y="259.5" font-family="Arial, Helvetica, sans-serif" font-size="8" font-weight="700" fill="#fff" text-anchor="middle">15</text>
<circle cx="690.2" cy="286.4" r="9" fill="#9c3b6b" fill-opacity="0.82" stroke="#fff" stroke-width="2" />
<text x="690.2" y="290.4" font-family="Arial, Helvetica, sans-serif" font-size="8" font-weight="700" fill="#fff" text-anchor="middle">16</text>
<circle cx="1048.9" cy="208.4" r="9" fill="#a43962" fill-opacity="0.82" stroke="#fff" stroke-width="2" />
<text x="1048.9" y="212.4" font-family="Arial, Helvetica, sans-serif" font-size="8" font-weight="700" fill="#fff" text-anchor="middle">17</text>
<circle cx="908.9" cy="369.8" r="9" fill="#ac3659" fill-opacity="0.82" stroke="#fff" stroke-width="2" />
<text x="908.9" y="373.8" font-family="Arial, Helvetica, sans-serif" font-size="8" font-weight="700" fill="#fff" text-anchor="middle">18</text>
<circle cx="399.4" cy="324.7" r="9" fill="#b43351" fill-opacity="0.82" stroke="#fff" stroke-width="2" />
<text x="399.4" y="328.7" font-family="Arial, Helvetica, sans-serif" font-size="8" font-weight="700" fill="#fff" text-anchor="middle">19</text>
<circle cx="471.1" cy="333.0" r="9" fill="#bc3148" fill-opacity="0.82" stroke="#fff" stroke-width="2" />
<text x="471.1" y="337.0" font-family="Arial, Helvetica, sans-serif" font-size="8" font-weight="700" fill="#fff" text-anchor="middle">20</text>
<circle cx="762.8" cy="337.4" r="9" fill="#c42e40" fill-opacity="0.82" stroke="#fff" stroke-width="2" />
<text x="762.8" y="341.4" font-family="Arial, Helvetica, sans-serif" font-size="8" font-weight="700" fill="#fff" text-anchor="middle">21</text>
<circle cx="900.3" cy="268.3" r="9" fill="#cc2b37" fill-opacity="0.82" stroke="#fff" stroke-width="2" />
<text x="900.3" y="272.3" font-family="Arial, Helvetica, sans-serif" font-size="8" font-weight="700" fill="#fff" text-anchor="middle">22</text>
<circle cx="1106.2" cy="284.3" r="9" fill="#d4292f" fill-opacity="0.82" stroke="#fff" stroke-width="2" />
<text x="1106.2" y="288.3" font-family="Arial, Helvetica, sans-serif" font-size="8" font-weight="700" fill="#fff" text-anchor="middle">23</text>
<circle cx="1458.4" cy="202.1" r="9" fill="#dc2626" fill-opacity="0.82" stroke="#fff" stroke-width="2" />
<text x="1458.4" y="206.1" font-family="Arial, Helvetica, sans-serif" font-size="8" font-weight="700" fill="#fff" text-anchor="middle">24</text>
<circle cx="348.2" cy="424.3" r="13" fill="none" stroke="#16a34a" stroke-width="4" />
<text x="364.2" y="412.3" font-family="Arial, Helvetica, sans-serif" font-size="11" font-weight="700" fill="#166534" text-anchor="start">START</text>
<circle cx="1458.4" cy="202.1" r="13" fill="none" stroke="#dc2626" stroke-width="4" />
<text x="1474.4" y="190.1" font-family="Arial, Helvetica, sans-serif" font-size="11" font-weight="700" fill="#991b1b" text-anchor="start">END</text>
<rect x="20.0" y="116.0" width="760.0" height="34.0" rx="6" fill="#ffffff" stroke="#cbd2d9" opacity="0.88" />
<text x="34.0" y="139.0" font-family="Arial, Helvetica, sans-serif" font-size="14" font-weight="400" fill="#1f2933" text-anchor="start">samples=586 duration=22.5s offscreen=0.3% x_sd=264.8 y_sd=69.4</text>
</svg>