<svg xmlns="http://www.w3.org/2000/svg" viewBox="0 0 1600 865" width="1600" height="865">
<rect x="0.0" y="0.0" width="1600.0" height="865.0" rx="0" fill="#f6f7f9" stroke="none" opacity="1" />
<text x="250.0" y="52.0" font-family="Arial, Helvetica, sans-serif" font-size="24" font-weight="700" fill="#1f2933" text-anchor="start">Reading Gaze Pilot</text>
<text x="250.0" y="78.0" font-family="Arial, Helvetica, sans-serif" font-size="14" font-weight="400" fill="#52606d" text-anchor="start">Reading</text>
<line x1="250.0" y1="100" x2="1350.0" y2="100" stroke="#d9dee7" />
<rect x="1160.0" y="42.0" width="80.0" height="34.0" rx="6" fill="#23395d" stroke="#23395d" opacity="1" />
<text x="1200.0" y="63.0" font-family="Arial, Helvetica, sans-serif" font-size="14" font-weight="400" fill="#fff" text-anchor="middle">Start</text>
<rect x="1250.0" y="42.0" width="100.0" height="34.0" rx="6" fill="#7b8794" stroke="#7b8794" opacity="0.45" />
<text x="1300.0" y="63.0" font-family="Arial, Helvetica, sans-serif" font-size="14" font-weight="400" fill="#fff" text-anchor="middle">Export CSV</text>
<text x="250.0" y="847.0" font-family="Arial, Helvetica, sans-serif" font-size="13" font-weight="400" fill="#52606d" text-anchor="start">reading / reading_trial_2</text>
<rect x="250.0" y="124.0" width="1100.0" height="683.0" rx="8" fill="#fff" stroke="#d9dee7" opacity="1" />
<text x="274.0" y="160.0" font-family="Arial, Helvetica, sans-serif" font-size="16" font-weight="400" fill="#323f4b" text-anchor="start">Passage 2 / 3</text>
<rect x="1230.0" y="142.0" width="96.0" height="36.0" rx="6" fill="#23395d" stroke="#23395d" opacity="1" />
<text x="1278.0" y="165.0" font-family="Arial, Helvetica, sans-serif" font-size="14" font-weight="400" fill="#fff" text-anchor="middle">Continue</text>
<text x="420.0" y="234.0" font-family="Arial, Helvetica, sans-serif" font-size="20" font-weight="400" fill="#1f2933" text-anchor="start">Webcam-based eye tracking estimates where a learner is looking by using a</text>
<text x="420.0" y="272.0" font-family="Arial, Helvetica, sans-serif" font-size="20" font-weight="400" fill="#1f2933" text-anchor="start">standard camera. The signal is noisier than a research-grade eye tracker, but</text>
<text x="420.0" y="310.0" font-family="Arial, Helvetica, sans-serif" font-size="20" font-weight="400" fill="#1f2933" text-anchor="start">it can be useful for low-risk measures such as reading time, off-screen gaze,</text>
<text x="420.0" y="348.0" font-family="Arial, Helvetica, sans-serif" font-size="20" font-weight="400" fill="#1f2933" text-anchor="start">and attention shifts.</text>
<path d="M 440.5 142.4 L 497.3 234.0 L 472.2 314.7 L 459.0 315.3 L 450.5 331.5 L 443.6 334.7 L 414.9 326.7 L 427.7 312.0 L 396.6 349.0 L 309.3 372.7 L 339.6 349.8 L 420.4 368.3 L 455.1 355.7 L 523.8 313.9 L 512.1 314.6 L 503.3 412.3 L 437.3 419.2 L 394.9 499.3 L 379.4 534.8 L 347.0 514.0 L 479.3 385.5 L 512.0 337.3 L 532.4 283.8 L 620.0 212.8 L 619.2 197.3 L 662.8 188.7 L 549.5 215.1 L 401.5 233.6 L 327.4 235.0 L 388.9 245.3 L 424.3 221.5 L 454.4 220.3 L 473.5 256.5 L 436.3 249.4 L 468.1 184.2 L 441.1 172.4 L 468.2 187.7 L 581.7 183.2 L 534.6 189.2 L 572.6 186.7 L 559.5 213.3 L 534.4 209.1 L 535.3 189.1 L 566.9 177.5 L 505.3 230.1 L 492.2 215.8 L 417.7 235.7 L 397.4 244.1 L 366.0 245.3 L 405.1 199.4 L 391.2 217.5 L 355.9 235.1 L 344.6 259.8 L 348.2 251.9 L 357.0 264.1 L 417.1 243.9 L 460.9 217.8 L 495.5 203.4 L 530.0 154.3 L 506.9 175.8 L 519.9 170.7 L 553.4 201.8 L 578.5 196.8 L 603.2 195.7 L 510.1 202.9 L 556.7 177.2 L 569.4 156.1 L 575.5 195.1 L 493.9 236.2 L 398.0 369.6 L 471.5 346.8 L 406.0 336.7 L 460.3 302.4 L 482.1 303.6 L 531.1 278.3 L 576.0 251.9 L 596.5 243.0 L 648.5 264.9 L 659.9 268.4 L 684.4 263.3 L 674.2 254.0 L 662.8 234.7 L 725.2 208.2 L 709.1 191.9 L 707.2 171.4 L 711.7 157.9 L 685.0 179.1 L 596.5 243.1 L 529.7 276.2 L 600.5 254.5 L 665.7 244.3 L 671.3 233.8 L 669.0 260.8 L 616.6 265.4 L 690.0 215.2 L 704.8 192.6 L 698.3 187.9 L 695.5 184.0 L 729.5 158.1 L 813.2 160.3 L 842.7 158.2 L 860.1 196.2 L 874.5 185.8 L 835.2 215.6 L 805.4 234.2 L 814.0 232.0 L 842.3 222.4 L 884.9 203.8 L 829.0 189.2 L 819.4 212.2 L 775.2 211.6 L 684.5 239.0 L 696.7 240.8 L 738.2 222.6 L 549.8 274.3 L 784.9 185.1 L 941.1 157.7 L 850.4 210.4 L 929.6 249.1 L 882.7 299.0 L 807.0 300.6 L 831.0 316.9 L 1019.0 247.4 L 1007.5 216.3 L 1030.7 195.6 L 1038.0 179.1 L 1024.6 171.2 L 1011.5 165.4 L 939.1 216.8 L 959.3 194.4 L 970.8 207.3 L 990.3 174.8 L 967.1 194.6 L 947.1 211.8 L 901.6 216.5 L 941.8 261.1 L 945.5 205.4 L 874.0 194.3 L 951.4 163.8 L 1011.9 136.0 L 1082.9 154.7 L 1073.1 182.4 L 1152.9 175.6 L 1170.0 166.8 L 1190.8 137.8 L 1173.0 136.6 L 1119.9 134.3 L 1079.4 182.0 L 1021.4 209.9 L 1060.7 277.6 L 1028.6 291.0 L 1070.2 252.5 L 1079.4 219.3 L 1137.0 228.6 L 1111.5 233.1 L 1164.0 230.2 L 1154.1 251.2 L 1128.0 285.5 L 1078.0 274.4 L 898.0 221.2 L 875.9 213.7 L 938.6 237.9 L 935.3 222.6 L 806.6 285.9 L 769.4 303.2 L 724.9 323.6 L 769.8 342.0 L 861.2 367.6 L 936.2 363.8 L 996.2 357.1 L 1061.5 391.5 L 1055.8 405.5 L 1094.0 400.2 L 1099.9 377.4 L 1072.9 346.8 L 1071.6 267.9 L 990.8 251.8 L 939.3 217.6 L 844.1 188.6 L 847.8 169.4 L 721.2 231.5 L 357.2 310.4 L 253.3 372.2 L 388.5 370.6 L 514.8 347.2 L 496.8 313.2 L 467.9 298.4 L 409.0 314.9 L 350.8 330.3 L 375.6 357.3 L 335.4 334.7 L 308.8 325.6 L 217.8 301.2 L 202.9 252.3 L 279.9 251.0 L 392.3 261.2 L 478.8 261.6 L 523.6 241.5 L 589.8 220.2 L 664.2 201.9 L 684.5 203.6 L 698.9 207.3 L 663.8 223.4 L 688.9 208.7 L 637.3 212.6 L 639.9 246.1 L 616.1 259.0 L 530.0 277.1 L 579.4 288.4 L 519.3 296.0 L 319.6 434.2 L 318.1 423.9 L 421.4 400.4 L 489.5 366.9 L 548.3 326.3 L 515.2 322.1 L 462.2 306.6 L 455.6 290.2 L 474.4 294.5 L 505.3 299.6 L 500.5 299.1 L 427.8 260.9 L 369.7 265.8 L 313.9 326.0 L 488.2 310.8 L 629.3 343.5 L 653.7 340.3 L 702.7 305.5 L 763.7 282.4 L 699.7 295.3 L 697.0 269.1 L 760.7 295.1 L 731.8 290.7 L 742.8 299.6 L 755.6 196.8 L 706.3 224.9 L 726.3 208.5 L 620.1 253.3 L 721.8 259.8 L 789.0 258.4 L 726.2 267.1 L 723.9 261.6 L 721.0 264.6 L 598.0 306.0 L 610.6 304.6 L 660.8 296.3 L 760.2 281.9 L 808.7 269.0 L 831.1 275.5 L 829.5 275.5 L 851.1 270.4 L 877.5 254.3 L 850.5 249.4 L 807.1 258.9 L 748.1 282.7 L 766.1 280.6 L 790.2 264.2 L 838.9 268.2 L 829.1 284.7 L 817.7 264.1 L 895.4 211.0 L 927.4 226.3 L 800.6 298.1 L 529.9 323.4 L 634.3 319.8 L 621.5 341.3 L 753.3 351.0 L 817.5 347.5 L 842.5 342.6 L 931.7 305.8 L 926.1 286.4 L 957.6 299.1 L 992.1 295.4 L 1004.6 274.6 L 1006.2 260.3 L 1023.2 253.9 L 1096.2 228.4 L 1099.4 231.3 L 1109.8 266.8 L 1086.6 267.8 L 1076.5 281.8 L 1073.9 270.7 L 1095.3 243.3 L 1104.9 227.1 L 1055.0 249.6 L 1088.2 227.5 L 1079.7 229.4 L 1082.6 248.5 L 1115.8 266.1 L 1144.4 268.4 L 1159.1 259.0 L 1170.3 257.5 L 1225.4 235.5 L 1124.4 263.2 L 1036.5 311.2 L 873.7 383.6 L 974.6 343.1 L 1062.0 303.5 L 1154.0 264.4 L 952.8 271.5 L 869.4 305.8 L 904.2 314.4 L 770.0 346.0 L 691.9 397.5 L 569.2 292.6 L 431.6 357.5 L 333.3 390.9 L 367.6 255.6 L 417.9 221.8 L 497.7 192.2 L 635.0 138.8 L 708.4 69.6 L 670.9 35.5 L 664.3 112.3 L 559.5 176.3 L 412.3 231.5 L 338.0 304.3 L 433.6 336.6 L 466.9 350.8 L 522.5 402.6 L 555.0 383.7 L 582.2 365.3 L 543.8 416.5 L 554.6 446.5 L 567.5 469.6 L 554.4 466.9 L 587.5 399.1 L 581.1 361.9 L 530.3 320.5 L 530.5 308.7 L 515.5 282.3 L 518.3 249.7 L 510.6 263.0 L 572.9 252.5 L 634.4 250.1 L 632.7 257.6 L 628.6 249.5 L 607.7 248.0 L 580.7 253.0 L 484.1 317.8 L 441.3 321.7 L 317.2 352.5 L 312.5 454.9 L 339.3 442.8 L 415.8 421.4 L 535.4 368.9 L 669.5 348.5 L 730.8 333.7 L 791.2 331.5 L 812.3 323.3 L 801.7 329.7 L 687.6 361.6 L 631.4 370.8 L 588.4 365.0 L 626.3 324.5 L 646.3 301.4 L 691.1 271.3 L 720.6 239.1 L 739.2 242.1 L 729.8 269.6 L 706.0 276.4 L 711.8 249.9 L 682.5 237.6 L 620.6 297.9 L 587.1 331.1 L 652.0 321.6 L 768.0 346.5 L 741.5 375.1 L 706.0 385.9 L 718.9 366.0 L 728.1 348.6 L 790.2 328.9 L 773.6 326.9 L 706.0 304.6 L 654.8 292.6 L 673.2 313.0 L 774.1 282.7 L 804.9 297.4 L 847.0 282.6 L 845.0 290.6 L 847.2 312.0 L 850.5 284.4 L 833.0 295.9 L 861.7 308.8 L 866.4 276.9 L 825.9 289.0 L 794.4 317.2 L 814.7 339.0 L 835.2 364.3 L 861.3 402.8 L 859.4 387.4 L 789.4 421.8 L 833.9 366.8 L 890.4 343.0 L 870.6 319.5 L 817.9 331.5 L 725.3 329.5 L 517.0 393.6 L 727.7 339.5 L 764.2 350.5 L 725.8 353.3 L 864.3 343.8 L 923.3 337.6 L 965.0 338.3 L 983.4 318.4 L 992.8 325.7 L 1000.2 326.5 L 1042.3 239.7 L 1080.7 261.5 L 1068.3 250.4 L 1096.8 243.5 L 1074.6 255.4 L 1072.3 243.0 L 1057.4 230.4 L 1098.2 210.8 L 1036.9 206.3 L 986.9 214.7 L 954.7 236.2 L 760.6 303.9 L 650.0 311.4 L 619.7 327.8 L 613.8 427.1 L 661.5 364.5 L 745.4 358.9 L 845.0 320.1 L 963.8 282.9 L 986.1 271.3 L 997.8 274.7 L 977.0 276.9 L 975.0 315.5 L 1010.1 328.4 L 1026.3 355.1 L 989.9 378.1 L 1133.4 349.5 L 1281.3 288.8 L 1258.7 301.2 L 1223.5 276.8 L 1216.2 279.5 L 1249.1 242.9 L 1200.5 234.4 L 1227.2 187.8 L 1281.3 148.7 L 1351.5 135.1 L 1358.8 132.5 L 1353.8 132.8 L 1337.1 145.2 L 1354.6 146.1 L 1387.0 145.4 L 1360.7 171.8 L 1339.4 166.3" fill="none" stroke="#2563eb" stroke-width="2" stroke-opacity="0.35" />
<circle cx="440.5" cy="142.4" r="9" fill="#2563eb" fill-opacity="0.82" stroke="#fff" stroke-width="2" />
<text x="440.5" y="146.4" font-family="Arial, Helvetica, sans-serif" font-size="8" font-weight="700" fill="#fff" text-anchor="middle">1</text>
<circle cx="448.2" cy="433.3" r="9" fill="#2d60e2" fill-opacity="0.82" stroke="#fff" stroke-width="2" />
<text x="448.2" y="437.3" font-family="Arial, Helvetica, sans-serif" font-size="8" font-weight="700" fill="#fff" text-anchor="middle">2</text>
<circle cx="572.6" cy="186.7" r="9" fill="#355eda" fill-opacity="0.82" stroke="#fff" stroke-width="2" />
<text x="572.6" y="190.7" font-family="Arial, Helvetica, sans-serif" font-size="8" font-weight="700" fill="#fff" text-anchor="middle">3</text>
<circle cx="506.9" cy="175.8" r="9" fill="#3d5bd1" fill-opacity="0.82" stroke="#fff" stroke-width="2" />
<text x="506.9" y="179.8" font-family="Arial, Helvetica, sans-serif" font-size="8" font-weight="700" fill="#fff" text-anchor="middle">4</text>
<circle cx="659.9" cy="268.4" r="9" fill="#4558c9" fill-opacity="0.82" stroke="#fff" stroke-width="2" />
<text x="659.9" y="272.4" font-family="Arial, Helvetica, sans-serif" font-size="8" font-weight="700" fill="#fff" text-anchor="middle">5</text>
<circle cx="729.5" cy="158.1" r="9" fill="#4d56c0" fill-opacity="0.82" stroke="#fff" stroke-width="2" />
<text x="729.5" y="162.1" font-family="Arial, Helvetica, sans-serif" font-size="8" font-weight="700" fill="#fff" text-anchor="middle">6</text>
<circle cx="850.4" cy="210.4" r="9" fill="#5553b8" fill-opacity="0.82" stroke="#fff" stroke-width="2" />
<text x="850.4" y="214.4" font-family="Arial, Helvetica, sans-serif" font-size="8" font-weight="700" fill="#fff" text-anchor="middle">7</text>
<circle cx="883.5" cy="200.7" r="9" fill="#5d50af" fill-opacity="0.82" stroke="#fff" stroke-width="2" />
<text x="883.5" y="204.7" font-family="Arial, Helvetica, sans-serif" font-size="8" font-weight="700" fill="#fff" text-anchor="middle">8</text>
<circle cx="1154.1" cy="251.2" r="9" fill="#654ea6" fill-opacity="0.82" stroke="#fff" stroke-width="2" />
<text x="1154.1" y="255.2" font-family="Arial, Helvetica, sans-serif" font-size="8" font-weight="700" fill="#fff" text-anchor="middle">9</text>
<circle cx="990.8" cy="251.8" r="9" fill="#6d4b9e" fill-opacity="0.82" stroke="#fff" stroke-width="2" />
<text x="990.8" y="255.8" font-family="Arial, Helvetica, sans-serif" font-size="8" font-weight="700" fill="#fff" text-anchor="middle">10</text>
<circle cx="394.3" cy="275.7" r="9" fill="#754895" fill-opacity="0.82" stroke="#fff" stroke-width="2" />
<text x="394.3" y="279.7" font-family="Arial, Helvetica, sans-serif" font-size="8" font-weight="700" fill="#fff" text-anchor="middle">11</text>
<circle cx="515.2" cy="322.1" r="9" fill="#7d468d" fill-opacity="0.82" stroke="#fff" stroke-width="2" />
<text x="515.2" y="326.1" font-family="Arial, Helvetica, sans-serif" font-size="8" font-weight="700" fill="#fff" text-anchor="middle">12</text>
<circle cx="755.6" cy="196.8" r="9" fill="#844384" fill-opacity="0.82" stroke="#fff" stroke-width="2" />
<text x="755.6" y="200.8" font-family="Arial, Helvetica, sans-serif" font-size="8" font-weight="700" fill="#fff" text-anchor="middle">13</text>
<circle cx="756.5" cy="277.6" r="9" fill="#8c417c" fill-opacity="0.82" stroke="#fff" stroke-width="2" />
<text x="756.5" y="281.6" font-family="Arial, Helvetica, sans-serif" font-size="8" font-weight="700" fill="#fff" text-anchor="middle">14</text>
<circle cx="1004.6" cy="274.6" r="9" fill="#943e73" fill-opacity="0.82" stroke="#fff" stroke-width="2" />
<text x="1004.6" y="278.6" font-family="Arial, Helvetica, sans-serif" font-size="8" font-weight="700" fill="#fff" text-anchor="middle">15</text>
<circle cx="1124.4" cy="263.2" r="9" fill="#9c3b6b" fill-opacity="0.82" stroke="#fff" stroke-width="2" />
<text x="1124.4" y="267.2" font-family="Arial, Helvetica, sans-serif" font-size="8" font-weight="700" fill="#fff" text-anchor="middle">16</text>
<circle cx="662.9" cy="85.1" r="9" fill="#a43962" fill-opacity="0.82" stroke="#fff" stroke-width="2" />
<text x="662.9" y="89.1" font-family="Arial, Helvetica, sans-serif" font-size="8" font-weight="700" fill="#fff" text-anchor="middle">17</text>
<circle cx="510.6" cy="263.0" r="9" fill="#ac3659" fill-opacity="0.82" stroke="#fff" stroke-width="2" />
<text x="510.6" y="267.0" font-family="Arial, Helvetica, sans-serif" font-size="8" font-weight="700" fill="#fff" text-anchor="middle">18</text>
<circle cx="687.6" cy="361.6" r="9" fill="#b43351" fill-opacity="0.82" stroke="#fff" stroke-width="2" />
<text x="687.6" y="365.6" font-family="Arial, Helvetica, sans-serif" font-size="8" font-weight="700" fill="#fff" text-anchor="middle">19</text>
<circle cx="790.2" cy="328.9" r="9" fill="#bc3148" fill-opacity="0.82" stroke="#fff" stroke-width="2" />
<text x="790.2" y="332.9" font-family="Arial, Helvetica, sans-serif" font-size="8" font-weight="700" fill="#fff" text-anchor="middle">20</text>
<circle cx="859.4" cy="387.4" r="9" fill="#c42e40" fill-opacity="0.82" stroke="#fff" stroke-width="2" />
<text x="859.4" y="391.4" font-family="Arial, Helvetica, sans-serif" font-size="8" font-weight="700" fill="#fff" text-anchor="middle">21</text>
<circle cx="1096.8" cy="243.5" r="9" fill="#cc2b37" fill-opacity="0.82" stroke="#fff" stroke-width="2" />
<text x="1096.8" y="247.5" font-family="Arial, Helvetica, sans-serif" font-size="8" font-weight="700" fill="#fff" text-anchor="middle">22</text>
<circle cx="994.6" cy="322.6" r="9" fill="#d4292f" fill-opacity="0.82" stroke="#fff" stroke-width="2" />
<text x="994.6" y="326.6" font-family="Arial, Helvetica, sans-serif" font-size="8" font-weight="700" fill="#fff" text-anchor="middle">23</text>
<circle cx="1339.4" cy="166.3" r="9" fill="#dc2626" fill-opacity="0.82" stroke="#fff" stroke-width="2" />
<text x="1339.4" y="170.3" font-family="Arial, Helvetica, sans-serif" font-size="8" font-weight="700" fill="#fff" text-anchor="middle">24</text>
<circle cx="440.5" cy="142.4" r="13" fill="none" stroke="#16a34a" stroke-width="4" />
<text x="456.5" y="130.4" font-family="Arial, Helvetica, sans-serif" font-size="11" font-weight="700" fill="#166534" text-anchor="start">START</text>
<circle cx="1339.4" cy="166.3" r="13" fill="none" stroke="#dc2626" stroke-width="4" />
<text x="1355.4" y="154.3" font-family="Arial, Helvetica, sans-serif" font-size="11" font-weight="700" fill="#991b1b" text-anchor="start">END</text>
<rect x="20.0" y="116.0" width="760.0" height="34.0" rx="6" fill="#ffffff" stroke="#cbd2d9" opacity="0.88" />
<text x="34.0" y="139.0" font-family="Arial, Helvetica, sans-serif" font-size="14" font-weight="400" fill="#1f2933" text-anchor="start">samples=603 duration=23.2s offscreen=0.0% x_sd=253.7 y_sd=72.4</text>
</svg>