<svg xmlns="http://www.w3.org/2000/svg" viewBox="0 0 1600 865" width="1600" height="865">
<rect x="0.0" y="0.0" width="1600.0" height="865.0" rx="0" fill="#f6f7f9" stroke="none" opacity="1" />
<text x="250.0" y="52.0" font-family="Arial, Helvetica, sans-serif" font-size="24" font-weight="700" fill="#1f2933" text-anchor="start">Reading Gaze Pilot</text>
<text x="250.0" y="78.0" font-family="Arial, Helvetica, sans-serif" font-size="14" font-weight="400" fill="#52606d" text-anchor="start">Probe</text>
<line x1="250.0" y1="100" x2="1350.0" y2="100" stroke="#d9dee7" />
<rect x="1160.0" y="42.0" width="80.0" height="34.0" rx="6" fill="#23395d" stroke="#23395d" opacity="1" />
<text x="1200.0" y="63.0" font-family="Arial, Helvetica, sans-serif" font-size="14" font-weight="400" fill="#fff" text-anchor="middle">Start</text>
<rect x="1250.0" y="42.0" width="100.0" height="34.0" rx="6" fill="#7b8794" stroke="#7b8794" opacity="0.45" />
<text x="1300.0" y="63.0" font-family="Arial, Helvetica, sans-serif" font-size="14" font-weight="400" fill="#fff" text-anchor="middle">Export CSV</text>
<text x="250.0" y="847.0" font-family="Arial, Helvetica, sans-serif" font-size="13" font-weight="400" fill="#52606d" text-anchor="start">probe / probe_trial_3</text>
<rect x="250.0" y="124.0" width="1100.0" height="683.0" rx="8" fill="#fff" stroke="#d9dee7" opacity="1" />
<text x="274.0" y="166.0" font-family="Arial, Helvetica, sans-serif" font-size="20" font-weight="700" fill="#1f2933" text-anchor="start">Quick Check</text>
<text x="274.0" y="210.0" font-family="Arial, Helvetica, sans-serif" font-size="14" font-weight="400" fill="#323f4b" text-anchor="start">Just before this screen, were you thinking about something unrelated to the</text>
<text x="274.0" y="232.0" font-family="Arial, Helvetica, sans-serif" font-size="14" font-weight="400" fill="#323f4b" text-anchor="start">reading?</text>
<rect x="274.0" y="258.0" width="360.0" height="34.0" rx="6" fill="#fff" stroke="#cbd2d9" opacity="1" />
<text x="286.0" y="280.0" font-family="Arial, Helvetica, sans-serif" font-size="14" font-weight="400" fill="#52606d" text-anchor="start">No / Yes</text>
<text x="274.0" y="334.0" font-family="Arial, Helvetica, sans-serif" font-size="14" font-weight="400" fill="#323f4b" text-anchor="start">Difficulty</text>
<line x1="274.0" y1="362.0" x2="634.0" y2="362.0" stroke="#9aa5b1" stroke-width="5" stroke-linecap="round" />
<text x="274.0" y="410.0" font-family="Arial, Helvetica, sans-serif" font-size="14" font-weight="400" fill="#323f4b" text-anchor="start">Familiarity</text>
<line x1="274.0" y1="438.0" x2="634.0" y2="438.0" stroke="#9aa5b1" stroke-width="5" stroke-linecap="round" />
<path d="M 1418.0 203.3 L 1346.8 192.6 L 1298.2 209.5 L 1343.0 205.0 L 1334.1 179.3 L 1289.4 184.0 L 1235.1 191.9 L 1174.7 232.1 L 1124.7 275.8 L 1047.2 325.7 L 1112.7 312.4 L 1028.3 362.0 L 1009.6 335.9 L 925.2 321.0 L 808.3 282.3 L 731.8 217.9 L 594.5 245.0 L 528.5 224.2 L 434.8 269.3 L 362.6 260.5 L 327.5 299.5 L 306.2 312.3 L 248.7 310.8 L 252.3 289.7 L 302.1 295.7 L 273.2 295.2 L 257.8 334.9 L 274.9 340.1 L 317.3 292.7 L 320.1 281.2 L 319.0 261.1 L 303.6 283.3 L 302.7 299.3 L 280.6 303.7 L 322.2 287.4 L 345.4 290.8 L 323.9 298.8 L 355.2 303.3 L 359.5 301.2 L 288.8 298.5 L 265.1 288.7 L 299.7 310.2 L 299.1 277.3 L 352.7 258.2 L 403.1 233.8 L 456.9 202.3 L 453.3 188.0 L 441.4 189.9 L 477.7 171.5 L 487.2 174.0 L 512.7 155.7 L 532.8 141.1 L 576.7 149.6 L 560.3 157.2 L 576.0 180.3 L 575.9 204.3 L 520.5 233.7 L 542.6 254.6 L 493.1 262.1 L 525.0 301.1 L 571.2 281.2 L 559.0 275.9 L 520.4 286.4 L 524.6 283.7 L 533.7 288.5 L 590.2 274.2 L 637.3 263.8 L 656.6 262.0 L 635.2 271.7 L 665.5 267.9 L 678.4 269.0 L 718.9 258.8 L 727.8 257.4 L 723.5 232.8 L 691.4 236.3 L 683.2 227.2 L 675.7 219.8 L 678.2 221.7 L 740.0 241.5 L 775.6 223.8 L 804.5 208.7 L 830.1 212.6 L 875.3 210.0 L 954.1 199.5 L 947.9 189.3 L 948.0 194.0 L 939.3 191.8 L 910.9 182.7 L 876.0 186.7 L 895.9 182.9 L 868.0 166.4 L 846.3 150.2 L 835.8 152.1 L 799.0 156.4 L 805.8 154.1 L 772.8 147.3 L 709.1 175.5 L 757.1 161.5 L 768.6 158.9 L 737.2 140.9 L 691.5 170.8 L 679.6 181.0 L 675.6 194.6 L 707.3 194.5 L 726.0 187.3 L 777.4 208.4 L 792.6 205.0 L 750.6 213.6 L 718.1 245.7 L 651.2 273.8 L 577.1 305.6 L 524.7 302.6 L 411.5 322.7 L 299.1 358.9 L 218.5 376.4 L 170.5 371.7 L 142.4 364.7 L 161.7 350.8 L 211.1 303.4 L 171.3 286.5 L 218.7 278.6 L 260.1 270.7 L 288.3 263.5 L 319.9 255.8 L 343.0 241.4 L 322.0 266.8 L 391.7 264.3 L 363.7 287.7 L 365.7 292.2 L 356.9 273.9 L 348.8 258.0 L 343.1 259.3 L 342.8 257.9 L 382.8 261.1 L 399.3 271.2 L 411.0 281.3 L 445.5 263.1 L 422.5 264.5 L 414.2 284.4 L 383.9 286.0 L 422.4 289.4 L 419.4 297.6 L 417.6 304.5 L 419.0 324.7 L 462.5 317.7 L 496.5 337.1 L 518.2 323.6 L 541.1 339.4 L 578.2 338.8 L 578.4 316.3 L 600.8 280.4 L 575.9 269.7 L 590.6 254.4 L 577.8 253.8 L 571.4 242.1 L 554.4 251.2 L 550.6 255.0 L 510.7 271.9 L 536.4 262.8 L 570.5 258.7 L 523.2 265.7 L 519.3 273.9 L 534.4 268.4 L 545.5 267.9 L 526.7 270.6 L 518.5 270.5 L 531.5 278.6 L 563.6 285.4 L 554.3 300.3 L 579.6 314.2 L 579.6 319.6 L 584.2 323.5 L 554.6 336.7 L 546.9 343.4 L 557.7 350.0 L 551.8 345.1 L 555.2 328.5 L 543.9 314.3 L 515.3 319.1 L 523.0 324.1 L 562.4 330.7 L 596.3 336.2 L 591.6 312.4 L 550.9 302.1 L 528.0 301.4 L 509.6 309.3 L 494.6 316.3 L 511.1 314.0 L 526.5 315.4 L 541.9 310.1 L 538.4 307.9 L 572.5 296.0 L 594.3 284.9 L 625.3 277.3 L 650.7 280.4 L 662.7 285.7 L 619.5 293.5 L 597.1 297.9 L 568.2 306.5 L 540.0 307.7 L 509.4 302.8 L 486.5 315.3 L 457.3 311.4 L 406.9 319.1 L 366.6 321.1 L 341.5 313.0 L 323.5 314.9 L 342.3 325.0 L 360.9 333.4 L 378.5 329.2 L 406.8 320.2 L 407.7 330.4 L 426.0 339.0 L 445.6 345.3 L 441.4 340.2 L 444.4 338.8 L 441.4 335.4 L 444.8 332.2 L 458.6 345.4 L 463.3 347.2 L 431.8 354.7 L 406.1 362.5 L 394.3 364.0 L 395.3 365.7 L 395.3 367.8 L 413.3 366.9 L 418.7 379.7 L 418.9 393.1 L 415.1 402.6 L 356.9 409.5 L 298.3 421.2 L 301.3 396.5 L 323.1 380.7 L 334.7 369.4 L 335.3 364.8 L 333.0 372.4 L 302.5 380.2 L 309.8 386.9 L 317.3 387.9 L 308.7 394.1 L 308.1 397.6 L 312.8 397.6 L 303.1 379.9 L 294.3 376.6 L 287.3 373.8 L 306.4 358.2 L 361.2 359.4 L 442.6 349.2" fill="none" stroke="#2563eb" stroke-width="2" stroke-opacity="0.35" />
<circle cx="1418.0" cy="203.3" r="9" fill="#2563eb" fill-opacity="0.82" stroke="#fff" stroke-width="2" />
<text x="1418.0" y="207.3" font-family="Arial, Helvetica, sans-serif" font-size="8" font-weight="700" fill="#fff" text-anchor="middle">1</text>
<circle cx="1028.3" cy="362.0" r="9" fill="#2d60e2" fill-opacity="0.82" stroke="#fff" stroke-width="2" />
<text x="1028.3" y="366.0" font-family="Arial, Helvetica, sans-serif" font-size="8" font-weight="700" fill="#fff" text-anchor="middle">2</text>
<circle cx="306.2" cy="312.3" r="9" fill="#355eda" fill-opacity="0.82" stroke="#fff" stroke-width="2" />
<text x="306.2" y="316.3" font-family="Arial, Helvetica, sans-serif" font-size="8" font-weight="700" fill="#fff" text-anchor="middle">3</text>
<circle cx="302.7" cy="299.3" r="9" fill="#3d5bd1" fill-opacity="0.82" stroke="#fff" stroke-width="2" />
<text x="302.7" y="303.3" font-family="Arial, Helvetica, sans-serif" font-size="8" font-weight="700" fill="#fff" text-anchor="middle">4</text>
<circle cx="352.7" cy="258.2" r="9" fill="#4558c9" fill-opacity="0.82" stroke="#fff" stroke-width="2" />
<text x="352.7" y="262.2" font-family="Arial, Helvetica, sans-serif" font-size="8" font-weight="700" fill="#fff" text-anchor="middle">5</text>
<circle cx="576.0" cy="180.3" r="9" fill="#4d56c0" fill-opacity="0.82" stroke="#fff" stroke-width="2" />
<text x="576.0" y="184.3" font-family="Arial, Helvetica, sans-serif" font-size="8" font-weight="700" fill="#fff" text-anchor="middle">6</text>
<circle cx="533.7" cy="288.5" r="9" fill="#5553b8" fill-opacity="0.82" stroke="#fff" stroke-width="2" />
<text x="533.7" y="292.5" font-family="Arial, Helvetica, sans-serif" font-size="8" font-weight="700" fill="#fff" text-anchor="middle">7</text>
<circle cx="683.2" cy="227.2" r="9" fill="#5d50af" fill-opacity="0.82" stroke="#fff" stroke-width="2" />
<text x="683.2" y="231.2" font-family="Arial, Helvetica, sans-serif" font-size="8" font-weight="700" fill="#fff" text-anchor="middle">8</text>
<circle cx="939.3" cy="191.8" r="9" fill="#654ea6" fill-opacity="0.82" stroke="#fff" stroke-width="2" />
<text x="939.3" y="195.8" font-family="Arial, Helvetica, sans-serif" font-size="8" font-weight="700" fill="#fff" text-anchor="middle">9</text>
<circle cx="757.1" cy="161.5" r="9" fill="#6d4b9e" fill-opacity="0.82" stroke="#fff" stroke-width="2" />
<text x="757.1" y="165.5" font-family="Arial, Helvetica, sans-serif" font-size="8" font-weight="700" fill="#fff" text-anchor="middle">10</text>
<circle cx="750.6" cy="213.6" r="9" fill="#754895" fill-opacity="0.82" stroke="#fff" stroke-width="2" />
<text x="750.6" y="217.6" font-family="Arial, Helvetica, sans-serif" font-size="8" font-weight="700" fill="#fff" text-anchor="middle">11</text>
<circle cx="211.1" cy="303.4" r="9" fill="#7d468d" fill-opacity="0.82" stroke="#fff" stroke-width="2" />
<text x="211.1" y="307.4" font-family="Arial, Helvetica, sans-serif" font-size="8" font-weight="700" fill="#fff" text-anchor="middle">12</text>
<circle cx="356.9" cy="273.9" r="9" fill="#844384" fill-opacity="0.82" stroke="#fff" stroke-width="2" />
<text x="356.9" y="277.9" font-family="Arial, Helvetica, sans-serif" font-size="8" font-weight="700" fill="#fff" text-anchor="middle">13</text>
<circle cx="422.4" cy="289.4" r="9" fill="#8c417c" fill-opacity="0.82" stroke="#fff" stroke-width="2" />
<text x="422.4" y="293.4" font-family="Arial, Helvetica, sans-serif" font-size="8" font-weight="700" fill="#fff" text-anchor="middle">14</text>
<circle cx="600.8" cy="280.4" r="9" fill="#943e73" fill-opacity="0.82" stroke="#fff" stroke-width="2" />
<text x="600.8" y="284.4" font-family="Arial, Helvetica, sans-serif" font-size="8" font-weight="700" fill="#fff" text-anchor="middle">15</text>
<circle cx="519.3" cy="273.9" r="9" fill="#9c3b6b" fill-opacity="0.82" stroke="#fff" stroke-width="2" />
<text x="519.3" y="277.9" font-family="Arial, Helvetica, sans-serif" font-size="8" font-weight="700" fill="#fff" text-anchor="middle">16</text>
<circle cx="554.6" cy="336.7" r="9" fill="#a43962" fill-opacity="0.82" stroke="#fff" stroke-width="2" />
<text x="554.6" y="340.7" font-family="Arial, Helvetica, sans-serif" font-size="8" font-weight="700" fill="#fff" text-anchor="middle">17</text>
<circle cx="550.9" cy="302.1" r="9" fill="#ac3659" fill-opacity="0.82" stroke="#fff" stroke-width="2" />
<text x="550.9" y="306.1" font-family="Arial, Helvetica, sans-serif" font-size="8" font-weight="700" fill="#fff" text-anchor="middle">18</text>
<circle cx="625.3" cy="277.3" r="9" fill="#b43351" fill-opacity="0.82" stroke="#fff" stroke-width="2" />
<text x="625.3" y="281.3" font-family="Arial, Helvetica, sans-serif" font-size="8" font-weight="700" fill="#fff" text-anchor="middle">19</text>
<circle cx="366.6" cy="321.1" r="9" fill="#bc3148" fill-opacity="0.82" stroke="#fff" stroke-width="2" />
<text x="366.6" y="325.1" font-family="Arial, Helvetica, sans-serif" font-size="8" font-weight="700" fill="#fff" text-anchor="middle">20</text>
<circle cx="444.4" cy="338.8" r="9" fill="#c42e40" fill-opacity="0.82" stroke="#fff" stroke-width="2" />
<text x="444.4" y="342.8" font-family="Arial, Helvetica, sans-serif" font-size="8" font-weight="700" fill="#fff" text-anchor="middle">21</text>
<circle cx="418.7" cy="379.7" r="9" fill="#cc2b37" fill-opacity="0.82" stroke="#fff" stroke-width="2" />
<text x="418.7" y="383.7" font-family="Arial, Helvetica, sans-serif" font-size="8" font-weight="700" fill="#fff" text-anchor="middle">22</text>
<circle cx="302.5" cy="380.2" r="9" fill="#d4292f" fill-opacity="0.82" stroke="#fff" stroke-width="2" />
<text x="302.5" y="384.2" font-family="Arial, Helvetica, sans-serif" font-size="8" font-weight="700" fill="#fff" text-anchor="middle">23</text>
<circle cx="442.6" cy="349.2" r="9" fill="#dc2626" fill-opacity="0.82" stroke="#fff" stroke-width="2" />
<text x="442.6" y="353.2" font-family="Arial, Helvetica, sans-serif" font-size="8" font-weight="700" fill="#fff" text-anchor="middle">24</text>
<circle cx="1418.0" cy="203.3" r="13" fill="none" stroke="#16a34a" stroke-width="4" />
<text x="1434.0" y="191.3" font-family="Arial, Helvetica, sans-serif" font-size="11" font-weight="700" fill="#166534" text-anchor="start">START</text>
<circle cx="442.6" cy="349.2" r="13" fill="none" stroke="#dc2626" stroke-width="4" />
<text x="458.6" y="337.2" font-family="Arial, Helvetica, sans-serif" font-size="11" font-weight="700" fill="#991b1b" text-anchor="start">END</text>
<rect x="20.0" y="116.0" width="760.0" height="34.0" rx="6" fill="#ffffff" stroke="#cbd2d9" opacity="0.88" />
<text x="34.0" y="139.0" font-family="Arial, Helvetica, sans-serif" font-size="14" font-weight="400" fill="#1f2933" text-anchor="start">samples=248 duration=7.9s offscreen=0.0% x_sd=234.4 y_sd=62.8</text>
</svg>