<svg xmlns="http://www.w3.org/2000/svg" viewBox="0 0 1600 865" width="1600" height="865">
<rect x="0.0" y="0.0" width="1600.0" height="865.0" rx="0" fill="#f6f7f9" stroke="none" opacity="1" />
<text x="250.0" y="52.0" font-family="Arial, Helvetica, sans-serif" font-size="24" font-weight="700" fill="#1f2933" text-anchor="start">Reading Gaze Pilot</text>
<text x="250.0" y="78.0" font-family="Arial, Helvetica, sans-serif" font-size="14" font-weight="400" fill="#52606d" text-anchor="start">Probe</text>
<line x1="250.0" y1="100" x2="1350.0" y2="100" stroke="#d9dee7" />
<rect x="1160.0" y="42.0" width="80.0" height="34.0" rx="6" fill="#23395d" stroke="#23395d" opacity="1" />
<text x="1200.0" y="63.0" font-family="Arial, Helvetica, sans-serif" font-size="14" font-weight="400" fill="#fff" text-anchor="middle">Start</text>
<rect x="1250.0" y="42.0" width="100.0" height="34.0" rx="6" fill="#7b8794" stroke="#7b8794" opacity="0.45" />
<text x="1300.0" y="63.0" font-family="Arial, Helvetica, sans-serif" font-size="14" font-weight="400" fill="#fff" text-anchor="middle">Export CSV</text>
<text x="250.0" y="847.0" font-family="Arial, Helvetica, sans-serif" font-size="13" font-weight="400" fill="#52606d" text-anchor="start">probe / probe_trial_1</text>
<rect x="250.0" y="124.0" width="1100.0" height="683.0" rx="8" fill="#fff" stroke="#d9dee7" opacity="1" />
<text x="274.0" y="166.0" font-family="Arial, Helvetica, sans-serif" font-size="20" font-weight="700" fill="#1f2933" text-anchor="start">Quick Check</text>
<text x="274.0" y="210.0" font-family="Arial, Helvetica, sans-serif" font-size="14" font-weight="400" fill="#323f4b" text-anchor="start">Just before this screen, were you thinking about something unrelated to the</text>
<text x="274.0" y="232.0" font-family="Arial, Helvetica, sans-serif" font-size="14" font-weight="400" fill="#323f4b" text-anchor="start">reading?</text>
<rect x="274.0" y="258.0" width="360.0" height="34.0" rx="6" fill="#fff" stroke="#cbd2d9" opacity="1" />
<text x="286.0" y="280.0" font-family="Arial, Helvetica, sans-serif" font-size="14" font-weight="400" fill="#52606d" text-anchor="start">No / Yes</text>
<text x="274.0" y="334.0" font-family="Arial, Helvetica, sans-serif" font-size="14" font-weight="400" fill="#323f4b" text-anchor="start">Difficulty</text>
<line x1="274.0" y1="362.0" x2="634.0" y2="362.0" stroke="#9aa5b1" stroke-width="5" stroke-linecap="round" />
<text x="274.0" y="410.0" font-family="Arial, Helvetica, sans-serif" font-size="14" font-weight="400" fill="#323f4b" text-anchor="start">Familiarity</text>
<line x1="274.0" y1="438.0" x2="634.0" y2="438.0" stroke="#9aa5b1" stroke-width="5" stroke-linecap="round" />
<path d="M 494.7 419.9 L 999.4 220.0 L 582.7 373.4 L 692.1 421.6 L 582.5 399.6 L 964.1 247.7 L 1052.6 277.7 L 899.2 384.3 L 1019.4 341.2 L 959.6 289.6 L 984.2 287.0 L 660.9 345.8 L 725.3 290.3 L 871.3 195.9 L 708.2 261.1 L 659.0 325.3 L 899.3 262.1 L 726.4 223.5 L 578.9 216.7 L 379.1 274.9 L 497.8 303.0 L 819.7 299.5 L 848.9 254.2 L 458.0 210.1 L 682.7 113.4 L 639.3 148.7 L 421.1 263.6 L 458.1 341.4 L 314.5 556.0 L 338.1 306.9 L 487.4 171.6 L 630.3 182.2 L 596.7 219.5 L 479.6 183.8 L 467.9 181.6 L 524.0 195.7 L 731.6 233.2 L 727.6 231.2 L 763.8 129.2 L 680.1 154.4 L 648.6 242.9 L 784.6 252.9 L 825.0 368.3 L 730.5 369.1 L 628.4 397.7 L 563.1 336.3 L 586.9 362.2 L 604.5 332.4 L 272.6 643.1 L 633.3 511.6 L 911.4 325.2 L 1064.2 274.6 L 815.3 284.8 L 687.0 266.9 L 539.6 254.2 L 655.0 302.4 L 586.5 278.1 L 521.0 238.1 L 529.2 208.3 L 567.3 223.2 L 606.8 305.1 L 463.9 243.8 L 535.5 231.6 L 499.3 301.4 L 388.3 382.1 L 552.4 368.8 L 494.1 250.7 L 485.1 212.2 L 308.8 208.1 L 420.2 210.3 L 621.5 171.2 L 644.7 223.0 L 683.4 205.3 L 541.8 162.4 L 448.0 244.3 L 550.1 231.7 L 584.9 327.5 L 549.5 247.3 L 576.2 142.4 L 550.5 316.6 L 834.3 251.4 L 924.2 236.7 L 825.3 253.8 L 744.3 193.5 L 752.1 155.7 L 794.5 185.8 L 639.8 306.9 L 590.6 313.4 L 341.9 657.9 L 679.2 502.9 L 694.8 532.1 L 758.2 448.4 L 846.2 330.4 L 775.9 327.3 L 643.6 325.0 L 807.3 345.4 L 898.4 213.9 L 717.1 286.9 L 630.5 296.4 L 787.1 302.6 L 834.0 295.5 L 856.1 310.6 L 744.9 456.8 L 664.2 336.7 L 784.9 247.1 L 804.8 284.8 L 243.8 397.1 L 290.3 399.0 L 466.4 260.1 L 697.2 238.2 L 711.8 279.4 L 646.7 303.0 L 614.5 263.9 L 707.2 273.0 L 761.8 326.9 L 670.1 370.0 L 702.0 384.8 L 838.5 262.1 L 595.0 421.0 L 635.6 383.3 L 493.6 437.1 L 627.7 457.5 L 718.8 476.6 L 939.1 394.7 L 883.0 363.7 L 999.6 293.0 L 1068.7 344.4 L 904.3 366.6 L 1016.6 342.2 L 1046.8 227.8 L 126.0 472.9 L 562.8 529.7 L 779.4 463.4 L 824.6 318.5 L 880.1 238.9 L 701.1 510.9 L 881.1 445.1 L 654.6 272.5 L 640.5 184.3 L 661.9 303.6 L 865.3 328.2 L 966.5 246.6 L 758.9 338.7 L 458.2 439.2 L 508.7 427.8 L 731.1 288.6 L 745.8 243.7 L 390.1 471.0 L 403.7 486.3 L 715.1 331.4 L 724.8 280.7 L 969.7 194.4 L 937.4 256.0 L 737.3 369.3 L 582.1 416.9 L 482.8 433.4 L 416.5 346.2 L 642.5 246.3 L 656.2 356.4 L 710.9 308.3 L 942.1 216.6 L 973.8 299.4 L 1058.8 209.6 L 1071.6 134.1 L 1009.9 127.4 L 864.7 216.3 L 834.3 229.7 L 826.1 166.5 L 551.1 353.9 L 430.3 452.6 L 636.8 492.3 L 539.6 559.2 L 500.5 387.7 L 559.4 351.3 L 635.2 192.3 L 266.1 503.0 L 353.8 647.9 L 885.5 256.5 L 860.5 126.8 L 26.6 462.0 L 363.3 504.0 L 581.3 459.9 L 875.2 296.9 L 655.7 222.9 L 595.9 227.8 L 556.5 382.8 L 440.3 480.9 L 518.1 471.6 L 597.8 438.9 L 643.7 374.9 L 544.4 421.7 L 500.2 352.4 L 868.0 141.1 L 647.9 215.9 L 581.2 309.3 L 367.2 352.6 L 521.5 242.7 L 515.0 261.7 L 531.9 252.3 L 710.3 269.6 L 905.9 264.5 L 740.8 221.5 L 708.2 198.9 L 832.5 255.7 L 963.8 206.3 L 884.4 332.3 L 914.7 274.0 L 1044.6 196.5 L 909.6 294.0 L 673.3 436.4 L 515.0 334.3 L 898.6 179.9 L 832.6 269.9 L 574.9 365.0 L 386.7 369.3 L 375.6 365.7 L 312.2 377.9 L 532.5 285.5 L 480.6 378.5 L 316.5 342.2 L 363.3 300.9 L 559.9 313.1 L 422.2 336.4 L 220.8 369.8 L 370.6 278.2 L 595.5 198.4 L 522.3 221.8 L 659.1 135.2 L 706.3 114.5 L 384.0 260.9 L 267.1 336.0 L 252.0 427.1 L 250.6 442.5 L 298.2 344.3 L 192.6 363.9 L 251.2 623.0 L 449.0 407.8 L 380.0 305.1 L 686.8 300.1 L 615.4 302.1 L 458.8 318.0 L 485.0 262.1 L 344.7 226.4 L 137.1 391.8 L 456.2 432.6 L 764.4 367.5 L 541.5 367.7 L 447.1 291.7 L 600.1 257.5 L 651.0 379.8 L 739.8 362.3 L 568.4 456.5 L 754.4 275.2 L 758.1 255.3 L 502.8 238.8 L 403.8 317.2 L 401.7 227.6 L 401.2 189.8 L 508.4 367.0 L 397.3 277.9 L 356.7 281.6 L 398.0 388.6 L 380.9 303.0 L 414.3 205.4 L 273.4 236.9 L 251.0 255.1 L 243.6 240.8 L 509.8 202.5 L 431.4 240.1 L 300.6 254.2 L 329.2 250.5 L 357.7 229.8 L 320.8 298.8 L 287.7 205.2 L 282.4 155.6 L 266.8 215.2 L 368.4 218.7 L 482.6 173.1 L 331.6 190.3 L 413.4 188.9 L 296.5 258.9 L 203.9 284.7 L 360.6 274.2 L 381.6 221.1 L 311.2 444.3 L 293.7 501.2 L 658.0 236.2 L 494.6 291.0 L 640.0 255.2 L 748.4 163.5 L 470.0 169.4 L 263.0 155.7 L 261.4 151.0 L 404.7 290.5 L 479.4 134.5 L 435.0 207.0 L 382.4 251.6 L 376.9 235.2 L 276.4 746.4 L 376.9 404.7 L 581.9 290.9 L 613.1 240.4 L 414.1 226.6 L 493.7 247.4 L 386.2 246.9 L 506.1 240.8 L 598.9 329.3 L 522.2 341.0 L 446.7 392.6 L 538.7 341.5 L 459.5 394.4 L 380.5 285.9 L 377.7 309.3 L 613.8 147.0 L 529.3 220.7 L 419.1 222.0 L 447.0 217.4 L 480.9 267.5 L 615.7 180.5 L 436.8 199.3 L 259.9 450.4 L 215.3 493.7 L 264.5 336.8 L 493.2 246.8 L 459.6 195.0 L 557.3 290.7 L 669.0 288.5 L 789.0 143.4 L 632.6 320.7 L 470.4 347.0 L 474.9 310.5 L 629.1 306.6 L 443.4 352.0 L 437.4 383.6 L 359.7 398.5 L 423.7 281.8 L 398.9 420.0 L 504.6 357.6 L 642.6 208.1 L 547.4 244.2 L 530.1 325.8 L 730.0 329.8 L 712.9 437.3 L 618.3 386.9 L 715.8 370.2 L 493.0 386.9 L 353.6 441.9 L 413.6 309.4 L 370.8 230.2 L 423.8 265.7 L 446.7 283.2 L 674.8 292.6 L 531.2 264.5 L 445.6 269.2 L 458.7 305.0 L 528.7 315.8 L 521.7 300.9 L 426.4 316.1 L 339.9 304.7 L 349.9 325.2 L 476.4 321.9 L 430.1 419.7 L 489.9 279.3 L 497.9 295.7 L 522.6 400.3 L 502.8 409.6 L 542.8 433.3 L 507.0 426.1 L 506.1 315.2 L 632.5 344.0 L 448.8 376.4 L 401.4 371.3 L 441.9 386.1 L 565.4 427.0 L 660.3 405.9 L 553.1 438.4 L 421.6 510.7 L 588.1 401.4 L 360.4 340.2 L -251.8 588.0 L 348.4 480.1 L 733.1 214.7 L 807.8 186.9 L 798.7 250.7 L 777.0 294.4 L 950.7 385.0 L 675.0 253.7 L 596.9 247.2 L 576.6 194.9 L 697.7 226.5 L 862.0 418.5 L 458.7 452.4 L 375.3 366.0 L 228.1 446.5 L 48.8 582.3 L 142.9 502.9 L 169.2 452.2 L 146.2 423.4 L 170.5 366.6 L 185.1 373.6 L 263.8 432.4 L 359.6 274.6 L 495.3 205.1 L 473.4 232.2 L 311.3 435.0 L 483.4 461.9 L 583.2 408.5 L 519.0 351.1 L 417.2 246.1 L 409.7 280.6 L 278.5 283.9 L 287.4 381.7 L 277.9 473.8 L 393.1 423.6 L 419.2 361.1 L 479.8 288.2 L 501.0 341.1 L 512.2 354.8 L 355.3 367.2 L 374.1 337.1 L 94.5 449.4 L -162.8 521.7 L 454.4 475.7 L 245.6 505.9 L 490.8 416.4 L 581.7 382.3 L 461.2 361.1 L 324.2 396.5 L 476.5 410.1 L 520.3 450.7 L 518.6 396.7 L 447.5 241.9 L 410.0 236.0 L 548.9 218.4 L 532.5 278.1 L 440.2 275.1 L 224.8 379.0 L 174.4 388.4 L 254.6 386.7 L 417.9 344.4 L 367.0 426.9 L 207.8 528.8 L 342.1 398.6 L 408.1 305.4 L 463.2 253.0 L 405.3 363.2 L 458.5 344.8 L 430.6 358.7 L 292.9 370.0 L 312.6 343.9" fill="none" stroke="#2563eb" stroke-width="2" stroke-opacity="0.35" />
<circle cx="494.7" cy="419.9" r="9" fill="#2563eb" fill-opacity="0.82" stroke="#fff" stroke-width="2" />
<text x="494.7" y="423.9" font-family="Arial, Helvetica, sans-serif" font-size="8" font-weight="700" fill="#fff" text-anchor="middle">1</text>
<circle cx="467.7" cy="252.4" r="9" fill="#2d60e2" fill-opacity="0.82" stroke="#fff" stroke-width="2" />
<text x="467.7" y="256.4" font-family="Arial, Helvetica, sans-serif" font-size="8" font-weight="700" fill="#fff" text-anchor="middle">2</text>
<circle cx="680.1" cy="154.4" r="9" fill="#355eda" fill-opacity="0.82" stroke="#fff" stroke-width="2" />
<text x="680.1" y="158.4" font-family="Arial, Helvetica, sans-serif" font-size="8" font-weight="700" fill="#fff" text-anchor="middle">3</text>
<circle cx="600.8" cy="201.3" r="9" fill="#3d5bd1" fill-opacity="0.82" stroke="#fff" stroke-width="2" />
<text x="600.8" y="205.3" font-family="Arial, Helvetica, sans-serif" font-size="8" font-weight="700" fill="#fff" text-anchor="middle">4</text>
<circle cx="576.2" cy="142.4" r="9" fill="#4558c9" fill-opacity="0.82" stroke="#fff" stroke-width="2" />
<text x="576.2" y="146.4" font-family="Arial, Helvetica, sans-serif" font-size="8" font-weight="700" fill="#fff" text-anchor="middle">5</text>
<circle cx="644.1" cy="309.7" r="9" fill="#4d56c0" fill-opacity="0.82" stroke="#fff" stroke-width="2" />
<text x="644.1" y="313.7" font-family="Arial, Helvetica, sans-serif" font-size="8" font-weight="700" fill="#fff" text-anchor="middle">6</text>
<circle cx="826.6" cy="274.1" r="9" fill="#5553b8" fill-opacity="0.82" stroke="#fff" stroke-width="2" />
<text x="826.6" y="278.1" font-family="Arial, Helvetica, sans-serif" font-size="8" font-weight="700" fill="#fff" text-anchor="middle">7</text>
<circle cx="773.0" cy="322.9" r="9" fill="#5d50af" fill-opacity="0.82" stroke="#fff" stroke-width="2" />
<text x="773.0" y="326.9" font-family="Arial, Helvetica, sans-serif" font-size="8" font-weight="700" fill="#fff" text-anchor="middle">8</text>
<circle cx="485.7" cy="306.0" r="9" fill="#654ea6" fill-opacity="0.82" stroke="#fff" stroke-width="2" />
<text x="485.7" y="310.0" font-family="Arial, Helvetica, sans-serif" font-size="8" font-weight="700" fill="#fff" text-anchor="middle">9</text>
<circle cx="228.7" cy="648.8" r="9" fill="#6d4b9e" fill-opacity="0.82" stroke="#fff" stroke-width="2" />
<text x="228.7" y="652.8" font-family="Arial, Helvetica, sans-serif" font-size="8" font-weight="700" fill="#fff" text-anchor="middle">10</text>
<circle cx="393.1" cy="329.1" r="9" fill="#754895" fill-opacity="0.82" stroke="#fff" stroke-width="2" />
<text x="393.1" y="333.1" font-family="Arial, Helvetica, sans-serif" font-size="8" font-weight="700" fill="#fff" text-anchor="middle">11</text>
<circle cx="389.8" cy="356.7" r="9" fill="#7d468d" fill-opacity="0.82" stroke="#fff" stroke-width="2" />
<text x="389.8" y="360.7" font-family="Arial, Helvetica, sans-serif" font-size="8" font-weight="700" fill="#fff" text-anchor="middle">12</text>
<circle cx="-33.5" cy="479.8" r="9" fill="#844384" fill-opacity="0.82" stroke="#fff" stroke-width="2" />
<text x="-33.5" y="483.8" font-family="Arial, Helvetica, sans-serif" font-size="8" font-weight="700" fill="#fff" text-anchor="middle">13</text>
<circle cx="521.3" cy="236.8" r="9" fill="#8c417c" fill-opacity="0.82" stroke="#fff" stroke-width="2" />
<text x="521.3" y="240.8" font-family="Arial, Helvetica, sans-serif" font-size="8" font-weight="700" fill="#fff" text-anchor="middle">14</text>
<circle cx="315.4" cy="174.8" r="9" fill="#943e73" fill-opacity="0.82" stroke="#fff" stroke-width="2" />
<text x="315.4" y="178.8" font-family="Arial, Helvetica, sans-serif" font-size="8" font-weight="700" fill="#fff" text-anchor="middle">15</text>
<circle cx="359.6" cy="242.3" r="9" fill="#9c3b6b" fill-opacity="0.82" stroke="#fff" stroke-width="2" />
<text x="359.6" y="246.3" font-family="Arial, Helvetica, sans-serif" font-size="8" font-weight="700" fill="#fff" text-anchor="middle">16</text>
<circle cx="577.2" cy="252.0" r="9" fill="#a43962" fill-opacity="0.82" stroke="#fff" stroke-width="2" />
<text x="577.2" y="256.0" font-family="Arial, Helvetica, sans-serif" font-size="8" font-weight="700" fill="#fff" text-anchor="middle">17</text>
<circle cx="453.6" cy="328.2" r="9" fill="#ac3659" fill-opacity="0.82" stroke="#fff" stroke-width="2" />
<text x="453.6" y="332.2" font-family="Arial, Helvetica, sans-serif" font-size="8" font-weight="700" fill="#fff" text-anchor="middle">18</text>
<circle cx="587.3" cy="291.5" r="9" fill="#b43351" fill-opacity="0.82" stroke="#fff" stroke-width="2" />
<text x="587.3" y="295.5" font-family="Arial, Helvetica, sans-serif" font-size="8" font-weight="700" fill="#fff" text-anchor="middle">19</text>
<circle cx="401.4" cy="371.3" r="9" fill="#bc3148" fill-opacity="0.82" stroke="#fff" stroke-width="2" />
<text x="401.4" y="375.3" font-family="Arial, Helvetica, sans-serif" font-size="8" font-weight="700" fill="#fff" text-anchor="middle">20</text>
<circle cx="676.5" cy="461.9" r="9" fill="#c42e40" fill-opacity="0.82" stroke="#fff" stroke-width="2" />
<text x="676.5" y="465.9" font-family="Arial, Helvetica, sans-serif" font-size="8" font-weight="700" fill="#fff" text-anchor="middle">21</text>
<circle cx="278.5" cy="283.9" r="9" fill="#cc2b37" fill-opacity="0.82" stroke="#fff" stroke-width="2" />
<text x="278.5" y="287.9" font-family="Arial, Helvetica, sans-serif" font-size="8" font-weight="700" fill="#fff" text-anchor="middle">22</text>
<circle cx="522.1" cy="446.1" r="9" fill="#d4292f" fill-opacity="0.82" stroke="#fff" stroke-width="2" />
<text x="522.1" y="450.1" font-family="Arial, Helvetica, sans-serif" font-size="8" font-weight="700" fill="#fff" text-anchor="middle">23</text>
<circle cx="312.6" cy="343.9" r="9" fill="#dc2626" fill-opacity="0.82" stroke="#fff" stroke-width="2" />
<text x="312.6" y="347.9" font-family="Arial, Helvetica, sans-serif" font-size="8" font-weight="700" fill="#fff" text-anchor="middle">24</text>
<circle cx="494.7" cy="419.9" r="13" fill="none" stroke="#16a34a" stroke-width="4" />
<text x="510.7" y="407.9" font-family="Arial, Helvetica, sans-serif" font-size="11" font-weight="700" fill="#166534" text-anchor="start">START</text>
<circle cx="312.6" cy="343.9" r="13" fill="none" stroke="#dc2626" stroke-width="4" />
<text x="328.6" y="331.9" font-family="Arial, Helvetica, sans-serif" font-size="11" font-weight="700" fill="#991b1b" text-anchor="start">END</text>
<rect x="20.0" y="116.0" width="760.0" height="34.0" rx="6" fill="#ffffff" stroke="#cbd2d9" opacity="0.88" />
<text x="34.0" y="139.0" font-family="Arial, Helvetica, sans-serif" font-size="14" font-weight="400" fill="#1f2933" text-anchor="start">samples=2671 duration=54.5s offscreen=0.6% x_sd=212.9 y_sd=102.1</text>
</svg>