<svg xmlns="http://www.w3.org/2000/svg" viewBox="0 0 1600 865" width="1600" height="865">
<rect x="0.0" y="0.0" width="1600.0" height="865.0" rx="0" fill="#f6f7f9" stroke="none" opacity="1" />
<text x="250.0" y="52.0" font-family="Arial, Helvetica, sans-serif" font-size="24" font-weight="700" fill="#1f2933" text-anchor="start">Reading Gaze Pilot</text>
<text x="250.0" y="78.0" font-family="Arial, Helvetica, sans-serif" font-size="14" font-weight="400" fill="#52606d" text-anchor="start">Quiz</text>
<line x1="250.0" y1="100" x2="1350.0" y2="100" stroke="#d9dee7" />
<rect x="1160.0" y="42.0" width="80.0" height="34.0" rx="6" fill="#23395d" stroke="#23395d" opacity="1" />
<text x="1200.0" y="63.0" font-family="Arial, Helvetica, sans-serif" font-size="14" font-weight="400" fill="#fff" text-anchor="middle">Start</text>
<rect x="1250.0" y="42.0" width="100.0" height="34.0" rx="6" fill="#7b8794" stroke="#7b8794" opacity="0.45" />
<text x="1300.0" y="63.0" font-family="Arial, Helvetica, sans-serif" font-size="14" font-weight="400" fill="#fff" text-anchor="middle">Export CSV</text>
<text x="250.0" y="847.0" font-family="Arial, Helvetica, sans-serif" font-size="13" font-weight="400" fill="#52606d" text-anchor="start">quiz / quiz</text>
<rect x="250.0" y="124.0" width="1100.0" height="683.0" rx="8" fill="#fff" stroke="#d9dee7" opacity="1" />
<text x="274.0" y="166.0" font-family="Arial, Helvetica, sans-serif" font-size="20" font-weight="700" fill="#1f2933" text-anchor="start">Comprehension</text>
<rect x="274.0" y="190.0" width="680.0" height="68.0" rx="6" fill="#fff" stroke="#d9dee7" opacity="1" />
<text x="292.0" y="214.0" font-family="Arial, Helvetica, sans-serif" font-size="15" font-weight="400" fill="#323f4b" text-anchor="start">What is the safer goal for the pilot?</text>
<rect x="292.0" y="228.0" width="360.0" height="28.0" rx="6" fill="#fff" stroke="#cbd2d9" opacity="1" />
<rect x="274.0" y="276.0" width="680.0" height="68.0" rx="6" fill="#fff" stroke="#d9dee7" opacity="1" />
<text x="292.0" y="300.0" font-family="Arial, Helvetica, sans-serif" font-size="15" font-weight="400" fill="#323f4b" text-anchor="start">Why should the system fail softly?</text>
<rect x="292.0" y="314.0" width="360.0" height="28.0" rx="6" fill="#fff" stroke="#cbd2d9" opacity="1" />
<rect x="274.0" y="362.0" width="680.0" height="68.0" rx="6" fill="#fff" stroke="#d9dee7" opacity="1" />
<text x="292.0" y="386.0" font-family="Arial, Helvetica, sans-serif" font-size="15" font-weight="400" fill="#323f4b" text-anchor="start">What data does this MVP export?</text>
<rect x="292.0" y="400.0" width="360.0" height="28.0" rx="6" fill="#fff" stroke="#cbd2d9" opacity="1" />
<path d="M 521.1 358.5 L 626.1 274.1 L 429.5 285.4 L 483.8 334.6 L 485.7 374.3 L 241.5 380.9 L 282.1 443.5 L 245.6 455.1 L 406.7 383.6 L 306.2 361.5 L 440.0 385.4 L 194.6 418.6 L 430.8 325.6 L 539.9 304.6 L 252.7 207.3 L 140.5 169.0 L 303.6 202.2 L 314.1 367.1 L 289.5 240.4 L 334.5 248.7 L 299.0 200.1 L 481.6 242.7 L 251.3 211.1 L 199.9 194.5 L 259.0 261.4 L 311.0 333.1 L 436.4 219.2 L 397.9 157.7 L 447.2 353.3 L 698.9 249.1 L 476.3 338.2 L 490.8 286.7 L 579.5 117.3 L 379.0 256.6 L 472.9 263.4 L 419.2 214.9 L 690.5 244.2 L 553.5 348.7 L 301.6 360.0 L 177.3 348.1 L 303.6 320.0 L 760.0 365.2 L 965.6 335.4 L 435.0 384.3 L 448.7 314.2 L 506.1 365.9 L 242.4 436.0 L 222.9 525.1 L 614.0 195.2 L 561.7 245.7 L 550.3 305.0 L 390.4 249.0 L 386.0 228.3 L 421.6 282.2 L 488.3 253.2 L 576.5 255.7 L 564.1 292.3 L 509.8 235.4 L 360.0 299.5 L 459.6 337.3 L 568.8 308.3 L 611.6 262.7 L 613.1 316.8 L 458.6 340.8 L 339.1 332.7 L 423.6 410.2 L 571.5 324.5 L 406.8 507.1 L 470.6 524.9 L 436.5 316.6 L 352.4 355.8 L 188.6 359.8 L 450.2 337.1 L 468.0 317.3 L 238.3 351.7 L 304.9 371.9 L 387.0 325.9 L 179.1 354.0 L 329.4 346.6 L 471.2 300.7 L 283.1 370.7 L 391.0 409.4 L 198.6 330.8 L 482.3 296.9 L 405.4 316.7 L 464.0 256.6 L 517.8 258.4 L 407.4 343.9 L 503.2 279.2 L 313.4 181.8 L 422.0 415.2 L 555.3 332.4 L 240.2 321.8 L 392.9 280.2 L 497.0 269.7 L 461.6 272.6 L 441.7 333.7 L 396.6 251.5 L 508.0 308.6 L 461.6 287.0 L 296.9 308.9 L 538.9 318.8 L 400.0 320.6 L 403.1 244.7 L 575.2 244.0 L 280.4 341.6 L 642.3 344.6 L 515.0 291.1 L 386.8 362.0 L 353.9 282.9 L 305.8 311.1 L 507.3 312.0 L 814.9 280.0 L 572.0 308.2 L 609.6 357.5 L 577.9 337.1 L 643.4 316.6 L 465.5 370.4 L 508.8 316.7 L 569.0 215.9 L 554.8 142.0 L 307.5 376.8 L 568.9 484.6 L 487.1 389.4 L 116.6 331.3 L 224.5 278.7 L 436.9 404.8 L 604.6 432.7 L 410.2 301.1 L 702.3 326.3 L 376.2 338.7 L 357.1 365.7 L 766.8 302.2 L 461.9 323.9 L 470.7 288.0 L 287.2 310.9 L 531.5 500.5 L 383.4 404.5 L 332.1 371.1 L 16.2 416.6 L 346.1 240.4 L 283.3 483.5 L 294.0 415.7 L 93.3 350.0 L 332.7 288.9 L 501.1 261.8 L 259.5 323.4 L 495.0 299.4 L 444.1 290.0 L 71.1 307.6 L 183.9 353.0 L 42.2 395.4 L 466.9 584.1 L 614.5 462.7 L 446.5 319.9 L 341.4 327.8 L 620.3 301.1 L 454.6 314.6 L 309.8 316.0 L 595.1 261.3 L 603.1 187.9 L 487.0 234.6 L 530.6 246.0 L 341.4 397.2 L 58.9 378.6 L 91.5 366.2 L -22.5 388.1 L 225.0 345.2 L 430.8 382.2 L 651.7 378.0 L 620.6 369.4 L 443.8 492.6 L 790.4 475.6 L 556.1 452.6 L 533.6 405.6 L 671.9 307.3 L 427.0 344.5 L 252.6 369.1 L 273.5 371.5 L 153.6 462.1 L 208.2 438.3 L 482.0 454.0 L 440.0 375.7 L 508.0 328.8 L 473.2 263.6 L 211.3 515.8 L 300.0 465.0 L 365.2 308.8 L 433.6 389.2 L 602.7 360.1 L 711.7 383.3 L 524.9 327.6 L 397.6 378.1 L 527.8 256.2 L 315.9 340.6 L 160.8 388.3 L 317.6 386.7 L 695.8 330.2 L 221.0 332.4 L 188.8 361.3 L 472.5 269.5 L 302.7 312.6 L 306.6 304.7 L 434.7 376.4 L 307.1 324.2 L 311.2 322.5 L 374.0 357.9 L 368.4 330.8 L 340.3 283.9 L 406.8 304.4 L 65.3 299.5 L 21.1 324.2 L -133.2 335.1 L 350.8 368.3 L 282.8 389.6 L 269.8 494.1 L -91.6 454.5 L 343.8 401.9 L 553.7 459.4 L 340.3 409.5 L 426.7 324.4 L 630.0 626.0 L 593.5 709.9 L 334.3 329.5 L 319.9 313.9 L 512.4 312.0 L 298.5 407.2 L 629.9 302.2 L 485.2 221.0 L 336.5 381.3 L 419.0 439.3 L 316.4 369.3 L 404.9 358.5 L 342.9 402.9 L 409.4 357.6 L 495.3 311.0 L 780.6 270.2 L 74.7 377.7 L 302.4 408.0 L 464.6 487.0 L 359.7 427.8 L 421.7 401.9 L 546.0 413.7 L 368.6 405.6 L 379.3 362.4 L 101.9 420.1 L 268.9 344.6 L 152.7 359.3 L 363.0 245.3 L 498.6 317.7 L 304.8 409.5 L 213.4 438.2 L 297.0 507.7 L 554.3 574.1 L 477.2 705.6 L 393.1 422.5 L 315.2 367.6 L 390.7 404.0 L 30.5 391.8 L 410.7 659.2 L 535.6 691.7 L 172.7 501.8 L 482.3 357.3 L 164.8 439.0 L 233.6 448.0 L 113.1 394.9 L 157.1 363.1 L 297.7 423.9 L 278.0 449.6 L 17.0 540.0 L -181.7 555.8 L 172.3 402.4 L 34.9 380.4 L 81.8 456.4 L 26.4 507.4 L -29.0 365.3 L -9.7 392.3 L 202.9 419.2 L 284.3 394.7 L 241.8 395.9 L 179.5 478.3 L 271.3 502.6 L 146.5 510.1 L 67.8 567.2 L 179.6 476.5 L 331.1 442.5 L 262.0 381.5 L 325.1 436.4 L 317.2 436.2 L 380.4 442.2 L -61.2 407.2 L 204.8 421.1 L 282.2 425.6 L 322.4 343.4 L 110.3 539.5 L 266.3 406.3 L 336.7 473.9 L 95.8 552.2 L 367.5 493.9 L 373.6 376.9 L 95.4 431.2 L 483.7 447.1 L 490.4 386.4 L 240.7 405.1 L 440.6 391.8 L 324.4 367.9 L 206.4 417.6 L 518.3 395.8 L 548.0 464.1 L 603.0 680.4 L 608.4 285.3 L 288.6 247.0 L 467.3 375.2 L 463.0 380.2 L 574.2 369.7 L 343.9 419.9 L 328.2 355.8 L 352.6 394.7 L 329.2 381.6 L 278.2 377.8 L 238.1 446.9 L 265.0 486.8 L 269.2 513.3 L 332.9 462.1 L 401.0 524.9 L 458.2 556.7 L 633.1 586.0 L 477.5 541.0 L 255.5 475.9 L 139.3 539.3 L 52.8 565.0 L 99.5 539.3 L 157.9 446.9 L 181.8 476.0 L 320.9 431.4 L 335.3 480.1 L 376.9 616.6 L 243.5 559.8 L 106.7 528.9 L 276.2 429.5 L 129.3 273.5 L 280.6 389.6 L 490.3 445.8 L 442.2 394.6 L 388.3 391.4 L 676.9 393.6 L 375.2 470.8 L 338.4 468.9 L 333.1 455.0 L 637.0 401.0 L 604.7 406.0 L 459.9 487.4 L 584.7 409.4 L 705.7 571.4 L 392.0 326.5 L 347.9 392.2 L 461.6 312.6 L 452.8 437.2 L 319.6 439.8 L 407.2 407.0 L 696.2 390.6 L 340.2 373.3 L 101.2 300.7 L 508.8 431.6 L 840.6 614.7 L 449.6 423.2 L 160.1 353.1 L 327.9 335.9 L 83.1 495.1 L 19.7 484.8 L 187.3 640.5 L 368.8 469.8 L 387.9 442.8 L 250.5 479.1 L 355.6 488.1 L 503.2 322.9 L 715.6 402.5 L 510.9 383.7 L 182.0 502.6 L -62.6 533.3 L 14.4 481.5 L -46.0 546.1 L -78.6 594.5 L 304.4 452.1 L 115.7 456.6 L 153.1 456.1 L 346.7 438.5 L 377.9 462.1 L 240.6 487.6 L 309.4 586.6 L 385.0 519.5 L 246.6 523.5 L 164.4 526.3 L 353.5 462.4 L 360.2 464.9 L 404.8 350.6 L 154.5 448.2 L 288.1 457.5 L 313.3 436.2 L 111.1 547.4 L 131.2 473.8 L 225.2 379.2 L 141.7 468.3 L 466.7 481.7 L 128.8 423.4 L 96.6 390.5 L 173.4 403.8 L 333.9 357.4 L 526.9 369.3 L 842.1 778.5 L 505.7 662.0 L 433.1 542.1 L 805.7 579.3 L 538.5 578.0 L 491.1 536.9 L 226.9 518.8 L 767.1 538.8 L 507.9 507.3 L 125.7 581.4 L 10.9 522.6 L 315.8 466.1 L 303.2 492.6 L 118.4 534.3 L 245.2 495.8 L 67.5 434.9 L -1.4 365.2 L 103.1 434.0 L 130.3 517.2 L 117.7 508.1 L 168.5 480.1 L 307.3 489.8 L 312.2 499.2 L 272.9 444.4 L 390.1 468.3 L 424.4 489.4 L 523.4 507.0 L 550.5 405.8 L 330.6 385.0 L 264.6 486.1 L 314.2 645.7 L 3.0 595.8 L 156.5 510.8 L 302.4 528.8 L 298.3 524.7 L 457.1 535.5 L 434.9 374.0 L 305.8 297.2 L 442.9 419.9 L 1126.7 213.8 L 1473.4 84.0" fill="none" stroke="#2563eb" stroke-width="2" stroke-opacity="0.35" />
<circle cx="521.1" cy="358.5" r="9" fill="#2563eb" fill-opacity="0.82" stroke="#fff" stroke-width="2" />
<text x="521.1" y="362.5" font-family="Arial, Helvetica, sans-serif" font-size="8" font-weight="700" fill="#fff" text-anchor="middle">1</text>
<circle cx="269.7" cy="259.6" r="9" fill="#2d60e2" fill-opacity="0.82" stroke="#fff" stroke-width="2" />
<text x="269.7" y="263.6" font-family="Arial, Helvetica, sans-serif" font-size="8" font-weight="700" fill="#fff" text-anchor="middle">2</text>
<circle cx="220.6" cy="340.7" r="9" fill="#355eda" fill-opacity="0.82" stroke="#fff" stroke-width="2" />
<text x="220.6" y="344.7" font-family="Arial, Helvetica, sans-serif" font-size="8" font-weight="700" fill="#fff" text-anchor="middle">3</text>
<circle cx="438.6" cy="323.3" r="9" fill="#3d5bd1" fill-opacity="0.82" stroke="#fff" stroke-width="2" />
<text x="438.6" y="327.3" font-family="Arial, Helvetica, sans-serif" font-size="8" font-weight="700" fill="#fff" text-anchor="middle">4</text>
<circle cx="297.3" cy="359.2" r="9" fill="#4558c9" fill-opacity="0.82" stroke="#fff" stroke-width="2" />
<text x="297.3" y="363.2" font-family="Arial, Helvetica, sans-serif" font-size="8" font-weight="700" fill="#fff" text-anchor="middle">5</text>
<circle cx="398.6" cy="295.0" r="9" fill="#4d56c0" fill-opacity="0.82" stroke="#fff" stroke-width="2" />
<text x="398.6" y="299.0" font-family="Arial, Helvetica, sans-serif" font-size="8" font-weight="700" fill="#fff" text-anchor="middle">6</text>
<circle cx="447.6" cy="383.2" r="9" fill="#5553b8" fill-opacity="0.82" stroke="#fff" stroke-width="2" />
<text x="447.6" y="387.2" font-family="Arial, Helvetica, sans-serif" font-size="8" font-weight="700" fill="#fff" text-anchor="middle">7</text>
<circle cx="415.7" cy="430.7" r="9" fill="#5d50af" fill-opacity="0.82" stroke="#fff" stroke-width="2" />
<text x="415.7" y="434.7" font-family="Arial, Helvetica, sans-serif" font-size="8" font-weight="700" fill="#fff" text-anchor="middle">8</text>
<circle cx="615.4" cy="298.2" r="9" fill="#654ea6" fill-opacity="0.82" stroke="#fff" stroke-width="2" />
<text x="615.4" y="302.2" font-family="Arial, Helvetica, sans-serif" font-size="8" font-weight="700" fill="#fff" text-anchor="middle">9</text>
<circle cx="571.5" cy="270.9" r="9" fill="#6d4b9e" fill-opacity="0.82" stroke="#fff" stroke-width="2" />
<text x="571.5" y="274.9" font-family="Arial, Helvetica, sans-serif" font-size="8" font-weight="700" fill="#fff" text-anchor="middle">10</text>
<circle cx="193.6" cy="387.7" r="9" fill="#754895" fill-opacity="0.82" stroke="#fff" stroke-width="2" />
<text x="193.6" y="391.7" font-family="Arial, Helvetica, sans-serif" font-size="8" font-weight="700" fill="#fff" text-anchor="middle">11</text>
<circle cx="406.8" cy="468.3" r="9" fill="#7d468d" fill-opacity="0.82" stroke="#fff" stroke-width="2" />
<text x="406.8" y="472.3" font-family="Arial, Helvetica, sans-serif" font-size="8" font-weight="700" fill="#fff" text-anchor="middle">12</text>
<circle cx="320.9" cy="325.7" r="9" fill="#844384" fill-opacity="0.82" stroke="#fff" stroke-width="2" />
<text x="320.9" y="329.7" font-family="Arial, Helvetica, sans-serif" font-size="8" font-weight="700" fill="#fff" text-anchor="middle">13</text>
<circle cx="645.6" cy="776.0" r="9" fill="#8c417c" fill-opacity="0.82" stroke="#fff" stroke-width="2" />
<text x="645.6" y="780.0" font-family="Arial, Helvetica, sans-serif" font-size="8" font-weight="700" fill="#fff" text-anchor="middle">14</text>
<circle cx="-59.3" cy="580.5" r="9" fill="#943e73" fill-opacity="0.82" stroke="#fff" stroke-width="2" />
<text x="-59.3" y="584.5" font-family="Arial, Helvetica, sans-serif" font-size="8" font-weight="700" fill="#fff" text-anchor="middle">15</text>
<circle cx="335.2" cy="325.9" r="9" fill="#9c3b6b" fill-opacity="0.82" stroke="#fff" stroke-width="2" />
<text x="335.2" y="329.9" font-family="Arial, Helvetica, sans-serif" font-size="8" font-weight="700" fill="#fff" text-anchor="middle">16</text>
<circle cx="457.5" cy="429.8" r="9" fill="#a43962" fill-opacity="0.82" stroke="#fff" stroke-width="2" />
<text x="457.5" y="433.8" font-family="Arial, Helvetica, sans-serif" font-size="8" font-weight="700" fill="#fff" text-anchor="middle">17</text>
<circle cx="233.2" cy="477.7" r="9" fill="#ac3659" fill-opacity="0.82" stroke="#fff" stroke-width="2" />
<text x="233.2" y="481.7" font-family="Arial, Helvetica, sans-serif" font-size="8" font-weight="700" fill="#fff" text-anchor="middle">18</text>
<circle cx="340.4" cy="542.4" r="9" fill="#b43351" fill-opacity="0.82" stroke="#fff" stroke-width="2" />
<text x="340.4" y="546.4" font-family="Arial, Helvetica, sans-serif" font-size="8" font-weight="700" fill="#fff" text-anchor="middle">19</text>
<circle cx="381.8" cy="465.1" r="9" fill="#bc3148" fill-opacity="0.82" stroke="#fff" stroke-width="2" />
<text x="381.8" y="469.1" font-family="Arial, Helvetica, sans-serif" font-size="8" font-weight="700" fill="#fff" text-anchor="middle">20</text>
<circle cx="334.7" cy="521.7" r="9" fill="#c42e40" fill-opacity="0.82" stroke="#fff" stroke-width="2" />
<text x="334.7" y="525.7" font-family="Arial, Helvetica, sans-serif" font-size="8" font-weight="700" fill="#fff" text-anchor="middle">21</text>
<circle cx="556.7" cy="695.8" r="9" fill="#cc2b37" fill-opacity="0.82" stroke="#fff" stroke-width="2" />
<text x="556.7" y="699.8" font-family="Arial, Helvetica, sans-serif" font-size="8" font-weight="700" fill="#fff" text-anchor="middle">22</text>
<circle cx="286.3" cy="477.1" r="9" fill="#d4292f" fill-opacity="0.82" stroke="#fff" stroke-width="2" />
<text x="286.3" y="481.1" font-family="Arial, Helvetica, sans-serif" font-size="8" font-weight="700" fill="#fff" text-anchor="middle">23</text>
<circle cx="1473.4" cy="84.0" r="9" fill="#dc2626" fill-opacity="0.82" stroke="#fff" stroke-width="2" />
<text x="1473.4" y="88.0" font-family="Arial, Helvetica, sans-serif" font-size="8" font-weight="700" fill="#fff" text-anchor="middle">24</text>
<circle cx="521.1" cy="358.5" r="13" fill="none" stroke="#16a34a" stroke-width="4" />
<text x="537.1" y="346.5" font-family="Arial, Helvetica, sans-serif" font-size="11" font-weight="700" fill="#166534" text-anchor="start">START</text>
<circle cx="1473.4" cy="84.0" r="13" fill="none" stroke="#dc2626" stroke-width="4" />
<text x="1489.4" y="72.0" font-family="Arial, Helvetica, sans-serif" font-size="11" font-weight="700" fill="#991b1b" text-anchor="start">END</text>
<rect x="20.0" y="116.0" width="760.0" height="34.0" rx="6" fill="#ffffff" stroke="#cbd2d9" opacity="0.88" />
<text x="34.0" y="139.0" font-family="Arial, Helvetica, sans-serif" font-size="14" font-weight="400" fill="#1f2933" text-anchor="start">samples=3733 duration=72.9s offscreen=3.1% x_sd=189.3 y_sd=101.7</text>
</svg>