<svg xmlns="http://www.w3.org/2000/svg" viewBox="0 0 1600 865" width="1600" height="865">
<rect x="0.0" y="0.0" width="1600.0" height="865.0" rx="0" fill="#f6f7f9" stroke="none" opacity="1" />
<text x="250.0" y="52.0" font-family="Arial, Helvetica, sans-serif" font-size="24" font-weight="700" fill="#1f2933" text-anchor="start">Reading Gaze Pilot</text>
<text x="250.0" y="78.0" font-family="Arial, Helvetica, sans-serif" font-size="14" font-weight="400" fill="#52606d" text-anchor="start">Calibration</text>
<line x1="250.0" y1="100" x2="1350.0" y2="100" stroke="#d9dee7" />
<rect x="1160.0" y="42.0" width="80.0" height="34.0" rx="6" fill="#23395d" stroke="#23395d" opacity="1" />
<text x="1200.0" y="63.0" font-family="Arial, Helvetica, sans-serif" font-size="14" font-weight="400" fill="#fff" text-anchor="middle">Start</text>
<rect x="1250.0" y="42.0" width="100.0" height="34.0" rx="6" fill="#7b8794" stroke="#7b8794" opacity="0.45" />
<text x="1300.0" y="63.0" font-family="Arial, Helvetica, sans-serif" font-size="14" font-weight="400" fill="#fff" text-anchor="middle">Export CSV</text>
<text x="250.0" y="847.0" font-family="Arial, Helvetica, sans-serif" font-size="13" font-weight="400" fill="#52606d" text-anchor="start">calibration / calibration</text>
<rect x="250.0" y="124.0" width="1100.0" height="683.0" rx="8" fill="#fff" stroke="#d9dee7" opacity="1" />
<text x="274.0" y="164.0" font-family="Arial, Helvetica, sans-serif" font-size="20" font-weight="700" fill="#1f2933" text-anchor="start">Calibration</text>
<rect x="274.0" y="190.0" width="1052.0" height="593.0" rx="8" fill="#fbfcfd" stroke="#9aa5b1" opacity="0.9" />
<circle cx="379.2" cy="249.3" r="17" fill="#fff" stroke="#d64545" stroke-width="3" />
<text x="379.2" y="254.3" font-family="Arial, Helvetica, sans-serif" font-size="12" font-weight="700" fill="#d64545" text-anchor="middle">1</text>
<circle cx="800.0" cy="249.3" r="17" fill="#fff" stroke="#d64545" stroke-width="3" />
<text x="800.0" y="254.3" font-family="Arial, Helvetica, sans-serif" font-size="12" font-weight="700" fill="#d64545" text-anchor="middle">2</text>
<circle cx="1220.8" cy="249.3" r="17" fill="#fff" stroke="#d64545" stroke-width="3" />
<text x="1220.8" y="254.3" font-family="Arial, Helvetica, sans-serif" font-size="12" font-weight="700" fill="#d64545" text-anchor="middle">3</text>
<circle cx="379.2" cy="486.5" r="17" fill="#fff" stroke="#d64545" stroke-width="3" />
<text x="379.2" y="491.5" font-family="Arial, Helvetica, sans-serif" font-size="12" font-weight="700" fill="#d64545" text-anchor="middle">4</text>
<circle cx="800.0" cy="486.5" r="17" fill="#fff" stroke="#d64545" stroke-width="3" />
<text x="800.0" y="491.5" font-family="Arial, Helvetica, sans-serif" font-size="12" font-weight="700" fill="#d64545" text-anchor="middle">5</text>
<circle cx="1220.8" cy="486.5" r="17" fill="#fff" stroke="#d64545" stroke-width="3" />
<text x="1220.8" y="491.5" font-family="Arial, Helvetica, sans-serif" font-size="12" font-weight="700" fill="#d64545" text-anchor="middle">6</text>
<circle cx="379.2" cy="723.7" r="17" fill="#fff" stroke="#d64545" stroke-width="3" />
<text x="379.2" y="728.7" font-family="Arial, Helvetica, sans-serif" font-size="12" font-weight="700" fill="#d64545" text-anchor="middle">7</text>
<circle cx="800.0" cy="723.7" r="17" fill="#fff" stroke="#d64545" stroke-width="3" />
<text x="800.0" y="728.7" font-family="Arial, Helvetica, sans-serif" font-size="12" font-weight="700" fill="#d64545" text-anchor="middle">8</text>
<circle cx="1220.8" cy="723.7" r="17" fill="#fff" stroke="#d64545" stroke-width="3" />
<text x="1220.8" y="728.7" font-family="Arial, Helvetica, sans-serif" font-size="12" font-weight="700" fill="#d64545" text-anchor="middle">9</text>
<path d="M 500.2 499.5 L 480.9 493.8 L 390.9 487.3 L 233.1 461.2 L 210.0 449.3 L 282.4 443.2 L 343.6 420.5 L 435.5 389.7 L 511.7 386.6 L 469.1 358.8 L 537.6 249.8 L 567.4 210.4 L 513.8 264.3 L 536.4 243.9 L 558.0 303.5 L 577.5 337.8 L 536.6 274.7 L 471.2 319.2 L 601.0 271.6 L 876.7 188.3 L 991.9 167.6 L 1111.1 142.1 L 1143.3 109.1 L 1099.2 95.3 L 1079.2 86.3 L 1082.0 85.3 L 1060.3 80.7 L 1004.1 61.6 L 938.9 100.1 L 935.2 105.4 L 964.1 83.6 L 1036.6 96.4 L 1112.9 94.2 L 1133.2 104.6 L 1163.8 125.8 L 1141.1 99.8 L 1103.1 107.5 L 799.6 234.8 L 507.0 362.5 L 435.9 360.5 L 412.5 315.8 L 784.0 231.0 L 1007.0 145.8 L 993.9 147.1 L 709.9 198.7 L 529.8 244.7 L 505.6 279.1 L 457.5 313.3 L 478.5 332.3 L 413.2 343.1 L 518.4 367.8 L 680.5 358.8 L 828.2 348.3 L 828.7 307.0 L 831.1 346.0 L 848.4 393.9 L 892.2 425.6 L 918.6 391.9 L 959.5 343.1 L 961.0 315.0 L 879.6 295.0 L 842.8 255.9 L 811.1 321.8 L 778.9 379.2 L 816.2 433.2 L 852.1 466.5 L 882.2 442.9 L 897.0 432.7 L 784.7 478.0 L 672.0 487.2 L 577.3 417.6 L 474.1 379.1 L 508.9 370.8 L 729.8 271.1 L 980.8 183.7 L 1182.3 97.8 L 1279.4 31.6 L 1311.1 10.5 L 1332.3 9.2 L 1291.6 53.1 L 1235.8 59.7 L 1153.9 37.5 L 1090.1 -1.3 L 1003.3 7.6 L 1020.6 76.5 L 1075.6 144.8 L 1135.7 160.3 L 1163.8 212.1 L 1194.3 197.4 L 1183.2 140.9 L 1153.3 123.5 L 1097.3 120.5 L 1124.1 152.0 L 1121.7 151.9 L 1068.1 132.8 L 1003.9 126.6 L 988.3 128.0 L 990.6 142.7 L 1001.1 173.7 L 996.4 206.5 L 1007.7 230.5 L 922.4 300.5 L 828.7 375.5 L 702.7 443.5 L 444.8 486.0 L 359.4 516.1 L 331.7 531.8 L 464.0 491.0 L 522.3 482.7 L 568.3 456.3 L 636.6 403.1 L 700.5 391.9 L 705.1 366.4 L 694.5 372.2 L 663.1 410.1 L 608.5 404.9 L 611.0 410.6 L 592.4 403.4 L 576.5 395.7 L 541.4 372.1 L 472.0 383.3 L 439.6 379.7 L 474.7 377.4 L 481.2 371.4 L 529.2 316.1 L 566.4 282.1 L 596.1 300.0 L 635.7 310.3 L 646.6 314.1 L 697.6 338.1 L 716.5 374.7 L 742.5 408.1 L 747.2 417.4 L 751.4 424.2 L 649.2 407.8 L 582.1 376.6 L 608.3 367.2 L 562.8 328.6 L 531.9 303.3 L 521.9 294.5 L 515.3 305.6 L 503.3 298.9 L 490.6 303.7 L 534.2 320.9 L 619.3 356.2 L 640.3 372.2 L 608.4 369.4 L 558.0 364.6 L 530.7 361.9 L 474.6 358.9 L 449.2 355.8 L 435.9 346.3 L 439.4 342.7 L 447.1 342.5 L 491.1 340.7 L 568.6 349.3 L 635.7 348.8 L 660.0 345.4 L 665.9 356.0 L 680.1 360.9 L 703.0 347.3 L 723.8 337.1 L 748.2 376.4 L 715.2 378.8 L 688.2 357.1 L 651.2 354.3 L 572.0 360.2 L 520.8 344.1 L 529.5 387.3 L 511.5 384.7 L 551.0 357.8 L 540.3 360.2 L 478.4 395.4 L 387.4 403.9 L 727.7 271.4 L 1004.7 172.6 L 1052.3 202.3 L 967.1 188.7 L 873.8 213.4 L 939.7 227.2 L 1040.7 210.7 L 1202.7 188.9 L 1133.2 199.9 L 1064.3 247.5 L 1033.4 265.0 L 1020.4 227.6 L 1086.0 187.3 L 1060.8 166.0 L 1000.9 143.0 L 994.1 146.9 L 979.0 169.9 L 972.7 189.6 L 920.9 184.3 L 904.9 197.0 L 933.5 227.8 L 976.6 264.7 L 1048.1 288.5 L 1090.6 310.0 L 1081.8 291.6 L 1118.1 274.8 L 1129.5 193.3 L 974.8 263.3 L 1021.2 316.2 L 1051.3 304.3 L 1073.2 276.7 L 1051.0 270.5 L 1122.4 227.6 L 1115.8 203.7 L 1088.9 156.5 L 1025.8 124.8 L 1011.4 123.1 L 936.8 161.6 L 865.7 217.8 L 804.6 269.0 L 749.5 314.0 L 723.9 329.6 L 713.6 321.2 L 696.4 324.1 L 671.2 314.3 L 687.1 290.9 L 720.9 281.1 L 774.0 262.8 L 749.2 271.0 L 692.9 279.6 L 638.2 279.9 L 563.9 302.5 L 518.1 321.7 L 530.5 324.6 L 555.1 328.7 L 528.2 334.6 L 515.3 344.4 L 523.1 343.4 L 519.0 348.5 L 535.7 332.0 L 542.7 301.9 L 555.4 275.9 L 501.4 261.8 L 557.1 255.2 L 608.6 257.8 L 655.6 262.3 L 676.3 262.7 L 760.1 274.7 L 745.1 303.6 L 738.6 316.7 L 599.8 307.9 L 482.2 297.0 L 430.5 292.9 L 434.2 290.2 L 468.5 300.3 L 536.7 298.6 L 589.9 304.0 L 534.2 288.4 L 509.6 300.2 L 455.0 301.1 L 366.8 305.4 L 277.3 321.6 L 233.3 340.3 L 232.9 354.5 L 308.5 314.2 L 496.3 285.9 L 669.1 246.9 L 717.8 243.0 L 768.4 280.1 L 799.7 278.4 L 838.8 245.5 L 892.2 254.0 L 889.1 255.3 L 825.3 241.0 L 805.2 245.4 L 807.2 271.2 L 801.2 262.9 L 818.5 271.6 L 792.1 251.3 L 820.1 272.6 L 824.3 280.5 L 808.6 277.6 L 811.4 283.0 L 693.1 312.6 L 639.1 301.2 L 625.6 308.1 L 682.8 300.1 L 706.6 307.5 L 725.8 315.0 L 738.8 340.4 L 773.6 335.9 L 797.1 341.2 L 704.6 377.4 L 415.2 443.0 L 393.1 406.2 L 709.0 417.2 L 914.1 376.4 L 955.4 364.4 L 1085.5 326.3 L 1183.3 303.2 L 1227.3 291.8 L 1214.6 279.5 L 1155.8 293.1 L 1146.7 277.0 L 1161.8 267.3 L 1176.2 281.2 L 1154.3 316.7 L 1201.8 305.2 L 1227.3 307.5 L 1251.1 282.7 L 1250.6 250.4 L 1235.7 241.7 L 1213.2 252.3 L 1202.3 269.9 L 1250.5 283.1 L 1271.9 272.5 L 1295.0 258.7 L 1276.4 274.4 L 1249.9 290.1 L 1199.6 308.7 L 1171.2 307.2 L 1056.8 306.5 L 866.8 297.0 L 692.5 352.6 L 575.7 423.9 L 469.6 478.6 L 499.0 537.4 L 480.4 564.3 L 449.6 562.2 L 408.7 465.9 L 449.9 398.1 L 506.6 358.6 L 499.8 327.7 L 456.1 348.9 L 389.0 393.2 L 314.2 429.9 L 369.1 418.1 L 417.9 409.4 L 397.8 424.4 L 395.6 439.9 L 443.3 429.1 L 560.3 460.6 L 663.7 449.6 L 830.9 440.4 L 990.1 405.0 L 934.2 419.0 L 860.8 454.8 L 825.4 480.4 L 821.3 481.8 L 816.4 474.6 L 828.4 466.9 L 824.2 456.3 L 789.6 488.2 L 784.5 492.9 L 830.3 493.1 L 876.8 491.0 L 902.1 488.8 L 860.9 510.6 L 937.1 458.3 L 973.4 447.5 L 928.3 462.8 L 913.7 473.5 L 908.0 484.4 L 939.3 477.4 L 970.1 466.3 L 1072.3 451.6 L 1101.8 443.3 L 1087.4 404.0 L 1085.8 393.9 L 1121.7 413.1 L 1148.8 424.8 L 1137.5 433.9 L 1121.9 429.9 L 1123.6 435.8 L 1166.7 457.5 L 1190.1 466.3 L 1224.7 478.8 L 1177.8 488.6 L 1144.2 509.4 L 1117.8 513.5 L 1165.6 538.6 L 1191.0 553.2 L 1223.8 535.7 L 1244.2 505.9 L 1235.2 503.0 L 1216.4 480.9 L 1192.0 484.6 L 1220.1 473.6 L 1240.7 542.9 L 1221.7 576.5 L 1259.1 501.3 L 1164.5 490.5 L 910.0 494.2 L 623.7 470.6 L 596.4 435.0 L 712.5 438.3 L 755.4 433.1 L 711.6 464.4 L 695.9 486.1 L 660.2 527.7 L 601.3 489.3 L 523.7 525.6 L 415.2 585.7 L 358.5 588.0 L 301.3 598.6 L 355.7 573.0 L 469.1 634.2 L 365.6 622.9 L 334.4 662.2 L 294.7 697.1 L 284.1 705.4 L 261.6 723.9 L 262.9 726.2 L 344.9 708.6 L 414.5 682.4 L 466.7 632.8 L 486.7 576.3 L 516.4 538.8 L 473.7 603.2 L 446.1 654.8 L 435.6 687.9 L 448.5 691.1 L 546.1 690.4 L 590.6 659.0 L 655.9 596.8 L 720.4 625.8 L 761.2 661.0 L 776.9 694.6 L 794.3 718.7 L 815.1 709.9 L 827.6 696.9 L 832.5 688.7 L 832.5 674.3 L 880.2 642.4 L 811.5 653.2 L 851.5 592.2 L 951.0 565.2 L 814.7 614.5 L 624.9 610.8 L 667.7 638.7 L 662.3 637.6 L 305.9 619.2 L 474.1 585.2 L 876.7 587.5 L 1007.2 603.5 L 1183.1 653.1 L 1248.5 639.0 L 1339.6 652.0 L 1336.0 655.5 L 1275.2 662.5 L 1264.0 675.1 L 1181.9 671.1 L 1146.8 647.4 L 1149.2 639.4 L 1215.8 674.9 L 1169.1 677.8" fill="none" stroke="#2563eb" stroke-width="2" stroke-opacity="0.35" />
<circle cx="500.2" cy="499.5" r="9" fill="#2563eb" fill-opacity="0.82" stroke="#fff" stroke-width="2" />
<text x="500.2" y="503.5" font-family="Arial, Helvetica, sans-serif" font-size="8" font-weight="700" fill="#fff" text-anchor="middle">1</text>
<circle cx="894.2" cy="172.8" r="9" fill="#2d60e2" fill-opacity="0.82" stroke="#fff" stroke-width="2" />
<text x="894.2" y="176.8" font-family="Arial, Helvetica, sans-serif" font-size="8" font-weight="700" fill="#fff" text-anchor="middle">2</text>
<circle cx="435.9" cy="360.5" r="9" fill="#355eda" fill-opacity="0.82" stroke="#fff" stroke-width="2" />
<text x="435.9" y="364.5" font-family="Arial, Helvetica, sans-serif" font-size="8" font-weight="700" fill="#fff" text-anchor="middle">3</text>
<circle cx="974.8" cy="327.1" r="9" fill="#3d5bd1" fill-opacity="0.82" stroke="#fff" stroke-width="2" />
<text x="974.8" y="331.1" font-family="Arial, Helvetica, sans-serif" font-size="8" font-weight="700" fill="#fff" text-anchor="middle">4</text>
<circle cx="1311.0" cy="43.4" r="9" fill="#4558c9" fill-opacity="0.82" stroke="#fff" stroke-width="2" />
<text x="1311.0" y="47.4" font-family="Arial, Helvetica, sans-serif" font-size="8" font-weight="700" fill="#fff" text-anchor="middle">5</text>
<circle cx="1001.1" cy="173.7" r="9" fill="#4d56c0" fill-opacity="0.82" stroke="#fff" stroke-width="2" />
<text x="1001.1" y="177.7" font-family="Arial, Helvetica, sans-serif" font-size="8" font-weight="700" fill="#fff" text-anchor="middle">6</text>
<circle cx="592.4" cy="403.4" r="9" fill="#5553b8" fill-opacity="0.82" stroke="#fff" stroke-width="2" />
<text x="592.4" y="407.4" font-family="Arial, Helvetica, sans-serif" font-size="8" font-weight="700" fill="#fff" text-anchor="middle">7</text>
<circle cx="600.0" cy="358.7" r="9" fill="#5d50af" fill-opacity="0.82" stroke="#fff" stroke-width="2" />
<text x="600.0" y="362.7" font-family="Arial, Helvetica, sans-serif" font-size="8" font-weight="700" fill="#fff" text-anchor="middle">8</text>
<circle cx="635.7" cy="348.8" r="9" fill="#654ea6" fill-opacity="0.82" stroke="#fff" stroke-width="2" />
<text x="635.7" y="352.8" font-family="Arial, Helvetica, sans-serif" font-size="8" font-weight="700" fill="#fff" text-anchor="middle">9</text>
<circle cx="1090.4" cy="156.6" r="9" fill="#6d4b9e" fill-opacity="0.82" stroke="#fff" stroke-width="2" />
<text x="1090.4" y="160.6" font-family="Arial, Helvetica, sans-serif" font-size="8" font-weight="700" fill="#fff" text-anchor="middle">10</text>
<circle cx="976.6" cy="264.7" r="9" fill="#754895" fill-opacity="0.82" stroke="#fff" stroke-width="2" />
<text x="976.6" y="268.7" font-family="Arial, Helvetica, sans-serif" font-size="8" font-weight="700" fill="#fff" text-anchor="middle">11</text>
<circle cx="726.2" cy="332.4" r="9" fill="#7d468d" fill-opacity="0.82" stroke="#fff" stroke-width="2" />
<text x="726.2" y="336.4" font-family="Arial, Helvetica, sans-serif" font-size="8" font-weight="700" fill="#fff" text-anchor="middle">12</text>
<circle cx="510.2" cy="295.8" r="9" fill="#844384" fill-opacity="0.82" stroke="#fff" stroke-width="2" />
<text x="510.2" y="299.8" font-family="Arial, Helvetica, sans-serif" font-size="8" font-weight="700" fill="#fff" text-anchor="middle">13</text>
<circle cx="366.8" cy="305.4" r="9" fill="#8c417c" fill-opacity="0.82" stroke="#fff" stroke-width="2" />
<text x="366.8" y="309.4" font-family="Arial, Helvetica, sans-serif" font-size="8" font-weight="700" fill="#fff" text-anchor="middle">14</text>
<circle cx="829.5" cy="281.1" r="9" fill="#943e73" fill-opacity="0.82" stroke="#fff" stroke-width="2" />
<text x="829.5" y="285.1" font-family="Arial, Helvetica, sans-serif" font-size="8" font-weight="700" fill="#fff" text-anchor="middle">15</text>
<circle cx="1183.3" cy="303.2" r="9" fill="#9c3b6b" fill-opacity="0.82" stroke="#fff" stroke-width="2" />
<text x="1183.3" y="307.2" font-family="Arial, Helvetica, sans-serif" font-size="8" font-weight="700" fill="#fff" text-anchor="middle">16</text>
<circle cx="1227.0" cy="303.3" r="9" fill="#a43962" fill-opacity="0.82" stroke="#fff" stroke-width="2" />
<text x="1227.0" y="307.3" font-family="Arial, Helvetica, sans-serif" font-size="8" font-weight="700" fill="#fff" text-anchor="middle">17</text>
<circle cx="397.8" cy="424.4" r="9" fill="#ac3659" fill-opacity="0.82" stroke="#fff" stroke-width="2" />
<text x="397.8" y="428.4" font-family="Arial, Helvetica, sans-serif" font-size="8" font-weight="700" fill="#fff" text-anchor="middle">18</text>
<circle cx="860.9" cy="510.6" r="9" fill="#b43351" fill-opacity="0.82" stroke="#fff" stroke-width="2" />
<text x="860.9" y="514.5" font-family="Arial, Helvetica, sans-serif" font-size="8" font-weight="700" fill="#fff" text-anchor="middle">19</text>
<circle cx="1198.4" cy="474.6" r="9" fill="#bc3148" fill-opacity="0.82" stroke="#fff" stroke-width="2" />
<text x="1198.4" y="478.6" font-family="Arial, Helvetica, sans-serif" font-size="8" font-weight="700" fill="#fff" text-anchor="middle">20</text>
<circle cx="752.5" cy="417.4" r="9" fill="#c42e40" fill-opacity="0.82" stroke="#fff" stroke-width="2" />
<text x="752.5" y="421.4" font-family="Arial, Helvetica, sans-serif" font-size="8" font-weight="700" fill="#fff" text-anchor="middle">21</text>
<circle cx="486.7" cy="576.3" r="9" fill="#cc2b37" fill-opacity="0.82" stroke="#fff" stroke-width="2" />
<text x="486.7" y="580.3" font-family="Arial, Helvetica, sans-serif" font-size="8" font-weight="700" fill="#fff" text-anchor="middle">22</text>
<circle cx="874.8" cy="557.1" r="9" fill="#d4292f" fill-opacity="0.82" stroke="#fff" stroke-width="2" />
<text x="874.8" y="561.1" font-family="Arial, Helvetica, sans-serif" font-size="8" font-weight="700" fill="#fff" text-anchor="middle">23</text>
<circle cx="1169.1" cy="677.8" r="9" fill="#dc2626" fill-opacity="0.82" stroke="#fff" stroke-width="2" />
<text x="1169.1" y="681.8" font-family="Arial, Helvetica, sans-serif" font-size="8" font-weight="700" fill="#fff" text-anchor="middle">24</text>
<circle cx="500.2" cy="499.5" r="13" fill="none" stroke="#16a34a" stroke-width="4" />
<text x="516.2" y="487.5" font-family="Arial, Helvetica, sans-serif" font-size="11" font-weight="700" fill="#166534" text-anchor="start">START</text>
<circle cx="1169.1" cy="677.8" r="13" fill="none" stroke="#dc2626" stroke-width="4" />
<text x="1185.1" y="665.8" font-family="Arial, Helvetica, sans-serif" font-size="11" font-weight="700" fill="#991b1b" text-anchor="start">END</text>
<rect x="20.0" y="116.0" width="760.0" height="34.0" rx="6" fill="#ffffff" stroke="#cbd2d9" opacity="0.88" />
<text x="34.0" y="139.0" font-family="Arial, Helvetica, sans-serif" font-size="14" font-weight="400" fill="#1f2933" text-anchor="start">samples=855 duration=18.2s offscreen=0.1% x_sd=280.0 y_sd=152.4</text>
</svg>