<svg xmlns="http://www.w3.org/2000/svg" viewBox="0 0 1600 865" width="1600" height="865">
<rect x="0.0" y="0.0" width="1600.0" height="865.0" rx="0" fill="#f6f7f9" stroke="none" opacity="1" />
<text x="250.0" y="52.0" font-family="Arial, Helvetica, sans-serif" font-size="24" font-weight="700" fill="#1f2933" text-anchor="start">Reading Gaze Pilot</text>
<text x="250.0" y="78.0" font-family="Arial, Helvetica, sans-serif" font-size="14" font-weight="400" fill="#52606d" text-anchor="start">Reading</text>
<line x1="250.0" y1="100" x2="1350.0" y2="100" stroke="#d9dee7" />
<rect x="1160.0" y="42.0" width="80.0" height="34.0" rx="6" fill="#23395d" stroke="#23395d" opacity="1" />
<text x="1200.0" y="63.0" font-family="Arial, Helvetica, sans-serif" font-size="14" font-weight="400" fill="#fff" text-anchor="middle">Start</text>
<rect x="1250.0" y="42.0" width="100.0" height="34.0" rx="6" fill="#7b8794" stroke="#7b8794" opacity="0.45" />
<text x="1300.0" y="63.0" font-family="Arial, Helvetica, sans-serif" font-size="14" font-weight="400" fill="#fff" text-anchor="middle">Export CSV</text>
<text x="250.0" y="847.0" font-family="Arial, Helvetica, sans-serif" font-size="13" font-weight="400" fill="#52606d" text-anchor="start">reading / reading_trial_3</text>
<rect x="250.0" y="124.0" width="1100.0" height="683.0" rx="8" fill="#fff" stroke="#d9dee7" opacity="1" />
<text x="274.0" y="160.0" font-family="Arial, Helvetica, sans-serif" font-size="16" font-weight="400" fill="#323f4b" text-anchor="start">Passage 3 / 3</text>
<rect x="1230.0" y="142.0" width="96.0" height="36.0" rx="6" fill="#23395d" stroke="#23395d" opacity="1" />
<text x="1278.0" y="165.0" font-family="Arial, Helvetica, sans-serif" font-size="14" font-weight="400" fill="#fff" text-anchor="middle">Continue</text>
<text x="420.0" y="234.0" font-family="Arial, Helvetica, sans-serif" font-size="20" font-weight="400" fill="#1f2933" text-anchor="start">A careful educational system should fail softly. If a model is uncertain, it</text>
<text x="420.0" y="272.0" font-family="Arial, Helvetica, sans-serif" font-size="20" font-weight="400" fill="#1f2933" text-anchor="start">should offer optional support rather than make high-stakes decisions. This</text>
<text x="420.0" y="310.0" font-family="Arial, Helvetica, sans-serif" font-size="20" font-weight="400" fill="#1f2933" text-anchor="start">principle is especially important when working with students who may have</text>
<text x="420.0" y="348.0" font-family="Arial, Helvetica, sans-serif" font-size="20" font-weight="400" fill="#1f2933" text-anchor="start">special educational needs.</text>
<path d="M 362.6 375.9 L 427.8 362.6 L 504.2 353.7 L 503.7 332.0 L 496.1 323.7 L 480.2 320.1 L 632.1 282.6 L 673.1 229.1 L 624.5 247.8 L 550.2 245.4 L 492.8 315.1 L 530.6 359.4 L 640.0 457.1 L 859.5 488.5 L 892.8 513.4 L 804.3 495.2 L 811.8 474.8 L 727.4 447.4 L 700.6 336.7 L 695.2 277.0 L 776.1 254.7 L 750.8 243.2 L 681.1 206.7 L 563.7 218.5 L 484.0 270.0 L 442.4 415.2 L 545.0 462.7 L 461.9 613.1 L 537.8 531.4 L 692.8 433.6 L 718.7 246.2 L 540.9 263.1 L 552.4 280.5 L 547.5 256.4 L 522.3 233.0 L 669.6 158.1 L 670.7 133.0 L 497.2 247.8 L 457.5 299.6 L 453.8 268.2 L 456.5 242.3 L 553.8 180.8 L 527.0 205.7 L 527.6 249.2 L 508.9 255.0 L 689.9 237.1 L 648.4 139.3 L 550.0 304.0 L 382.5 346.1 L 358.1 423.4 L 508.5 345.1 L 553.3 264.0 L 606.0 234.8 L 656.1 221.8 L 561.8 203.4 L 559.3 195.4 L 696.9 215.7 L 840.5 234.6 L 852.9 276.9 L 824.0 282.8 L 570.1 294.2 L 453.6 303.4 L 462.0 450.9 L 467.2 411.9 L 607.5 353.9 L 642.4 289.6 L 695.4 270.7 L 707.5 250.4 L 589.0 245.9 L 484.3 232.5 L 454.7 231.6 L 430.1 213.8 L 445.6 213.6 L 405.8 209.6 L 387.5 222.1 L 539.0 215.3 L 523.1 209.3 L 553.4 223.5 L 628.4 217.1 L 610.0 246.5 L 622.8 231.3 L 603.0 235.2 L 632.9 262.7 L 678.8 255.9 L 679.3 282.4 L 576.7 344.1 L 517.3 381.3 L 554.2 398.3 L 645.3 240.3 L 698.1 154.6 L 730.3 112.8 L 787.6 179.8 L 763.7 287.0 L 749.8 234.9 L 714.5 226.0 L 786.6 230.3 L 712.7 302.8 L 727.0 326.0 L 845.8 252.4 L 828.2 247.3 L 780.2 141.4 L 780.8 149.3 L 687.5 245.3 L 669.2 298.7 L 718.0 322.8 L 720.7 281.3 L 744.0 272.8 L 820.5 233.4 L 777.1 258.4 L 769.2 303.6 L 803.1 296.9 L 774.4 322.2 L 881.7 253.2 L 984.5 230.9 L 1004.6 247.3 L 967.7 285.7 L 972.3 288.1 L 988.6 268.8 L 911.2 205.5 L 855.2 178.3 L 842.7 125.6 L 876.7 145.8 L 926.4 166.2 L 943.0 202.0 L 950.0 228.1 L 932.2 252.4 L 892.1 351.8 L 661.8 413.4 L 610.5 607.4 L 723.0 582.8 L 816.4 462.4 L 809.9 411.6 L 852.9 354.3 L 876.7 336.0 L 844.2 350.0 L 733.0 414.7 L 659.3 467.4 L 742.0 381.4 L 784.0 267.0 L 705.5 261.9 L 807.0 258.0 L 953.1 271.5 L 777.0 364.3 L 813.3 257.1 L 895.8 256.9 L 972.1 227.6 L 871.1 263.7 L 896.5 276.6 L 913.5 294.7 L 973.0 254.6 L 1044.2 247.6 L 1033.8 214.9 L 1120.9 210.2 L 1085.4 182.3 L 1152.9 207.3 L 1187.8 261.3 L 1141.2 271.6 L 1098.3 229.7 L 1030.8 168.7 L 1028.7 157.7 L 1093.7 161.1 L 1200.9 183.0 L 1198.0 172.2 L 901.0 238.7 L 433.3 259.2 L 351.6 252.5 L 578.8 252.7 L 521.3 258.8 L 492.5 359.1 L 430.8 430.0 L 466.1 519.6 L 544.5 565.9 L 309.1 471.4 L 366.6 263.5 L 368.8 338.7 L 596.9 344.1 L 900.0 291.3 L 1137.1 211.8 L 1175.2 223.9 L 1073.3 254.8 L 1032.5 282.4 L 909.6 349.1 L 802.1 449.4 L 709.6 470.1 L 977.4 539.0 L 1080.8 495.3 L 1022.5 447.3 L 906.8 384.4 L 856.1 300.6 L 603.5 240.5 L 386.4 247.6 L 299.6 257.8 L 163.9 298.3 L 120.0 345.5 L 136.5 362.2 L 223.1 373.6 L 418.4 304.6 L 496.6 248.6 L 639.0 317.5 L 482.6 360.0 L 482.0 375.6 L 504.7 391.0 L 656.6 368.4 L 793.8 384.8 L 875.7 397.4 L 742.9 351.4 L 497.1 279.2 L 650.7 246.2 L 563.7 211.6 L 538.6 206.7 L 541.1 313.3 L 669.3 401.1 L 647.4 345.2 L 627.1 357.9 L 580.7 406.6 L 513.7 415.8 L 538.8 361.4 L 662.9 272.8 L 681.4 230.5 L 725.5 304.0 L 577.8 299.1 L 499.5 495.9 L 430.0 465.7 L 461.3 477.8 L 488.1 367.3 L 559.9 306.9 L 543.7 304.2 L 545.6 177.2 L 577.3 256.5 L 666.2 275.2 L 690.7 284.9 L 492.1 231.5 L 466.3 207.0 L 415.8 133.3 L 409.1 95.0 L 413.3 174.2 L 426.9 231.8 L 607.2 200.9 L 816.5 178.7 L 874.6 185.9 L 842.2 202.6 L 735.8 240.0 L 549.8 326.3 L 509.2 333.8 L 558.4 297.4 L 632.7 271.5 L 727.8 283.2 L 591.2 189.4 L 542.8 149.6 L 549.4 204.2 L 461.9 194.4 L 619.1 296.6 L 692.1 322.2 L 739.9 287.4 L 694.2 214.2 L 705.7 268.7 L 852.5 293.5 L 905.5 362.7 L 807.7 411.1 L 689.1 365.1 L 458.1 313.6 L 413.0 291.8 L 505.4 268.1 L 526.5 253.6 L 517.7 297.2 L 499.4 319.9 L 464.1 250.6 L 348.2 193.0 L 472.0 174.8 L 580.7 154.0 L 650.1 162.9 L 720.1 133.1 L 774.9 122.5 L 724.4 160.2 L 729.8 192.9 L 813.9 183.7 L 821.6 224.1 L 818.0 296.4 L 866.6 473.9 L 692.9 552.0 L 742.9 556.9 L 762.0 466.4 L 748.8 422.4 L 716.6 315.6 L 709.2 265.0 L 583.6 227.4 L 584.4 314.2 L 614.4 371.7 L 624.0 397.6 L 637.5 422.7 L 500.9 482.1 L 439.6 552.1 L 602.1 423.6 L 806.2 292.0 L 934.7 257.8 L 937.1 248.5 L 838.4 202.0 L 756.0 200.2 L 702.8 275.4 L 711.6 386.1 L 742.1 435.1 L 608.5 320.4 L 696.5 484.4 L 822.5 517.5 L 1027.4 470.8 L 1027.7 437.3 L 1050.0 272.2 L 1061.2 211.7 L 1096.3 227.4 L 997.5 243.7 L 1000.5 191.9 L 1029.3 185.3 L 1102.3 312.3 L 1085.3 300.5 L 1032.5 225.2 L 1112.3 166.1 L 1202.8 199.3 L 1326.3 247.9 L 1376.7 242.1 L 1246.4 234.5 L 1172.6 236.1 L 1216.3 215.8 L 1230.4 208.2 L 1201.9 227.8 L 1169.1 250.7 L 1169.7 270.7 L 1170.4 272.4 L 1122.2 318.9 L 1007.0 377.6 L 955.2 345.5 L 986.3 260.1 L 1022.3 153.8 L 1058.6 109.6 L 1090.6 115.8 L 1061.3 129.0 L 1026.2 172.9 L 1144.2 195.2 L 1293.8 234.6 L 1394.6 260.6 L 1432.2 320.9 L 1071.1 459.0 L 428.2 520.0 L -92.0 491.0 L -254.3 404.8 L -195.6 336.8 L -28.6 347.4 L 155.0 324.7 L 169.7 285.1 L 191.2 226.1 L 296.9 207.7 L 364.0 236.0 L 438.9 357.6 L 307.3 453.8 L 194.8 517.1 L 141.8 460.4 L 267.4 365.5 L 271.2 269.1 L 222.4 284.3 L 145.1 289.0 L 93.7 303.3 L 226.3 255.5 L 337.4 244.6 L 261.8 348.9 L 533.4 350.0 L 482.6 366.1 L 496.8 351.1 L 304.5 229.8 L 144.8 242.2 L 138.8 272.2 L 261.1 290.9 L 420.6 340.5 L 541.8 346.4 L 598.1 351.4 L 640.8 356.8 L 676.4 469.7 L 679.5 497.6 L 725.0 495.6 L 762.3 466.1 L 816.8 490.7 L 660.0 450.9 L 689.5 422.9 L 641.3 405.2 L 379.2 486.7 L 320.4 533.5 L 460.3 458.1 L 680.8 453.0 L 459.3 418.4 L 317.4 324.3 L 349.1 296.2 L 472.0 262.0 L 537.1 560.0 L 504.8 586.5 L 503.6 561.6 L 486.1 456.0 L 455.6 385.4 L 481.6 356.9 L 589.9 404.6 L 637.2 492.8 L 679.7 509.4 L 633.3 492.5 L 623.4 467.4 L 513.3 448.8 L 513.2 454.8 L 494.2 512.5 L 506.1 516.6 L 560.3 423.8 L 563.7 402.8 L 515.5 419.8 L 606.6 436.8 L 747.8 476.1 L 673.5 408.7 L 617.7 348.8 L 720.6 402.1 L 879.2 460.3 L 875.9 453.4 L 788.5 470.8 L 719.8 516.6 L 866.9 522.0 L 893.4 474.7 L 885.9 445.2 L 922.9 428.7 L 856.0 477.5 L 842.4 550.4 L 898.2 375.2 L 1087.4 336.0 L 1136.0 290.4 L 1205.5 269.0 L 1208.2 254.8 L 1178.4 281.7 L 1282.1 122.6 L 1324.7 101.2 L 1243.2 155.7 L 1271.0 233.1 L 1263.9 252.6 L 1332.1 260.2 L 1185.2 287.9 L 950.1 301.5 L 919.3 230.5 L 1134.1 214.0 L 1234.8 218.5 L 1189.7 186.0 L 1154.6 219.8 L 1042.1 270.6 L 1289.5 257.6 L 1396.4 176.7 L 1464.6 134.6 L 1544.7 141.2 L 1495.8 179.7 L 1243.0 207.3 L 874.8 267.1" fill="none" stroke="#2563eb" stroke-width="2" stroke-opacity="0.35" />
<circle cx="362.6" cy="375.9" r="9" fill="#2563eb" fill-opacity="0.82" stroke="#fff" stroke-width="2" />
<text x="362.6" y="379.9" font-family="Arial, Helvetica, sans-serif" font-size="8" font-weight="700" fill="#fff" text-anchor="middle">1</text>
<circle cx="757.0" cy="261.8" r="9" fill="#2d60e2" fill-opacity="0.82" stroke="#fff" stroke-width="2" />
<text x="757.0" y="265.8" font-family="Arial, Helvetica, sans-serif" font-size="8" font-weight="700" fill="#fff" text-anchor="middle">2</text>
<circle cx="453.8" cy="268.2" r="9" fill="#355eda" fill-opacity="0.82" stroke="#fff" stroke-width="2" />
<text x="453.8" y="272.2" font-family="Arial, Helvetica, sans-serif" font-size="8" font-weight="700" fill="#fff" text-anchor="middle">3</text>
<circle cx="845.4" cy="287.3" r="9" fill="#3d5bd1" fill-opacity="0.82" stroke="#fff" stroke-width="2" />
<text x="845.4" y="291.3" font-family="Arial, Helvetica, sans-serif" font-size="8" font-weight="700" fill="#fff" text-anchor="middle">4</text>
<circle cx="628.4" cy="217.1" r="9" fill="#4558c9" fill-opacity="0.82" stroke="#fff" stroke-width="2" />
<text x="628.4" y="221.1" font-family="Arial, Helvetica, sans-serif" font-size="8" font-weight="700" fill="#fff" text-anchor="middle">5</text>
<circle cx="793.0" cy="276.7" r="9" fill="#4d56c0" fill-opacity="0.82" stroke="#fff" stroke-width="2" />
<text x="793.0" y="280.7" font-family="Arial, Helvetica, sans-serif" font-size="8" font-weight="700" fill="#fff" text-anchor="middle">6</text>
<circle cx="973.4" cy="252.5" r="9" fill="#5553b8" fill-opacity="0.82" stroke="#fff" stroke-width="2" />
<text x="973.4" y="256.5" font-family="Arial, Helvetica, sans-serif" font-size="8" font-weight="700" fill="#fff" text-anchor="middle">7</text>
<circle cx="733.0" cy="404.9" r="9" fill="#5d50af" fill-opacity="0.82" stroke="#fff" stroke-width="2" />
<text x="733.0" y="408.9" font-family="Arial, Helvetica, sans-serif" font-size="8" font-weight="700" fill="#fff" text-anchor="middle">8</text>
<circle cx="1116.3" cy="307.4" r="9" fill="#654ea6" fill-opacity="0.82" stroke="#fff" stroke-width="2" />
<text x="1116.3" y="311.4" font-family="Arial, Helvetica, sans-serif" font-size="8" font-weight="700" fill="#fff" text-anchor="middle">9</text>
<circle cx="784.9" cy="313.7" r="9" fill="#6d4b9e" fill-opacity="0.82" stroke="#fff" stroke-width="2" />
<text x="784.9" y="317.7" font-family="Arial, Helvetica, sans-serif" font-size="8" font-weight="700" fill="#fff" text-anchor="middle">10</text>
<circle cx="287.0" cy="346.7" r="9" fill="#754895" fill-opacity="0.82" stroke="#fff" stroke-width="2" />
<text x="287.0" y="350.7" font-family="Arial, Helvetica, sans-serif" font-size="8" font-weight="700" fill="#fff" text-anchor="middle">11</text>
<circle cx="512.5" cy="424.5" r="9" fill="#7d468d" fill-opacity="0.82" stroke="#fff" stroke-width="2" />
<text x="512.5" y="428.5" font-family="Arial, Helvetica, sans-serif" font-size="8" font-weight="700" fill="#fff" text-anchor="middle">12</text>
<circle cx="380.7" cy="101.2" r="9" fill="#844384" fill-opacity="0.82" stroke="#fff" stroke-width="2" />
<text x="380.7" y="105.2" font-family="Arial, Helvetica, sans-serif" font-size="8" font-weight="700" fill="#fff" text-anchor="middle">13</text>
<circle cx="699.8" cy="236.5" r="9" fill="#8c417c" fill-opacity="0.82" stroke="#fff" stroke-width="2" />
<text x="699.8" y="240.5" font-family="Arial, Helvetica, sans-serif" font-size="8" font-weight="700" fill="#fff" text-anchor="middle">14</text>
<circle cx="718.0" cy="191.8" r="9" fill="#943e73" fill-opacity="0.82" stroke="#fff" stroke-width="2" />
<text x="718.0" y="195.8" font-family="Arial, Helvetica, sans-serif" font-size="8" font-weight="700" fill="#fff" text-anchor="middle">15</text>
<circle cx="731.4" cy="317.7" r="9" fill="#9c3b6b" fill-opacity="0.82" stroke="#fff" stroke-width="2" />
<text x="731.4" y="321.7" font-family="Arial, Helvetica, sans-serif" font-size="8" font-weight="700" fill="#fff" text-anchor="middle">16</text>
<circle cx="1126.4" cy="348.3" r="9" fill="#a43962" fill-opacity="0.82" stroke="#fff" stroke-width="2" />
<text x="1126.4" y="352.3" font-family="Arial, Helvetica, sans-serif" font-size="8" font-weight="700" fill="#fff" text-anchor="middle">17</text>
<circle cx="1039.7" cy="123.9" r="9" fill="#ac3659" fill-opacity="0.82" stroke="#fff" stroke-width="2" />
<text x="1039.7" y="127.9" font-family="Arial, Helvetica, sans-serif" font-size="8" font-weight="700" fill="#fff" text-anchor="middle">18</text>
<circle cx="393.4" cy="376.2" r="9" fill="#b43351" fill-opacity="0.82" stroke="#fff" stroke-width="2" />
<text x="393.4" y="380.2" font-family="Arial, Helvetica, sans-serif" font-size="8" font-weight="700" fill="#fff" text-anchor="middle">19</text>
<circle cx="541.8" cy="346.4" r="9" fill="#bc3148" fill-opacity="0.82" stroke="#fff" stroke-width="2" />
<text x="541.8" y="350.4" font-family="Arial, Helvetica, sans-serif" font-size="8" font-weight="700" fill="#fff" text-anchor="middle">20</text>
<circle cx="505.7" cy="580.4" r="9" fill="#c42e40" fill-opacity="0.82" stroke="#fff" stroke-width="2" />
<text x="505.7" y="584.4" font-family="Arial, Helvetica, sans-serif" font-size="8" font-weight="700" fill="#fff" text-anchor="middle">21</text>
<circle cx="673.5" cy="408.7" r="9" fill="#cc2b37" fill-opacity="0.82" stroke="#fff" stroke-width="2" />
<text x="673.5" y="412.7" font-family="Arial, Helvetica, sans-serif" font-size="8" font-weight="700" fill="#fff" text-anchor="middle">22</text>
<circle cx="1310.2" cy="91.6" r="9" fill="#d4292f" fill-opacity="0.82" stroke="#fff" stroke-width="2" />
<text x="1310.2" y="95.6" font-family="Arial, Helvetica, sans-serif" font-size="8" font-weight="700" fill="#fff" text-anchor="middle">23</text>
<circle cx="874.8" cy="267.1" r="9" fill="#dc2626" fill-opacity="0.82" stroke="#fff" stroke-width="2" />
<text x="874.8" y="271.1" font-family="Arial, Helvetica, sans-serif" font-size="8" font-weight="700" fill="#fff" text-anchor="middle">24</text>
<circle cx="362.6" cy="375.9" r="13" fill="none" stroke="#16a34a" stroke-width="4" />
<text x="378.6" y="363.9" font-family="Arial, Helvetica, sans-serif" font-size="11" font-weight="700" fill="#166534" text-anchor="start">START</text>
<circle cx="874.8" cy="267.1" r="13" fill="none" stroke="#dc2626" stroke-width="4" />
<text x="890.8" y="255.1" font-family="Arial, Helvetica, sans-serif" font-size="11" font-weight="700" fill="#991b1b" text-anchor="start">END</text>
<rect x="20.0" y="116.0" width="760.0" height="34.0" rx="6" fill="#ffffff" stroke="#cbd2d9" opacity="0.88" />
<text x="34.0" y="139.0" font-family="Arial, Helvetica, sans-serif" font-size="14" font-weight="400" fill="#1f2933" text-anchor="start">samples=1464 duration=28.8s offscreen=0.8% x_sd=284.6 y_sd=107.9</text>
</svg>