<svg xmlns="http://www.w3.org/2000/svg" viewBox="0 0 1600 865" width="1600" height="865">
<rect x="0.0" y="0.0" width="1600.0" height="865.0" rx="0" fill="#f6f7f9" stroke="none" opacity="1" />
<text x="250.0" y="52.0" font-family="Arial, Helvetica, sans-serif" font-size="24" font-weight="700" fill="#1f2933" text-anchor="start">Reading Gaze Pilot</text>
<text x="250.0" y="78.0" font-family="Arial, Helvetica, sans-serif" font-size="14" font-weight="400" fill="#52606d" text-anchor="start">Reading</text>
<line x1="250.0" y1="100" x2="1350.0" y2="100" stroke="#d9dee7" />
<rect x="1160.0" y="42.0" width="80.0" height="34.0" rx="6" fill="#23395d" stroke="#23395d" opacity="1" />
<text x="1200.0" y="63.0" font-family="Arial, Helvetica, sans-serif" font-size="14" font-weight="400" fill="#fff" text-anchor="middle">Start</text>
<rect x="1250.0" y="42.0" width="100.0" height="34.0" rx="6" fill="#7b8794" stroke="#7b8794" opacity="0.45" />
<text x="1300.0" y="63.0" font-family="Arial, Helvetica, sans-serif" font-size="14" font-weight="400" fill="#fff" text-anchor="middle">Export CSV</text>
<text x="250.0" y="847.0" font-family="Arial, Helvetica, sans-serif" font-size="13" font-weight="400" fill="#52606d" text-anchor="start">reading / reading_trial_1</text>
<rect x="250.0" y="124.0" width="1100.0" height="683.0" rx="8" fill="#fff" stroke="#d9dee7" opacity="1" />
<text x="274.0" y="160.0" font-family="Arial, Helvetica, sans-serif" font-size="16" font-weight="400" fill="#323f4b" text-anchor="start">Passage 1 / 3</text>
<rect x="1230.0" y="142.0" width="96.0" height="36.0" rx="6" fill="#23395d" stroke="#23395d" opacity="1" />
<text x="1278.0" y="165.0" font-family="Arial, Helvetica, sans-serif" font-size="14" font-weight="400" fill="#fff" text-anchor="middle">Continue</text>
<text x="420.0" y="234.0" font-family="Arial, Helvetica, sans-serif" font-size="20" font-weight="400" fill="#1f2933" text-anchor="start">Adaptive learning systems adjust content, pacing, or support based on learner</text>
<text x="420.0" y="272.0" font-family="Arial, Helvetica, sans-serif" font-size="20" font-weight="400" fill="#1f2933" text-anchor="start">signals. In inclusive education, the goal is not to label students, but to</text>
<text x="420.0" y="310.0" font-family="Arial, Helvetica, sans-serif" font-size="20" font-weight="400" fill="#1f2933" text-anchor="start">notice when a learner may need a clearer explanation, a slower pace, or a</text>
<text x="420.0" y="348.0" font-family="Arial, Helvetica, sans-serif" font-size="20" font-weight="400" fill="#1f2933" text-anchor="start">different presentation format.</text>
<path d="M 1133.6 660.2 L 1148.5 634.8 L 1194.3 666.7 L 1151.2 682.8 L 969.3 643.1 L 841.9 522.2 L 801.9 349.1 L 973.3 201.1 L 1156.0 144.0 L 1323.0 76.8 L 1315.0 52.8 L 1229.4 73.6 L 1257.2 129.7 L 1295.3 184.2 L 1257.3 203.1 L 444.5 313.2 L 464.8 316.3 L 926.2 244.4 L 1073.9 193.7 L 1180.1 237.4 L 1162.6 256.4 L 768.7 276.2 L 646.7 266.2 L 536.8 268.9 L 457.5 257.1 L 734.3 215.9 L 1117.0 167.1 L 1260.2 184.7 L 1122.5 249.6 L 1145.7 180.4 L 1096.6 124.4 L 1225.7 151.1 L 1163.5 298.5 L 1187.0 317.8 L 1248.1 258.6 L 1258.2 190.7 L 1234.2 183.5 L 1210.9 207.8 L 1144.0 217.7 L 988.6 269.1 L 1062.7 251.4 L 845.3 304.5 L 839.4 301.0 L 494.2 289.9 L 449.0 303.1 L 221.8 402.8 L 227.1 469.9 L 282.6 432.5 L 354.1 350.5 L 361.3 294.7 L 426.7 346.6 L 458.0 319.6 L 425.7 359.8 L 380.0 293.3 L 351.8 277.4 L 367.4 273.7 L 498.4 244.9 L 606.6 230.6 L 664.9 177.8 L 705.0 228.1 L 698.0 220.8 L 570.1 222.3 L 574.0 253.3 L 682.2 141.2 L 701.8 144.7 L 625.0 99.8 L 570.6 90.1 L 535.4 166.3 L 564.6 214.7 L 667.4 249.6 L 694.4 229.1 L 733.1 211.8 L 783.9 217.0 L 799.1 225.7 L 667.3 245.4 L 667.2 283.0 L 550.9 312.4 L 765.9 181.0 L 430.5 317.4 L 278.3 453.1 L 519.5 383.9 L 738.4 318.5 L 882.0 244.8 L 945.7 218.8 L 945.2 191.2 L 906.0 169.1 L 916.5 173.0 L 932.7 210.2 L 921.0 239.1 L 902.0 282.5 L 858.7 265.9 L 838.3 247.7 L 853.7 243.4 L 943.0 243.8 L 972.0 206.8 L 1008.4 256.7 L 990.6 270.2 L 982.1 289.2 L 998.6 273.7 L 953.0 236.9 L 949.9 234.1 L 999.5 216.6 L 1060.8 147.5 L 1043.4 211.1 L 1084.9 241.4 L 1067.6 230.9 L 1088.6 211.5 L 1084.8 219.1 L 1018.5 288.5 L 1064.7 305.6 L 1081.2 263.9 L 1111.2 253.0 L 1086.0 266.1 L 719.0 267.6 L 674.2 326.6 L 605.9 354.0 L 596.2 351.9 L 620.4 339.3 L 497.5 296.0 L 453.6 272.6 L 295.9 279.8 L 351.0 260.0 L 417.4 228.1 L 488.7 226.1 L 476.9 284.7 L 467.4 303.6 L 515.6 281.4 L 681.9 270.8 L 610.9 316.8 L 588.4 189.0 L 418.0 298.1 L 472.1 360.6 L 589.2 334.4 L 573.9 315.3 L 579.7 319.9 L 561.2 257.9 L 523.5 240.1 L 579.2 286.6 L 612.5 301.9 L 590.3 235.6 L 589.4 244.8 L 571.1 259.1 L 615.0 205.5 L 617.2 213.5 L 625.7 258.1 L 756.9 225.3 L 787.4 178.8 L 773.6 117.5 L 700.6 135.9 L 617.2 213.8 L 547.5 315.2 L 516.5 344.1 L 376.2 361.5 L 412.6 290.4 L 492.0 294.1 L 618.6 304.5 L 680.5 291.5 L 829.5 278.0 L 782.7 240.9 L 628.5 175.5 L 497.5 259.4 L 532.7 235.7 L 549.7 356.0 L 442.2 398.8 L 435.6 381.4 L 383.5 360.9 L 470.5 333.0 L 591.5 278.7 L 569.0 260.1 L 557.4 307.1 L 614.4 278.2 L 736.9 208.2 L 810.0 178.8 L 829.2 321.1 L 843.7 356.9 L 831.8 379.4 L 683.2 391.8 L 478.0 402.7 L 485.0 272.0 L 486.4 250.2 L 422.9 313.0 L 489.6 307.1 L 593.8 289.3 L 736.3 328.9 L 716.3 380.6 L 712.6 349.8 L 761.0 270.9 L 675.6 309.6 L 530.8 360.5 L 393.5 392.9 L 368.1 374.5 L -48.5 542.1 L -12.7 636.9 L 169.6 629.3 L 520.3 420.7 L 741.4 309.4 L 741.7 379.1 L 854.5 436.0 L 948.6 430.7 L 1016.0 404.0 L 994.8 363.9 L 857.8 359.3 L 766.6 224.2 L 813.8 225.6 L 800.0 238.8 L 786.8 265.0 L 804.0 261.0 L 762.9 232.1 L 817.0 268.2 L 874.2 212.5 L 852.2 182.8 L 847.6 243.2 L 906.3 276.7 L 941.0 273.4 L 877.7 285.7 L 885.0 270.8 L 892.8 246.8 L 922.2 188.5 L 918.4 169.2 L 895.6 195.9 L 863.2 262.9 L 831.2 275.2 L 820.0 408.5 L 852.8 413.9 L 846.3 375.6 L 751.9 307.6 L 860.3 278.2 L 886.6 282.3 L 907.2 256.4 L 1050.6 211.4 L 1109.8 264.3 L 1049.7 436.3 L 970.4 414.4 L 1012.5 332.5 L 969.9 292.8 L 1075.6 218.8 L 1093.5 241.4 L 1122.8 258.9 L 1055.8 251.4 L 997.0 318.4 L 1037.2 250.4 L 1148.5 216.5 L 1155.5 185.8 L 1107.7 238.3 L 1101.5 285.9 L 1096.1 301.6 L 1087.5 328.8 L 1149.0 334.5 L 1178.5 285.5 L 1136.2 255.6 L 1185.6 225.9 L 1328.2 259.7 L 1276.1 294.9 L 1199.0 290.6 L 1252.0 304.6 L 1298.6 275.0 L 1199.6 237.9 L 679.8 312.8 L 344.3 336.9 L 167.0 365.8 L 217.2 384.8 L 315.1 356.2 L 452.5 332.7 L 470.3 315.0 L 387.9 317.1 L 348.0 353.8 L 340.6 316.4 L 367.8 259.2 L 406.7 235.2 L 473.0 308.5 L 458.9 389.7 L 371.4 381.6 L 439.8 387.5 L 420.6 280.8 L 362.9 368.1 L 350.8 467.1 L 382.1 483.8 L 384.9 492.8 L 196.6 625.3 L 147.8 648.3 L 273.5 528.2 L 332.7 498.2 L 312.4 441.3 L 337.9 416.2 L 332.8 408.8 L 281.4 474.8 L 349.3 478.9 L 504.6 551.7 L 606.5 514.8 L 571.6 512.0 L 495.2 547.0 L 462.9 553.9 L 440.4 553.1 L 501.9 532.3 L 569.8 609.4 L 617.2 599.5 L 612.2 560.7 L 552.9 490.9 L 549.8 369.9 L 515.9 329.1 L 526.1 246.0 L 587.4 168.7 L 533.6 228.0 L 417.8 359.2 L 384.5 437.7 L 472.8 295.9 L 586.8 234.0 L 707.6 188.6 L 754.1 258.7 L 568.2 427.6 L 573.3 424.5 L 645.1 402.9 L 542.7 431.9 L 672.8 383.8 L 700.6 330.3 L 663.0 256.0 L 577.9 279.4 L 521.0 398.7 L 345.1 453.6 L 287.3 486.4 L 463.8 436.6 L 679.0 316.3 L 650.4 287.7 L 584.6 310.9 L 525.1 326.8 L 643.7 283.1 L 866.0 289.0 L 849.9 325.6 L 827.7 361.8 L 846.2 336.7 L 745.0 305.2 L 651.2 358.7 L 615.4 355.7 L 626.4 341.8 L 688.6 314.5 L 515.4 296.1 L 482.2 297.7 L 406.9 317.2 L 470.4 328.4 L 684.3 264.7 L 715.5 268.6 L 777.8 258.2 L 709.3 339.3 L 701.1 397.5 L 634.6 325.1 L 542.6 371.5 L 554.5 405.4 L 701.6 256.7 L 704.4 262.7 L 662.9 346.4 L 655.5 316.7 L 676.1 278.4 L 659.6 263.3 L 694.2 232.6 L 733.0 239.9 L 770.2 278.5 L 773.7 317.2 L 796.9 331.1 L 765.8 357.4 L 658.4 343.3 L 581.6 335.2 L 209.7 481.7 L -30.1 590.3 L 270.0 640.3 L 441.4 535.7 L 660.3 454.7 L 698.8 397.8 L 697.5 476.9 L 656.6 553.0 L 627.8 538.2 L 625.3 483.2 L 569.8 392.7 L 512.0 395.4 L 598.7 430.1 L 615.7 470.4 L 601.8 438.9 L 577.6 373.0 L 683.2 364.2 L 730.2 432.6 L 823.1 439.9 L 900.4 352.6 L 962.9 339.8 L 847.8 349.1 L 714.5 388.0 L 772.8 404.6 L 915.7 408.6 L 1119.6 292.2 L 1214.5 231.0 L 1296.1 169.8 L 1313.6 113.1 L 1359.3 126.0 L 1354.8 153.1 L 1358.6 195.5 L 1362.3 226.0 L 1410.2 174.7 L 1356.9 217.7 L 1418.0 162.0 L 1451.5 158.0 L 1500.8 150.4 L 1375.0 169.2 L 1420.2 193.5 L 1464.9 150.6 L 1412.1 200.6 L 1320.2 267.9 L 1176.9 288.1 L 1018.7 353.0 L 1165.4 316.3 L 1340.0 189.8 L 1325.7 164.4 L 1208.3 199.6 L 1275.7 154.7 L 1327.0 119.3 L 1400.4 171.5 L 1519.6 231.5 L 1339.3 336.6 L 1350.7 285.9 L 1538.4 187.9 L 1390.2 263.2 L 1170.9 374.1 L 1009.5 416.0 L 1017.6 440.4 L 1007.7 408.9 L 1215.6 317.4 L 1315.6 222.1 L 1311.6 201.5 L 1173.1 194.7 L 922.0 276.1 L 847.4 366.4 L 798.9 318.8 L 909.5 273.5 L 432.3 415.3 L -340.6 546.3 L -593.8 617.0 L 231.7 618.7 L 777.6 459.6 L 619.3 445.9 L 569.5 400.6 L 504.5 408.5 L 225.7 489.2 L -311.8 578.0 L -238.4 621.1 L 122.9 603.2 L 656.2 600.6 L 1421.3 339.0 L 1612.4 223.5 L 1578.9 227.2 L 1481.3 301.1 L 1058.7 342.8 L 526.7 423.1 L 355.4 455.0" fill="none" stroke="#2563eb" stroke-width="2" stroke-opacity="0.35" />
<circle cx="1133.6" cy="660.2" r="9" fill="#2563eb" fill-opacity="0.82" stroke="#fff" stroke-width="2" />
<text x="1133.6" y="664.2" font-family="Arial, Helvetica, sans-serif" font-size="8" font-weight="700" fill="#fff" text-anchor="middle">1</text>
<circle cx="1197.6" cy="230.9" r="9" fill="#2d60e2" fill-opacity="0.82" stroke="#fff" stroke-width="2" />
<text x="1197.6" y="234.9" font-family="Arial, Helvetica, sans-serif" font-size="8" font-weight="700" fill="#fff" text-anchor="middle">2</text>
<circle cx="988.6" cy="269.1" r="9" fill="#355eda" fill-opacity="0.82" stroke="#fff" stroke-width="2" />
<text x="988.6" y="273.1" font-family="Arial, Helvetica, sans-serif" font-size="8" font-weight="700" fill="#fff" text-anchor="middle">3</text>
<circle cx="688.9" cy="151.3" r="9" fill="#3d5bd1" fill-opacity="0.82" stroke="#fff" stroke-width="2" />
<text x="688.9" y="155.3" font-family="Arial, Helvetica, sans-serif" font-size="8" font-weight="700" fill="#fff" text-anchor="middle">4</text>
<circle cx="430.5" cy="317.4" r="9" fill="#4558c9" fill-opacity="0.82" stroke="#fff" stroke-width="2" />
<text x="430.5" y="321.4" font-family="Arial, Helvetica, sans-serif" font-size="8" font-weight="700" fill="#fff" text-anchor="middle">5</text>
<circle cx="1010.0" cy="288.1" r="9" fill="#4d56c0" fill-opacity="0.82" stroke="#fff" stroke-width="2" />
<text x="1010.0" y="292.1" font-family="Arial, Helvetica, sans-serif" font-size="8" font-weight="700" fill="#fff" text-anchor="middle">6</text>
<circle cx="632.9" cy="341.1" r="9" fill="#5553b8" fill-opacity="0.82" stroke="#fff" stroke-width="2" />
<text x="632.9" y="345.1" font-family="Arial, Helvetica, sans-serif" font-size="8" font-weight="700" fill="#fff" text-anchor="middle">7</text>
<circle cx="565.1" cy="286.2" r="9" fill="#5d50af" fill-opacity="0.82" stroke="#fff" stroke-width="2" />
<text x="565.1" y="290.2" font-family="Arial, Helvetica, sans-serif" font-size="8" font-weight="700" fill="#fff" text-anchor="middle">8</text>
<circle cx="762.5" cy="289.9" r="9" fill="#654ea6" fill-opacity="0.82" stroke="#fff" stroke-width="2" />
<text x="762.5" y="293.9" font-family="Arial, Helvetica, sans-serif" font-size="8" font-weight="700" fill="#fff" text-anchor="middle">9</text>
<circle cx="758.5" cy="359.5" r="9" fill="#6d4b9e" fill-opacity="0.82" stroke="#fff" stroke-width="2" />
<text x="758.5" y="363.5" font-family="Arial, Helvetica, sans-serif" font-size="8" font-weight="700" fill="#fff" text-anchor="middle">10</text>
<circle cx="752.1" cy="322.7" r="9" fill="#754895" fill-opacity="0.82" stroke="#fff" stroke-width="2" />
<text x="752.1" y="326.7" font-family="Arial, Helvetica, sans-serif" font-size="8" font-weight="700" fill="#fff" text-anchor="middle">11</text>
<circle cx="883.3" cy="264.1" r="9" fill="#7d468d" fill-opacity="0.82" stroke="#fff" stroke-width="2" />
<text x="883.3" y="268.1" font-family="Arial, Helvetica, sans-serif" font-size="8" font-weight="700" fill="#fff" text-anchor="middle">12</text>
<circle cx="978.9" cy="275.5" r="9" fill="#844384" fill-opacity="0.82" stroke="#fff" stroke-width="2" />
<text x="978.9" y="279.5" font-family="Arial, Helvetica, sans-serif" font-size="8" font-weight="700" fill="#fff" text-anchor="middle">13</text>
<circle cx="1184.4" cy="297.6" r="9" fill="#8c417c" fill-opacity="0.82" stroke="#fff" stroke-width="2" />
<text x="1184.4" y="301.6" font-family="Arial, Helvetica, sans-serif" font-size="8" font-weight="700" fill="#fff" text-anchor="middle">14</text>
<circle cx="402.2" cy="295.4" r="9" fill="#943e73" fill-opacity="0.82" stroke="#fff" stroke-width="2" />
<text x="402.2" y="299.4" font-family="Arial, Helvetica, sans-serif" font-size="8" font-weight="700" fill="#fff" text-anchor="middle">15</text>
<circle cx="491.8" cy="536.6" r="9" fill="#9c3b6b" fill-opacity="0.82" stroke="#fff" stroke-width="2" />
<text x="491.8" y="540.6" font-family="Arial, Helvetica, sans-serif" font-size="8" font-weight="700" fill="#fff" text-anchor="middle">16</text>
<circle cx="532.0" cy="425.3" r="9" fill="#a43962" fill-opacity="0.82" stroke="#fff" stroke-width="2" />
<text x="532.0" y="429.3" font-family="Arial, Helvetica, sans-serif" font-size="8" font-weight="700" fill="#fff" text-anchor="middle">17</text>
<circle cx="637.3" cy="344.8" r="9" fill="#ac3659" fill-opacity="0.82" stroke="#fff" stroke-width="2" />
<text x="637.3" y="348.8" font-family="Arial, Helvetica, sans-serif" font-size="8" font-weight="700" fill="#fff" text-anchor="middle">18</text>
<circle cx="652.5" cy="269.3" r="9" fill="#b43351" fill-opacity="0.82" stroke="#fff" stroke-width="2" />
<text x="652.5" y="273.3" font-family="Arial, Helvetica, sans-serif" font-size="8" font-weight="700" fill="#fff" text-anchor="middle">19</text>
<circle cx="569.8" cy="392.7" r="9" fill="#bc3148" fill-opacity="0.82" stroke="#fff" stroke-width="2" />
<text x="569.8" y="396.7" font-family="Arial, Helvetica, sans-serif" font-size="8" font-weight="700" fill="#fff" text-anchor="middle">20</text>
<circle cx="1358.3" cy="135.0" r="9" fill="#c42e40" fill-opacity="0.82" stroke="#fff" stroke-width="2" />
<text x="1358.3" y="139.0" font-family="Arial, Helvetica, sans-serif" font-size="8" font-weight="700" fill="#fff" text-anchor="middle">21</text>
<circle cx="1275.7" cy="154.7" r="9" fill="#cc2b37" fill-opacity="0.82" stroke="#fff" stroke-width="2" />
<text x="1275.7" y="158.7" font-family="Arial, Helvetica, sans-serif" font-size="8" font-weight="700" fill="#fff" text-anchor="middle">22</text>
<circle cx="942.2" cy="256.1" r="9" fill="#d4292f" fill-opacity="0.82" stroke="#fff" stroke-width="2" />
<text x="942.2" y="260.1" font-family="Arial, Helvetica, sans-serif" font-size="8" font-weight="700" fill="#fff" text-anchor="middle">23</text>
<circle cx="355.4" cy="455.0" r="9" fill="#dc2626" fill-opacity="0.82" stroke="#fff" stroke-width="2" />
<text x="355.4" y="459.0" font-family="Arial, Helvetica, sans-serif" font-size="8" font-weight="700" fill="#fff" text-anchor="middle">24</text>
<circle cx="1133.6" cy="660.2" r="13" fill="none" stroke="#16a34a" stroke-width="4" />
<text x="1149.6" y="648.2" font-family="Arial, Helvetica, sans-serif" font-size="11" font-weight="700" fill="#166534" text-anchor="start">START</text>
<circle cx="355.4" cy="455.0" r="13" fill="none" stroke="#dc2626" stroke-width="4" />
<text x="371.4" y="443.0" font-family="Arial, Helvetica, sans-serif" font-size="11" font-weight="700" fill="#991b1b" text-anchor="start">END</text>
<rect x="20.0" y="116.0" width="760.0" height="34.0" rx="6" fill="#ffffff" stroke="#cbd2d9" opacity="0.88" />
<text x="34.0" y="139.0" font-family="Arial, Helvetica, sans-serif" font-size="14" font-weight="400" fill="#1f2933" text-anchor="start">samples=1521 duration=31.4s offscreen=1.4% x_sd=337.2 y_sd=114.6</text>
</svg>