<svg xmlns="http://www.w3.org/2000/svg" viewBox="0 0 1600 865" width="1600" height="865">
<rect x="0.0" y="0.0" width="1600.0" height="865.0" rx="0" fill="#f6f7f9" stroke="none" opacity="1" />
<text x="250.0" y="52.0" font-family="Arial, Helvetica, sans-serif" font-size="24" font-weight="700" fill="#1f2933" text-anchor="start">Reading Gaze Pilot</text>
<text x="250.0" y="78.0" font-family="Arial, Helvetica, sans-serif" font-size="14" font-weight="400" fill="#52606d" text-anchor="start">Reading</text>
<line x1="250.0" y1="100" x2="1350.0" y2="100" stroke="#d9dee7" />
<rect x="1160.0" y="42.0" width="80.0" height="34.0" rx="6" fill="#23395d" stroke="#23395d" opacity="1" />
<text x="1200.0" y="63.0" font-family="Arial, Helvetica, sans-serif" font-size="14" font-weight="400" fill="#fff" text-anchor="middle">Start</text>
<rect x="1250.0" y="42.0" width="100.0" height="34.0" rx="6" fill="#7b8794" stroke="#7b8794" opacity="0.45" />
<text x="1300.0" y="63.0" font-family="Arial, Helvetica, sans-serif" font-size="14" font-weight="400" fill="#fff" text-anchor="middle">Export CSV</text>
<text x="250.0" y="847.0" font-family="Arial, Helvetica, sans-serif" font-size="13" font-weight="400" fill="#52606d" text-anchor="start">reading / reading_trial_2</text>
<rect x="250.0" y="124.0" width="1100.0" height="683.0" rx="8" fill="#fff" stroke="#d9dee7" opacity="1" />
<text x="274.0" y="160.0" font-family="Arial, Helvetica, sans-serif" font-size="16" font-weight="400" fill="#323f4b" text-anchor="start">Passage 2 / 3</text>
<rect x="1230.0" y="142.0" width="96.0" height="36.0" rx="6" fill="#23395d" stroke="#23395d" opacity="1" />
<text x="1278.0" y="165.0" font-family="Arial, Helvetica, sans-serif" font-size="14" font-weight="400" fill="#fff" text-anchor="middle">Continue</text>
<text x="420.0" y="234.0" font-family="Arial, Helvetica, sans-serif" font-size="20" font-weight="400" fill="#1f2933" text-anchor="start">Webcam-based eye tracking estimates where a learner is looking by using a</text>
<text x="420.0" y="272.0" font-family="Arial, Helvetica, sans-serif" font-size="20" font-weight="400" fill="#1f2933" text-anchor="start">standard camera. The signal is noisier than a research-grade eye tracker, but</text>
<text x="420.0" y="310.0" font-family="Arial, Helvetica, sans-serif" font-size="20" font-weight="400" fill="#1f2933" text-anchor="start">it can be useful for low-risk measures such as reading time, off-screen gaze,</text>
<text x="420.0" y="348.0" font-family="Arial, Helvetica, sans-serif" font-size="20" font-weight="400" fill="#1f2933" text-anchor="start">and attention shifts.</text>
<path d="M 286.5 350.7 L 273.8 373.4 L 310.3 393.1 L 399.4 343.1 L 509.0 319.1 L 550.1 404.3 L 593.5 329.3 L 551.3 333.0 L 555.9 264.7 L 430.3 273.3 L 375.8 273.2 L 386.9 252.4 L 545.8 249.5 L 609.8 272.0 L 682.6 268.5 L 714.3 283.6 L 555.8 405.1 L 270.9 294.4 L 311.6 381.6 L 599.7 337.4 L 644.6 307.3 L 624.6 309.4 L 495.8 331.0 L 382.5 323.2 L 524.6 322.5 L 527.6 369.4 L 421.1 403.5 L 407.3 383.4 L 463.6 380.0 L 505.0 294.4 L 468.8 266.2 L 476.1 286.0 L 409.3 241.7 L 514.8 242.6 L 587.4 205.8 L 507.6 331.3 L 304.6 304.3 L 448.6 436.1 L 514.0 534.6 L 497.6 446.8 L 480.6 427.8 L 523.3 340.5 L 582.6 355.8 L 437.3 348.0 L 415.3 308.3 L 513.7 301.4 L 471.4 295.6 L 494.2 355.6 L 604.0 368.0 L 611.0 409.6 L 486.0 409.5 L 507.0 401.4 L 537.2 464.4 L 617.8 491.1 L 608.2 434.0 L 529.2 415.2 L 499.8 414.7 L 423.1 381.6 L 359.1 361.1 L 344.3 302.8 L 436.0 342.6 L 284.7 339.4 L 311.4 373.6 L 414.9 418.6 L 394.8 343.4 L 587.2 257.7 L 586.5 278.7 L 544.5 255.8 L 713.8 275.3 L 734.2 276.8 L 714.5 335.2 L 698.0 281.6 L 775.4 314.3 L 603.4 325.1 L 636.3 322.2 L 728.0 300.5 L 800.2 363.2 L 780.7 304.0 L 734.2 328.3 L 755.1 274.0 L 786.2 195.1 L 757.1 180.0 L 808.4 279.5 L 837.5 278.1 L 778.3 268.4 L 793.0 294.3 L 774.0 309.6 L 735.1 313.7 L 707.3 312.6 L 609.9 330.6 L 595.0 321.9 L 736.0 334.6 L 931.2 449.7 L 968.6 462.8 L 982.9 370.8 L 876.9 240.0 L 827.0 222.2 L 828.9 254.5 L 698.9 402.8 L 1000.6 337.9 L 1081.8 196.4 L 892.7 210.3 L 995.4 330.9 L 1195.7 332.3 L 611.9 457.6 L 707.3 389.3 L 865.3 293.2 L 925.4 249.1 L 997.6 288.2 L 1047.8 290.6 L 983.3 233.1 L 821.3 261.1 L 976.6 417.5 L 1029.2 438.8 L 981.4 436.7 L 1098.9 368.6 L 934.4 339.3 L 1220.9 186.9 L 1304.9 193.9 L 1455.2 219.0 L 1096.0 232.8 L 968.4 169.5 L 660.0 279.2 L 340.6 290.7 L 382.4 272.5 L 429.1 276.0 L 759.0 290.1 L 628.3 401.5 L 106.6 414.5 L 306.6 501.1 L 421.6 394.9 L 537.5 327.1 L 609.9 378.5 L 746.7 360.1 L 720.8 381.3 L 523.5 335.3 L 437.9 264.8 L 464.4 272.6 L 514.5 318.1 L 655.3 359.0 L 637.2 383.8 L 838.5 345.3 L 938.7 240.3 L 867.0 236.7 L 656.5 271.4 L 682.9 337.5 L 957.5 286.5 L 578.2 341.4 L 668.5 307.5 L 641.4 241.3 L 421.2 214.4 L 424.9 184.8 L 650.2 289.3 L 910.7 351.8 L 815.5 372.0 L 677.6 353.8 L 682.6 317.6 L 550.5 289.1 L 685.8 290.8 L 738.4 266.0 L 682.5 270.6 L 581.0 259.8 L 632.0 347.6 L 592.9 391.8 L 471.7 432.6 L 502.7 355.2 L 471.6 256.5 L 461.3 347.7 L 669.4 426.4 L 630.2 443.9 L 571.7 412.9 L 415.0 475.9 L 475.2 561.1 L 405.0 482.0 L 486.3 385.4 L 682.3 346.2 L 677.1 277.1 L 734.5 300.2 L 863.9 407.1 L 812.1 362.2 L 623.5 447.8 L 619.5 460.6 L 598.0 379.9 L 600.9 318.7 L 585.3 355.0 L 550.5 372.8 L 845.7 360.1 L 892.7 365.8 L 972.1 323.6 L 1045.6 324.2 L 966.5 309.0 L 747.4 342.9 L 460.9 397.9 L 449.2 465.4 L 726.9 566.0 L 947.9 439.1 L 1014.5 393.2 L 859.9 391.1 L 817.4 395.1 L 864.3 381.7 L 888.3 366.6 L 878.8 430.3 L 984.8 387.0 L 1064.9 354.8 L 1052.7 378.5 L 878.2 349.9 L 535.7 443.9 L 346.4 523.4 L 755.7 510.6 L 1036.2 521.6 L 1002.8 475.9 L 1046.9 403.6 L 566.6 340.2 L 116.6 364.1 L 554.7 456.1 L 1030.0 434.7 L 1052.3 356.8 L 972.1 349.6 L 800.9 318.0 L 1053.9 419.8 L 1239.5 411.4 L 1248.9 366.7 L 1279.3 328.0 L 1213.8 267.4 L 1179.8 229.2 L 1127.8 239.4 L 966.1 281.3 L 1135.5 285.1 L 827.4 318.0 L 525.1 372.1 L 512.2 396.9 L 482.9 316.0 L 393.3 290.4 L 383.8 372.1 L 482.1 390.2 L 431.4 387.7 L 440.6 330.8 L 429.4 273.0 L 336.5 357.9 L 102.1 397.2 L 293.9 551.6 L 492.5 584.4 L 617.0 515.7 L 772.9 418.4 L 780.0 389.6 L 788.5 379.2 L 620.3 340.0 L 493.9 325.8 L 505.6 364.8 L 490.2 318.1 L 453.2 309.4 L 429.2 302.1 L 369.4 283.9 L 289.3 341.5 L 625.0 319.2 L 868.5 326.2 L 902.1 407.2 L 882.5 454.3 L 855.9 476.9 L 897.2 402.8 L 758.5 371.0 L 667.8 392.9 L 717.2 405.2 L 673.1 399.5 L 583.6 388.1 L 771.0 326.6 L 926.0 357.5 L 1010.5 417.2 L 992.0 428.7 L 1013.3 421.0 L 1019.0 405.8 L 1084.1 440.6 L 1123.5 441.5 L 1159.3 389.9 L 916.0 395.8 L 721.1 370.5 L 493.5 424.0 L 341.1 332.1 L 331.7 246.1 L 775.7 280.6 L 1041.4 326.0 L 551.5 328.6 L 529.2 292.4 L 550.8 305.4 L 817.7 319.8 L 856.3 260.2 L 849.2 239.6 L 709.0 362.4 L 662.9 369.4 L 618.9 266.6 L 561.2 267.7 L 664.9 360.6 L 677.1 342.3 L 664.5 296.3 L 628.2 253.2 L 587.1 262.7 L 548.0 301.1 L 686.6 270.8 L 656.2 272.9 L 531.1 272.2 L 597.4 316.6 L 769.6 275.4 L 751.0 261.5 L 863.1 261.7 L 834.1 334.6 L 759.3 308.8 L 758.1 336.4 L 518.0 432.4 L 740.8 409.0 L 870.7 367.2 L 870.2 286.5 L 778.6 284.1 L 768.4 283.2 L 867.2 260.9 L 904.1 266.1 L 896.0 244.9 L 947.5 247.9 L 826.4 265.4 L 893.1 275.9 L 819.3 303.8 L 923.2 215.2 L 940.7 151.8 L 1002.1 289.8 L 846.0 308.6 L 878.5 388.9 L 479.9 301.0 L 709.8 354.1 L 936.2 333.0 L 933.3 279.1 L 947.2 267.8 L 824.7 278.9 L 951.1 264.5 L 865.9 236.4 L 867.5 231.8 L 661.7 190.7 L 650.2 211.1 L 590.5 155.0 L 475.8 179.3 L 476.7 258.3 L 485.6 228.6 L 957.1 259.5 L 1078.7 222.8 L 907.8 251.3 L 919.8 221.2 L 867.7 284.1 L 1001.9 278.7 L 1067.1 251.0 L 896.0 307.8 L 934.5 303.7 L 983.2 294.2 L 1001.0 320.1 L 1158.9 281.6 L 1135.0 287.6 L 1262.9 307.8 L 1216.2 278.9 L 905.6 312.4 L 728.6 311.6 L 655.5 298.1 L 622.7 329.0 L 617.3 364.9 L 705.1 319.0 L 644.9 343.5 L 497.1 292.6 L 373.6 268.4 L 501.8 338.8 L 696.8 370.0 L 562.1 336.0 L 697.5 306.5 L 731.8 255.4 L 886.0 208.3 L 806.5 245.5 L 718.9 237.8 L 781.1 199.4 L 769.7 208.4 L 621.5 312.6 L 754.2 361.3 L 678.9 339.7 L 694.9 280.6 L 784.0 288.5 L 876.2 191.1 L 918.2 205.6 L 860.7 209.6 L 770.8 273.0 L 990.0 269.9 L 1037.7 195.9 L 1020.2 153.8 L 889.9 204.5 L 1002.4 223.4 L 1032.1 224.0 L 1063.7 193.3 L 968.2 280.2 L 791.1 370.0 L 813.7 368.6 L 889.6 412.5 L 1279.5 144.6 L 1160.9 146.4 L 1072.0 117.4 L 1012.0 120.0 L 1083.0 201.6 L 977.3 230.5 L 628.0 371.7 L 402.9 539.1 L 803.2 459.7 L 1163.2 287.5 L 1056.1 303.6 L 1046.0 242.8 L 1136.6 188.7 L 1062.8 97.2 L 1042.4 114.3 L 1228.8 29.7 L 1022.9 166.6 L 1004.1 225.2 L 912.6 308.8 L 858.4 288.4 L 720.2 464.9 L 768.6 402.4 L 322.3 380.3 L 540.6 571.6 L 534.4 541.2 L 451.0 481.6 L 405.9 437.6 L 663.8 284.1 L 759.2 321.9 L 900.5 236.6 L 1146.0 188.2 L 1257.8 207.2 L 1066.2 329.2 L 1011.5 260.2 L 1225.5 205.5 L 1230.2 111.5 L 735.8 290.6 L -99.3 494.6 L 609.6 396.9 L 577.0 366.1 L 1159.9 171.0 L 1423.4 83.6 L 1304.8 182.0 L 1286.8 191.3 L 1367.5 176.3 L 1504.7 126.7 L 1660.2 15.3 L 1453.8 255.9 L 1382.7 275.4 L 1295.8 306.3 L 1210.0 363.1 L 967.2 471.5 L 894.2 335.8 L 884.4 278.2 L 1040.7 158.5 L 1149.5 191.6" fill="none" stroke="#2563eb" stroke-width="2" stroke-opacity="0.35" />
<circle cx="286.5" cy="350.7" r="9" fill="#2563eb" fill-opacity="0.82" stroke="#fff" stroke-width="2" />
<text x="286.5" y="354.7" font-family="Arial, Helvetica, sans-serif" font-size="8" font-weight="700" fill="#fff" text-anchor="middle">1</text>
<circle cx="684.3" cy="308.9" r="9" fill="#2d60e2" fill-opacity="0.82" stroke="#fff" stroke-width="2" />
<text x="684.3" y="312.9" font-family="Arial, Helvetica, sans-serif" font-size="8" font-weight="700" fill="#fff" text-anchor="middle">2</text>
<circle cx="472.7" cy="435.7" r="9" fill="#355eda" fill-opacity="0.82" stroke="#fff" stroke-width="2" />
<text x="472.7" y="439.7" font-family="Arial, Helvetica, sans-serif" font-size="8" font-weight="700" fill="#fff" text-anchor="middle">3</text>
<circle cx="353.4" cy="297.6" r="9" fill="#3d5bd1" fill-opacity="0.82" stroke="#fff" stroke-width="2" />
<text x="353.4" y="301.6" font-family="Arial, Helvetica, sans-serif" font-size="8" font-weight="700" fill="#fff" text-anchor="middle">4</text>
<circle cx="734.2" cy="328.3" r="9" fill="#4558c9" fill-opacity="0.82" stroke="#fff" stroke-width="2" />
<text x="734.2" y="332.3" font-family="Arial, Helvetica, sans-serif" font-size="8" font-weight="700" fill="#fff" text-anchor="middle">5</text>
<circle cx="721.0" cy="327.2" r="9" fill="#4d56c0" fill-opacity="0.82" stroke="#fff" stroke-width="2" />
<text x="721.0" y="331.2" font-family="Arial, Helvetica, sans-serif" font-size="8" font-weight="700" fill="#fff" text-anchor="middle">6</text>
<circle cx="1238.2" cy="176.5" r="9" fill="#5553b8" fill-opacity="0.82" stroke="#fff" stroke-width="2" />
<text x="1238.2" y="180.5" font-family="Arial, Helvetica, sans-serif" font-size="8" font-weight="700" fill="#fff" text-anchor="middle">7</text>
<circle cx="480.3" cy="259.3" r="9" fill="#5d50af" fill-opacity="0.82" stroke="#fff" stroke-width="2" />
<text x="480.3" y="263.3" font-family="Arial, Helvetica, sans-serif" font-size="8" font-weight="700" fill="#fff" text-anchor="middle">8</text>
<circle cx="639.3" cy="321.9" r="9" fill="#654ea6" fill-opacity="0.82" stroke="#fff" stroke-width="2" />
<text x="639.3" y="325.9" font-family="Arial, Helvetica, sans-serif" font-size="8" font-weight="700" fill="#fff" text-anchor="middle">9</text>
<circle cx="750.3" cy="266.9" r="9" fill="#6d4b9e" fill-opacity="0.82" stroke="#fff" stroke-width="2" />
<text x="750.3" y="270.9" font-family="Arial, Helvetica, sans-serif" font-size="8" font-weight="700" fill="#fff" text-anchor="middle">10</text>
<circle cx="989.8" cy="416.5" r="9" fill="#754895" fill-opacity="0.82" stroke="#fff" stroke-width="2" />
<text x="989.8" y="420.5" font-family="Arial, Helvetica, sans-serif" font-size="8" font-weight="700" fill="#fff" text-anchor="middle">11</text>
<circle cx="973.0" cy="450.6" r="9" fill="#7d468d" fill-opacity="0.82" stroke="#fff" stroke-width="2" />
<text x="973.0" y="454.6" font-family="Arial, Helvetica, sans-serif" font-size="8" font-weight="700" fill="#fff" text-anchor="middle">12</text>
<circle cx="474.2" cy="366.9" r="9" fill="#844384" fill-opacity="0.82" stroke="#fff" stroke-width="2" />
<text x="474.2" y="370.9" font-family="Arial, Helvetica, sans-serif" font-size="8" font-weight="700" fill="#fff" text-anchor="middle">13</text>
<circle cx="521.4" cy="330.6" r="9" fill="#8c417c" fill-opacity="0.82" stroke="#fff" stroke-width="2" />
<text x="521.4" y="334.6" font-family="Arial, Helvetica, sans-serif" font-size="8" font-weight="700" fill="#fff" text-anchor="middle">14</text>
<circle cx="1172.3" cy="420.9" r="9" fill="#943e73" fill-opacity="0.82" stroke="#fff" stroke-width="2" />
<text x="1172.3" y="424.9" font-family="Arial, Helvetica, sans-serif" font-size="8" font-weight="700" fill="#fff" text-anchor="middle">15</text>
<circle cx="674.1" cy="301.5" r="9" fill="#9c3b6b" fill-opacity="0.82" stroke="#fff" stroke-width="2" />
<text x="674.1" y="305.5" font-family="Arial, Helvetica, sans-serif" font-size="8" font-weight="700" fill="#fff" text-anchor="middle">16</text>
<circle cx="782.0" cy="276.6" r="9" fill="#a43962" fill-opacity="0.82" stroke="#fff" stroke-width="2" />
<text x="782.0" y="280.6" font-family="Arial, Helvetica, sans-serif" font-size="8" font-weight="700" fill="#fff" text-anchor="middle">17</text>
<circle cx="919.1" cy="283.1" r="9" fill="#ac3659" fill-opacity="0.82" stroke="#fff" stroke-width="2" />
<text x="919.1" y="287.1" font-family="Arial, Helvetica, sans-serif" font-size="8" font-weight="700" fill="#fff" text-anchor="middle">18</text>
<circle cx="1196.0" cy="262.9" r="9" fill="#b43351" fill-opacity="0.82" stroke="#fff" stroke-width="2" />
<text x="1196.0" y="266.9" font-family="Arial, Helvetica, sans-serif" font-size="8" font-weight="700" fill="#fff" text-anchor="middle">19</text>
<circle cx="718.9" cy="237.8" r="9" fill="#bc3148" fill-opacity="0.82" stroke="#fff" stroke-width="2" />
<text x="718.9" y="241.8" font-family="Arial, Helvetica, sans-serif" font-size="8" font-weight="700" fill="#fff" text-anchor="middle">20</text>
<circle cx="840.6" cy="349.7" r="9" fill="#c42e40" fill-opacity="0.82" stroke="#fff" stroke-width="2" />
<text x="840.6" y="353.7" font-family="Arial, Helvetica, sans-serif" font-size="8" font-weight="700" fill="#fff" text-anchor="middle">21</text>
<circle cx="1059.2" cy="159.6" r="9" fill="#cc2b37" fill-opacity="0.82" stroke="#fff" stroke-width="2" />
<text x="1059.2" y="163.6" font-family="Arial, Helvetica, sans-serif" font-size="8" font-weight="700" fill="#fff" text-anchor="middle">22</text>
<circle cx="1114.8" cy="226.3" r="9" fill="#d4292f" fill-opacity="0.82" stroke="#fff" stroke-width="2" />
<text x="1114.8" y="230.3" font-family="Arial, Helvetica, sans-serif" font-size="8" font-weight="700" fill="#fff" text-anchor="middle">23</text>
<circle cx="1149.5" cy="191.6" r="9" fill="#dc2626" fill-opacity="0.82" stroke="#fff" stroke-width="2" />
<text x="1149.5" y="195.6" font-family="Arial, Helvetica, sans-serif" font-size="8" font-weight="700" fill="#fff" text-anchor="middle">24</text>
<circle cx="286.5" cy="350.7" r="13" fill="none" stroke="#16a34a" stroke-width="4" />
<text x="302.5" y="338.7" font-family="Arial, Helvetica, sans-serif" font-size="11" font-weight="700" fill="#166534" text-anchor="start">START</text>
<circle cx="1149.5" cy="191.6" r="13" fill="none" stroke="#dc2626" stroke-width="4" />
<text x="1165.5" y="179.6" font-family="Arial, Helvetica, sans-serif" font-size="11" font-weight="700" fill="#991b1b" text-anchor="start">END</text>
<rect x="20.0" y="116.0" width="760.0" height="34.0" rx="6" fill="#ffffff" stroke="#cbd2d9" opacity="0.88" />
<text x="34.0" y="139.0" font-family="Arial, Helvetica, sans-serif" font-size="14" font-weight="400" fill="#1f2933" text-anchor="start">samples=2123 duration=42.2s offscreen=0.2% x_sd=263.3 y_sd=88.0</text>
</svg>