<svg xmlns="http://www.w3.org/2000/svg" viewBox="0 0 1600 865" width="1600" height="865">
<rect x="0.0" y="0.0" width="1600.0" height="865.0" rx="0" fill="#f6f7f9" stroke="none" opacity="1" />
<text x="250.0" y="52.0" font-family="Arial, Helvetica, sans-serif" font-size="24" font-weight="700" fill="#1f2933" text-anchor="start">Reading Gaze Pilot</text>
<text x="250.0" y="78.0" font-family="Arial, Helvetica, sans-serif" font-size="14" font-weight="400" fill="#52606d" text-anchor="start">Probe</text>
<line x1="250.0" y1="100" x2="1350.0" y2="100" stroke="#d9dee7" />
<rect x="1160.0" y="42.0" width="80.0" height="34.0" rx="6" fill="#23395d" stroke="#23395d" opacity="1" />
<text x="1200.0" y="63.0" font-family="Arial, Helvetica, sans-serif" font-size="14" font-weight="400" fill="#fff" text-anchor="middle">Start</text>
<rect x="1250.0" y="42.0" width="100.0" height="34.0" rx="6" fill="#7b8794" stroke="#7b8794" opacity="0.45" />
<text x="1300.0" y="63.0" font-family="Arial, Helvetica, sans-serif" font-size="14" font-weight="400" fill="#fff" text-anchor="middle">Export CSV</text>
<text x="250.0" y="847.0" font-family="Arial, Helvetica, sans-serif" font-size="13" font-weight="400" fill="#52606d" text-anchor="start">probe / probe_trial_2</text>
<rect x="250.0" y="124.0" width="1100.0" height="683.0" rx="8" fill="#fff" stroke="#d9dee7" opacity="1" />
<text x="274.0" y="166.0" font-family="Arial, Helvetica, sans-serif" font-size="20" font-weight="700" fill="#1f2933" text-anchor="start">Quick Check</text>
<text x="274.0" y="210.0" font-family="Arial, Helvetica, sans-serif" font-size="14" font-weight="400" fill="#323f4b" text-anchor="start">Just before this screen, were you thinking about something unrelated to the</text>
<text x="274.0" y="232.0" font-family="Arial, Helvetica, sans-serif" font-size="14" font-weight="400" fill="#323f4b" text-anchor="start">reading?</text>
<rect x="274.0" y="258.0" width="360.0" height="34.0" rx="6" fill="#fff" stroke="#cbd2d9" opacity="1" />
<text x="286.0" y="280.0" font-family="Arial, Helvetica, sans-serif" font-size="14" font-weight="400" fill="#52606d" text-anchor="start">No / Yes</text>
<text x="274.0" y="334.0" font-family="Arial, Helvetica, sans-serif" font-size="14" font-weight="400" fill="#323f4b" text-anchor="start">Difficulty</text>
<line x1="274.0" y1="362.0" x2="634.0" y2="362.0" stroke="#9aa5b1" stroke-width="5" stroke-linecap="round" />
<text x="274.0" y="410.0" font-family="Arial, Helvetica, sans-serif" font-size="14" font-weight="400" fill="#323f4b" text-anchor="start">Familiarity</text>
<line x1="274.0" y1="438.0" x2="634.0" y2="438.0" stroke="#9aa5b1" stroke-width="5" stroke-linecap="round" />
<path d="M 1158.2 178.2 L 1126.5 156.9 L 1097.8 139.2 L 1122.2 131.2 L 1103.9 129.3 L 1110.4 122.6 L 1087.2 142.0 L 1148.2 132.3 L 1191.8 127.3 L 1221.9 118.2 L 1246.0 110.9 L 1237.1 114.4 L 1194.9 180.5 L 1119.3 228.5 L 992.8 287.7 L 886.0 336.6 L 741.0 337.4 L 621.9 335.3 L 526.7 331.3 L 418.1 348.1 L 373.7 338.9 L 344.4 329.5 L 450.8 295.1 L 516.2 265.2 L 576.0 239.7 L 659.0 239.1 L 724.6 228.2 L 816.8 205.1 L 807.5 215.9 L 796.9 226.1 L 820.6 237.1 L 822.9 223.5 L 822.9 212.1 L 821.3 202.7 L 853.1 228.0 L 849.7 220.8 L 821.5 211.3 L 847.8 234.3 L 845.5 258.9 L 796.1 277.5 L 746.1 285.5 L 677.3 289.5 L 634.2 299.9 L 652.2 295.0 L 547.5 329.0 L 460.3 357.3 L 482.3 317.2 L 470.8 284.4 L 418.1 257.8 L 495.4 233.5 L 564.5 213.4 L 558.1 203.2 L 552.8 195.6 L 595.9 179.8 L 634.1 183.4 L 676.9 184.2 L 627.9 197.6 L 633.4 189.4 L 644.0 177.6 L 618.2 187.4 L 623.3 197.4 L 627.6 206.3 L 635.2 212.7 L 605.1 220.0 L 570.3 234.1 L 539.6 247.4 L 514.3 258.4 L 568.1 257.1 L 624.9 240.1 L 666.2 219.9 L 686.2 239.7 L 682.5 239.2 L 665.7 263.6 L 615.4 246.6 L 583.5 253.9 L 556.6 259.8 L 550.5 239.3 L 548.7 222.5 L 534.7 226.4 L 540.1 199.4 L 545.8 181.4 L 551.3 173.3 L 547.7 150.8 L 545.0 132.5 L 536.3 116.0 L 518.8 126.7 L 518.5 144.8 L 519.7 141.2 L 503.6 184.8 L 485.1 193.2 L 471.1 207.4 L 476.0 204.2 L 481.2 200.8 L 446.9 234.7 L 463.0 247.7 L 476.4 241.9 L 474.9 246.6 L 495.3 255.3 L 474.5 246.6 L 455.4 261.8 L 449.3 276.1 L 444.7 287.6 L 461.0 292.4 L 475.4 295.6 L 496.0 318.9 L 492.9 333.4 L 490.0 344.6 L 510.7 354.0 L 527.8 360.9 L 560.0 346.8 L 588.6 368.3 L 611.8 385.9 L 606.8 403.9 L 597.1 403.1 L 587.7 401.3 L 576.0 388.2 L 528.6 336.9 L 544.8 343.2 L 534.1 309.9 L 524.4 298.1 L 512.6 286.0 L 484.4 282.9 L 460.9 281.2 L 440.1 268.8 L 431.8 260.9 L 426.1 278.0 L 412.8 276.7 L 443.6 250.1 L 493.0 270.6 L 517.8 284.0 L 538.4 295.8 L 563.9 289.3 L 564.1 293.3 L 563.1 296.8 L 551.7 300.6 L 561.2 309.2 L 568.8 316.4 L 574.6 322.2 L 530.2 325.6 L 492.3 318.3 L 460.2 311.6 L 432.0 310.6 L 459.4 315.0 L 443.2 314.7 L 473.6 315.9 L 478.5 329.2 L 482.9 340.3 L 478.2 357.1 L 481.4 337.9 L 468.0 324.4 L 461.9 308.4 L 467.0 312.9 L 460.1 309.2 L 476.5 296.8 L 490.7 286.4 L 499.6 296.1 L 506.9 304.8 L 519.3 314.6 L 521.2 333.1 L 522.3 348.8 L 526.1 350.0 L 528.9 350.4 L 509.3 362.2 L 462.9 361.1 L 465.3 353.2 L 445.8 369.1 L 442.7 389.7 L 420.7 413.7 L 433.2 395.7 L 454.5 362.1 L 445.2 348.5 L 419.7 326.4 L 330.1 348.9 L 370.0 317.4 L 384.9 294.1 L 394.9 273.7 L 452.4 260.4 L 476.8 245.6 L 459.4 261.4 L 494.5 259.6 L 523.9 258.9 L 525.6 261.4 L 525.9 264.1 L 561.4 262.4 L 558.9 252.2 L 555.3 243.9 L 539.5 251.9 L 546.6 252.2 L 552.1 252.8 L 534.0 251.2 L 534.7 249.0 L 535.1 247.3 L 522.5 248.5 L 508.7 250.7 L 495.0 254.1 L 485.5 256.0 L 502.8 271.0 L 512.2 286.6 L 524.4 297.0 L 534.8 305.3 L 537.4 322.6 L 557.1 335.3 L 558.3 328.0 L 562.8 328.7 L 546.0 325.7 L 501.1 312.5 L 523.0 330.8 L 542.1 346.3 L 573.0 362.2 L 593.2 362.5 L 609.8 361.9 L 603.0 348.4 L 597.0 333.8 L 583.7 322.7 L 570.3 311.4 L 559.2 306.2 L 575.4 299.1 L 584.7 270.1 L 592.4 245.9 L 584.6 226.0 L 598.1 216.2 L 591.3 205.1 L 589.9 206.8 L 588.7 209.6 L 587.9 221.6 L 587.1 232.7 L 598.1 229.0 L 607.4 226.1 L 620.1 226.8 L 639.6 215.2 L 655.8 205.5 L 659.6 195.0 L 694.6 230.1 L 605.7 249.2 L 535.4 262.0 L 460.9 263.8 L 399.0 264.8 L 361.6 272.2 L 339.5 272.1 L 324.1 271.4 L 376.7 244.6 L 424.5 221.4 L 488.0 220.4 L 542.5 220.1 L 570.3 208.3 L 597.4 195.5 L 677.5 204.2 L 749.9 219.4 L 798.9 267.3 L 775.0 291.1 L 724.5 314.3 L 705.4 328.3 L 675.3 313.5 L 638.3 350.2 L 606.3 380.5 L 536.2 375.8 L 477.4 370.2 L 444.8 368.3 L 452.2 375.4 L 440.1 358.3 L 437.2 318.6 L 432.6 287.0 L 411.2 279.1 L 394.5 273.1 L 369.5 271.0 L 382.5 295.9 L 412.6 305.2 L 442.9 313.8 L 469.2 321.1 L 495.3 328.5 L 470.3 331.4 L 447.7 328.0 L 370.9 330.0 L 395.4 355.1 L 401.6 370.1 L 384.5 379.9 L 361.3 390.6 L 393.2 399.2 L 421.9 395.4 L 421.6 401.7 L 461.1 416.0 L 488.3 429.4 L 539.1 439.1 L 544.3 434.4 L 484.6 420.0 L 429.4 415.2 L 429.1 388.7 L 404.7 370.4 L 384.9 363.7 L 371.1 350.7 L 360.4 340.2 L 375.8 333.6 L 390.0 328.7 L 422.1 335.7 L 384.6 321.8 L 342.6 290.0 L 336.4 315.2 L 313.0 341.4 L 356.8 349.5 L 343.6 368.4 L 332.8 384.4 L 328.6 399.0 L 332.9 400.4 L 335.1 424.5 L 326.9 416.6 L 271.6 513.6 L 285.4 497.4 L 211.1 591.4 L 182.5 604.9 L 213.6 615.5 L 242.2 621.8 L 268.0 601.9 L 249.3 570.9 L 219.4 519.7 L 234.9 498.4 L 280.6 471.1 L 350.2 418.3 L 353.9 398.9 L 354.1 399.8 L 293.3 405.9 L 275.3 413.9 L 335.1 381.5 L 390.9 355.1 L 409.2 367.1 L 423.3 378.8 L 449.8 388.2 L 443.8 385.2 L 452.6 384.4 L 439.6 362.7 L 427.1 344.6 L 416.8 346.4 L 407.5 348.9 L 389.1 361.3 L 364.1 364.1 L 376.3 382.5 L 372.1 370.5 L 395.6 362.1 L 408.5 351.8 L 396.1 365.0 L 367.4 370.8 L 278.6 378.4 L 191.0 388.3 L 191.6 387.6 L 195.3 386.7 L 214.0 395.4 L 232.1 402.6 L 246.7 400.8 L 301.1 411.7 L 303.9 418.9 L 305.9 424.5 L 330.7 414.4 L 321.1 408.4 L 340.7 400.0 L 358.7 408.6 L 385.6 402.4 L 377.1 394.4 L 368.7 387.6 L 348.3 389.8" fill="none" stroke="#2563eb" stroke-width="2" stroke-opacity="0.35" />
<circle cx="1158.2" cy="178.2" r="9" fill="#2563eb" fill-opacity="0.82" stroke="#fff" stroke-width="2" />
<text x="1158.2" y="182.2" font-family="Arial, Helvetica, sans-serif" font-size="8" font-weight="700" fill="#fff" text-anchor="middle">1</text>
<circle cx="741.0" cy="337.4" r="9" fill="#2d60e2" fill-opacity="0.82" stroke="#fff" stroke-width="2" />
<text x="741.0" y="341.4" font-family="Arial, Helvetica, sans-serif" font-size="8" font-weight="700" fill="#fff" text-anchor="middle">2</text>
<circle cx="822.9" cy="223.5" r="9" fill="#355eda" fill-opacity="0.82" stroke="#fff" stroke-width="2" />
<text x="822.9" y="227.5" font-family="Arial, Helvetica, sans-serif" font-size="8" font-weight="700" fill="#fff" text-anchor="middle">3</text>
<circle cx="470.8" cy="284.4" r="9" fill="#3d5bd1" fill-opacity="0.82" stroke="#fff" stroke-width="2" />
<text x="470.8" y="288.4" font-family="Arial, Helvetica, sans-serif" font-size="8" font-weight="700" fill="#fff" text-anchor="middle">4</text>
<circle cx="635.2" cy="212.7" r="9" fill="#4558c9" fill-opacity="0.82" stroke="#fff" stroke-width="2" />
<text x="635.2" y="216.7" font-family="Arial, Helvetica, sans-serif" font-size="8" font-weight="700" fill="#fff" text-anchor="middle">5</text>
<circle cx="534.7" cy="226.4" r="9" fill="#4d56c0" fill-opacity="0.82" stroke="#fff" stroke-width="2" />
<text x="534.7" y="230.4" font-family="Arial, Helvetica, sans-serif" font-size="8" font-weight="700" fill="#fff" text-anchor="middle">6</text>
<circle cx="446.9" cy="234.7" r="9" fill="#5553b8" fill-opacity="0.82" stroke="#fff" stroke-width="2" />
<text x="446.9" y="238.7" font-family="Arial, Helvetica, sans-serif" font-size="8" font-weight="700" fill="#fff" text-anchor="middle">7</text>
<circle cx="560.0" cy="346.8" r="9" fill="#5d50af" fill-opacity="0.82" stroke="#fff" stroke-width="2" />
<text x="560.0" y="350.8" font-family="Arial, Helvetica, sans-serif" font-size="8" font-weight="700" fill="#fff" text-anchor="middle">8</text>
<circle cx="431.8" cy="260.9" r="9" fill="#654ea6" fill-opacity="0.82" stroke="#fff" stroke-width="2" />
<text x="431.8" y="264.9" font-family="Arial, Helvetica, sans-serif" font-size="8" font-weight="700" fill="#fff" text-anchor="middle">9</text>
<circle cx="460.2" cy="311.6" r="9" fill="#6d4b9e" fill-opacity="0.82" stroke="#fff" stroke-width="2" />
<text x="460.2" y="315.6" font-family="Arial, Helvetica, sans-serif" font-size="8" font-weight="700" fill="#fff" text-anchor="middle">10</text>
<circle cx="499.6" cy="296.1" r="9" fill="#754895" fill-opacity="0.82" stroke="#fff" stroke-width="2" />
<text x="499.6" y="300.1" font-family="Arial, Helvetica, sans-serif" font-size="8" font-weight="700" fill="#fff" text-anchor="middle">11</text>
<circle cx="419.7" cy="326.4" r="9" fill="#7d468d" fill-opacity="0.82" stroke="#fff" stroke-width="2" />
<text x="419.7" y="330.4" font-family="Arial, Helvetica, sans-serif" font-size="8" font-weight="700" fill="#fff" text-anchor="middle">12</text>
<circle cx="539.5" cy="251.9" r="9" fill="#844384" fill-opacity="0.82" stroke="#fff" stroke-width="2" />
<text x="539.5" y="255.9" font-family="Arial, Helvetica, sans-serif" font-size="8" font-weight="700" fill="#fff" text-anchor="middle">13</text>
<circle cx="558.3" cy="328.0" r="9" fill="#8c417c" fill-opacity="0.82" stroke="#fff" stroke-width="2" />
<text x="558.3" y="332.0" font-family="Arial, Helvetica, sans-serif" font-size="8" font-weight="700" fill="#fff" text-anchor="middle">14</text>
<circle cx="584.7" cy="270.1" r="9" fill="#943e73" fill-opacity="0.82" stroke="#fff" stroke-width="2" />
<text x="584.7" y="274.1" font-family="Arial, Helvetica, sans-serif" font-size="8" font-weight="700" fill="#fff" text-anchor="middle">15</text>
<circle cx="605.7" cy="249.2" r="9" fill="#9c3b6b" fill-opacity="0.82" stroke="#fff" stroke-width="2" />
<text x="605.7" y="253.2" font-family="Arial, Helvetica, sans-serif" font-size="8" font-weight="700" fill="#fff" text-anchor="middle">16</text>
<circle cx="798.9" cy="267.3" r="9" fill="#a43962" fill-opacity="0.82" stroke="#fff" stroke-width="2" />
<text x="798.9" y="271.3" font-family="Arial, Helvetica, sans-serif" font-size="8" font-weight="700" fill="#fff" text-anchor="middle">17</text>
<circle cx="369.5" cy="271.0" r="9" fill="#ac3659" fill-opacity="0.82" stroke="#fff" stroke-width="2" />
<text x="369.5" y="275.0" font-family="Arial, Helvetica, sans-serif" font-size="8" font-weight="700" fill="#fff" text-anchor="middle">18</text>
<circle cx="421.6" cy="401.7" r="9" fill="#b43351" fill-opacity="0.82" stroke="#fff" stroke-width="2" />
<text x="421.6" y="405.7" font-family="Arial, Helvetica, sans-serif" font-size="8" font-weight="700" fill="#fff" text-anchor="middle">19</text>
<circle cx="342.6" cy="290.0" r="9" fill="#bc3148" fill-opacity="0.82" stroke="#fff" stroke-width="2" />
<text x="342.6" y="294.0" font-family="Arial, Helvetica, sans-serif" font-size="8" font-weight="700" fill="#fff" text-anchor="middle">20</text>
<circle cx="242.2" cy="621.8" r="9" fill="#c42e40" fill-opacity="0.82" stroke="#fff" stroke-width="2" />
<text x="242.2" y="625.8" font-family="Arial, Helvetica, sans-serif" font-size="8" font-weight="700" fill="#fff" text-anchor="middle">21</text>
<circle cx="443.8" cy="385.2" r="9" fill="#cc2b37" fill-opacity="0.82" stroke="#fff" stroke-width="2" />
<text x="443.8" y="389.2" font-family="Arial, Helvetica, sans-serif" font-size="8" font-weight="700" fill="#fff" text-anchor="middle">22</text>
<circle cx="191.0" cy="388.3" r="9" fill="#d4292f" fill-opacity="0.82" stroke="#fff" stroke-width="2" />
<text x="191.0" y="392.3" font-family="Arial, Helvetica, sans-serif" font-size="8" font-weight="700" fill="#fff" text-anchor="middle">23</text>
<circle cx="348.3" cy="389.8" r="9" fill="#dc2626" fill-opacity="0.82" stroke="#fff" stroke-width="2" />
<text x="348.3" y="393.8" font-family="Arial, Helvetica, sans-serif" font-size="8" font-weight="700" fill="#fff" text-anchor="middle">24</text>
<circle cx="1158.2" cy="178.2" r="13" fill="none" stroke="#16a34a" stroke-width="4" />
<text x="1174.2" y="166.2" font-family="Arial, Helvetica, sans-serif" font-size="11" font-weight="700" fill="#166534" text-anchor="start">START</text>
<circle cx="348.3" cy="389.8" r="13" fill="none" stroke="#dc2626" stroke-width="4" />
<text x="364.3" y="377.8" font-family="Arial, Helvetica, sans-serif" font-size="11" font-weight="700" fill="#991b1b" text-anchor="start">END</text>
<rect x="20.0" y="116.0" width="760.0" height="34.0" rx="6" fill="#ffffff" stroke="#cbd2d9" opacity="0.88" />
<text x="34.0" y="139.0" font-family="Arial, Helvetica, sans-serif" font-size="14" font-weight="400" fill="#1f2933" text-anchor="start">samples=358 duration=7.9s offscreen=0.0% x_sd=183.0 y_sd=86.6</text>
</svg>