<svg xmlns="http://www.w3.org/2000/svg" viewBox="0 0 1600 865" width="1600" height="865">
<rect x="0.0" y="0.0" width="1600.0" height="865.0" rx="0" fill="#f6f7f9" stroke="none" opacity="1" />
<text x="250.0" y="52.0" font-family="Arial, Helvetica, sans-serif" font-size="24" font-weight="700" fill="#1f2933" text-anchor="start">Reading Gaze Pilot</text>
<text x="250.0" y="78.0" font-family="Arial, Helvetica, sans-serif" font-size="14" font-weight="400" fill="#52606d" text-anchor="start">Probe</text>
<line x1="250.0" y1="100" x2="1350.0" y2="100" stroke="#d9dee7" />
<rect x="1160.0" y="42.0" width="80.0" height="34.0" rx="6" fill="#23395d" stroke="#23395d" opacity="1" />
<text x="1200.0" y="63.0" font-family="Arial, Helvetica, sans-serif" font-size="14" font-weight="400" fill="#fff" text-anchor="middle">Start</text>
<rect x="1250.0" y="42.0" width="100.0" height="34.0" rx="6" fill="#7b8794" stroke="#7b8794" opacity="0.45" />
<text x="1300.0" y="63.0" font-family="Arial, Helvetica, sans-serif" font-size="14" font-weight="400" fill="#fff" text-anchor="middle">Export CSV</text>
<text x="250.0" y="847.0" font-family="Arial, Helvetica, sans-serif" font-size="13" font-weight="400" fill="#52606d" text-anchor="start">probe / probe_trial_1</text>
<rect x="250.0" y="124.0" width="1100.0" height="683.0" rx="8" fill="#fff" stroke="#d9dee7" opacity="1" />
<text x="274.0" y="166.0" font-family="Arial, Helvetica, sans-serif" font-size="20" font-weight="700" fill="#1f2933" text-anchor="start">Quick Check</text>
<text x="274.0" y="210.0" font-family="Arial, Helvetica, sans-serif" font-size="14" font-weight="400" fill="#323f4b" text-anchor="start">Just before this screen, were you thinking about something unrelated to the</text>
<text x="274.0" y="232.0" font-family="Arial, Helvetica, sans-serif" font-size="14" font-weight="400" fill="#323f4b" text-anchor="start">reading?</text>
<rect x="274.0" y="258.0" width="360.0" height="34.0" rx="6" fill="#fff" stroke="#cbd2d9" opacity="1" />
<text x="286.0" y="280.0" font-family="Arial, Helvetica, sans-serif" font-size="14" font-weight="400" fill="#52606d" text-anchor="start">No / Yes</text>
<text x="274.0" y="334.0" font-family="Arial, Helvetica, sans-serif" font-size="14" font-weight="400" fill="#323f4b" text-anchor="start">Difficulty</text>
<line x1="274.0" y1="362.0" x2="634.0" y2="362.0" stroke="#9aa5b1" stroke-width="5" stroke-linecap="round" />
<text x="274.0" y="410.0" font-family="Arial, Helvetica, sans-serif" font-size="14" font-weight="400" fill="#323f4b" text-anchor="start">Familiarity</text>
<line x1="274.0" y1="438.0" x2="634.0" y2="438.0" stroke="#9aa5b1" stroke-width="5" stroke-linecap="round" />
<path d="M 892.1 317.4 L 970.4 256.3 L 1099.5 189.9 L 1147.7 158.4 L 1187.8 132.4 L 1205.4 86.0 L 1244.9 43.6 L 1267.8 11.4 L 1283.4 -3.0 L 1265.1 -1.8 L 1234.5 14.1 L 1230.0 9.3 L 1248.5 2.4 L 1265.8 2.5 L 1089.5 58.5 L 1040.4 76.5 L 1008.0 88.9 L 477.6 324.1 L 303.1 430.2 L 175.0 500.3 L 155.0 487.5 L 481.7 364.4 L 666.5 304.6 L 849.1 223.5 L 1045.3 143.6 L 1122.2 98.8 L 1181.6 62.9 L 1244.6 26.4 L 1334.5 -27.1 L 1353.4 -29.9 L 1359.0 -42.0 L 1361.4 -49.1 L 1260.1 -30.8 L 1229.4 -16.9 L 1201.9 -3.8 L 1129.9 27.0 L 1113.1 42.2 L 1083.7 52.2 L 1074.2 61.4 L 1022.2 72.0 L 1052.4 104.8 L 1096.0 131.5 L 1076.6 136.9 L 1093.2 153.2 L 1106.1 158.0 L 1112.2 171.3 L 977.1 197.8 L 882.2 194.0 L 835.1 193.9 L 805.4 173.3 L 761.2 151.8 L 693.1 172.3 L 636.2 165.0 L 609.5 153.2 L 511.4 154.8 L 434.4 173.5 L 401.7 193.0 L 369.0 214.2 L 295.2 238.7 L 259.0 246.0 L 201.8 263.3 L 202.4 267.5 L 191.2 265.5 L 205.6 251.4 L 203.4 250.0 L 205.4 244.4 L 293.6 207.1 L 347.5 177.4 L 393.1 152.7 L 374.6 166.1 L 348.3 176.7 L 345.4 179.6 L 323.9 196.8 L 314.5 202.7 L 326.8 202.2 L 330.1 212.3 L 316.0 214.7 L 327.6 211.8 L 334.8 212.1 L 340.8 212.1 L 315.9 213.9 L 323.1 222.0 L 310.4 220.3 L 305.5 217.9 L 294.8 221.2 L 303.3 209.0 L 301.0 207.9 L 301.6 205.2 L 303.9 203.6 L 313.6 195.3 L 321.9 188.4 L 319.3 195.3 L 317.9 200.2 L 308.4 207.9 L 295.2 214.1 L 297.5 214.2 L 265.2 228.3 L 243.9 227.1 L 266.1 226.9 L 266.4 224.6 L 279.9 223.9 L 288.2 220.4 L 326.6 211.9 L 313.5 219.3 L 301.7 225.6 L 327.4 224.5 L 333.5 224.6 L 338.2 224.6 L 335.8 228.8 L 391.8 209.4 L 417.6 196.1 L 442.8 186.3 L 462.8 178.3 L 465.8 170.1 L 446.2 169.2 L 430.7 166.8 L 448.2 166.0 L 453.7 168.3 L 452.1 168.8 L 418.8 184.9 L 399.2 196.8 L 383.8 207.8 L 376.2 212.4 L 374.6 207.8 L 379.9 203.7 L 386.0 200.6 L 391.6 197.8 L 413.1 195.5 L 430.0 190.7 L 416.4 194.4 L 415.5 200.1 L 432.9 195.4 L 438.0 194.3 L 416.3 197.8 L 398.5 201.1 L 392.7 217.5 L 388.6 217.9 L 389.3 221.1 L 383.7 218.6 L 374.9 218.0 L 373.8 220.2 L 392.7 218.2 L 422.4 196.8 L 429.1 203.0 L 436.7 204.7 L 442.6 206.3 L 470.5 185.6 L 464.6 191.2 L 458.8 196.4 L 481.6 175.5 L 519.5 144.1 L 515.4 156.8 L 523.8 162.1 L 586.6 189.5 L 628.3 208.7 L 653.2 234.4 L 632.4 234.3 L 590.4 245.6 L 595.3 241.2 L 614.6 236.0 L 635.3 238.1 L 621.4 232.2 L 610.3 231.1 L 605.1 231.8 L 644.8 214.7 L 648.9 217.5 L 642.2 226.8 L 635.9 234.9 L 684.0 219.0 L 711.9 213.3 L 741.9 203.1 L 728.2 198.2 L 708.5 208.9 L 711.0 226.0 L 712.6 240.6 L 693.8 241.4 L 679.6 251.4 L 692.1 236.0 L 700.7 224.6 L 720.8 215.7 L 720.9 216.3 L 763.5 218.3 L 765.4 214.2 L 763.1 205.1 L 756.7 205.8 L 739.3 212.9 L 729.5 209.8 L 745.0 213.4 L 708.0 224.8 L 744.1 221.8 L 723.9 227.3 L 739.0 226.8 L 755.6 226.1 L 784.4 226.8 L 834.1 184.8 L 844.9 187.1 L 852.8 189.7 L 833.8 200.1 L 840.1 190.8 L 844.9 183.1 L 841.0 186.6 L 832.9 191.5 L 808.3 197.6 L 787.2 202.9 L 776.3 208.4 L 778.2 209.2 L 772.2 205.7 L 749.0 204.2 L 729.4 195.4 L 724.6 201.0 L 721.7 214.1 L 727.6 215.2 L 717.1 217.8 L 716.9 215.5 L 710.4 215.6 L 703.8 214.3 L 715.6 193.4 L 749.8 174.0 L 779.0 157.8 L 748.4 173.2 L 730.8 184.0 L 714.1 200.6 L 700.2 214.8 L 689.1 208.7 L 682.9 202.0 L 736.6 188.3 L 710.1 196.2 L 723.8 207.4 L 716.7 206.6 L 707.9 205.5 L 700.5 204.4 L 681.2 217.8 L 707.0 211.8 L 729.4 203.8 L 752.4 190.2 L 755.0 184.7 L 757.6 182.1 L 759.3 180.1 L 677.2 186.7 L 663.2 180.2 L 655.1 170.8 L 649.3 162.9 L 619.2 182.9 L 601.0 199.1 L 593.6 207.6 L 520.6 243.3 L 472.1 237.5 L 436.8 249.8 L 415.1 261.5 L 416.4 247.9 L 452.7 231.1 L 477.8 203.1 L 467.1 210.0 L 448.8 203.8 L 442.2 207.2 L 436.8 194.2 L 392.8 217.3 L 367.3 222.8 L 349.9 239.2 L 349.0 250.4 L 336.4 271.6 L 337.1 276.6 L 335.8 284.6 L 335.5 290.7 L 336.9 288.5 L 343.9 283.3 L 359.7 275.8 L 401.0 252.9 L 391.3 259.8 L 402.1 253.1 L 390.6 259.9 L 430.9 233.1 L 447.6 225.6 L 460.9 219.7 L 455.3 220.9 L 482.6 217.4 L 485.5 220.5 L 442.2 233.6 L 397.5 252.9 L 377.2 257.3 L 354.9 261.0 L 353.1 259.1 L 373.7 264.1 L 361.6 268.5 L 397.9 264.2 L 445.5 257.4 L 475.5 290.0 L 495.9 300.0 L 551.9 289.1 L 521.0 301.0 L 539.5 311.9 L 603.7 304.3 L 641.9 298.5 L 722.2 291.1 L 726.0 280.2 L 726.1 270.9 L 710.5 273.7 L 682.2 268.6 L 669.2 266.9 L 676.5 260.5 L 681.3 258.4 L 673.7 260.9 L 611.9 282.4 L 563.2 284.6 L 512.1 294.0 L 496.8 297.1 L 492.1 302.3 L 493.0 300.2 L 514.0 302.1 L 495.4 308.5 L 480.2 313.8 L 429.1 339.7 L 412.7 350.7 L 437.3 343.1 L 427.2 333.0 L 431.8 305.6 L 439.2 322.8 L 447.8 319.9 L 471.6 310.1 L 510.9 298.7 L 530.3 301.5 L 543.9 300.8 L 563.1 280.9 L 542.8 293.8 L 552.1 284.4 L 549.5 284.6 L 542.2 282.0 L 554.5 278.3 L 564.7 275.3 L 544.7 272.2 L 571.9 281.4 L 548.1 294.8 L 538.2 305.5 L 531.5 313.9 L 512.1 320.2 L 505.0 322.1 L 503.7 318.5 L 520.4 312.5 L 540.2 300.9 L 557.1 291.0 L 563.9 284.3 L 564.5 286.0 L 564.3 290.4 L 558.3 291.5 L 546.3 294.9 L 560.3 293.7 L 550.1 304.1 L 530.8 306.2 L 497.2 322.3 L 494.6 321.4 L 486.1 325.8 L 500.1 327.4 L 510.4 325.6 L 507.4 327.0 L 505.4 325.6 L 481.4 332.9 L 424.6 348.3 L 397.5 356.9 L 389.6 355.9 L 349.9 347.1 L 338.1 357.0 L 358.5 339.4 L 380.3 327.5 L 362.0 321.6 L 357.1 317.0 L 380.7 311.1 L 382.9 317.3 L 360.9 343.0 L 367.5 349.7 L 373.6 355.1 L 384.0 359.7 L 371.8 361.5 L 361.4 362.7 L 341.9 369.4 L 367.1 349.5 L 387.1 334.9 L 404.2 322.5 L 429.3 316.0 L 514.4 284.3 L 489.6 290.9 L 460.1 299.7 L 435.0 317.4 L 436.1 325.8 L 460.6 348.6 L 468.0 349.5 L 442.6 370.7 L 420.8 374.5 L 389.7 387.0 L 366.7 389.1 L 319.6 406.9 L 289.2 414.6 L 271.1 416.8 L 302.7 414.9 L 313.3 415.2 L 344.6 403.5 L 379.9 390.0 L 432.3 359.4 L 459.7 345.4 L 457.0 346.9 L 454.0 353.9 L 426.5 371.2 L 421.5 376.0 L 416.9 380.0 L 409.6 386.1 L 410.6 389.8 L 418.1 386.9 L 424.4 384.2 L 427.9 377.3 L 440.1 366.9 L 439.7 366.0 L 462.1 354.2 L 472.1 353.6 L 466.6 356.0 L 465.4 357.2 L 443.5 366.5 L 498.0 383.2 L 496.0 380.4 L 493.6 377.7 L 461.7 385.9 L 429.9 404.4 L 419.4 412.2 L 400.2 428.4 L 386.0 415.7 L 382.1 411.7 L 366.0 404.1 L 353.2 397.4 L 354.3 380.5 L 361.3 365.5 L 377.6 354.6 L 389.3 344.8 L 394.0 345.6 L 397.1 350.4 L 402.5 353.5 L 398.3 361.6 L 397.4 369.6 L 396.6 376.4 L 376.9 381.1 L 400.6 375.4 L 419.1 366.4 L 408.8 362.5 L 419.8 360.3 L 425.6 359.6 L 417.7 357.3 L 413.9 362.1 L 405.7 377.1 L 398.8 377.6 L 421.0 378.1 L 472.2 361.1 L 552.4 335.8 L 582.0 327.1" fill="none" stroke="#2563eb" stroke-width="2" stroke-opacity="0.35" />
<circle cx="892.1" cy="317.4" r="9" fill="#2563eb" fill-opacity="0.82" stroke="#fff" stroke-width="2" />
<text x="892.1" y="321.4" font-family="Arial, Helvetica, sans-serif" font-size="8" font-weight="700" fill="#fff" text-anchor="middle">1</text>
<circle cx="155.0" cy="487.5" r="9" fill="#2d60e2" fill-opacity="0.82" stroke="#fff" stroke-width="2" />
<text x="155.0" y="491.5" font-family="Arial, Helvetica, sans-serif" font-size="8" font-weight="700" fill="#fff" text-anchor="middle">2</text>
<circle cx="1022.2" cy="72.0" r="9" fill="#355eda" fill-opacity="0.82" stroke="#fff" stroke-width="2" />
<text x="1022.2" y="76.0" font-family="Arial, Helvetica, sans-serif" font-size="8" font-weight="700" fill="#fff" text-anchor="middle">3</text>
<circle cx="295.2" cy="238.7" r="9" fill="#3d5bd1" fill-opacity="0.82" stroke="#fff" stroke-width="2" />
<text x="295.2" y="242.7" font-family="Arial, Helvetica, sans-serif" font-size="8" font-weight="700" fill="#fff" text-anchor="middle">4</text>
<circle cx="334.8" cy="212.1" r="9" fill="#4558c9" fill-opacity="0.82" stroke="#fff" stroke-width="2" />
<text x="334.8" y="216.1" font-family="Arial, Helvetica, sans-serif" font-size="8" font-weight="700" fill="#fff" text-anchor="middle">5</text>
<circle cx="228.7" cy="232.9" r="9" fill="#4d56c0" fill-opacity="0.82" stroke="#fff" stroke-width="2" />
<text x="228.7" y="236.9" font-family="Arial, Helvetica, sans-serif" font-size="8" font-weight="700" fill="#fff" text-anchor="middle">6</text>
<circle cx="453.7" cy="168.3" r="9" fill="#5553b8" fill-opacity="0.82" stroke="#fff" stroke-width="2" />
<text x="453.7" y="172.3" font-family="Arial, Helvetica, sans-serif" font-size="8" font-weight="700" fill="#fff" text-anchor="middle">7</text>
<circle cx="389.3" cy="221.1" r="9" fill="#5d50af" fill-opacity="0.82" stroke="#fff" stroke-width="2" />
<text x="389.3" y="225.1" font-family="Arial, Helvetica, sans-serif" font-size="8" font-weight="700" fill="#fff" text-anchor="middle">8</text>
<circle cx="598.9" cy="240.9" r="9" fill="#654ea6" fill-opacity="0.82" stroke="#fff" stroke-width="2" />
<text x="598.9" y="244.9" font-family="Arial, Helvetica, sans-serif" font-size="8" font-weight="700" fill="#fff" text-anchor="middle">9</text>
<circle cx="693.8" cy="241.4" r="9" fill="#6d4b9e" fill-opacity="0.82" stroke="#fff" stroke-width="2" />
<text x="693.8" y="245.4" font-family="Arial, Helvetica, sans-serif" font-size="8" font-weight="700" fill="#fff" text-anchor="middle">10</text>
<circle cx="844.9" cy="187.1" r="9" fill="#754895" fill-opacity="0.82" stroke="#fff" stroke-width="2" />
<text x="844.9" y="191.1" font-family="Arial, Helvetica, sans-serif" font-size="8" font-weight="700" fill="#fff" text-anchor="middle">11</text>
<circle cx="703.8" cy="214.3" r="9" fill="#7d468d" fill-opacity="0.82" stroke="#fff" stroke-width="2" />
<text x="703.8" y="218.3" font-family="Arial, Helvetica, sans-serif" font-size="8" font-weight="700" fill="#fff" text-anchor="middle">12</text>
<circle cx="752.4" cy="190.2" r="9" fill="#844384" fill-opacity="0.82" stroke="#fff" stroke-width="2" />
<text x="752.4" y="194.2" font-family="Arial, Helvetica, sans-serif" font-size="8" font-weight="700" fill="#fff" text-anchor="middle">13</text>
<circle cx="442.2" cy="207.2" r="9" fill="#8c417c" fill-opacity="0.82" stroke="#fff" stroke-width="2" />
<text x="442.2" y="211.2" font-family="Arial, Helvetica, sans-serif" font-size="8" font-weight="700" fill="#fff" text-anchor="middle">14</text>
<circle cx="455.3" cy="220.9" r="9" fill="#943e73" fill-opacity="0.82" stroke="#fff" stroke-width="2" />
<text x="455.3" y="224.9" font-family="Arial, Helvetica, sans-serif" font-size="8" font-weight="700" fill="#fff" text-anchor="middle">15</text>
<circle cx="667.5" cy="294.6" r="9" fill="#9c3b6b" fill-opacity="0.82" stroke="#fff" stroke-width="2" />
<text x="667.5" y="298.6" font-family="Arial, Helvetica, sans-serif" font-size="8" font-weight="700" fill="#fff" text-anchor="middle">16</text>
<circle cx="412.7" cy="350.7" r="9" fill="#a43962" fill-opacity="0.82" stroke="#fff" stroke-width="2" />
<text x="412.7" y="354.7" font-family="Arial, Helvetica, sans-serif" font-size="8" font-weight="700" fill="#fff" text-anchor="middle">17</text>
<circle cx="538.2" cy="305.5" r="9" fill="#ac3659" fill-opacity="0.82" stroke="#fff" stroke-width="2" />
<text x="538.2" y="309.5" font-family="Arial, Helvetica, sans-serif" font-size="8" font-weight="700" fill="#fff" text-anchor="middle">18</text>
<circle cx="514.1" cy="323.8" r="9" fill="#b43351" fill-opacity="0.82" stroke="#fff" stroke-width="2" />
<text x="514.1" y="327.8" font-family="Arial, Helvetica, sans-serif" font-size="8" font-weight="700" fill="#fff" text-anchor="middle">19</text>
<circle cx="371.8" cy="361.5" r="9" fill="#bc3148" fill-opacity="0.82" stroke="#fff" stroke-width="2" />
<text x="371.8" y="365.5" font-family="Arial, Helvetica, sans-serif" font-size="8" font-weight="700" fill="#fff" text-anchor="middle">20</text>
<circle cx="271.1" cy="416.8" r="9" fill="#c42e40" fill-opacity="0.82" stroke="#fff" stroke-width="2" />
<text x="271.1" y="420.8" font-family="Arial, Helvetica, sans-serif" font-size="8" font-weight="700" fill="#fff" text-anchor="middle">21</text>
<circle cx="462.1" cy="354.2" r="9" fill="#cc2b37" fill-opacity="0.82" stroke="#fff" stroke-width="2" />
<text x="462.1" y="358.2" font-family="Arial, Helvetica, sans-serif" font-size="8" font-weight="700" fill="#fff" text-anchor="middle">22</text>
<circle cx="389.3" cy="344.8" r="9" fill="#d4292f" fill-opacity="0.82" stroke="#fff" stroke-width="2" />
<text x="389.3" y="348.8" font-family="Arial, Helvetica, sans-serif" font-size="8" font-weight="700" fill="#fff" text-anchor="middle">23</text>
<circle cx="582.0" cy="327.1" r="9" fill="#dc2626" fill-opacity="0.82" stroke="#fff" stroke-width="2" />
<text x="582.0" y="331.1" font-family="Arial, Helvetica, sans-serif" font-size="8" font-weight="700" fill="#fff" text-anchor="middle">24</text>
<circle cx="892.1" cy="317.4" r="13" fill="none" stroke="#16a34a" stroke-width="4" />
<text x="908.1" y="305.4" font-family="Arial, Helvetica, sans-serif" font-size="11" font-weight="700" fill="#166534" text-anchor="start">START</text>
<circle cx="582.0" cy="327.1" r="13" fill="none" stroke="#dc2626" stroke-width="4" />
<text x="598.0" y="315.1" font-family="Arial, Helvetica, sans-serif" font-size="11" font-weight="700" fill="#991b1b" text-anchor="start">END</text>
<rect x="20.0" y="116.0" width="760.0" height="34.0" rx="6" fill="#ffffff" stroke="#cbd2d9" opacity="0.88" />
<text x="34.0" y="139.0" font-family="Arial, Helvetica, sans-serif" font-size="14" font-weight="400" fill="#1f2933" text-anchor="start">samples=572 duration=11.6s offscreen=2.1% x_sd=242.4 y_sd=91.2</text>
</svg>