<svg xmlns="http://www.w3.org/2000/svg" viewBox="0 0 1600 865" width="1600" height="865">
<rect x="0.0" y="0.0" width="1600.0" height="865.0" rx="0" fill="#f6f7f9" stroke="none" opacity="1" />
<text x="250.0" y="52.0" font-family="Arial, Helvetica, sans-serif" font-size="24" font-weight="700" fill="#1f2933" text-anchor="start">Reading Gaze Pilot</text>
<text x="250.0" y="78.0" font-family="Arial, Helvetica, sans-serif" font-size="14" font-weight="400" fill="#52606d" text-anchor="start">Probe</text>
<line x1="250.0" y1="100" x2="1350.0" y2="100" stroke="#d9dee7" />
<rect x="1160.0" y="42.0" width="80.0" height="34.0" rx="6" fill="#23395d" stroke="#23395d" opacity="1" />
<text x="1200.0" y="63.0" font-family="Arial, Helvetica, sans-serif" font-size="14" font-weight="400" fill="#fff" text-anchor="middle">Start</text>
<rect x="1250.0" y="42.0" width="100.0" height="34.0" rx="6" fill="#7b8794" stroke="#7b8794" opacity="0.45" />
<text x="1300.0" y="63.0" font-family="Arial, Helvetica, sans-serif" font-size="14" font-weight="400" fill="#fff" text-anchor="middle">Export CSV</text>
<text x="250.0" y="847.0" font-family="Arial, Helvetica, sans-serif" font-size="13" font-weight="400" fill="#52606d" text-anchor="start">probe / probe_trial_2</text>
<rect x="250.0" y="124.0" width="1100.0" height="683.0" rx="8" fill="#fff" stroke="#d9dee7" opacity="1" />
<text x="274.0" y="166.0" font-family="Arial, Helvetica, sans-serif" font-size="20" font-weight="700" fill="#1f2933" text-anchor="start">Quick Check</text>
<text x="274.0" y="210.0" font-family="Arial, Helvetica, sans-serif" font-size="14" font-weight="400" fill="#323f4b" text-anchor="start">Just before this screen, were you thinking about something unrelated to the</text>
<text x="274.0" y="232.0" font-family="Arial, Helvetica, sans-serif" font-size="14" font-weight="400" fill="#323f4b" text-anchor="start">reading?</text>
<rect x="274.0" y="258.0" width="360.0" height="34.0" rx="6" fill="#fff" stroke="#cbd2d9" opacity="1" />
<text x="286.0" y="280.0" font-family="Arial, Helvetica, sans-serif" font-size="14" font-weight="400" fill="#52606d" text-anchor="start">No / Yes</text>
<text x="274.0" y="334.0" font-family="Arial, Helvetica, sans-serif" font-size="14" font-weight="400" fill="#323f4b" text-anchor="start">Difficulty</text>
<line x1="274.0" y1="362.0" x2="634.0" y2="362.0" stroke="#9aa5b1" stroke-width="5" stroke-linecap="round" />
<text x="274.0" y="410.0" font-family="Arial, Helvetica, sans-serif" font-size="14" font-weight="400" fill="#323f4b" text-anchor="start">Familiarity</text>
<line x1="274.0" y1="438.0" x2="634.0" y2="438.0" stroke="#9aa5b1" stroke-width="5" stroke-linecap="round" />
<path d="M 1203.7 208.1 L 1211.5 203.1 L 1210.7 200.2 L 1223.6 196.6 L 1234.6 193.6 L 1235.3 191.0 L 1261.2 181.1 L 1267.4 178.0 L 1268.4 201.7 L 1270.8 221.4 L 1201.6 230.1 L 1142.3 237.0 L 1049.8 270.3 L 972.7 298.0 L 906.0 312.4 L 898.3 319.8 L 870.8 334.1 L 857.3 345.2 L 812.3 373.2 L 777.5 395.6 L 869.1 365.4 L 893.0 342.7 L 914.9 322.4 L 902.7 305.7 L 913.5 283.8 L 876.4 252.3 L 858.0 221.6 L 806.2 204.9 L 671.5 213.2 L 647.3 219.4 L 610.5 237.5 L 517.9 245.0 L 396.2 267.3 L 453.2 258.4 L 374.7 279.9 L 394.1 266.8 L 378.5 266.3 L 389.1 259.7 L 331.2 244.6 L 256.5 263.6 L 254.5 276.6 L 119.7 309.6 L 76.6 340.7 L 45.0 366.4 L -17.3 370.2 L -44.8 374.1 L -44.7 366.9 L -23.2 372.5 L -0.8 376.3 L -32.8 378.5 L 35.6 353.1 L 96.2 330.9 L 160.6 316.2 L 227.3 298.0 L 229.2 308.4 L 228.4 278.3 L 226.0 253.0 L 239.3 231.6 L 244.2 221.8 L 299.4 211.1 L 286.1 218.5 L 316.9 212.7 L 371.3 199.0 L 390.4 208.6 L 407.5 207.4 L 419.6 207.0 L 388.7 215.4 L 382.3 219.1 L 283.8 242.5 L 256.9 248.1 L 238.9 255.0 L 199.3 254.3 L 167.0 253.3 L 163.9 251.2 L 173.4 249.6 L 183.4 248.1 L 194.5 237.3 L 225.1 229.6 L 251.8 223.2 L 259.4 222.2 L 281.6 214.2 L 300.0 207.8 L 336.0 204.3 L 381.2 220.3 L 362.8 211.8 L 345.4 204.6 L 321.9 202.5 L 354.1 199.6 L 378.3 208.8 L 414.7 204.9 L 444.7 201.7 L 483.3 190.9 L 514.2 183.8 L 488.5 189.1 L 477.2 187.7 L 422.5 194.9 L 422.1 199.4 L 425.8 201.7 L 423.6 196.4 L 429.6 202.2 L 417.4 204.3 L 386.1 203.2 L 370.6 208.1 L 366.9 214.1 L 364.6 219.1 L 383.7 224.2 L 374.7 226.4 L 392.7 232.2 L 388.9 235.8 L 373.7 228.0 L 383.6 225.2 L 393.8 219.0 L 411.2 217.5 L 414.9 211.0 L 430.7 216.4 L 425.5 219.8 L 429.9 211.5 L 442.5 211.4 L 455.9 210.7 L 473.9 208.9 L 480.8 209.5 L 505.2 206.2 L 525.1 203.5 L 523.8 206.1 L 517.5 214.6 L 511.0 222.0 L 526.1 225.1 L 537.1 234.6 L 556.6 230.9 L 560.3 221.3 L 567.3 212.4 L 554.6 206.7 L 566.8 200.8 L 608.0 208.5 L 615.6 202.8 L 636.7 204.1 L 653.5 205.4 L 624.6 220.3 L 613.0 212.7 L 568.9 215.9 L 550.3 230.5 L 524.5 239.1 L 521.2 249.1 L 524.4 241.8 L 526.7 241.0 L 544.4 225.1 L 572.7 204.3 L 596.9 186.7 L 581.2 185.5 L 573.1 186.8 L 565.9 188.4 L 573.7 193.2 L 576.3 199.7 L 599.1 210.9 L 587.5 205.2 L 586.7 195.4 L 580.0 200.5 L 590.9 203.4 L 581.7 209.9 L 568.9 217.7 L 568.0 221.6 L 586.8 220.0 L 603.0 218.3 L 616.8 218.1 L 644.7 222.7 L 645.4 221.3 L 647.0 216.0 L 645.8 210.0 L 659.5 192.2 L 646.7 190.7 L 645.0 181.7 L 656.5 181.4 L 666.0 183.2 L 672.7 190.5 L 678.9 197.4 L 673.2 205.1 L 685.9 208.5 L 678.8 212.0 L 681.4 210.9 L 677.9 219.1 L 675.8 226.7 L 679.1 225.6 L 695.1 225.8 L 716.7 230.4 L 734.6 234.1 L 745.7 239.3 L 771.2 229.5 L 792.0 220.8 L 831.1 205.9 L 823.8 214.4 L 816.0 222.0 L 793.2 240.2 L 786.9 247.2 L 781.2 252.9 L 755.5 260.1 L 737.9 270.8 L 723.3 279.4 L 717.0 292.8 L 695.6 292.1 L 692.3 287.3 L 679.5 270.0 L 644.1 265.8 L 620.0 264.7 L 581.6 261.9 L 556.7 262.9 L 550.9 268.1 L 529.8 270.4 L 491.6 291.1 L 459.2 315.9 L 446.6 317.2 L 438.4 317.6 L 428.9 311.4 L 435.1 315.7 L 452.1 308.6 L 462.2 299.5 L 457.5 298.3 L 488.6 286.0 L 534.9 273.2 L 553.5 269.0 L 554.1 272.1 L 551.4 271.3 L 548.4 270.9 L 534.8 276.6 L 522.9 281.5 L 517.0 287.6 L 496.5 292.5 L 504.6 292.1 L 498.1 295.8 L 514.5 287.2 L 525.0 289.6 L 530.5 291.4 L 515.9 297.6 L 534.4 293.4 L 530.9 288.4 L 542.7 290.2 L 557.5 291.4 L 569.7 292.5 L 574.7 288.9 L 562.0 300.2 L 558.9 307.0 L 551.3 310.3 L 552.6 305.7 L 541.5 309.4 L 531.4 313.7 L 520.0 317.4 L 591.5 304.1 L 652.8 292.6 L 687.6 280.8 L 680.9 287.2 L 673.6 293.0 L 660.8 300.4 L 641.0 301.5 L 623.5 302.4 L 621.6 298.2 L 619.3 294.9 L 627.1 290.2 L 641.2 286.8 L 662.7 274.8 L 674.6 263.2 L 676.1 256.6 L 666.0 261.4 L 650.2 271.8 L 619.7 291.9 L 613.0 294.9 L 607.9 297.3 L 581.5 308.2 L 572.1 311.5 L 565.0 313.9 L 555.2 311.9 L 562.4 309.9 L 569.5 307.8 L 586.3 309.6 L 601.1 310.9 L 586.8 303.2 L 582.6 295.3 L 579.0 288.5 L 546.6 295.5 L 509.3 304.9 L 504.5 308.3 L 496.0 304.4 L 500.8 304.1 L 497.1 306.1 L 490.6 307.8 L 510.1 313.9 L 496.8 317.4 L 496.0 315.5 L 495.7 313.7 L 498.5 312.8 L 511.7 298.3 L 523.1 286.0 L 513.5 283.8 L 505.0 282.3 L 520.5 280.1 L 530.9 278.8 L 539.6 278.0 L 549.8 272.1 L 558.0 267.2 L 564.3 262.4 L 578.1 265.4 L 589.3 268.3 L 591.3 273.1 L 592.1 277.4 L 591.8 277.7 L 582.1 283.7 L 565.9 292.4 L 559.7 294.7 L 554.5 296.5 L 547.9 299.8 L 543.9 301.4 L 537.1 307.2 L 525.6 309.3 L 516.1 310.8 L 512.0 315.9 L 519.6 313.6 L 526.5 311.2 L 533.9 306.9 L 540.3 303.1 L 569.5 294.0 L 573.4 296.1 L 579.8 294.0 L 585.5 292.9 L 564.3 299.4 L 564.4 301.0 L 598.0 295.6 L 626.4 291.0 L 643.0 292.6 L 656.6 294.7 L 623.6 311.2 L 607.8 319.6 L 592.4 325.9 L 582.5 333.8 L 574.2 340.1 L 552.8 347.4 L 540.0 346.8 L 529.8 345.7 L 519.2 343.2 L 506.9 350.0 L 543.9 339.0 L 573.7 323.6 L 593.9 315.2 L 596.7 314.3 L 598.3 313.9 L 671.8 282.6 L 686.3 266.8 L 716.7 246.0 L 729.1 238.9 L 737.7 233.9 L 718.4 235.5 L 700.3 237.9 L 680.1 241.2 L 662.3 244.7 L 664.1 232.4 L 691.4 240.8 L 713.1 257.0 L 711.8 265.3 L 634.6 270.6 L 568.4 275.0 L 515.3 286.7 L 472.0 296.4 L 482.8 292.9 L 472.1 304.9 L 465.1 314.6 L 459.7 324.9 L 461.1 337.0 L 464.0 346.5 L 500.8 336.8 L 492.1 333.4 L 464.4 326.9 L 451.3 315.5 L 457.1 318.4 L 462.8 321.0 L 499.2 316.6 L 467.0 316.5 L 460.1 301.6 L 454.5 288.9 L 397.3 301.1 L 349.1 312.0 L 316.1 332.1 L 293.3 341.3 L 276.2 348.8 L 263.9 354.7 L 253.8 359.2 L 255.4 368.5 L 257.7 386.6 L 261.1 401.4 L 262.2 401.9 L 287.4 396.3 L 315.3 391.5 L 330.8 390.0 L 343.7 388.4 L 357.3 386.2 L 368.1 384.0 L 371.6 381.5 L 370.6 377.8 L 371.3 374.8 L 371.3 372.2 L 370.7 370.1 L 370.7 364.1 L 350.3 371.8 L 358.1 368.3 L 364.8 365.4 L 352.2 366.6 L 341.6 368.0 L 319.6 376.4 L 314.2 373.8 L 310.2 371.6 L 291.7 372.8 L 279.2 373.5 L 262.0 377.0 L 246.8 383.8 L 234.8 389.6 L 225.8 394.2 L 247.8 390.2 L 271.1 385.4 L 312.6 377.2 L 332.6 377.5 L 356.8 368.4 L 356.7 369.7 L 367.5 367.4 L 383.8 362.1 L 393.7 357.9 L 402.2 356.6 L 396.0 366.5 L 392.8 364.2 L 392.0 362.3 L 390.7 360.8 L 389.1 359.6 L 370.7 367.1 L 357.4 371.0 L 357.9 367.1 L 384.2 363.0 L 406.8 359.5 L 421.3 355.8 L 397.2 366.4 L 413.6 359.8 L 412.4 355.5 L 389.7 367.8 L 370.1 378.4 L 359.9 386.6 L 351.7 393.3 L 337.1 394.4 L 325.2 394.9 L 283.1 407.4 L 247.2 422.5 L 217.7 434.9 L 179.9 457.9 L 171.6 468.9 L 202.6 464.8 L 267.4 463.3 L 335.7 454.7" fill="none" stroke="#2563eb" stroke-width="2" stroke-opacity="0.35" />
<circle cx="1203.7" cy="208.1" r="9" fill="#2563eb" fill-opacity="0.82" stroke="#fff" stroke-width="2" />
<text x="1203.7" y="212.1" font-family="Arial, Helvetica, sans-serif" font-size="8" font-weight="700" fill="#fff" text-anchor="middle">1</text>
<circle cx="869.1" cy="365.4" r="9" fill="#2d60e2" fill-opacity="0.82" stroke="#fff" stroke-width="2" />
<text x="869.1" y="369.4" font-family="Arial, Helvetica, sans-serif" font-size="8" font-weight="700" fill="#fff" text-anchor="middle">2</text>
<circle cx="256.5" cy="263.6" r="9" fill="#355eda" fill-opacity="0.82" stroke="#fff" stroke-width="2" />
<text x="256.5" y="267.6" font-family="Arial, Helvetica, sans-serif" font-size="8" font-weight="700" fill="#fff" text-anchor="middle">3</text>
<circle cx="244.2" cy="221.8" r="9" fill="#3d5bd1" fill-opacity="0.82" stroke="#fff" stroke-width="2" />
<text x="244.2" y="225.8" font-family="Arial, Helvetica, sans-serif" font-size="8" font-weight="700" fill="#fff" text-anchor="middle">4</text>
<circle cx="251.8" cy="223.2" r="9" fill="#4558c9" fill-opacity="0.82" stroke="#fff" stroke-width="2" />
<text x="251.8" y="227.2" font-family="Arial, Helvetica, sans-serif" font-size="8" font-weight="700" fill="#fff" text-anchor="middle">5</text>
<circle cx="411.0" cy="203.4" r="9" fill="#4d56c0" fill-opacity="0.82" stroke="#fff" stroke-width="2" />
<text x="411.0" y="207.4" font-family="Arial, Helvetica, sans-serif" font-size="8" font-weight="700" fill="#fff" text-anchor="middle">6</text>
<circle cx="442.5" cy="211.4" r="9" fill="#5553b8" fill-opacity="0.82" stroke="#fff" stroke-width="2" />
<text x="442.5" y="215.4" font-family="Arial, Helvetica, sans-serif" font-size="8" font-weight="700" fill="#fff" text-anchor="middle">7</text>
<circle cx="624.6" cy="220.3" r="9" fill="#5d50af" fill-opacity="0.82" stroke="#fff" stroke-width="2" />
<text x="624.6" y="224.3" font-family="Arial, Helvetica, sans-serif" font-size="8" font-weight="700" fill="#fff" text-anchor="middle">8</text>
<circle cx="590.9" cy="203.4" r="9" fill="#654ea6" fill-opacity="0.82" stroke="#fff" stroke-width="2" />
<text x="590.9" y="207.4" font-family="Arial, Helvetica, sans-serif" font-size="8" font-weight="700" fill="#fff" text-anchor="middle">9</text>
<circle cx="673.2" cy="205.1" r="9" fill="#6d4b9e" fill-opacity="0.82" stroke="#fff" stroke-width="2" />
<text x="673.2" y="209.1" font-family="Arial, Helvetica, sans-serif" font-size="8" font-weight="700" fill="#fff" text-anchor="middle">10</text>
<circle cx="737.9" cy="270.8" r="9" fill="#754895" fill-opacity="0.82" stroke="#fff" stroke-width="2" />
<text x="737.9" y="274.8" font-family="Arial, Helvetica, sans-serif" font-size="8" font-weight="700" fill="#fff" text-anchor="middle">11</text>
<circle cx="457.5" cy="298.3" r="9" fill="#7d468d" fill-opacity="0.82" stroke="#fff" stroke-width="2" />
<text x="457.5" y="302.3" font-family="Arial, Helvetica, sans-serif" font-size="8" font-weight="700" fill="#fff" text-anchor="middle">12</text>
<circle cx="542.7" cy="290.2" r="9" fill="#844384" fill-opacity="0.82" stroke="#fff" stroke-width="2" />
<text x="542.7" y="294.2" font-family="Arial, Helvetica, sans-serif" font-size="8" font-weight="700" fill="#fff" text-anchor="middle">13</text>
<circle cx="619.3" cy="294.9" r="9" fill="#8c417c" fill-opacity="0.82" stroke="#fff" stroke-width="2" />
<text x="619.3" y="298.9" font-family="Arial, Helvetica, sans-serif" font-size="8" font-weight="700" fill="#fff" text-anchor="middle">14</text>
<circle cx="582.6" cy="295.3" r="9" fill="#943e73" fill-opacity="0.82" stroke="#fff" stroke-width="2" />
<text x="582.6" y="299.3" font-family="Arial, Helvetica, sans-serif" font-size="8" font-weight="700" fill="#fff" text-anchor="middle">15</text>
<circle cx="520.5" cy="280.1" r="9" fill="#9c3b6b" fill-opacity="0.82" stroke="#fff" stroke-width="2" />
<text x="520.5" y="284.1" font-family="Arial, Helvetica, sans-serif" font-size="8" font-weight="700" fill="#fff" text-anchor="middle">16</text>
<circle cx="512.0" cy="315.9" r="9" fill="#a43962" fill-opacity="0.82" stroke="#fff" stroke-width="2" />
<text x="512.0" y="319.9" font-family="Arial, Helvetica, sans-serif" font-size="8" font-weight="700" fill="#fff" text-anchor="middle">17</text>
<circle cx="552.8" cy="347.4" r="9" fill="#ac3659" fill-opacity="0.82" stroke="#fff" stroke-width="2" />
<text x="552.8" y="351.4" font-family="Arial, Helvetica, sans-serif" font-size="8" font-weight="700" fill="#fff" text-anchor="middle">18</text>
<circle cx="665.8" cy="222.4" r="9" fill="#b43351" fill-opacity="0.82" stroke="#fff" stroke-width="2" />
<text x="665.8" y="226.4" font-family="Arial, Helvetica, sans-serif" font-size="8" font-weight="700" fill="#fff" text-anchor="middle">19</text>
<circle cx="499.2" cy="316.6" r="9" fill="#bc3148" fill-opacity="0.82" stroke="#fff" stroke-width="2" />
<text x="499.2" y="320.6" font-family="Arial, Helvetica, sans-serif" font-size="8" font-weight="700" fill="#fff" text-anchor="middle">20</text>
<circle cx="368.1" cy="384.0" r="9" fill="#c42e40" fill-opacity="0.82" stroke="#fff" stroke-width="2" />
<text x="368.1" y="388.0" font-family="Arial, Helvetica, sans-serif" font-size="8" font-weight="700" fill="#fff" text-anchor="middle">21</text>
<circle cx="234.8" cy="389.6" r="9" fill="#cc2b37" fill-opacity="0.82" stroke="#fff" stroke-width="2" />
<text x="234.8" y="393.6" font-family="Arial, Helvetica, sans-serif" font-size="8" font-weight="700" fill="#fff" text-anchor="middle">22</text>
<circle cx="357.9" cy="367.1" r="9" fill="#d4292f" fill-opacity="0.82" stroke="#fff" stroke-width="2" />
<text x="357.9" y="371.1" font-family="Arial, Helvetica, sans-serif" font-size="8" font-weight="700" fill="#fff" text-anchor="middle">23</text>
<circle cx="335.7" cy="454.7" r="9" fill="#dc2626" fill-opacity="0.82" stroke="#fff" stroke-width="2" />
<text x="335.7" y="458.7" font-family="Arial, Helvetica, sans-serif" font-size="8" font-weight="700" fill="#fff" text-anchor="middle">24</text>
<circle cx="1203.7" cy="208.1" r="13" fill="none" stroke="#16a34a" stroke-width="4" />
<text x="1219.7" y="196.1" font-family="Arial, Helvetica, sans-serif" font-size="11" font-weight="700" fill="#166534" text-anchor="start">START</text>
<circle cx="335.7" cy="454.7" r="13" fill="none" stroke="#dc2626" stroke-width="4" />
<text x="351.7" y="442.7" font-family="Arial, Helvetica, sans-serif" font-size="11" font-weight="700" fill="#991b1b" text-anchor="start">END</text>
<rect x="20.0" y="116.0" width="760.0" height="34.0" rx="6" fill="#ffffff" stroke="#cbd2d9" opacity="0.88" />
<text x="34.0" y="139.0" font-family="Arial, Helvetica, sans-serif" font-size="14" font-weight="400" fill="#1f2933" text-anchor="start">samples=480 duration=9.5s offscreen=1.2% x_sd=209.6 y_sd=62.8</text>
</svg>