<svg xmlns="http://www.w3.org/2000/svg" viewBox="0 0 1600 865" width="1600" height="865">
<rect x="0.0" y="0.0" width="1600.0" height="865.0" rx="0" fill="#f6f7f9" stroke="none" opacity="1" />
<text x="250.0" y="52.0" font-family="Arial, Helvetica, sans-serif" font-size="24" font-weight="700" fill="#1f2933" text-anchor="start">Reading Gaze Pilot</text>
<text x="250.0" y="78.0" font-family="Arial, Helvetica, sans-serif" font-size="14" font-weight="400" fill="#52606d" text-anchor="start">Reading</text>
<line x1="250.0" y1="100" x2="1350.0" y2="100" stroke="#d9dee7" />
<rect x="1160.0" y="42.0" width="80.0" height="34.0" rx="6" fill="#23395d" stroke="#23395d" opacity="1" />
<text x="1200.0" y="63.0" font-family="Arial, Helvetica, sans-serif" font-size="14" font-weight="400" fill="#fff" text-anchor="middle">Start</text>
<rect x="1250.0" y="42.0" width="100.0" height="34.0" rx="6" fill="#7b8794" stroke="#7b8794" opacity="0.45" />
<text x="1300.0" y="63.0" font-family="Arial, Helvetica, sans-serif" font-size="14" font-weight="400" fill="#fff" text-anchor="middle">Export CSV</text>
<text x="250.0" y="847.0" font-family="Arial, Helvetica, sans-serif" font-size="13" font-weight="400" fill="#52606d" text-anchor="start">reading / reading_trial_3</text>
<rect x="250.0" y="124.0" width="1100.0" height="683.0" rx="8" fill="#fff" stroke="#d9dee7" opacity="1" />
<text x="274.0" y="160.0" font-family="Arial, Helvetica, sans-serif" font-size="16" font-weight="400" fill="#323f4b" text-anchor="start">Passage 3 / 3</text>
<rect x="1230.0" y="142.0" width="96.0" height="36.0" rx="6" fill="#23395d" stroke="#23395d" opacity="1" />
<text x="1278.0" y="165.0" font-family="Arial, Helvetica, sans-serif" font-size="14" font-weight="400" fill="#fff" text-anchor="middle">Continue</text>
<text x="420.0" y="234.0" font-family="Arial, Helvetica, sans-serif" font-size="20" font-weight="400" fill="#1f2933" text-anchor="start">A careful educational system should fail softly. If a model is uncertain, it</text>
<text x="420.0" y="272.0" font-family="Arial, Helvetica, sans-serif" font-size="20" font-weight="400" fill="#1f2933" text-anchor="start">should offer optional support rather than make high-stakes decisions. This</text>
<text x="420.0" y="310.0" font-family="Arial, Helvetica, sans-serif" font-size="20" font-weight="400" fill="#1f2933" text-anchor="start">principle is especially important when working with students who may have</text>
<text x="420.0" y="348.0" font-family="Arial, Helvetica, sans-serif" font-size="20" font-weight="400" fill="#1f2933" text-anchor="start">special educational needs.</text>
<path d="M 372.2 434.5 L 510.8 367.5 L 558.5 343.4 L 578.1 328.6 L 620.2 317.9 L 672.2 293.4 L 643.2 253.7 L 502.1 319.2 L 372.9 360.6 L 372.0 345.8 L 407.1 326.3 L 458.8 313.6 L 530.3 299.1 L 692.9 257.5 L 770.9 243.2 L 695.5 245.9 L 548.4 269.2 L 489.1 276.4 L 471.6 257.1 L 433.3 258.9 L 426.5 269.4 L 401.1 297.2 L 373.1 293.9 L 316.5 299.1 L 427.6 244.8 L 430.0 232.8 L 437.3 222.7 L 439.4 231.3 L 443.5 267.3 L 562.9 269.2 L -17.9 627.6 L -182.0 765.5 L 297.1 586.7 L 580.7 444.3 L 632.6 363.4 L 603.4 363.4 L 561.3 365.6 L 517.3 399.6 L 455.9 416.1 L 452.3 386.9 L 353.5 421.5 L 236.4 482.8 L 193.7 505.8 L 140.0 501.1 L 259.8 469.0 L 318.5 452.0 L 393.4 414.8 L 425.3 419.2 L 446.4 446.1 L 416.1 471.1 L 429.1 463.2 L 565.7 420.9 L 656.8 369.7 L 571.4 373.6 L 529.5 371.6 L 704.6 357.4 L 709.3 379.7 L 594.0 375.3 L 525.8 386.8 L 400.1 454.0 L 398.6 453.3 L 564.7 373.8 L 538.4 348.0 L 441.0 384.1 L -59.3 601.0 L -482.2 719.8 L -314.9 691.5 L 244.3 500.3 L 720.8 299.7 L 969.8 250.8 L 840.2 281.8 L -93.7 658.7 L -287.6 783.5 L 335.2 496.5 L 794.9 342.5 L 987.8 266.1 L 1076.1 235.5 L 1097.2 253.3 L 1025.8 294.1 L 985.7 294.4 L 986.7 331.1 L 896.5 330.2 L 679.1 354.5 L 662.2 351.5 L 741.7 338.2 L 730.2 371.2 L 700.0 368.1 L 758.7 322.4 L 853.2 338.1 L 833.1 360.0 L 754.9 381.2 L 156.3 635.5 L -309.7 804.8 L -57.8 733.5 L 501.9 500.6 L 877.8 305.7 L 1071.0 184.4 L 1116.2 165.5 L 1039.0 188.7 L 907.4 218.9 L 887.8 229.2 L 922.7 206.2 L 949.6 199.4 L 941.8 210.5 L 972.1 227.7 L 925.8 229.3 L 867.9 220.4 L 832.9 210.2 L 808.0 219.6 L 682.1 289.2 L 627.9 310.3 L 657.7 317.4 L 802.4 299.6 L 911.5 334.4 L 735.2 391.9 L 609.9 441.0 L 641.0 305.5 L 664.3 226.1 L 709.1 174.5 L 714.6 208.8 L 710.9 229.4 L 594.0 278.6 L 801.2 280.4 L 851.8 328.0 L 823.1 377.4 L 821.0 370.0 L 746.2 332.7 L 774.1 328.7 L 791.2 271.0 L 822.3 222.0 L 834.8 205.8 L 822.9 206.4 L 815.0 249.7 L 816.8 243.7 L 808.6 252.3 L 961.7 198.6 L 1001.3 276.1 L 970.3 261.2 L 829.3 261.3 L 853.9 248.4 L 820.0 241.8 L 827.6 248.6 L 852.7 257.1 L 862.5 278.8 L 844.7 271.7 L 762.7 239.4 L 807.9 214.8 L 855.7 230.9 L 910.9 226.9 L 885.5 193.3 L 915.1 189.9 L 931.1 188.7 L 880.9 219.3 L 881.2 277.3 L 924.9 283.7 L 941.5 270.1 L 1035.4 229.0 L 879.2 206.3 L 865.3 213.1 L 844.1 241.1 L 820.9 224.3 L 871.3 217.2 L 891.3 226.8 L 955.6 257.4 L 914.3 287.7 L 888.8 246.4 L 1022.7 228.9 L 1041.7 237.1 L 1037.5 232.6 L 1041.4 236.2 L 1033.0 259.7 L 1048.5 239.8 L 1069.1 217.5 L 1029.0 214.1 L 1083.3 212.1 L 1090.2 243.7 L 1130.7 269.0 L 1139.0 247.0 L 1119.8 242.9 L 1143.4 214.8 L 929.2 304.0 L 925.1 327.2 L 938.2 300.3 L 943.3 260.7 L 991.4 229.0 L 920.8 251.1 L 832.6 263.6 L 659.8 288.6 L 568.7 295.0 L 460.5 316.4 L 353.1 313.2 L 429.6 311.2 L 502.6 294.3 L 474.4 281.4 L 400.7 314.9 L 365.9 309.8 L 421.8 273.4 L 414.6 260.5 L 372.3 272.8 L 452.8 280.0 L 494.9 260.8 L 454.2 283.7 L 446.8 293.8 L 450.7 279.5 L 444.3 290.8 L 454.7 295.4 L 538.0 275.8 L 495.2 272.6 L 509.7 246.9 L 476.9 241.6 L 455.8 253.8 L 431.7 245.7 L 482.8 294.1 L 511.7 321.2 L 498.5 338.8 L 527.6 319.3 L 557.3 313.7 L 553.4 318.3 L 581.2 282.1 L 544.1 262.6 L 494.1 254.0 L 482.1 269.8 L 465.8 286.5 L 515.0 320.0 L 529.3 288.4 L 552.9 281.9 L 644.7 279.6 L 661.6 213.9 L 638.2 218.5 L 697.9 222.5 L 646.5 247.0 L 678.5 238.8 L 655.5 235.4 L 677.9 268.4 L 613.5 270.4 L 599.5 275.6 L 622.7 293.6 L 685.3 288.4 L 674.2 306.2 L 708.6 352.2 L 773.3 314.3 L 821.2 309.5 L 778.8 278.7 L 762.7 225.7 L 791.5 225.0 L 785.6 238.0 L 862.0 223.5 L 837.9 213.3 L 895.3 198.8 L 908.9 195.5 L 996.4 168.8 L 940.5 152.8 L 833.1 163.2 L 689.0 236.9 L 610.6 291.1 L 659.5 339.4 L 780.5 342.0 L 872.8 312.8 L 900.1 276.6 L 779.4 312.8 L 786.8 289.0 L 620.8 326.0 L 431.5 486.6 L 574.6 423.0 L 793.4 314.1 L 926.5 271.1 L 1011.5 257.2 L 865.1 242.8 L 805.1 283.3 L 674.6 266.5 L 670.0 268.5 L 785.9 249.0 L 838.8 235.6 L 857.9 198.9 L 833.8 237.9 L 764.4 297.7 L 838.0 317.5 L 866.6 313.0 L 902.8 309.3 L 966.3 301.6 L 1005.6 249.9 L 970.6 265.5 L 947.3 251.3 L 937.1 250.6 L 976.5 237.8 L 911.5 201.1 L 908.8 264.5 L 902.7 293.1 L 968.3 261.4 L 1013.8 227.3 L 948.1 180.4 L 902.6 236.8 L 866.8 287.1 L 897.0 324.8 L 892.8 333.9 L 907.5 289.3 L 923.6 287.4 L 963.9 268.8 L 947.1 251.1 L 970.7 217.0 L 1104.3 170.2 L 1123.9 195.3 L 1136.9 201.9 L 1140.4 212.9 L 1021.1 251.7 L 1017.7 274.6 L 1045.6 282.7 L 937.3 298.4 L 939.4 295.7 L 977.2 278.7 L 1023.4 255.0 L 1034.8 271.3 L 1096.1 280.9 L 1112.0 282.8 L 1129.0 267.2 L 1017.0 281.6 L 988.5 284.2 L 986.6 300.5 L 999.8 307.8 L 1078.3 295.7 L 1141.9 285.0 L 1181.1 294.5 L 1145.3 279.6 L 1056.5 240.2 L 1068.3 305.9 L 1029.7 371.4 L 960.4 361.7 L 766.0 293.7 L 707.7 298.9 L 796.5 279.6 L 925.5 284.0 L 779.0 287.3 L 776.4 282.6 L 568.8 289.9 L 476.2 310.6 L 451.3 295.0 L 342.4 257.3 L 317.0 238.9 L 324.3 324.1 L 445.4 312.6 L 525.0 299.4 L 509.6 320.1 L 557.5 281.5 L 590.9 307.3 L 579.1 321.5 L 551.2 302.6 L 584.6 289.8 L 742.5 245.2 L 637.4 251.7 L 597.9 266.2 L 501.1 293.5 L 441.1 361.5 L 408.9 398.1 L 460.3 351.7 L 354.5 358.1 L 508.1 341.6 L 456.8 328.9 L -31.2 464.6 L 130.0 428.1 L 56.2 489.0 L 155.1 446.1 L 494.3 346.4 L 275.8 387.2 L 346.7 343.8 L 551.2 320.1 L 622.8 343.0 L 580.5 348.8 L 510.9 380.4 L 548.3 371.9 L 588.5 304.2 L 616.1 294.4 L 675.1 267.1 L 615.6 310.7 L 591.9 340.4 L 500.7 288.9 L 456.6 295.3 L 490.4 273.6 L 566.0 260.6 L 557.8 326.3 L 631.5 306.6 L 558.5 311.6 L 534.6 307.9 L 597.7 333.5 L 654.2 301.3 L 607.0 341.8 L 750.8 299.3 L 746.7 300.7 L 806.9 282.7 L 793.9 317.3 L 760.9 334.0 L 727.8 297.9 L 667.8 289.9 L 732.7 277.7 L 816.8 274.5 L 876.6 233.9 L 892.7 254.4 L 829.7 293.2 L 832.8 298.6 L 784.9 303.3 L 784.2 306.0 L 833.3 293.6 L 823.8 299.9 L 833.4 297.7 L 754.0 300.9 L 759.7 298.5 L 768.3 335.2 L 814.8 332.3 L 900.3 286.4 L 878.0 315.3 L 808.7 324.3 L 855.9 324.2 L 988.5 340.7 L 909.8 324.9 L 828.8 337.6 L 857.9 318.6 L 988.2 295.2 L 944.7 312.0 L 868.3 328.6 L 909.2 283.3 L 1002.6 270.5 L 1020.1 265.0 L 931.2 286.9 L 902.0 298.2 L 966.6 296.4 L 1028.4 307.7 L 1039.6 313.3 L 1106.0 297.4 L 1111.6 280.4 L 1131.4 260.0 L 1122.2 324.3 L 1209.2 271.9 L 1220.5 200.6 L 1143.1 217.1 L 1237.8 194.9 L 1291.7 191.0 L 1228.9 198.7 L 1203.8 196.2 L 1178.7 199.0 L 1164.1 205.7 L 1207.1 212.7 L 1292.8 225.2 L 1338.2 187.0 L 1349.0 173.7 L 1323.5 198.1 L 1299.2 219.3 L 1287.3 204.2 L 1295.8 199.2 L 1316.6 205.6 L 1110.4 287.0 L 784.2 370.0" fill="none" stroke="#2563eb" stroke-width="2" stroke-opacity="0.35" />
<circle cx="372.2" cy="434.5" r="9" fill="#2563eb" fill-opacity="0.82" stroke="#fff" stroke-width="2" />
<text x="372.2" y="438.5" font-family="Arial, Helvetica, sans-serif" font-size="8" font-weight="700" fill="#fff" text-anchor="middle">1</text>
<circle cx="441.2" cy="265.8" r="9" fill="#2d60e2" fill-opacity="0.82" stroke="#fff" stroke-width="2" />
<text x="441.2" y="269.8" font-family="Arial, Helvetica, sans-serif" font-size="8" font-weight="700" fill="#fff" text-anchor="middle">2</text>
<circle cx="452.3" cy="386.9" r="9" fill="#355eda" fill-opacity="0.82" stroke="#fff" stroke-width="2" />
<text x="452.3" y="390.9" font-family="Arial, Helvetica, sans-serif" font-size="8" font-weight="700" fill="#fff" text-anchor="middle">3</text>
<circle cx="507.3" cy="395.9" r="9" fill="#3d5bd1" fill-opacity="0.82" stroke="#fff" stroke-width="2" />
<text x="507.3" y="399.9" font-family="Arial, Helvetica, sans-serif" font-size="8" font-weight="700" fill="#fff" text-anchor="middle">4</text>
<circle cx="1025.8" cy="294.1" r="9" fill="#4558c9" fill-opacity="0.82" stroke="#fff" stroke-width="2" />
<text x="1025.8" y="298.1" font-family="Arial, Helvetica, sans-serif" font-size="8" font-weight="700" fill="#fff" text-anchor="middle">5</text>
<circle cx="1090.0" cy="170.9" r="9" fill="#4d56c0" fill-opacity="0.82" stroke="#fff" stroke-width="2" />
<text x="1090.0" y="174.9" font-family="Arial, Helvetica, sans-serif" font-size="8" font-weight="700" fill="#fff" text-anchor="middle">6</text>
<circle cx="664.3" cy="226.1" r="9" fill="#5553b8" fill-opacity="0.82" stroke="#fff" stroke-width="2" />
<text x="664.3" y="230.1" font-family="Arial, Helvetica, sans-serif" font-size="8" font-weight="700" fill="#fff" text-anchor="middle">7</text>
<circle cx="990.8" cy="270.2" r="9" fill="#5d50af" fill-opacity="0.82" stroke="#fff" stroke-width="2" />
<text x="990.8" y="274.2" font-family="Arial, Helvetica, sans-serif" font-size="8" font-weight="700" fill="#fff" text-anchor="middle">8</text>
<circle cx="971.0" cy="226.2" r="9" fill="#654ea6" fill-opacity="0.82" stroke="#fff" stroke-width="2" />
<text x="971.0" y="230.2" font-family="Arial, Helvetica, sans-serif" font-size="8" font-weight="700" fill="#fff" text-anchor="middle">9</text>
<circle cx="1168.1" cy="265.4" r="9" fill="#6d4b9e" fill-opacity="0.82" stroke="#fff" stroke-width="2" />
<text x="1168.1" y="269.4" font-family="Arial, Helvetica, sans-serif" font-size="8" font-weight="700" fill="#fff" text-anchor="middle">10</text>
<circle cx="365.9" cy="309.8" r="9" fill="#754895" fill-opacity="0.82" stroke="#fff" stroke-width="2" />
<text x="365.9" y="313.8" font-family="Arial, Helvetica, sans-serif" font-size="8" font-weight="700" fill="#fff" text-anchor="middle">11</text>
<circle cx="522.1" cy="321.1" r="9" fill="#7d468d" fill-opacity="0.82" stroke="#fff" stroke-width="2" />
<text x="522.1" y="325.1" font-family="Arial, Helvetica, sans-serif" font-size="8" font-weight="700" fill="#fff" text-anchor="middle">12</text>
<circle cx="607.0" cy="266.3" r="9" fill="#844384" fill-opacity="0.82" stroke="#fff" stroke-width="2" />
<text x="607.0" y="270.3" font-family="Arial, Helvetica, sans-serif" font-size="8" font-weight="700" fill="#fff" text-anchor="middle">13</text>
<circle cx="610.6" cy="291.1" r="9" fill="#8c417c" fill-opacity="0.82" stroke="#fff" stroke-width="2" />
<text x="610.6" y="295.1" font-family="Arial, Helvetica, sans-serif" font-size="8" font-weight="700" fill="#fff" text-anchor="middle">14</text>
<circle cx="870.5" cy="187.2" r="9" fill="#943e73" fill-opacity="0.82" stroke="#fff" stroke-width="2" />
<text x="870.5" y="191.2" font-family="Arial, Helvetica, sans-serif" font-size="8" font-weight="700" fill="#fff" text-anchor="middle">15</text>
<circle cx="892.1" cy="318.1" r="9" fill="#9c3b6b" fill-opacity="0.82" stroke="#fff" stroke-width="2" />
<text x="892.1" y="322.1" font-family="Arial, Helvetica, sans-serif" font-size="8" font-weight="700" fill="#fff" text-anchor="middle">16</text>
<circle cx="1100.4" cy="284.5" r="9" fill="#a43962" fill-opacity="0.82" stroke="#fff" stroke-width="2" />
<text x="1100.4" y="288.5" font-family="Arial, Helvetica, sans-serif" font-size="8" font-weight="700" fill="#fff" text-anchor="middle">17</text>
<circle cx="776.4" cy="282.6" r="9" fill="#ac3659" fill-opacity="0.82" stroke="#fff" stroke-width="2" />
<text x="776.4" y="286.6" font-family="Arial, Helvetica, sans-serif" font-size="8" font-weight="700" fill="#fff" text-anchor="middle">18</text>
<circle cx="445.8" cy="383.6" r="9" fill="#b43351" fill-opacity="0.82" stroke="#fff" stroke-width="2" />
<text x="445.8" y="387.6" font-family="Arial, Helvetica, sans-serif" font-size="8" font-weight="700" fill="#fff" text-anchor="middle">19</text>
<circle cx="675.1" cy="267.1" r="9" fill="#bc3148" fill-opacity="0.82" stroke="#fff" stroke-width="2" />
<text x="675.1" y="271.1" font-family="Arial, Helvetica, sans-serif" font-size="8" font-weight="700" fill="#fff" text-anchor="middle">20</text>
<circle cx="700.9" cy="275.4" r="9" fill="#c42e40" fill-opacity="0.82" stroke="#fff" stroke-width="2" />
<text x="700.9" y="279.4" font-family="Arial, Helvetica, sans-serif" font-size="8" font-weight="700" fill="#fff" text-anchor="middle">21</text>
<circle cx="855.9" cy="324.2" r="9" fill="#cc2b37" fill-opacity="0.82" stroke="#fff" stroke-width="2" />
<text x="855.9" y="328.2" font-family="Arial, Helvetica, sans-serif" font-size="8" font-weight="700" fill="#fff" text-anchor="middle">22</text>
<circle cx="1148.6" cy="304.6" r="9" fill="#d4292f" fill-opacity="0.82" stroke="#fff" stroke-width="2" />
<text x="1148.6" y="308.6" font-family="Arial, Helvetica, sans-serif" font-size="8" font-weight="700" fill="#fff" text-anchor="middle">23</text>
<circle cx="784.2" cy="370.0" r="9" fill="#dc2626" fill-opacity="0.82" stroke="#fff" stroke-width="2" />
<text x="784.2" y="374.0" font-family="Arial, Helvetica, sans-serif" font-size="8" font-weight="700" fill="#fff" text-anchor="middle">24</text>
<circle cx="372.2" cy="434.5" r="13" fill="none" stroke="#16a34a" stroke-width="4" />
<text x="388.2" y="422.5" font-family="Arial, Helvetica, sans-serif" font-size="11" font-weight="700" fill="#166534" text-anchor="start">START</text>
<circle cx="784.2" cy="370.0" r="13" fill="none" stroke="#dc2626" stroke-width="4" />
<text x="800.2" y="358.0" font-family="Arial, Helvetica, sans-serif" font-size="11" font-weight="700" fill="#991b1b" text-anchor="start">END</text>
<rect x="20.0" y="116.0" width="760.0" height="34.0" rx="6" fill="#ffffff" stroke="#cbd2d9" opacity="0.88" />
<text x="34.0" y="139.0" font-family="Arial, Helvetica, sans-serif" font-size="14" font-weight="400" fill="#1f2933" text-anchor="start">samples=1329 duration=26.3s offscreen=1.8% x_sd=284.0 y_sd=88.9</text>
</svg>