<svg xmlns="http://www.w3.org/2000/svg" viewBox="0 0 1600 865" width="1600" height="865">
<rect x="0.0" y="0.0" width="1600.0" height="865.0" rx="0" fill="#f6f7f9" stroke="none" opacity="1" />
<text x="250.0" y="52.0" font-family="Arial, Helvetica, sans-serif" font-size="24" font-weight="700" fill="#1f2933" text-anchor="start">Reading Gaze Pilot</text>
<text x="250.0" y="78.0" font-family="Arial, Helvetica, sans-serif" font-size="14" font-weight="400" fill="#52606d" text-anchor="start">Calibration</text>
<line x1="250.0" y1="100" x2="1350.0" y2="100" stroke="#d9dee7" />
<rect x="1160.0" y="42.0" width="80.0" height="34.0" rx="6" fill="#23395d" stroke="#23395d" opacity="1" />
<text x="1200.0" y="63.0" font-family="Arial, Helvetica, sans-serif" font-size="14" font-weight="400" fill="#fff" text-anchor="middle">Start</text>
<rect x="1250.0" y="42.0" width="100.0" height="34.0" rx="6" fill="#7b8794" stroke="#7b8794" opacity="0.45" />
<text x="1300.0" y="63.0" font-family="Arial, Helvetica, sans-serif" font-size="14" font-weight="400" fill="#fff" text-anchor="middle">Export CSV</text>
<text x="250.0" y="847.0" font-family="Arial, Helvetica, sans-serif" font-size="13" font-weight="400" fill="#52606d" text-anchor="start">calibration / calibration</text>
<rect x="250.0" y="124.0" width="1100.0" height="683.0" rx="8" fill="#fff" stroke="#d9dee7" opacity="1" />
<text x="274.0" y="164.0" font-family="Arial, Helvetica, sans-serif" font-size="20" font-weight="700" fill="#1f2933" text-anchor="start">Calibration</text>
<rect x="274.0" y="190.0" width="1052.0" height="593.0" rx="8" fill="#fbfcfd" stroke="#9aa5b1" opacity="0.9" />
<circle cx="379.2" cy="249.3" r="17" fill="#fff" stroke="#d64545" stroke-width="3" />
<text x="379.2" y="254.3" font-family="Arial, Helvetica, sans-serif" font-size="12" font-weight="700" fill="#d64545" text-anchor="middle">1</text>
<circle cx="800.0" cy="249.3" r="17" fill="#fff" stroke="#d64545" stroke-width="3" />
<text x="800.0" y="254.3" font-family="Arial, Helvetica, sans-serif" font-size="12" font-weight="700" fill="#d64545" text-anchor="middle">2</text>
<circle cx="1220.8" cy="249.3" r="17" fill="#fff" stroke="#d64545" stroke-width="3" />
<text x="1220.8" y="254.3" font-family="Arial, Helvetica, sans-serif" font-size="12" font-weight="700" fill="#d64545" text-anchor="middle">3</text>
<circle cx="379.2" cy="486.5" r="17" fill="#fff" stroke="#d64545" stroke-width="3" />
<text x="379.2" y="491.5" font-family="Arial, Helvetica, sans-serif" font-size="12" font-weight="700" fill="#d64545" text-anchor="middle">4</text>
<circle cx="800.0" cy="486.5" r="17" fill="#fff" stroke="#d64545" stroke-width="3" />
<text x="800.0" y="491.5" font-family="Arial, Helvetica, sans-serif" font-size="12" font-weight="700" fill="#d64545" text-anchor="middle">5</text>
<circle cx="1220.8" cy="486.5" r="17" fill="#fff" stroke="#d64545" stroke-width="3" />
<text x="1220.8" y="491.5" font-family="Arial, Helvetica, sans-serif" font-size="12" font-weight="700" fill="#d64545" text-anchor="middle">6</text>
<circle cx="379.2" cy="723.7" r="17" fill="#fff" stroke="#d64545" stroke-width="3" />
<text x="379.2" y="728.7" font-family="Arial, Helvetica, sans-serif" font-size="12" font-weight="700" fill="#d64545" text-anchor="middle">7</text>
<circle cx="800.0" cy="723.7" r="17" fill="#fff" stroke="#d64545" stroke-width="3" />
<text x="800.0" y="728.7" font-family="Arial, Helvetica, sans-serif" font-size="12" font-weight="700" fill="#d64545" text-anchor="middle">8</text>
<circle cx="1220.8" cy="723.7" r="17" fill="#fff" stroke="#d64545" stroke-width="3" />
<text x="1220.8" y="728.7" font-family="Arial, Helvetica, sans-serif" font-size="12" font-weight="700" fill="#d64545" text-anchor="middle">9</text>
<path d="M 499.9 499.9 L 499.2 498.4 L 496.8 492.7 L 479.7 456.5 L 462.9 423.7 L 443.6 383.1 L 423.6 341.1 L 389.0 272.5 L 384.4 242.5 L 382.2 220.0 L 382.7 204.5 L 378.5 201.0 L 367.0 203.9 L 363.9 208.6 L 363.1 213.0 L 363.2 218.2 L 363.3 231.5 L 363.1 237.1 L 362.5 241.7 L 362.4 245.9 L 342.0 240.1 L 316.7 219.3 L 299.1 204.3 L 283.1 194.4 L 270.9 186.7 L 251.6 174.5 L 258.5 180.9 L 265.6 187.0 L 278.2 197.2 L 300.7 214.9 L 310.6 222.5 L 316.0 226.5 L 320.3 229.5 L 325.1 233.1 L 330.7 237.0 L 332.9 238.5 L 331.6 237.3 L 330.0 236.1 L 332.3 237.4 L 333.7 238.2 L 334.6 238.8 L 332.7 237.3 L 325.1 232.0 L 322.5 230.0 L 328.9 234.3 L 334.2 238.1 L 332.9 237.1 L 341.6 243.4 L 351.4 250.5 L 356.1 253.8 L 360.3 256.6 L 380.5 266.4 L 387.1 269.1 L 420.2 276.0 L 444.3 281.8 L 461.8 285.8 L 560.7 295.1 L 606.1 297.8 L 641.3 301.3 L 700.5 304.6 L 783.2 310.7 L 810.3 312.6 L 856.5 316.4 L 892.0 319.8 L 902.8 320.2 L 892.6 316.8 L 883.5 314.3 L 873.4 312.1 L 856.6 306.9 L 835.6 300.3 L 833.5 297.5 L 823.9 294.7 L 815.6 292.6 L 786.1 288.7 L 789.3 290.4 L 792.6 292.0 L 790.4 294.2 L 788.7 296.3 L 825.4 300.9 L 824.5 297.5 L 835.1 297.7 L 835.2 294.7 L 819.6 289.5 L 809.2 287.3 L 806.5 286.1 L 807.0 285.4 L 798.0 284.8 L 788.8 286.0 L 791.1 284.8 L 793.5 283.8 L 789.5 283.3 L 787.5 281.0 L 788.2 279.1 L 785.0 277.5 L 782.3 276.6 L 785.5 278.0 L 788.7 279.4 L 788.9 279.6 L 791.5 279.6 L 789.7 279.9 L 794.5 281.3 L 799.6 282.1 L 798.4 280.5 L 794.1 279.3 L 783.9 268.2 L 778.5 259.8 L 774.1 252.8 L 764.2 245.9 L 750.3 232.1 L 744.3 224.4 L 745.0 220.4 L 742.7 216.3 L 741.1 213.4 L 736.8 207.6 L 731.0 204.7 L 751.8 221.0 L 769.8 235.2 L 792.0 257.8 L 805.1 266.4 L 815.7 273.3 L 864.2 279.3 L 894.4 283.7 L 987.7 288.8 L 1047.7 289.7 L 1089.1 289.5 L 1132.9 289.4 L 1185.4 288.3 L 1163.3 288.0 L 1187.3 287.3 L 1112.2 286.0 L 1032.1 284.4 L 1062.7 283.5 L 1043.2 283.2 L 992.1 283.5 L 986.7 283.2 L 994.1 282.7 L 980.0 282.0 L 1039.0 281.1 L 1082.4 280.9 L 1168.9 278.0 L 1181.9 277.5 L 1191.0 277.2 L 1191.1 277.6 L 1190.5 277.7 L 1187.0 277.7 L 1201.6 276.5 L 1220.4 276.4 L 1235.4 276.3 L 1197.0 273.4 L 1161.8 271.0 L 1142.5 270.8 L 1126.5 270.8 L 1075.5 270.3 L 1059.7 270.0 L 1081.2 271.2 L 1105.1 273.3 L 1057.4 276.2 L 874.7 276.4 L 794.6 275.5 L 733.4 274.2 L 747.0 304.7 L 775.2 355.0 L 712.2 408.2 L 668.2 448.3 L 628.3 481.0 L 576.8 518.6 L 554.7 562.4 L 553.6 567.8 L 572.5 553.7 L 567.2 548.9 L 568.0 527.4 L 560.9 520.5 L 526.0 531.2 L 497.5 539.9 L 515.3 536.8 L 555.4 523.6 L 555.9 523.0 L 525.0 513.0 L 502.0 503.4 L 459.9 487.8 L 441.8 485.1 L 479.8 469.6 L 439.3 474.4 L 377.4 479.5 L 364.2 483.3 L 363.5 475.0 L 364.6 468.1 L 351.7 463.5 L 342.8 462.0 L 337.6 465.4 L 346.6 469.4 L 340.0 475.6 L 325.8 483.1 L 315.5 484.5 L 307.5 485.6 L 309.4 488.4 L 307.1 493.8 L 303.1 496.5 L 307.3 499.4 L 298.8 499.0 L 292.0 498.5 L 327.5 491.9 L 345.8 495.1 L 463.1 449.7 L 523.4 455.8 L 621.8 460.4 L 668.2 468.0 L 704.0 474.7 L 734.1 474.6 L 750.8 481.2 L 773.2 484.4 L 782.5 490.1 L 787.5 494.8 L 771.6 481.6 L 780.0 486.9 L 783.0 489.2 L 764.2 479.6 L 764.1 478.4 L 758.6 476.8 L 754.1 476.3 L 751.1 473.8 L 748.7 474.4 L 746.6 475.1 L 743.7 472.1 L 742.5 469.6 L 741.3 472.6 L 754.7 477.0 L 770.8 485.4 L 778.8 487.4 L 779.7 491.5 L 779.0 488.6 L 778.0 485.8 L 781.4 486.6 L 781.8 487.4 L 795.8 451.3 L 795.5 455.6 L 778.9 471.8 L 776.7 475.6 L 778.0 478.3 L 775.7 481.1 L 777.8 482.1 L 781.2 480.9 L 783.6 483.6 L 778.3 487.2 L 764.0 494.1 L 720.5 496.8 L 711.8 494.0 L 714.1 497.5 L 734.3 471.6 L 749.0 456.4 L 750.5 467.5 L 760.4 438.9 L 832.9 438.3 L 840.6 447.3 L 931.9 408.3 L 1020.2 426.8 L 1066.1 441.2 L 1106.7 457.4 L 1235.3 469.1 L 1283.5 474.2 L 1323.6 478.1 L 1352.8 481.1 L 1382.2 494.0 L 1376.6 497.8 L 1399.3 498.0 L 1378.9 489.3 L 1336.3 477.9 L 1362.7 486.7 L 1325.5 470.8 L 1347.3 479.4 L 1345.0 486.8 L 1369.2 493.6 L 1381.6 497.4 L 1387.4 508.4 L 1337.1 505.9 L 1337.7 497.3 L 1322.0 486.8 L 1271.5 487.9 L 1249.2 487.8 L 1214.3 485.1 L 1174.1 481.4 L 1159.7 478.7 L 1149.3 476.5 L 1133.2 480.8 L 1132.0 485.2 L 1130.6 481.4 L 1130.7 478.1 L 1131.8 475.3 L 1170.9 481.4 L 1195.9 479.2 L 1195.4 478.1 L 1194.7 477.2 L 1194.2 475.7 L 1195.9 472.5 L 1200.0 472.5 L 1210.5 468.9 L 1219.1 465.9 L 1241.2 469.5 L 1279.4 475.6 L 1295.0 478.1 L 1307.1 480.1 L 1307.0 480.4 L 1307.8 477.8 L 1309.1 487.1 L 1306.8 488.2 L 1199.5 491.9 L 879.6 492.3 L 736.2 490.1 L 674.4 506.0 L 624.1 521.4 L 576.5 524.8 L 527.9 556.0 L 521.8 562.6 L 497.7 578.6 L 482.1 591.4 L 442.7 632.1 L 418.5 661.1 L 446.8 675.4 L 422.2 688.2 L 403.8 697.4 L 410.4 704.1 L 433.9 706.5 L 455.7 707.3 L 470.1 707.1 L 408.3 716.1 L 402.6 713.0 L 398.9 709.6 L 390.4 707.2 L 382.4 705.5 L 378.5 708.0 L 373.1 706.7 L 366.9 705.5 L 408.7 688.0 L 395.3 688.2 L 427.2 683.3 L 449.3 676.9 L 467.6 671.7 L 488.4 669.3 L 488.6 669.8 L 468.3 681.7 L 481.3 658.9 L 500.7 637.3 L 516.6 630.2 L 521.3 642.8 L 529.7 652.9 L 536.0 661.8 L 524.0 643.1 L 499.1 646.6 L 482.1 648.3 L 466.5 660.8 L 549.0 649.4 L 572.2 662.2 L 590.8 679.4 L 605.0 692.0 L 655.6 674.8 L 703.5 660.2 L 718.9 667.4 L 729.8 673.6 L 737.0 683.8 L 752.5 689.4 L 768.2 686.9 L 780.0 691.3 L 782.7 690.3 L 777.5 695.8 L 808.1 701.4 L 798.8 701.0 L 786.3 705.7 L 774.8 709.4 L 758.0 714.4 L 779.7 713.6 L 798.8 710.5 L 814.7 707.7 L 817.8 701.3 L 814.9 702.3 L 821.3 700.0 L 822.4 695.5 L 822.8 691.7 L 827.5 693.5 L 826.2 697.8 L 824.9 701.5 L 825.5 700.8 L 830.4 684.5 L 820.2 693.0 L 811.3 700.5 L 800.1 710.2 L 800.9 707.0 L 793.4 708.9 L 787.5 705.6 L 782.9 702.8 L 779.4 700.2 L 791.3 693.4 L 796.4 691.4 L 796.1 691.1 L 805.8 689.4 L 810.1 695.9 L 804.0 701.7 L 798.6 706.6 L 791.1 704.4 L 781.9 698.7 L 785.0 705.1 L 789.6 716.0 L 793.7 725.1 L 798.9 725.8 L 805.4 726.3 L 805.4 724.2 L 811.5 721.6 L 816.5 719.3 L 822.9 716.9 L 830.9 713.4 L 845.4 712.9 L 857.3 712.6 L 946.8 712.1 L 1106.4 618.7 L 1075.8 666.2 L 1045.8 707.8 L 1029.8 741.8 L 1035.4 732.4 L 1044.7 730.0 L 1060.7 726.5 L 1073.2 723.2 L 1084.0 722.5 L 1093.5 695.1 L 1092.9 687.9 L 1091.4 682.2 L 1086.9 685.3 L 1110.7 672.7 L 1124.1 677.7 L 1137.3 686.8 L 1147.7 694.9 L 1149.5 690.3 L 1171.5 703.1 L 1172.5 702.7 L 1148.8 696.5 L 1153.8 685.0 L 1154.8 673.8 L 1148.0 667.4 L 1141.9 662.3 L 1141.1 657.3 L 1125.8 656.8 L 1124.7 653.2 L 1124.0 650.5 L 1133.8 657.2 L 1130.9 656.6 L 1125.5 654.7 L 1120.0 650.8 L 1115.6 647.5 L 1122.4 664.9 L 1158.7 682.5 L 1166.0 692.3 L 1171.1 693.5" fill="none" stroke="#2563eb" stroke-width="2" stroke-opacity="0.35" />
<circle cx="499.9" cy="499.9" r="9" fill="#2563eb" fill-opacity="0.82" stroke="#fff" stroke-width="2" />
<text x="499.9" y="503.9" font-family="Arial, Helvetica, sans-serif" font-size="8" font-weight="700" fill="#fff" text-anchor="middle">1</text>
<circle cx="350.1" cy="243.7" r="9" fill="#2d60e2" fill-opacity="0.82" stroke="#fff" stroke-width="2" />
<text x="350.1" y="247.7" font-family="Arial, Helvetica, sans-serif" font-size="8" font-weight="700" fill="#fff" text-anchor="middle">2</text>
<circle cx="333.7" cy="238.2" r="9" fill="#355eda" fill-opacity="0.82" stroke="#fff" stroke-width="2" />
<text x="333.7" y="242.2" font-family="Arial, Helvetica, sans-serif" font-size="8" font-weight="700" fill="#fff" text-anchor="middle">3</text>
<circle cx="700.5" cy="304.6" r="9" fill="#3d5bd1" fill-opacity="0.82" stroke="#fff" stroke-width="2" />
<text x="700.5" y="308.6" font-family="Arial, Helvetica, sans-serif" font-size="8" font-weight="700" fill="#fff" text-anchor="middle">4</text>
<circle cx="825.4" cy="300.9" r="9" fill="#4558c9" fill-opacity="0.82" stroke="#fff" stroke-width="2" />
<text x="825.4" y="304.9" font-family="Arial, Helvetica, sans-serif" font-size="8" font-weight="700" fill="#fff" text-anchor="middle">5</text>
<circle cx="791.5" cy="279.6" r="9" fill="#4d56c0" fill-opacity="0.82" stroke="#fff" stroke-width="2" />
<text x="791.5" y="283.6" font-family="Arial, Helvetica, sans-serif" font-size="8" font-weight="700" fill="#fff" text-anchor="middle">6</text>
<circle cx="792.0" cy="257.8" r="9" fill="#5553b8" fill-opacity="0.82" stroke="#fff" stroke-width="2" />
<text x="792.0" y="261.8" font-family="Arial, Helvetica, sans-serif" font-size="8" font-weight="700" fill="#fff" text-anchor="middle">7</text>
<circle cx="1039.0" cy="281.1" r="9" fill="#5d50af" fill-opacity="0.82" stroke="#fff" stroke-width="2" />
<text x="1039.0" y="285.1" font-family="Arial, Helvetica, sans-serif" font-size="8" font-weight="700" fill="#fff" text-anchor="middle">8</text>
<circle cx="971.6" cy="277.3" r="9" fill="#654ea6" fill-opacity="0.82" stroke="#fff" stroke-width="2" />
<text x="971.6" y="281.3" font-family="Arial, Helvetica, sans-serif" font-size="8" font-weight="700" fill="#fff" text-anchor="middle">9</text>
<circle cx="555.9" cy="523.0" r="9" fill="#6d4b9e" fill-opacity="0.82" stroke="#fff" stroke-width="2" />
<text x="555.9" y="527.0" font-family="Arial, Helvetica, sans-serif" font-size="8" font-weight="700" fill="#fff" text-anchor="middle">10</text>
<circle cx="311.7" cy="490.7" r="9" fill="#754895" fill-opacity="0.82" stroke="#fff" stroke-width="2" />
<text x="311.7" y="494.7" font-family="Arial, Helvetica, sans-serif" font-size="8" font-weight="700" fill="#fff" text-anchor="middle">11</text>
<circle cx="783.0" cy="489.2" r="9" fill="#7d468d" fill-opacity="0.82" stroke="#fff" stroke-width="2" />
<text x="783.0" y="493.2" font-family="Arial, Helvetica, sans-serif" font-size="8" font-weight="700" fill="#fff" text-anchor="middle">12</text>
<circle cx="795.8" cy="451.3" r="9" fill="#844384" fill-opacity="0.82" stroke="#fff" stroke-width="2" />
<text x="795.8" y="455.3" font-family="Arial, Helvetica, sans-serif" font-size="8" font-weight="700" fill="#fff" text-anchor="middle">13</text>
<circle cx="885.6" cy="431.1" r="9" fill="#8c417c" fill-opacity="0.82" stroke="#fff" stroke-width="2" />
<text x="885.6" y="435.1" font-family="Arial, Helvetica, sans-serif" font-size="8" font-weight="700" fill="#fff" text-anchor="middle">14</text>
<circle cx="1387.4" cy="508.4" r="9" fill="#943e73" fill-opacity="0.82" stroke="#fff" stroke-width="2" />
<text x="1387.4" y="512.5" font-family="Arial, Helvetica, sans-serif" font-size="8" font-weight="700" fill="#fff" text-anchor="middle">15</text>
<circle cx="1193.5" cy="474.5" r="9" fill="#9c3b6b" fill-opacity="0.82" stroke="#fff" stroke-width="2" />
<text x="1193.5" y="478.5" font-family="Arial, Helvetica, sans-serif" font-size="8" font-weight="700" fill="#fff" text-anchor="middle">16</text>
<circle cx="521.8" cy="562.6" r="9" fill="#a43962" fill-opacity="0.82" stroke="#fff" stroke-width="2" />
<text x="521.8" y="566.6" font-family="Arial, Helvetica, sans-serif" font-size="8" font-weight="700" fill="#fff" text-anchor="middle">17</text>
<circle cx="408.7" cy="688.0" r="9" fill="#ac3659" fill-opacity="0.82" stroke="#fff" stroke-width="2" />
<text x="408.7" y="692.0" font-family="Arial, Helvetica, sans-serif" font-size="8" font-weight="700" fill="#fff" text-anchor="middle">18</text>
<circle cx="572.2" cy="662.2" r="9" fill="#b43351" fill-opacity="0.82" stroke="#fff" stroke-width="2" />
<text x="572.2" y="666.2" font-family="Arial, Helvetica, sans-serif" font-size="8" font-weight="700" fill="#fff" text-anchor="middle">19</text>
<circle cx="814.7" cy="707.7" r="9" fill="#bc3148" fill-opacity="0.82" stroke="#fff" stroke-width="2" />
<text x="814.7" y="711.7" font-family="Arial, Helvetica, sans-serif" font-size="8" font-weight="700" fill="#fff" text-anchor="middle">20</text>
<circle cx="791.3" cy="693.4" r="9" fill="#c42e40" fill-opacity="0.82" stroke="#fff" stroke-width="2" />
<text x="791.3" y="697.4" font-family="Arial, Helvetica, sans-serif" font-size="8" font-weight="700" fill="#fff" text-anchor="middle">21</text>
<circle cx="857.3" cy="712.6" r="9" fill="#cc2b37" fill-opacity="0.82" stroke="#fff" stroke-width="2" />
<text x="857.3" y="716.6" font-family="Arial, Helvetica, sans-serif" font-size="8" font-weight="700" fill="#fff" text-anchor="middle">22</text>
<circle cx="1161.9" cy="693.6" r="9" fill="#d4292f" fill-opacity="0.82" stroke="#fff" stroke-width="2" />
<text x="1161.9" y="697.6" font-family="Arial, Helvetica, sans-serif" font-size="8" font-weight="700" fill="#fff" text-anchor="middle">23</text>
<circle cx="1171.1" cy="693.5" r="9" fill="#dc2626" fill-opacity="0.82" stroke="#fff" stroke-width="2" />
<text x="1171.1" y="697.5" font-family="Arial, Helvetica, sans-serif" font-size="8" font-weight="700" fill="#fff" text-anchor="middle">24</text>
<circle cx="499.9" cy="499.9" r="13" fill="none" stroke="#16a34a" stroke-width="4" />
<text x="515.9" y="487.9" font-family="Arial, Helvetica, sans-serif" font-size="11" font-weight="700" fill="#166534" text-anchor="start">START</text>
<circle cx="1171.1" cy="693.5" r="13" fill="none" stroke="#dc2626" stroke-width="4" />
<text x="1187.1" y="681.5" font-family="Arial, Helvetica, sans-serif" font-size="11" font-weight="700" fill="#991b1b" text-anchor="start">END</text>
<rect x="20.0" y="116.0" width="760.0" height="34.0" rx="6" fill="#ffffff" stroke="#cbd2d9" opacity="0.88" />
<text x="34.0" y="139.0" font-family="Arial, Helvetica, sans-serif" font-size="14" font-weight="400" fill="#1f2933" text-anchor="start">samples=552 duration=10.7s offscreen=0.0% x_sd=301.4 y_sd=172.8</text>
</svg>