<svg xmlns="http://www.w3.org/2000/svg" viewBox="0 0 1600 865" width="1600" height="865">
<rect x="0.0" y="0.0" width="1600.0" height="865.0" rx="0" fill="#f6f7f9" stroke="none" opacity="1" />
<text x="250.0" y="52.0" font-family="Arial, Helvetica, sans-serif" font-size="24" font-weight="700" fill="#1f2933" text-anchor="start">Reading Gaze Pilot</text>
<text x="250.0" y="78.0" font-family="Arial, Helvetica, sans-serif" font-size="14" font-weight="400" fill="#52606d" text-anchor="start">Quiz</text>
<line x1="250.0" y1="100" x2="1350.0" y2="100" stroke="#d9dee7" />
<rect x="1160.0" y="42.0" width="80.0" height="34.0" rx="6" fill="#23395d" stroke="#23395d" opacity="1" />
<text x="1200.0" y="63.0" font-family="Arial, Helvetica, sans-serif" font-size="14" font-weight="400" fill="#fff" text-anchor="middle">Start</text>
<rect x="1250.0" y="42.0" width="100.0" height="34.0" rx="6" fill="#7b8794" stroke="#7b8794" opacity="0.45" />
<text x="1300.0" y="63.0" font-family="Arial, Helvetica, sans-serif" font-size="14" font-weight="400" fill="#fff" text-anchor="middle">Export CSV</text>
<text x="250.0" y="847.0" font-family="Arial, Helvetica, sans-serif" font-size="13" font-weight="400" fill="#52606d" text-anchor="start">quiz / quiz</text>
<rect x="250.0" y="124.0" width="1100.0" height="683.0" rx="8" fill="#fff" stroke="#d9dee7" opacity="1" />
<text x="274.0" y="166.0" font-family="Arial, Helvetica, sans-serif" font-size="20" font-weight="700" fill="#1f2933" text-anchor="start">Comprehension</text>
<rect x="274.0" y="190.0" width="680.0" height="68.0" rx="6" fill="#fff" stroke="#d9dee7" opacity="1" />
<text x="292.0" y="214.0" font-family="Arial, Helvetica, sans-serif" font-size="15" font-weight="400" fill="#323f4b" text-anchor="start">What is the safer goal for the pilot?</text>
<rect x="292.0" y="228.0" width="360.0" height="28.0" rx="6" fill="#fff" stroke="#cbd2d9" opacity="1" />
<rect x="274.0" y="276.0" width="680.0" height="68.0" rx="6" fill="#fff" stroke="#d9dee7" opacity="1" />
<text x="292.0" y="300.0" font-family="Arial, Helvetica, sans-serif" font-size="15" font-weight="400" fill="#323f4b" text-anchor="start">Why should the system fail softly?</text>
<rect x="292.0" y="314.0" width="360.0" height="28.0" rx="6" fill="#fff" stroke="#cbd2d9" opacity="1" />
<rect x="274.0" y="362.0" width="680.0" height="68.0" rx="6" fill="#fff" stroke="#d9dee7" opacity="1" />
<text x="292.0" y="386.0" font-family="Arial, Helvetica, sans-serif" font-size="15" font-weight="400" fill="#323f4b" text-anchor="start">What data does this MVP export?</text>
<rect x="292.0" y="400.0" width="360.0" height="28.0" rx="6" fill="#fff" stroke="#cbd2d9" opacity="1" />
<path d="M 278.6 466.8 L 489.9 381.4 L 499.5 336.2 L 486.9 320.8 L 507.5 285.3 L 606.7 267.8 L 482.0 288.2 L 436.7 259.0 L 343.0 270.3 L 368.3 274.1 L 379.0 268.9 L 322.7 210.8 L 359.1 209.0 L 354.3 204.3 L 285.7 255.7 L 297.2 242.8 L 254.4 287.1 L 292.9 220.6 L 185.2 265.9 L 283.7 212.0 L 378.6 163.3 L 328.9 234.8 L 333.4 270.9 L 334.5 260.0 L -60.0 320.6 L 319.8 257.3 L 436.8 241.0 L 266.8 321.7 L 285.3 298.4 L 282.8 186.7 L 313.4 152.0 L 280.6 202.4 L 415.1 179.1 L 399.9 239.2 L 346.1 285.2 L 308.1 259.1 L 301.8 242.9 L 248.7 279.3 L 357.5 190.4 L 537.9 95.7 L 495.2 198.0 L 402.2 227.1 L 343.8 283.2 L 361.1 224.3 L 355.5 223.4 L 402.9 243.0 L 518.9 211.4 L 448.7 210.6 L 352.3 243.1 L 477.2 197.0 L 394.7 258.5 L 494.0 238.0 L 415.5 243.4 L 383.2 231.1 L 435.1 233.8 L 342.9 304.1 L 365.7 289.6 L 304.7 308.7 L 308.2 320.1 L 295.8 328.8 L 348.4 306.5 L 432.5 259.6 L 426.1 262.2 L 558.5 210.3 L 587.8 216.4 L 383.0 295.5 L 481.3 244.1 L 498.1 231.0 L 490.4 264.4 L 472.2 240.4 L 490.6 208.6 L 532.0 195.2 L 523.7 203.2 L 544.7 174.2 L 449.0 261.7 L 453.4 300.5 L 398.4 307.2 L 515.2 224.6 L 432.2 289.8 L 330.6 349.0 L 221.7 347.3 L 235.2 336.7 L 300.0 354.9 L 235.1 387.4 L 208.4 442.8 L 218.3 398.4 L 250.5 398.8 L 209.6 390.0 L 247.0 355.7 L 269.5 370.4 L 259.3 406.3 L 277.5 424.8 L 129.8 409.4 L 338.7 330.1 L 263.0 341.1 L 351.4 332.5 L 337.3 337.8 L 174.5 414.4 L 150.0 427.2 L 178.2 404.0 L 301.2 336.6 L 377.4 330.2 L 223.0 376.9 L 177.7 414.7 L 211.2 396.0 L 177.8 416.4 L 216.1 389.6 L 349.7 329.4 L 271.5 353.5 L 148.0 396.5 L 137.2 433.6 L 206.8 419.8 L 279.3 385.3 L 286.5 304.2 L 333.2 271.2 L 332.7 306.5 L 204.9 381.4 L 171.7 393.8 L 182.4 400.5 L 254.9 388.8 L 148.1 403.7 L 379.7 313.9 L 409.2 303.4 L 233.0 324.4 L 334.5 320.8 L 448.7 297.3 L 477.7 277.9 L 683.4 216.8 L 703.8 227.3 L 581.5 327.9 L 532.9 392.5 L 317.8 483.2 L 340.1 580.6 L 162.6 644.8 L 372.6 486.9 L 314.0 477.5 L 346.2 463.3 L 378.3 464.7 L 235.6 554.6 L 772.9 272.4 L 1135.8 104.6 L 982.5 156.6 L 851.3 244.3 L 765.3 381.5 L 683.4 327.8 L 573.4 299.3 L 514.6 259.3 L 483.0 268.7 L 551.9 232.2 L 551.8 234.9 L 649.5 217.8 L 487.6 264.4 L 539.5 292.1 L 402.4 360.1 L 431.6 356.1 L 429.9 339.7 L 244.5 367.9 L 262.4 363.9 L 253.9 381.1 L 291.3 381.0 L 152.9 433.3 L 255.9 419.6 L 261.1 348.3 L 309.8 295.6 L 651.6 222.7 L 1334.1 142.6 L 1513.3 117.0 L 1722.9 67.3 L 1865.7 28.6 L 1858.6 73.9 L 1812.7 67.8 L 1769.3 77.1 L 1615.3 151.6 L 1402.8 147.5 L 1164.1 144.8 L 1094.7 138.7 L 1025.3 222.2 L 1116.3 292.6 L 703.0 383.2 L 199.7 445.0 L 125.7 447.6 L 420.3 329.1 L 619.7 220.8 L 834.5 147.2 L 491.3 199.1 L 425.6 247.2 L 269.0 322.5 L -307.1 548.6 L -108.0 500.2 L 177.6 313.6 L 221.9 254.2 L 252.3 369.6 L 434.1 284.3 L 336.9 236.1 L 286.1 308.7 L 303.4 320.7 L 385.5 331.2 L 338.9 342.7 L 307.6 369.8 L 380.2 386.1 L 335.1 335.0 L 362.8 263.2 L 387.8 277.4 L 435.9 350.8 L 11.4 440.1 L 161.3 397.3 L 449.9 309.1 L 400.4 277.0 L 284.1 311.0 L 306.2 321.1 L 89.9 438.3 L -6.8 426.5 L 485.2 322.4 L 527.2 268.8 L 385.8 306.5 L 377.8 264.9 L 564.2 249.2 L 432.6 306.5 L 334.5 296.6 L 544.8 314.0 L 519.0 356.8 L 497.1 350.9 L 634.7 295.6 L 606.2 288.1 L 637.8 282.3 L 355.5 326.3 L 437.2 312.2 L 550.6 288.1 L 558.1 265.1 L 665.8 283.1 L 570.2 336.4 L 342.4 289.6 L 221.2 298.1 L 165.0 284.8 L 265.9 290.4 L 377.3 384.9 L 329.8 382.8 L 330.1 351.0 L 422.8 317.6 L 387.8 335.1 L 335.7 353.0 L 309.0 306.3 L 412.1 357.6 L 437.0 309.5 L 354.7 320.1 L 221.1 363.9 L 109.6 264.6 L -29.3 361.8 L -52.1 392.6 L 61.8 318.4 L 114.0 356.6 L 205.1 326.4 L 156.4 353.4 L 178.2 385.5 L 149.8 396.8 L -1.8 439.2 L -139.9 452.6 L -75.6 358.2 L -73.0 415.1 L -62.9 345.6 L -31.8 334.7 L -40.6 393.1 L -47.2 477.0 L 77.6 378.9 L 96.6 349.8 L 162.4 364.7 L 114.6 414.9 L 85.1 437.8 L 11.9 473.6 L 25.1 404.0 L 11.2 395.2 L 78.4 384.6 L -49.5 505.1 L 17.0 504.4 L 34.4 437.8 L 130.8 392.7 L 153.6 389.0 L 180.3 391.1 L 143.8 405.0 L -57.0 406.2 L -54.2 441.3 L 26.8 463.0 L 172.0 406.4 L 211.5 372.9 L 193.2 349.7 L 76.4 369.5 L 130.9 404.0 L 116.5 449.6 L 120.4 454.1 L 309.2 407.6 L 331.9 375.0 L 435.2 325.9 L 512.4 276.1 L 490.4 260.0 L 314.4 313.1 L 252.1 287.8 L 252.7 275.0 L 216.9 255.3 L 329.3 296.3 L 405.8 338.2 L 205.0 358.1 L 224.2 379.1 L 336.5 351.1 L 445.4 288.4 L 376.5 326.0 L 175.6 338.2 L 61.0 347.5 L 340.8 340.6 L 376.2 318.5 L 310.5 338.3 L 241.4 348.9 L 150.0 331.5 L -492.9 452.7 L -192.9 467.4 L -375.8 463.2 L -919.1 630.7 L 35.3 458.0 L 520.8 327.2 L 604.9 336.1 L 591.9 289.5 L 521.9 269.0 L 532.9 303.5 L 423.3 385.7 L 404.1 347.8 L 526.2 309.6 L 424.4 354.0 L 317.2 409.2 L 331.4 383.4 L 288.9 376.5 L 345.1 403.6 L 264.3 442.0 L 164.1 448.3 L 381.7 353.2 L 504.6 356.7 L 363.2 353.1 L 249.0 388.7 L 218.6 367.1 L 271.7 422.8 L 233.7 425.2 L 326.9 386.5 L 248.0 401.0 L 266.0 407.4 L 298.8 387.5 L 236.4 417.7 L 201.0 481.2 L 312.6 393.0 L 405.1 357.8 L 370.0 397.4 L 252.6 387.3 L 305.4 406.4 L 349.4 406.6 L 331.4 395.0 L 358.4 360.8 L 442.8 320.8 L 280.2 413.2 L 182.9 431.2 L 313.3 417.3 L 452.9 420.5 L 412.0 410.1 L 308.1 411.5 L 319.1 396.3 L 437.2 375.0 L 502.1 338.3 L 501.5 348.8 L 514.3 341.2 L 457.9 375.6 L 406.7 441.4 L 419.2 438.1 L 469.7 419.9 L 451.5 429.8 L 334.1 397.0 L 417.4 315.7 L 560.6 307.3 L 190.2 422.1 L -463.5 550.0 L -230.9 615.8 L 253.3 452.6 L 331.7 417.2 L 253.5 431.7 L 141.7 464.9 L 265.6 401.8 L 155.1 417.6 L 141.5 347.4 L 139.7 369.1 L 155.7 333.4 L 183.0 394.3 L 260.3 434.1 L 309.0 451.6 L 234.9 441.7 L 252.9 421.0 L 215.1 414.5 L 213.8 383.9 L 228.8 411.8 L 319.6 425.5 L 393.4 391.8 L 255.5 419.9 L 126.6 429.4 L 98.7 427.9 L 161.6 412.3 L 120.2 429.1 L 182.5 399.9 L 200.2 405.3 L 151.9 404.6 L 105.5 466.5 L 157.2 436.6 L 210.5 377.4 L 256.2 395.6 L 142.0 449.8 L -12.0 418.4 L 61.8 385.1 L 38.0 417.8 L 157.9 437.6 L 164.5 434.8 L 314.3 405.6 L 379.1 377.0 L 314.0 410.9 L 204.2 438.9 L -16.0 537.8 L 6.7 492.9 L 80.9 523.3 L 176.5 526.1 L 190.8 497.1 L 155.8 519.2 L 158.6 496.2 L 238.0 466.4 L 198.1 437.6 L 77.1 531.7 L -25.9 570.4 L 36.1 575.5 L 42.7 598.3 L -2.0 611.8 L 42.1 572.5 L 116.2 541.1 L 170.3 549.0 L 179.2 536.2 L 126.8 495.5 L 223.0 520.2 L 220.6 548.5 L 146.9 518.9 L 448.1 443.5 L 543.5 381.5 L 452.4 401.2 L 342.4 491.9 L 551.4 439.4 L 570.2 434.4 L 449.4 481.4 L 392.4 429.8 L 365.0 460.0 L 481.4 402.0 L 212.4 354.3" fill="none" stroke="#2563eb" stroke-width="2" stroke-opacity="0.35" />
<circle cx="278.6" cy="466.8" r="9" fill="#2563eb" fill-opacity="0.82" stroke="#fff" stroke-width="2" />
<text x="278.6" y="470.8" font-family="Arial, Helvetica, sans-serif" font-size="8" font-weight="700" fill="#fff" text-anchor="middle">1</text>
<circle cx="322.2" cy="189.6" r="9" fill="#2d60e2" fill-opacity="0.82" stroke="#fff" stroke-width="2" />
<text x="322.2" y="193.6" font-family="Arial, Helvetica, sans-serif" font-size="8" font-weight="700" fill="#fff" text-anchor="middle">2</text>
<circle cx="550.3" cy="104.7" r="9" fill="#355eda" fill-opacity="0.82" stroke="#fff" stroke-width="2" />
<text x="550.3" y="108.7" font-family="Arial, Helvetica, sans-serif" font-size="8" font-weight="700" fill="#fff" text-anchor="middle">3</text>
<circle cx="302.9" cy="342.9" r="9" fill="#3d5bd1" fill-opacity="0.82" stroke="#fff" stroke-width="2" />
<text x="302.9" y="346.9" font-family="Arial, Helvetica, sans-serif" font-size="8" font-weight="700" fill="#fff" text-anchor="middle">4</text>
<circle cx="432.2" cy="289.8" r="9" fill="#4558c9" fill-opacity="0.82" stroke="#fff" stroke-width="2" />
<text x="432.2" y="293.8" font-family="Arial, Helvetica, sans-serif" font-size="8" font-weight="700" fill="#fff" text-anchor="middle">5</text>
<circle cx="221.8" cy="411.3" r="9" fill="#4d56c0" fill-opacity="0.82" stroke="#fff" stroke-width="2" />
<text x="221.8" y="415.3" font-family="Arial, Helvetica, sans-serif" font-size="8" font-weight="700" fill="#fff" text-anchor="middle">6</text>
<circle cx="172.0" cy="395.1" r="9" fill="#5553b8" fill-opacity="0.82" stroke="#fff" stroke-width="2" />
<text x="172.0" y="399.1" font-family="Arial, Helvetica, sans-serif" font-size="8" font-weight="700" fill="#fff" text-anchor="middle">7</text>
<circle cx="368.6" cy="458.6" r="9" fill="#5d50af" fill-opacity="0.82" stroke="#fff" stroke-width="2" />
<text x="368.6" y="462.6" font-family="Arial, Helvetica, sans-serif" font-size="8" font-weight="700" fill="#fff" text-anchor="middle">8</text>
<circle cx="281.8" cy="348.5" r="9" fill="#654ea6" fill-opacity="0.82" stroke="#fff" stroke-width="2" />
<text x="281.8" y="352.5" font-family="Arial, Helvetica, sans-serif" font-size="8" font-weight="700" fill="#fff" text-anchor="middle">9</text>
<circle cx="1059.9" cy="182.0" r="9" fill="#6d4b9e" fill-opacity="0.82" stroke="#fff" stroke-width="2" />
<text x="1059.9" y="186.0" font-family="Arial, Helvetica, sans-serif" font-size="8" font-weight="700" fill="#fff" text-anchor="middle">10</text>
<circle cx="295.4" cy="317.4" r="9" fill="#754895" fill-opacity="0.82" stroke="#fff" stroke-width="2" />
<text x="295.4" y="321.4" font-family="Arial, Helvetica, sans-serif" font-size="8" font-weight="700" fill="#fff" text-anchor="middle">11</text>
<circle cx="358.3" cy="276.7" r="9" fill="#7d468d" fill-opacity="0.82" stroke="#fff" stroke-width="2" />
<text x="358.3" y="280.7" font-family="Arial, Helvetica, sans-serif" font-size="8" font-weight="700" fill="#fff" text-anchor="middle">12</text>
<circle cx="276.6" cy="322.5" r="9" fill="#844384" fill-opacity="0.82" stroke="#fff" stroke-width="2" />
<text x="276.6" y="326.5" font-family="Arial, Helvetica, sans-serif" font-size="8" font-weight="700" fill="#fff" text-anchor="middle">13</text>
<circle cx="163.1" cy="401.2" r="9" fill="#8c417c" fill-opacity="0.82" stroke="#fff" stroke-width="2" />
<text x="163.1" y="405.2" font-family="Arial, Helvetica, sans-serif" font-size="8" font-weight="700" fill="#fff" text-anchor="middle">14</text>
<circle cx="28.3" cy="477.4" r="9" fill="#943e73" fill-opacity="0.82" stroke="#fff" stroke-width="2" />
<text x="28.3" y="481.4" font-family="Arial, Helvetica, sans-serif" font-size="8" font-weight="700" fill="#fff" text-anchor="middle">15</text>
<circle cx="496.5" cy="258.4" r="9" fill="#9c3b6b" fill-opacity="0.82" stroke="#fff" stroke-width="2" />
<text x="496.5" y="262.4" font-family="Arial, Helvetica, sans-serif" font-size="8" font-weight="700" fill="#fff" text-anchor="middle">16</text>
<circle cx="-479.7" cy="495.4" r="9" fill="#a43962" fill-opacity="0.82" stroke="#fff" stroke-width="2" />
<text x="-479.7" y="499.4" font-family="Arial, Helvetica, sans-serif" font-size="8" font-weight="700" fill="#fff" text-anchor="middle">17</text>
<circle cx="371.9" cy="372.5" r="9" fill="#ac3659" fill-opacity="0.82" stroke="#fff" stroke-width="2" />
<text x="371.9" y="376.5" font-family="Arial, Helvetica, sans-serif" font-size="8" font-weight="700" fill="#fff" text-anchor="middle">18</text>
<circle cx="341.1" cy="407.1" r="9" fill="#b43351" fill-opacity="0.82" stroke="#fff" stroke-width="2" />
<text x="341.1" y="411.1" font-family="Arial, Helvetica, sans-serif" font-size="8" font-weight="700" fill="#fff" text-anchor="middle">19</text>
<circle cx="417.4" cy="315.7" r="9" fill="#bc3148" fill-opacity="0.82" stroke="#fff" stroke-width="2" />
<text x="417.4" y="319.7" font-family="Arial, Helvetica, sans-serif" font-size="8" font-weight="700" fill="#fff" text-anchor="middle">20</text>
<circle cx="246.9" cy="373.5" r="9" fill="#c42e40" fill-opacity="0.82" stroke="#fff" stroke-width="2" />
<text x="246.9" y="377.5" font-family="Arial, Helvetica, sans-serif" font-size="8" font-weight="700" fill="#fff" text-anchor="middle">21</text>
<circle cx="76.7" cy="409.9" r="9" fill="#cc2b37" fill-opacity="0.82" stroke="#fff" stroke-width="2" />
<text x="76.7" y="413.9" font-family="Arial, Helvetica, sans-serif" font-size="8" font-weight="700" fill="#fff" text-anchor="middle">22</text>
<circle cx="16.9" cy="591.5" r="9" fill="#d4292f" fill-opacity="0.82" stroke="#fff" stroke-width="2" />
<text x="16.9" y="595.5" font-family="Arial, Helvetica, sans-serif" font-size="8" font-weight="700" fill="#fff" text-anchor="middle">23</text>
<circle cx="212.4" cy="354.3" r="9" fill="#dc2626" fill-opacity="0.82" stroke="#fff" stroke-width="2" />
<text x="212.4" y="358.3" font-family="Arial, Helvetica, sans-serif" font-size="8" font-weight="700" fill="#fff" text-anchor="middle">24</text>
<circle cx="278.6" cy="466.8" r="13" fill="none" stroke="#16a34a" stroke-width="4" />
<text x="294.6" y="454.8" font-family="Arial, Helvetica, sans-serif" font-size="11" font-weight="700" fill="#166534" text-anchor="start">START</text>
<circle cx="212.4" cy="354.3" r="13" fill="none" stroke="#dc2626" stroke-width="4" />
<text x="228.4" y="342.3" font-family="Arial, Helvetica, sans-serif" font-size="11" font-weight="700" fill="#991b1b" text-anchor="start">END</text>
<rect x="20.0" y="116.0" width="760.0" height="34.0" rx="6" fill="#ffffff" stroke="#cbd2d9" opacity="0.88" />
<text x="34.0" y="139.0" font-family="Arial, Helvetica, sans-serif" font-size="14" font-weight="400" fill="#1f2933" text-anchor="start">samples=2389 duration=48.6s offscreen=7.5% x_sd=285.1 y_sd=98.6</text>
</svg>