<svg xmlns="http://www.w3.org/2000/svg" viewBox="0 0 1600 865" width="1600" height="865">
<rect x="0.0" y="0.0" width="1600.0" height="865.0" rx="0" fill="#f6f7f9" stroke="none" opacity="1" />
<text x="250.0" y="52.0" font-family="Arial, Helvetica, sans-serif" font-size="24" font-weight="700" fill="#1f2933" text-anchor="start">Reading Gaze Pilot</text>
<text x="250.0" y="78.0" font-family="Arial, Helvetica, sans-serif" font-size="14" font-weight="400" fill="#52606d" text-anchor="start">Reading</text>
<line x1="250.0" y1="100" x2="1350.0" y2="100" stroke="#d9dee7" />
<rect x="1160.0" y="42.0" width="80.0" height="34.0" rx="6" fill="#23395d" stroke="#23395d" opacity="1" />
<text x="1200.0" y="63.0" font-family="Arial, Helvetica, sans-serif" font-size="14" font-weight="400" fill="#fff" text-anchor="middle">Start</text>
<rect x="1250.0" y="42.0" width="100.0" height="34.0" rx="6" fill="#7b8794" stroke="#7b8794" opacity="0.45" />
<text x="1300.0" y="63.0" font-family="Arial, Helvetica, sans-serif" font-size="14" font-weight="400" fill="#fff" text-anchor="middle">Export CSV</text>
<text x="250.0" y="847.0" font-family="Arial, Helvetica, sans-serif" font-size="13" font-weight="400" fill="#52606d" text-anchor="start">reading / reading_trial_1</text>
<rect x="250.0" y="124.0" width="1100.0" height="683.0" rx="8" fill="#fff" stroke="#d9dee7" opacity="1" />
<text x="274.0" y="160.0" font-family="Arial, Helvetica, sans-serif" font-size="16" font-weight="400" fill="#323f4b" text-anchor="start">Passage 1 / 3</text>
<rect x="1230.0" y="142.0" width="96.0" height="36.0" rx="6" fill="#23395d" stroke="#23395d" opacity="1" />
<text x="1278.0" y="165.0" font-family="Arial, Helvetica, sans-serif" font-size="14" font-weight="400" fill="#fff" text-anchor="middle">Continue</text>
<text x="420.0" y="234.0" font-family="Arial, Helvetica, sans-serif" font-size="20" font-weight="400" fill="#1f2933" text-anchor="start">Adaptive learning systems adjust content, pacing, or support based on learner</text>
<text x="420.0" y="272.0" font-family="Arial, Helvetica, sans-serif" font-size="20" font-weight="400" fill="#1f2933" text-anchor="start">signals. In inclusive education, the goal is not to label students, but to</text>
<text x="420.0" y="310.0" font-family="Arial, Helvetica, sans-serif" font-size="20" font-weight="400" fill="#1f2933" text-anchor="start">notice when a learner may need a clearer explanation, a slower pace, or a</text>
<text x="420.0" y="348.0" font-family="Arial, Helvetica, sans-serif" font-size="20" font-weight="400" fill="#1f2933" text-anchor="start">different presentation format.</text>
<path d="M 1184.4 704.6 L 1183.7 709.5 L 1157.8 703.5 L 1154.5 709.0 L 1164.7 730.7 L 1019.5 722.1 L 466.8 771.7 L 287.9 690.2 L 282.1 456.6 L 295.7 291.2 L 312.0 211.8 L 454.0 209.1 L 510.9 232.9 L 522.3 285.7 L 264.3 493.2 L 299.4 526.4 L 423.3 397.3 L 580.0 339.6 L 628.1 297.6 L 662.8 319.7 L 670.8 298.0 L 661.9 329.6 L 673.2 356.2 L 645.1 390.3 L 643.0 362.9 L 771.5 419.6 L 1113.8 583.1 L 1265.0 691.0 L 1239.2 719.1 L 1156.8 696.3 L 1158.5 714.8 L 1124.7 648.0 L 1021.6 557.9 L 970.3 555.0 L 754.9 440.6 L 574.0 352.3 L 469.9 301.1 L 537.7 320.5 L 572.6 324.2 L 685.8 362.4 L 640.5 320.3 L 428.2 225.8 L 439.9 253.9 L 440.2 276.7 L 423.7 256.8 L 410.3 237.9 L 424.2 225.3 L 450.7 219.7 L 452.7 211.8 L 482.8 197.4 L 483.9 202.9 L 493.4 226.2 L 494.4 210.6 L 512.8 180.8 L 486.8 207.8 L 480.9 214.7 L 494.0 216.4 L 495.6 236.0 L 490.9 224.5 L 493.0 252.5 L 575.1 241.3 L 590.6 237.5 L 629.5 254.7 L 651.7 261.9 L 659.5 255.6 L 623.5 263.2 L 641.6 268.4 L 658.4 309.1 L 656.0 302.2 L 683.1 291.3 L 760.4 276.5 L 746.8 278.1 L 737.5 318.3 L 742.5 314.5 L 798.1 342.3 L 799.0 351.0 L 776.4 312.6 L 678.1 304.5 L 671.4 239.6 L 679.7 217.8 L 668.7 185.2 L 643.2 193.1 L 714.7 207.6 L 700.3 182.0 L 674.5 189.6 L 677.9 207.9 L 724.4 230.4 L 783.2 242.0 L 780.7 235.3 L 814.2 265.6 L 791.9 245.2 L 779.0 241.1 L 789.0 246.1 L 737.3 208.7 L 761.1 223.0 L 766.9 219.7 L 774.6 196.6 L 767.0 191.6 L 778.6 230.8 L 749.6 251.9 L 726.9 255.5 L 728.8 276.4 L 729.0 264.3 L 717.5 261.7 L 730.6 202.4 L 748.3 172.3 L 718.6 156.6 L 735.6 146.9 L 725.2 145.4 L 770.6 209.9 L 806.1 237.1 L 838.1 238.9 L 850.4 209.2 L 831.6 187.6 L 585.9 363.0 L 424.7 505.7 L 668.1 343.6 L 893.2 286.3 L 944.1 259.7 L 959.2 252.9 L 957.7 248.1 L 938.1 263.6 L 934.5 259.5 L 900.8 264.6 L 863.9 251.9 L 874.4 234.3 L 899.7 207.9 L 901.5 203.6 L 891.8 218.7 L 884.3 236.1 L 868.7 250.7 L 854.3 217.0 L 888.8 213.4 L 930.4 243.5 L 950.7 243.4 L 957.2 248.6 L 963.7 252.5 L 970.3 224.5 L 997.9 227.5 L 983.6 260.1 L 981.6 286.9 L 985.9 274.2 L 995.5 270.8 L 993.8 264.8 L 1014.2 249.3 L 1001.7 266.4 L 996.7 281.6 L 997.4 201.4 L 989.1 182.1 L 1027.6 205.5 L 1049.8 208.0 L 1075.6 236.1 L 978.5 264.9 L 726.4 331.5 L 564.8 350.7 L 530.1 359.1 L 537.3 353.6 L 583.3 343.6 L 765.6 286.7 L 871.5 269.5 L 899.1 262.6 L 912.4 239.6 L 791.5 229.7 L 740.5 244.0 L 653.7 242.3 L 699.6 239.0 L 838.1 220.1 L 867.0 224.4 L 815.5 213.5 L 693.8 236.8 L 538.8 230.9 L 513.5 234.7 L 459.2 226.9 L 474.4 225.7 L 536.1 247.6 L 539.4 280.9 L 510.3 299.4 L 500.0 263.3 L 499.0 231.5 L 498.0 233.2 L 495.7 255.1 L 465.8 267.3 L 153.9 374.9 L 207.1 384.1 L 448.5 337.0 L 570.4 318.3 L 592.4 274.1 L 596.2 264.9 L 602.2 268.6 L 580.1 244.7 L 538.9 307.0 L 511.3 363.0 L 494.9 379.4 L 504.3 384.3 L 498.8 344.6 L 496.4 289.9 L 502.9 244.1 L 513.5 256.4 L 543.9 293.8 L 550.8 307.2 L 539.5 283.3 L 531.7 275.4 L 552.6 275.9 L 574.9 275.8 L 570.9 276.0 L 568.0 299.1 L 563.9 286.0 L 577.3 353.2 L 594.7 301.4 L 636.1 270.1 L 670.2 238.5 L 694.8 239.2 L 633.4 245.1 L 629.8 275.4 L 643.3 291.9 L 665.6 322.2 L 653.7 316.8 L 658.9 290.1 L 678.5 277.5 L 684.1 272.6 L 664.5 229.5 L 695.2 265.2 L 641.3 254.9 L 611.5 292.3 L 490.2 356.8 L 580.1 367.2 L 637.3 326.3 L 687.9 293.7 L 711.2 257.3 L 722.6 250.3 L 718.3 246.9 L 712.2 263.5 L 706.0 304.6 L 692.9 251.5 L 654.2 263.5 L 649.8 289.4 L 659.9 302.9 L 668.2 270.4 L 699.0 261.4 L 682.6 274.1 L 702.5 267.4 L 719.5 260.4 L 726.2 258.9 L 770.5 291.3 L 800.1 288.6 L 798.4 260.8 L 782.5 250.1 L 752.9 208.9 L 696.8 212.3 L 714.8 208.0 L 722.8 219.2 L 779.5 271.6 L 786.3 263.0 L 783.4 270.6 L 794.8 264.6 L 768.5 225.8 L 754.7 256.8 L 798.7 256.2 L 835.0 314.6 L 867.9 374.0 L 865.4 377.7 L 848.6 330.2 L 879.8 351.8 L 871.0 303.5 L 859.4 255.9 L 905.3 256.6 L 896.7 279.3 L 918.4 284.5 L 754.0 368.0 L 359.2 665.0 L 574.1 490.3 L 828.1 280.5 L 958.8 224.6 L 833.6 340.7 L 871.0 372.8 L 897.1 328.2 L 935.6 283.0 L 931.8 256.7 L 904.2 250.4 L 864.5 253.8 L 855.5 239.6 L 851.4 262.6 L 906.3 261.3 L 939.6 253.1 L 914.5 262.4 L 943.5 291.7 L 984.4 305.1 L 948.5 283.9 L 930.5 277.9 L 960.5 236.5 L 981.2 239.2 L 996.1 243.9 L 987.1 276.4 L 926.2 237.2 L 989.5 258.2 L 992.3 264.8 L 999.3 319.9 L 738.5 492.1 L 874.6 449.6 L 1017.2 346.4 L 1087.3 302.7 L 1172.5 288.3 L 1183.8 226.6 L 1169.8 217.6 L 1112.9 243.3 L 1089.3 260.0 L 1067.7 245.1 L 1068.3 239.2 L 1116.7 306.0 L 1119.2 304.8 L 1127.1 293.4 L 963.3 288.9 L 856.6 346.2 L 824.4 336.2 L 811.3 344.0 L 792.9 361.5 L 948.2 275.7 L 950.7 247.2 L 851.4 205.5 L 780.7 261.3 L 658.3 320.6 L 534.8 326.3 L 424.6 319.4 L 422.6 291.4 L 529.0 257.2 L 585.9 238.2 L 656.8 217.7 L 658.2 296.2 L 672.1 345.9 L 572.8 317.1 L 635.9 320.3 L 640.1 320.1 L 635.5 349.7 L 611.2 349.6 L 565.1 290.8 L 563.2 254.8 L 558.5 333.8 L 567.0 420.0 L 538.9 419.2 L 557.1 395.3 L 592.7 431.2 L 593.2 356.1 L 572.5 231.0 L 574.5 203.0 L 554.5 231.2 L 428.2 354.6 L 505.9 351.6 L 547.8 338.0 L 598.6 269.4 L 624.2 286.7 L 654.3 308.9 L 652.0 307.9 L 649.7 297.5 L 651.2 279.1 L 675.4 336.9 L 639.7 323.5 L 586.3 351.2 L 677.3 367.8 L 724.7 389.1 L 743.6 331.2 L 768.4 306.2 L 827.0 305.5 L 798.3 280.8 L 723.1 265.5 L 637.0 231.4 L 630.4 256.0 L 625.5 263.9 L 686.6 357.7 L 694.8 360.7 L 637.5 360.1 L 651.6 303.4 L 709.2 321.9 L 742.0 333.1 L 773.3 345.3 L 790.4 327.4 L 792.4 308.6 L 783.6 295.4 L 768.6 307.8 L 730.6 284.2 L 756.6 298.0 L 816.1 326.7 L 867.5 309.2 L 876.1 268.1 L 862.6 310.6 L 874.2 321.6 L 855.6 306.2 L 847.3 298.9 L 876.4 333.7 L 860.8 305.4 L 867.3 301.0 L 867.0 300.2 L 829.0 283.7 L 768.6 234.3 L 790.1 241.3 L 828.0 286.8 L 477.3 425.9 L 559.3 385.9 L 775.0 361.2 L 902.6 334.9 L 974.5 303.7 L 972.3 305.4 L 959.1 298.4 L 926.1 252.2 L 927.6 270.5 L 900.9 232.6 L 910.0 268.9 L 930.1 243.4 L 961.7 246.9 L 970.9 296.0 L 915.1 315.3 L 922.1 362.6 L 912.7 355.0 L 968.2 365.4 L 975.4 370.1 L 1004.0 395.3 L 1008.6 344.3 L 1017.6 320.3 L 1010.6 293.9 L 1024.3 270.0 L 1024.0 283.7 L 1005.2 294.7 L 1041.8 283.2 L 1051.1 277.9 L 1062.5 268.9 L 815.8 379.1 L 805.4 368.4 L 842.2 368.6 L 769.0 323.1 L 689.1 303.8 L 632.2 285.3 L 570.9 318.5 L 541.0 337.1 L 573.8 337.5 L 595.8 391.5 L 782.4 347.1 L 991.4 282.0 L 1084.2 234.7 L 1362.0 254.0 L 1467.0 254.5 L 1464.9 179.4 L 1405.1 178.2 L 1310.2 145.2 L 1378.6 139.8 L 1386.1 150.1 L 1290.2 118.1 L 697.9 337.7 L 780.0 294.5 L 910.5 256.0 L 877.5 308.0 L 792.4 363.6" fill="none" stroke="#2563eb" stroke-width="2" stroke-opacity="0.35" />
<circle cx="1184.4" cy="704.6" r="9" fill="#2563eb" fill-opacity="0.82" stroke="#fff" stroke-width="2" />
<text x="1184.4" y="708.6" font-family="Arial, Helvetica, sans-serif" font-size="8" font-weight="700" fill="#fff" text-anchor="middle">1</text>
<circle cx="665.1" cy="317.8" r="9" fill="#2d60e2" fill-opacity="0.82" stroke="#fff" stroke-width="2" />
<text x="665.1" y="321.8" font-family="Arial, Helvetica, sans-serif" font-size="8" font-weight="700" fill="#fff" text-anchor="middle">2</text>
<circle cx="685.8" cy="362.4" r="9" fill="#355eda" fill-opacity="0.82" stroke="#fff" stroke-width="2" />
<text x="685.8" y="366.4" font-family="Arial, Helvetica, sans-serif" font-size="8" font-weight="700" fill="#fff" text-anchor="middle">3</text>
<circle cx="490.0" cy="242.3" r="9" fill="#3d5bd1" fill-opacity="0.82" stroke="#fff" stroke-width="2" />
<text x="490.0" y="246.3" font-family="Arial, Helvetica, sans-serif" font-size="8" font-weight="700" fill="#fff" text-anchor="middle">4</text>
<circle cx="671.4" cy="239.6" r="9" fill="#4558c9" fill-opacity="0.82" stroke="#fff" stroke-width="2" />
<text x="671.4" y="243.6" font-family="Arial, Helvetica, sans-serif" font-size="8" font-weight="700" fill="#fff" text-anchor="middle">5</text>
<circle cx="770.0" cy="212.2" r="9" fill="#4d56c0" fill-opacity="0.82" stroke="#fff" stroke-width="2" />
<text x="770.0" y="216.2" font-family="Arial, Helvetica, sans-serif" font-size="8" font-weight="700" fill="#fff" text-anchor="middle">6</text>
<circle cx="893.2" cy="286.3" r="9" fill="#5553b8" fill-opacity="0.82" stroke="#fff" stroke-width="2" />
<text x="893.2" y="290.3" font-family="Arial, Helvetica, sans-serif" font-size="8" font-weight="700" fill="#fff" text-anchor="middle">7</text>
<circle cx="965.1" cy="232.6" r="9" fill="#5d50af" fill-opacity="0.82" stroke="#fff" stroke-width="2" />
<text x="965.1" y="236.6" font-family="Arial, Helvetica, sans-serif" font-size="8" font-weight="700" fill="#fff" text-anchor="middle">8</text>
<circle cx="547.9" cy="361.2" r="9" fill="#654ea6" fill-opacity="0.82" stroke="#fff" stroke-width="2" />
<text x="547.9" y="365.2" font-family="Arial, Helvetica, sans-serif" font-size="8" font-weight="700" fill="#fff" text-anchor="middle">9</text>
<circle cx="515.7" cy="304.1" r="9" fill="#6d4b9e" fill-opacity="0.82" stroke="#fff" stroke-width="2" />
<text x="515.7" y="308.1" font-family="Arial, Helvetica, sans-serif" font-size="8" font-weight="700" fill="#fff" text-anchor="middle">10</text>
<circle cx="495.4" cy="276.4" r="9" fill="#754895" fill-opacity="0.82" stroke="#fff" stroke-width="2" />
<text x="495.4" y="280.4" font-family="Arial, Helvetica, sans-serif" font-size="8" font-weight="700" fill="#fff" text-anchor="middle">11</text>
<circle cx="660.3" cy="311.3" r="9" fill="#7d468d" fill-opacity="0.82" stroke="#fff" stroke-width="2" />
<text x="660.3" y="315.3" font-family="Arial, Helvetica, sans-serif" font-size="8" font-weight="700" fill="#fff" text-anchor="middle">12</text>
<circle cx="654.6" cy="277.9" r="9" fill="#844384" fill-opacity="0.82" stroke="#fff" stroke-width="2" />
<text x="654.6" y="281.9" font-family="Arial, Helvetica, sans-serif" font-size="8" font-weight="700" fill="#fff" text-anchor="middle">13</text>
<circle cx="785.5" cy="263.7" r="9" fill="#8c417c" fill-opacity="0.82" stroke="#fff" stroke-width="2" />
<text x="785.5" y="267.7" font-family="Arial, Helvetica, sans-serif" font-size="8" font-weight="700" fill="#fff" text-anchor="middle">14</text>
<circle cx="833.3" cy="362.5" r="9" fill="#943e73" fill-opacity="0.82" stroke="#fff" stroke-width="2" />
<text x="833.3" y="366.5" font-family="Arial, Helvetica, sans-serif" font-size="8" font-weight="700" fill="#fff" text-anchor="middle">15</text>
<circle cx="941.6" cy="247.1" r="9" fill="#9c3b6b" fill-opacity="0.82" stroke="#fff" stroke-width="2" />
<text x="941.6" y="251.1" font-family="Arial, Helvetica, sans-serif" font-size="8" font-weight="700" fill="#fff" text-anchor="middle">16</text>
<circle cx="817.4" cy="346.2" r="9" fill="#a43962" fill-opacity="0.82" stroke="#fff" stroke-width="2" />
<text x="817.4" y="350.2" font-family="Arial, Helvetica, sans-serif" font-size="8" font-weight="700" fill="#fff" text-anchor="middle">17</text>
<circle cx="635.5" cy="349.7" r="9" fill="#ac3659" fill-opacity="0.82" stroke="#fff" stroke-width="2" />
<text x="635.5" y="353.7" font-family="Arial, Helvetica, sans-serif" font-size="8" font-weight="700" fill="#fff" text-anchor="middle">18</text>
<circle cx="649.3" cy="305.7" r="9" fill="#b43351" fill-opacity="0.82" stroke="#fff" stroke-width="2" />
<text x="649.3" y="309.7" font-family="Arial, Helvetica, sans-serif" font-size="8" font-weight="700" fill="#fff" text-anchor="middle">19</text>
<circle cx="709.2" cy="321.9" r="9" fill="#bc3148" fill-opacity="0.82" stroke="#fff" stroke-width="2" />
<text x="709.2" y="325.9" font-family="Arial, Helvetica, sans-serif" font-size="8" font-weight="700" fill="#fff" text-anchor="middle">20</text>
<circle cx="863.4" cy="300.1" r="9" fill="#c42e40" fill-opacity="0.82" stroke="#fff" stroke-width="2" />
<text x="863.4" y="304.1" font-family="Arial, Helvetica, sans-serif" font-size="8" font-weight="700" fill="#fff" text-anchor="middle">21</text>
<circle cx="922.1" cy="362.6" r="9" fill="#cc2b37" fill-opacity="0.82" stroke="#fff" stroke-width="2" />
<text x="922.1" y="366.6" font-family="Arial, Helvetica, sans-serif" font-size="8" font-weight="700" fill="#fff" text-anchor="middle">22</text>
<circle cx="581.1" cy="288.8" r="9" fill="#d4292f" fill-opacity="0.82" stroke="#fff" stroke-width="2" />
<text x="581.1" y="292.8" font-family="Arial, Helvetica, sans-serif" font-size="8" font-weight="700" fill="#fff" text-anchor="middle">23</text>
<circle cx="792.4" cy="363.6" r="9" fill="#dc2626" fill-opacity="0.82" stroke="#fff" stroke-width="2" />
<text x="792.4" y="367.6" font-family="Arial, Helvetica, sans-serif" font-size="8" font-weight="700" fill="#fff" text-anchor="middle">24</text>
<circle cx="1184.4" cy="704.6" r="13" fill="none" stroke="#16a34a" stroke-width="4" />
<text x="1200.4" y="692.6" font-family="Arial, Helvetica, sans-serif" font-size="11" font-weight="700" fill="#166534" text-anchor="start">START</text>
<circle cx="792.4" cy="363.6" r="13" fill="none" stroke="#dc2626" stroke-width="4" />
<text x="808.4" y="351.6" font-family="Arial, Helvetica, sans-serif" font-size="11" font-weight="700" fill="#991b1b" text-anchor="start">END</text>
<rect x="20.0" y="116.0" width="760.0" height="34.0" rx="6" fill="#ffffff" stroke="#cbd2d9" opacity="0.88" />
<text x="34.0" y="139.0" font-family="Arial, Helvetica, sans-serif" font-size="14" font-weight="400" fill="#1f2933" text-anchor="start">samples=1496 duration=29.8s offscreen=0.0% x_sd=211.5 y_sd=95.9</text>
</svg>