<svg xmlns="http://www.w3.org/2000/svg" viewBox="0 0 1600 865" width="1600" height="865">
<rect x="0.0" y="0.0" width="1600.0" height="865.0" rx="0" fill="#f6f7f9" stroke="none" opacity="1" />
<text x="250.0" y="52.0" font-family="Arial, Helvetica, sans-serif" font-size="24" font-weight="700" fill="#1f2933" text-anchor="start">Reading Gaze Pilot</text>
<text x="250.0" y="78.0" font-family="Arial, Helvetica, sans-serif" font-size="14" font-weight="400" fill="#52606d" text-anchor="start">Probe</text>
<line x1="250.0" y1="100" x2="1350.0" y2="100" stroke="#d9dee7" />
<rect x="1160.0" y="42.0" width="80.0" height="34.0" rx="6" fill="#23395d" stroke="#23395d" opacity="1" />
<text x="1200.0" y="63.0" font-family="Arial, Helvetica, sans-serif" font-size="14" font-weight="400" fill="#fff" text-anchor="middle">Start</text>
<rect x="1250.0" y="42.0" width="100.0" height="34.0" rx="6" fill="#7b8794" stroke="#7b8794" opacity="0.45" />
<text x="1300.0" y="63.0" font-family="Arial, Helvetica, sans-serif" font-size="14" font-weight="400" fill="#fff" text-anchor="middle">Export CSV</text>
<text x="250.0" y="847.0" font-family="Arial, Helvetica, sans-serif" font-size="13" font-weight="400" fill="#52606d" text-anchor="start">probe / probe_trial_3</text>
<rect x="250.0" y="124.0" width="1100.0" height="683.0" rx="8" fill="#fff" stroke="#d9dee7" opacity="1" />
<text x="274.0" y="166.0" font-family="Arial, Helvetica, sans-serif" font-size="20" font-weight="700" fill="#1f2933" text-anchor="start">Quick Check</text>
<text x="274.0" y="210.0" font-family="Arial, Helvetica, sans-serif" font-size="14" font-weight="400" fill="#323f4b" text-anchor="start">Just before this screen, were you thinking about something unrelated to the</text>
<text x="274.0" y="232.0" font-family="Arial, Helvetica, sans-serif" font-size="14" font-weight="400" fill="#323f4b" text-anchor="start">reading?</text>
<rect x="274.0" y="258.0" width="360.0" height="34.0" rx="6" fill="#fff" stroke="#cbd2d9" opacity="1" />
<text x="286.0" y="280.0" font-family="Arial, Helvetica, sans-serif" font-size="14" font-weight="400" fill="#52606d" text-anchor="start">No / Yes</text>
<text x="274.0" y="334.0" font-family="Arial, Helvetica, sans-serif" font-size="14" font-weight="400" fill="#323f4b" text-anchor="start">Difficulty</text>
<line x1="274.0" y1="362.0" x2="634.0" y2="362.0" stroke="#9aa5b1" stroke-width="5" stroke-linecap="round" />
<text x="274.0" y="410.0" font-family="Arial, Helvetica, sans-serif" font-size="14" font-weight="400" fill="#323f4b" text-anchor="start">Familiarity</text>
<line x1="274.0" y1="438.0" x2="634.0" y2="438.0" stroke="#9aa5b1" stroke-width="5" stroke-linecap="round" />
<path d="M 858.3 306.5 L 935.6 274.6 L 1024.8 221.3 L 1056.7 182.6 L 1084.4 150.6 L 1137.5 118.8 L 1182.1 93.6 L 1219.9 74.5 L 1214.9 71.4 L 1249.0 60.4 L 1261.0 59.2 L 1290.4 60.3 L 1251.3 80.5 L 1225.3 110.5 L 1202.0 136.8 L 1181.6 159.2 L 1112.8 177.7 L 1038.3 231.8 L 967.8 257.4 L 817.6 289.4 L 704.7 328.6 L 667.9 324.2 L 643.6 316.2 L 537.9 333.3 L 453.6 346.2 L 478.5 336.6 L 598.2 310.0 L 690.5 281.2 L 668.8 272.9 L 682.1 259.6 L 615.8 259.2 L 662.1 230.7 L 707.0 201.0 L 753.8 196.7 L 734.7 181.5 L 735.0 159.2 L 734.7 141.4 L 726.4 129.5 L 732.8 129.1 L 750.6 121.0 L 722.8 125.4 L 692.1 126.0 L 649.8 145.0 L 640.6 157.5 L 614.5 164.8 L 602.1 174.9 L 580.2 202.4 L 563.0 225.5 L 586.6 226.4 L 623.4 224.6 L 550.5 236.2 L 437.7 264.2 L 336.9 286.5 L 360.6 272.3 L 360.2 269.2 L 423.6 240.8 L 455.0 231.1 L 482.9 222.8 L 475.2 215.8 L 469.0 216.6 L 441.9 215.2 L 400.2 230.2 L 365.4 243.1 L 325.9 252.5 L 321.9 258.6 L 384.7 254.0 L 380.8 256.5 L 425.1 244.2 L 485.7 228.1 L 534.8 216.6 L 575.2 207.0 L 607.6 199.2 L 575.5 215.4 L 579.1 223.9 L 580.6 231.4 L 560.4 240.6 L 541.9 248.4 L 459.0 259.7 L 473.6 240.4 L 468.0 237.4 L 452.8 228.3 L 440.6 220.5 L 423.7 216.6 L 408.7 214.1 L 370.2 232.7 L 357.4 238.8 L 348.2 255.9 L 352.7 264.0 L 349.4 277.6 L 370.4 278.4 L 371.0 291.5 L 375.4 282.1 L 371.1 284.8 L 361.6 287.6 L 354.0 289.6 L 320.5 294.5 L 292.5 298.4 L 288.3 299.7 L 286.1 300.3 L 307.4 299.0 L 341.2 297.0 L 385.6 299.5 L 398.7 310.3 L 403.2 332.7 L 421.5 332.3 L 430.4 337.5 L 420.5 361.8 L 411.0 381.9 L 406.6 393.1 L 401.9 401.8 L 367.1 410.1 L 337.2 416.1 L 319.9 401.6 L 281.4 408.4 L 303.1 378.2 L 312.1 358.7 L 331.7 340.5 L 349.0 325.4 L 361.8 321.2 L 390.6 302.1 L 414.8 286.6 L 419.9 270.2 L 423.3 257.3 L 459.2 249.5 L 488.8 244.1 L 485.9 235.2 L 456.1 243.3 L 429.5 251.3 L 405.7 258.9 L 385.3 265.8 L 345.3 276.7 L 306.9 289.0 L 289.1 299.6 L 279.3 308.1 L 272.7 315.0 L 268.7 320.3 L 247.2 329.5 L 290.4 308.1 L 313.2 292.9 L 363.7 283.4 L 406.7 275.6 L 411.1 275.9 L 413.4 276.6 L 439.0 275.9 L 451.7 275.5 L 461.2 275.4 L 454.8 288.9 L 455.9 294.5 L 455.7 299.2 L 404.5 321.8 L 360.2 340.8 L 322.8 333.1 L 328.5 338.9 L 326.7 319.9 L 340.7 297.4 L 374.6 288.4 L 405.7 267.6 L 407.6 255.5 L 414.1 240.4 L 419.0 228.3 L 447.0 209.0 L 433.9 226.0 L 413.7 246.3 L 395.9 264.3 L 378.3 282.4 L 371.1 291.9 L 365.4 299.7 L 361.1 305.8 L 344.3 315.6 L 330.6 320.0 L 319.6 323.1 L 307.5 322.2 L 290.0 320.1 L 276.0 317.8 L 255.6 312.4 L 332.1 309.3 L 338.8 310.7 L 325.3 323.6 L 313.5 334.5 L 294.6 346.9 L 288.2 355.2 L 283.3 361.6 L 283.1 365.4 L 283.4 368.0 L 284.1 369.6 L 271.5 375.9 L 278.7 375.0 L 294.1 371.1 L 296.3 373.3 L 300.2 343.0 L 335.7 330.3 L 358.4 320.0 L 397.7 314.8 L 430.2 311.0 L 437.4 307.2 L 441.7 304.5 L 452.4 300.7 L 459.9 297.9 L 434.9 282.4 L 412.2 269.6 L 411.3 278.1 L 410.3 286.0 L 395.4 300.2 L 399.1 287.1 L 401.8 276.6 L 409.7 264.6 L 423.5 255.2 L 435.4 248.1 L 419.9 243.4 L 406.4 240.0 L 394.1 241.9 L 376.0 248.1 L 343.3 259.6 L 320.8 269.6 L 302.6 278.1 L 288.5 285.3 L 305.0 284.0 L 271.6 307.8 L 273.1 322.9 L 305.2 313.5 L 305.4 330.6 L 331.4 344.1 L 353.8 354.9 L 377.1 350.9 L 391.7 342.7 L 439.7 314.3 L 488.2 286.1 L 527.7 262.2 L 570.5 238.3 L 604.2 218.8 L 625.9 206.8 L 616.1 204.5 L 592.1 224.5 L 569.4 242.6 L 544.8 249.8 L 543.5 261.9 L 541.9 272.3 L 555.2 273.1 L 512.4 302.3 L 456.2 308.8 L 445.1 322.2 L 434.1 333.7 L 427.9 341.3 L 411.6 348.7 L 372.7 338.7 L 388.5 342.6 L 403.7 345.4 L 400.8 347.7 L 399.1 349.1 L 431.4 343.8 L 459.4 338.9 L 493.1 336.0 L 521.9 335.8 L 545.3 335.5 L 549.2 335.1 L 553.4 333.3 L 573.7 326.9 L 520.9 323.1 L 475.9 297.4 L 437.4 275.8 L 415.1 263.2 L 388.4 261.9 L 366.9 261.8 L 350.3 262.5 L 378.7 256.2 L 388.6 255.1 L 433.2 255.6 L 475.1 251.5 L 510.4 248.5 L 511.8 253.1 L 511.7 257.5 L 521.9 258.7 L 529.6 255.1 L 535.2 252.2 L 530.6 248.5 L 525.7 245.6 L 514.5 249.9 L 504.6 253.8 L 510.2 249.9 L 515.0 246.7 L 511.0 255.8 L 507.5 263.6 L 491.6 276.3 L 478.0 286.9 L 479.5 286.2 L 489.6 291.6 L 498.3 295.8 L 510.8 300.3 L 513.0 298.7 L 515.7 295.3 L 515.6 296.0 L 516.6 294.8 L 517.8 293.8 L 473.5 301.0 L 435.7 306.9 L 408.6 316.9 L 386.8 325.2 L 369.6 331.8 L 349.5 336.4 L 333.0 339.0 L 320.7 340.7 L 302.6 343.7 L 288.9 345.8 L 276.0 349.6 L 266.9 352.3 L 260.5 356.1 L 258.4 353.5 L 267.0 336.1 L 248.1 346.3 L 236.9 343.6 L 216.9 356.5 L 201.1 367.3 L 198.3 377.3 L 231.9 361.8 L 281.0 350.0 L 323.2 339.7 L 375.4 330.3 L 382.3 338.9 L 363.6 338.0 L 360.1 327.2 L 371.3 330.6 L 356.1 330.8 L 350.9 340.5 L 344.4 337.1 L 338.5 334.2 L 392.4 333.1 L 438.2 332.3 L 492.2 326.6 L 527.0 322.2 L 554.3 318.6 L 575.0 315.8 L 569.1 322.5 L 561.5 328.5 L 510.6 315.1 L 489.3 335.4 L 470.6 352.8 L 458.6 360.2 L 459.4 348.2 L 428.5 326.5 L 391.6 312.6 L 361.1 300.9 L 333.2 296.4 L 293.2 297.0 L 313.1 299.3 L 314.7 311.2 L 342.8 310.1 L 357.5 316.6 L 370.6 322.1 L 361.7 313.2 L 354.1 305.6 L 400.7 326.6 L 405.5 346.6 L 409.0 363.5 L 414.3 367.1 L 430.9 358.8 L 444.4 351.0 L 458.6 346.2 L 463.0 344.4 L 465.8 342.6 L 438.4 350.8 L 424.9 358.2 L 436.9 360.9 L 437.8 358.3 L 438.4 355.8 L 445.2 349.8 L 450.9 344.6 L 412.6 326.8 L 407.5 334.6 L 392.3 317.7 L 372.9 308.6 L 394.1 298.9 L 452.1 268.7 L 460.2 261.4 L 503.8 244.2 L 458.0 284.5 L 424.0 315.5 L 394.8 342.1 L 398.7 353.4 L 413.5 362.4 L 436.3 373.9 L 439.1 378.7 L 418.6 383.0 L 400.9 385.8 L 444.1 378.7 L 486.0 369.4 L 521.2 361.0 L 531.6 348.9 L 542.9 335.1 L 551.0 323.6 L 582.2 306.0 L 607.5 291.6 L 601.6 279.2 L 594.8 269.6 L 576.3 269.7 L 556.3 273.6 L 537.1 274.5 L 520.6 276.0 L 500.4 296.9 L 495.5 311.6 L 449.9 315.7 L 450.7 322.7 L 450.2 322.5 L 469.4 322.3 L 437.5 340.9 L 413.8 353.9 L 394.6 364.3 L 395.4 371.0 L 381.8 378.8 L 368.5 393.6 L 358.3 405.4 L 366.7 403.8 L 375.7 396.0 L 384.6 387.5 L 371.6 409.9 L 345.9 425.1 L 324.7 437.5 L 307.7 446.9 L 257.8 457.4 L 258.0 472.5 L 270.7 472.6 L 283.1 471.7" fill="none" stroke="#2563eb" stroke-width="2" stroke-opacity="0.35" />
<circle cx="858.3" cy="306.5" r="9" fill="#2563eb" fill-opacity="0.82" stroke="#fff" stroke-width="2" />
<text x="858.3" y="310.5" font-family="Arial, Helvetica, sans-serif" font-size="8" font-weight="700" fill="#fff" text-anchor="middle">1</text>
<circle cx="967.8" cy="257.4" r="9" fill="#2d60e2" fill-opacity="0.82" stroke="#fff" stroke-width="2" />
<text x="967.8" y="261.4" font-family="Arial, Helvetica, sans-serif" font-size="8" font-weight="700" fill="#fff" text-anchor="middle">2</text>
<circle cx="726.4" cy="129.5" r="9" fill="#355eda" fill-opacity="0.82" stroke="#fff" stroke-width="2" />
<text x="726.4" y="133.5" font-family="Arial, Helvetica, sans-serif" font-size="8" font-weight="700" fill="#fff" text-anchor="middle">3</text>
<circle cx="423.6" cy="240.8" r="9" fill="#3d5bd1" fill-opacity="0.82" stroke="#fff" stroke-width="2" />
<text x="423.6" y="244.8" font-family="Arial, Helvetica, sans-serif" font-size="8" font-weight="700" fill="#fff" text-anchor="middle">4</text>
<circle cx="579.1" cy="223.9" r="9" fill="#4558c9" fill-opacity="0.82" stroke="#fff" stroke-width="2" />
<text x="579.1" y="227.9" font-family="Arial, Helvetica, sans-serif" font-size="8" font-weight="700" fill="#fff" text-anchor="middle">5</text>
<circle cx="375.4" cy="282.1" r="9" fill="#4d56c0" fill-opacity="0.82" stroke="#fff" stroke-width="2" />
<text x="375.4" y="286.1" font-family="Arial, Helvetica, sans-serif" font-size="8" font-weight="700" fill="#fff" text-anchor="middle">6</text>
<circle cx="367.1" cy="410.1" r="9" fill="#5553b8" fill-opacity="0.82" stroke="#fff" stroke-width="2" />
<text x="367.1" y="414.1" font-family="Arial, Helvetica, sans-serif" font-size="8" font-weight="700" fill="#fff" text-anchor="middle">7</text>
<circle cx="405.7" cy="258.9" r="9" fill="#5d50af" fill-opacity="0.82" stroke="#fff" stroke-width="2" />
<text x="405.7" y="262.9" font-family="Arial, Helvetica, sans-serif" font-size="8" font-weight="700" fill="#fff" text-anchor="middle">8</text>
<circle cx="454.8" cy="288.9" r="9" fill="#654ea6" fill-opacity="0.82" stroke="#fff" stroke-width="2" />
<text x="454.8" y="292.9" font-family="Arial, Helvetica, sans-serif" font-size="8" font-weight="700" fill="#fff" text-anchor="middle">9</text>
<circle cx="378.3" cy="282.4" r="9" fill="#6d4b9e" fill-opacity="0.82" stroke="#fff" stroke-width="2" />
<text x="378.3" y="286.4" font-family="Arial, Helvetica, sans-serif" font-size="8" font-weight="700" fill="#fff" text-anchor="middle">10</text>
<circle cx="283.4" cy="368.0" r="9" fill="#754895" fill-opacity="0.82" stroke="#fff" stroke-width="2" />
<text x="283.4" y="372.0" font-family="Arial, Helvetica, sans-serif" font-size="8" font-weight="700" fill="#fff" text-anchor="middle">11</text>
<circle cx="410.3" cy="286.0" r="9" fill="#7d468d" fill-opacity="0.82" stroke="#fff" stroke-width="2" />
<text x="410.3" y="290.0" font-family="Arial, Helvetica, sans-serif" font-size="8" font-weight="700" fill="#fff" text-anchor="middle">12</text>
<circle cx="305.2" cy="313.5" r="9" fill="#844384" fill-opacity="0.82" stroke="#fff" stroke-width="2" />
<text x="305.2" y="317.5" font-family="Arial, Helvetica, sans-serif" font-size="8" font-weight="700" fill="#fff" text-anchor="middle">13</text>
<circle cx="555.2" cy="273.1" r="9" fill="#8c417c" fill-opacity="0.82" stroke="#fff" stroke-width="2" />
<text x="555.2" y="277.1" font-family="Arial, Helvetica, sans-serif" font-size="8" font-weight="700" fill="#fff" text-anchor="middle">14</text>
<circle cx="573.7" cy="326.9" r="9" fill="#943e73" fill-opacity="0.82" stroke="#fff" stroke-width="2" />
<text x="573.7" y="330.9" font-family="Arial, Helvetica, sans-serif" font-size="8" font-weight="700" fill="#fff" text-anchor="middle">15</text>
<circle cx="530.6" cy="248.5" r="9" fill="#9c3b6b" fill-opacity="0.82" stroke="#fff" stroke-width="2" />
<text x="530.6" y="252.5" font-family="Arial, Helvetica, sans-serif" font-size="8" font-weight="700" fill="#fff" text-anchor="middle">16</text>
<circle cx="517.8" cy="293.8" r="9" fill="#a43962" fill-opacity="0.82" stroke="#fff" stroke-width="2" />
<text x="517.8" y="297.8" font-family="Arial, Helvetica, sans-serif" font-size="8" font-weight="700" fill="#fff" text-anchor="middle">17</text>
<circle cx="216.9" cy="356.5" r="9" fill="#ac3659" fill-opacity="0.82" stroke="#fff" stroke-width="2" />
<text x="216.9" y="360.5" font-family="Arial, Helvetica, sans-serif" font-size="8" font-weight="700" fill="#fff" text-anchor="middle">18</text>
<circle cx="554.3" cy="318.6" r="9" fill="#b43351" fill-opacity="0.82" stroke="#fff" stroke-width="2" />
<text x="554.3" y="322.6" font-family="Arial, Helvetica, sans-serif" font-size="8" font-weight="700" fill="#fff" text-anchor="middle">19</text>
<circle cx="370.6" cy="322.1" r="9" fill="#bc3148" fill-opacity="0.82" stroke="#fff" stroke-width="2" />
<text x="370.6" y="326.1" font-family="Arial, Helvetica, sans-serif" font-size="8" font-weight="700" fill="#fff" text-anchor="middle">20</text>
<circle cx="450.9" cy="344.6" r="9" fill="#c42e40" fill-opacity="0.82" stroke="#fff" stroke-width="2" />
<text x="450.9" y="348.6" font-family="Arial, Helvetica, sans-serif" font-size="8" font-weight="700" fill="#fff" text-anchor="middle">21</text>
<circle cx="444.1" cy="378.7" r="9" fill="#cc2b37" fill-opacity="0.82" stroke="#fff" stroke-width="2" />
<text x="444.1" y="382.7" font-family="Arial, Helvetica, sans-serif" font-size="8" font-weight="700" fill="#fff" text-anchor="middle">22</text>
<circle cx="469.4" cy="322.3" r="9" fill="#d4292f" fill-opacity="0.82" stroke="#fff" stroke-width="2" />
<text x="469.4" y="326.3" font-family="Arial, Helvetica, sans-serif" font-size="8" font-weight="700" fill="#fff" text-anchor="middle">23</text>
<circle cx="283.1" cy="471.7" r="9" fill="#dc2626" fill-opacity="0.82" stroke="#fff" stroke-width="2" />
<text x="283.1" y="475.7" font-family="Arial, Helvetica, sans-serif" font-size="8" font-weight="700" fill="#fff" text-anchor="middle">24</text>
<circle cx="858.3" cy="306.5" r="13" fill="none" stroke="#16a34a" stroke-width="4" />
<text x="874.3" y="294.5" font-family="Arial, Helvetica, sans-serif" font-size="11" font-weight="700" fill="#166534" text-anchor="start">START</text>
<circle cx="283.1" cy="471.7" r="13" fill="none" stroke="#dc2626" stroke-width="4" />
<text x="299.1" y="459.7" font-family="Arial, Helvetica, sans-serif" font-size="11" font-weight="700" fill="#991b1b" text-anchor="start">END</text>
<rect x="20.0" y="116.0" width="760.0" height="34.0" rx="6" fill="#ffffff" stroke="#cbd2d9" opacity="0.88" />
<text x="34.0" y="139.0" font-family="Arial, Helvetica, sans-serif" font-size="14" font-weight="400" fill="#1f2933" text-anchor="start">samples=421 duration=8.2s offscreen=0.0% x_sd=182.7 y_sd=66.2</text>
</svg>